<?xml version="1.0" encoding="UTF-8" standalone="no"?><svg xmlns="http://www.w3.org/2000/svg" xmlns:xlink="http://www.w3.org/1999/xlink" contentScriptType="application/ecmascript" contentStyleType="text/css" height="198px" preserveAspectRatio="none" style="width:963px;height:198px;" version="1.1" viewBox="0 0 963 198" width="963px" zoomAndPan="magnify"><defs><filter height="300%" id="f6of2zjkaok78" width="300%" x="-1" y="-1"><feGaussianBlur result="blurOut" stdDeviation="2.0"/><feColorMatrix in="blurOut" result="blurOut2" type="matrix" values="0 0 0 0 0 0 0 0 0 0 0 0 0 0 0 0 0 0 .4 0"/><feOffset dx="4.0" dy="4.0" in="blurOut2" result="blurOut3"/><feBlend in="SourceGraphic" in2="blurOut3" mode="normal"/></filter></defs><g><!--MD5=[99b8db98afdc2c8404e39242ef4c1e65]
class Platform--><rect fill="#FEFECE" filter="url(#f6of2zjkaok78)" height="53.8359" id="Platform" style="stroke: #A80036; stroke-width: 1.5;" width="78" x="6" y="22.5"/><ellipse cx="21" cy="38.5" fill="#ADD1B2" rx="11" ry="11" style="stroke: #A80036; stroke-width: 1.0;"/><path d="M23,35 Q23.2031,34.5 23.4375,34.25 Q23.6719,34 23.9375,34 Q24.4063,34 24.7031,34.2813 Q25,34.5625 25,35.2188 L25,36.7813 Q25,37.4375 24.7188,37.7188 Q24.4375,38 24,38 Q23.6094,38 23.3594,37.8281 Q23.1094,37.6563 23,37.2031 Q22.9531,36.8906 22.7813,36.7188 Q22.4688,36.3906 21.9063,36.2031 Q21.3438,36 20.7813,36 Q20.0781,36 19.4844,36.2813 Q18.9063,36.5625 18.4531,37.1875 Q18,37.8125 18,38.6719 L18,39.5938 Q18,40.625 18.8438,41.3125 Q19.6875,42 21.1875,42 Q22.0781,42 22.7031,41.7969 Q23.0625,41.6875 23.4688,41.3281 Q23.7344,41.125 23.875,41.0625 Q24.0156,41 24.1875,41 Q24.5156,41 24.75,41.2656 Q25,41.5156 25,41.875 Q25,42.2188 24.6563,42.625 Q24.1563,43.2188 23.3594,43.5469 Q22.3125,44 21.0313,44 Q19.5313,44 18.3281,43.4063 Q17.3594,42.9375 16.6719,41.9219 Q16,40.9063 16,39.7031 L16,38.6094 Q16,37.3594 16.5938,36.2656 Q17.2031,35.1719 18.25,34.5938 Q19.3125,34 20.5,34 Q21.2188,34 21.8438,34.25 Q22.4688,34.5 23,35 Z "/><text fill="#000000" font-family="sans-serif" font-size="12" lengthAdjust="spacingAndGlyphs" textLength="46" x="35" y="43.4102">Platform</text><line style="stroke: #A80036; stroke-width: 1.5;" x1="7" x2="83" y1="54.5" y2="54.5"/><text fill="#000000" font-family="sans-serif" font-size="11" lengthAdjust="spacingAndGlyphs" textLength="61" x="12" y="69.9189">-String desig</text><!--MD5=[86c7c362de55a38b660185a1328fe18d]
class Organization--><rect fill="#FEFECE" filter="url(#f6of2zjkaok78)" height="67.6719" id="Organization" style="stroke: #A80036; stroke-width: 1.5;" width="101" x="180" y="15.5"/><ellipse cx="195" cy="31.5" fill="#ADD1B2" rx="11" ry="11" style="stroke: #A80036; stroke-width: 1.0;"/><path d="M197,28 Q197.2031,27.5 197.4375,27.25 Q197.6719,27 197.9375,27 Q198.4063,27 198.7031,27.2813 Q199,27.5625 199,28.2188 L199,29.7813 Q199,30.4375 198.7188,30.7188 Q198.4375,31 198,31 Q197.6094,31 197.3594,30.8281 Q197.1094,30.6563 197,30.2031 Q196.9531,29.8906 196.7813,29.7188 Q196.4688,29.3906 195.9063,29.2031 Q195.3438,29 194.7813,29 Q194.0781,29 193.4844,29.2813 Q192.9063,29.5625 192.4531,30.1875 Q192,30.8125 192,31.6719 L192,32.5938 Q192,33.625 192.8438,34.3125 Q193.6875,35 195.1875,35 Q196.0781,35 196.7031,34.7969 Q197.0625,34.6875 197.4688,34.3281 Q197.7344,34.125 197.875,34.0625 Q198.0156,34 198.1875,34 Q198.5156,34 198.75,34.2656 Q199,34.5156 199,34.875 Q199,35.2188 198.6563,35.625 Q198.1563,36.2188 197.3594,36.5469 Q196.3125,37 195.0313,37 Q193.5313,37 192.3281,36.4063 Q191.3594,35.9375 190.6719,34.9219 Q190,33.9063 190,32.7031 L190,31.6094 Q190,30.3594 190.5938,29.2656 Q191.2031,28.1719 192.25,27.5938 Q193.3125,27 194.5,27 Q195.2188,27 195.8438,27.25 Q196.4688,27.5 197,28 Z "/><text fill="#000000" font-family="sans-serif" font-size="12" lengthAdjust="spacingAndGlyphs" textLength="69" x="209" y="36.4102">Organization</text><line style="stroke: #A80036; stroke-width: 1.5;" x1="181" x2="280" y1="47.5" y2="47.5"/><text fill="#000000" font-family="sans-serif" font-size="11" lengthAdjust="spacingAndGlyphs" textLength="79" x="186" y="62.9189">-String nameOrg</text><text fill="#000000" font-family="sans-serif" font-size="11" lengthAdjust="spacingAndGlyphs" textLength="50" x="186" y="76.7549">-String NIF</text><!--MD5=[f483d6e5de34a60207b28a5563be5e8b]
class Collaborator--><rect fill="#FEFECE" filter="url(#f6of2zjkaok78)" height="67.6719" id="Collaborator" style="stroke: #A80036; stroke-width: 1.5;" width="102" x="646" y="15.5"/><ellipse cx="661.9" cy="31.5" fill="#ADD1B2" rx="11" ry="11" style="stroke: #A80036; stroke-width: 1.0;"/><path d="M663.9,28 Q664.1031,27.5 664.3375,27.25 Q664.5719,27 664.8375,27 Q665.3063,27 665.6031,27.2813 Q665.9,27.5625 665.9,28.2188 L665.9,29.7813 Q665.9,30.4375 665.6188,30.7188 Q665.3375,31 664.9,31 Q664.5094,31 664.2594,30.8281 Q664.0094,30.6563 663.9,30.2031 Q663.8531,29.8906 663.6813,29.7188 Q663.3688,29.3906 662.8063,29.2031 Q662.2438,29 661.6813,29 Q660.9781,29 660.3844,29.2813 Q659.8063,29.5625 659.3531,30.1875 Q658.9,30.8125 658.9,31.6719 L658.9,32.5938 Q658.9,33.625 659.7438,34.3125 Q660.5875,35 662.0875,35 Q662.9781,35 663.6031,34.7969 Q663.9625,34.6875 664.3688,34.3281 Q664.6344,34.125 664.775,34.0625 Q664.9156,34 665.0875,34 Q665.4156,34 665.65,34.2656 Q665.9,34.5156 665.9,34.875 Q665.9,35.2188 665.5563,35.625 Q665.0563,36.2188 664.2594,36.5469 Q663.2125,37 661.9313,37 Q660.4313,37 659.2281,36.4063 Q658.2594,35.9375 657.5719,34.9219 Q656.9,33.9063 656.9,32.7031 L656.9,31.6094 Q656.9,30.3594 657.4938,29.2656 Q658.1031,28.1719 659.15,27.5938 Q660.2125,27 661.4,27 Q662.1188,27 662.7438,27.25 Q663.3688,27.5 663.9,28 Z "/><text fill="#000000" font-family="sans-serif" font-size="12" lengthAdjust="spacingAndGlyphs" textLength="68" x="676.1" y="36.4102">Collaborator</text><line style="stroke: #A80036; stroke-width: 1.5;" x1="647" x2="747" y1="47.5" y2="47.5"/><text fill="#000000" font-family="sans-serif" font-size="11" lengthAdjust="spacingAndGlyphs" textLength="90" x="652" y="62.9189">-String nameCollab</text><text fill="#000000" font-family="sans-serif" font-size="11" lengthAdjust="spacingAndGlyphs" textLength="88" x="652" y="76.7549">-String emailCollab</text><!--MD5=[3fd616f346a44cd59a91eb10b19e157c]
class User--><rect fill="#FEFECE" filter="url(#f6of2zjkaok78)" height="81.5078" id="User" style="stroke: #A80036; stroke-width: 1.5;" width="119" x="833" y="8.5"/><ellipse cx="875" cy="24.5" fill="#ADD1B2" rx="11" ry="11" style="stroke: #A80036; stroke-width: 1.0;"/><path d="M877,21 Q877.2031,20.5 877.4375,20.25 Q877.6719,20 877.9375,20 Q878.4063,20 878.7031,20.2813 Q879,20.5625 879,21.2188 L879,22.7813 Q879,23.4375 878.7188,23.7188 Q878.4375,24 878,24 Q877.6094,24 877.3594,23.8281 Q877.1094,23.6563 877,23.2031 Q876.9531,22.8906 876.7813,22.7188 Q876.4688,22.3906 875.9063,22.2031 Q875.3438,22 874.7813,22 Q874.0781,22 873.4844,22.2813 Q872.9063,22.5625 872.4531,23.1875 Q872,23.8125 872,24.6719 L872,25.5938 Q872,26.625 872.8438,27.3125 Q873.6875,28 875.1875,28 Q876.0781,28 876.7031,27.7969 Q877.0625,27.6875 877.4688,27.3281 Q877.7344,27.125 877.875,27.0625 Q878.0156,27 878.1875,27 Q878.5156,27 878.75,27.2656 Q879,27.5156 879,27.875 Q879,28.2188 878.6563,28.625 Q878.1563,29.2188 877.3594,29.5469 Q876.3125,30 875.0313,30 Q873.5313,30 872.3281,29.4063 Q871.3594,28.9375 870.6719,27.9219 Q870,26.9063 870,25.7031 L870,24.6094 Q870,23.3594 870.5938,22.2656 Q871.2031,21.1719 872.25,20.5938 Q873.3125,20 874.5,20 Q875.2188,20 875.8438,20.25 Q876.4688,20.5 877,21 Z "/><text fill="#000000" font-family="sans-serif" font-size="12" lengthAdjust="spacingAndGlyphs" textLength="27" x="895" y="29.4102">User</text><line style="stroke: #A80036; stroke-width: 1.5;" x1="834" x2="951" y1="40.5" y2="40.5"/><text fill="#000000" font-family="sans-serif" font-size="11" lengthAdjust="spacingAndGlyphs" textLength="84" x="839" y="55.9189">-String userName</text><text fill="#000000" font-family="sans-serif" font-size="11" lengthAdjust="spacingAndGlyphs" textLength="81" x="839" y="69.7549">-String userEmail</text><text fill="#000000" font-family="sans-serif" font-size="11" lengthAdjust="spacingAndGlyphs" textLength="107" x="839" y="83.5908">-String userPassword</text><!--MD5=[b34797a66dc35cbf1d65f7e3ca75530e]
class Task--><rect fill="#FEFECE" filter="url(#f6of2zjkaok78)" height="109.1797" id="Task" style="stroke: #A80036; stroke-width: 1.5;" width="133" x="377" y="78"/><ellipse cx="425.75" cy="94" fill="#ADD1B2" rx="11" ry="11" style="stroke: #A80036; stroke-width: 1.0;"/><path d="M427.75,90.5 Q427.9531,90 428.1875,89.75 Q428.4219,89.5 428.6875,89.5 Q429.1563,89.5 429.4531,89.7813 Q429.75,90.0625 429.75,90.7188 L429.75,92.2813 Q429.75,92.9375 429.4688,93.2188 Q429.1875,93.5 428.75,93.5 Q428.3594,93.5 428.1094,93.3281 Q427.8594,93.1563 427.75,92.7031 Q427.7031,92.3906 427.5313,92.2188 Q427.2188,91.8906 426.6563,91.7031 Q426.0938,91.5 425.5313,91.5 Q424.8281,91.5 424.2344,91.7813 Q423.6563,92.0625 423.2031,92.6875 Q422.75,93.3125 422.75,94.1719 L422.75,95.0938 Q422.75,96.125 423.5938,96.8125 Q424.4375,97.5 425.9375,97.5 Q426.8281,97.5 427.4531,97.2969 Q427.8125,97.1875 428.2188,96.8281 Q428.4844,96.625 428.625,96.5625 Q428.7656,96.5 428.9375,96.5 Q429.2656,96.5 429.5,96.7656 Q429.75,97.0156 429.75,97.375 Q429.75,97.7188 429.4063,98.125 Q428.9063,98.7188 428.1094,99.0469 Q427.0625,99.5 425.7813,99.5 Q424.2813,99.5 423.0781,98.9063 Q422.1094,98.4375 421.4219,97.4219 Q420.75,96.4063 420.75,95.2031 L420.75,94.1094 Q420.75,92.8594 421.3438,91.7656 Q421.9531,90.6719 423,90.0938 Q424.0625,89.5 425.25,89.5 Q425.9688,89.5 426.5938,89.75 Q427.2188,90 427.75,90.5 Z "/><text fill="#000000" font-family="sans-serif" font-size="12" lengthAdjust="spacingAndGlyphs" textLength="27" x="446.25" y="98.9102">Task</text><line style="stroke: #A80036; stroke-width: 1.5;" x1="378" x2="509" y1="110" y2="110"/><text fill="#000000" font-family="sans-serif" font-size="11" lengthAdjust="spacingAndGlyphs" textLength="64" x="383" y="125.4189">-String taskID</text><text fill="#000000" font-family="sans-serif" font-size="11" lengthAdjust="spacingAndGlyphs" textLength="84" x="383" y="139.2549">-String taskDescr</text><text fill="#000000" font-family="sans-serif" font-size="11" lengthAdjust="spacingAndGlyphs" textLength="112" x="383" y="153.0908">-Int taskAssignDuration</text><text fill="#000000" font-family="sans-serif" font-size="11" lengthAdjust="spacingAndGlyphs" textLength="121" x="383" y="166.9268">-Double taskCostPerHour</text><text fill="#000000" font-family="sans-serif" font-size="11" lengthAdjust="spacingAndGlyphs" textLength="99" x="383" y="180.7627">-String taskCategory</text><!--MD5=[7640e466c042ba2d6f9c19c816f7f0fc]
link Platform to Organization--><path d="M84.0213,49.5 C110.22,49.5 145.442,49.5 174.667,49.5 " fill="none" id="Platform-&gt;Organization" style="stroke: #A80036; stroke-width: 1.0;"/><polygon fill="#A80036" points="179.676,49.5,170.676,45.5,174.676,49.5,170.676,53.5,179.676,49.5" style="stroke: #A80036; stroke-width: 1.0;"/><text fill="#000000" font-family="sans-serif" font-size="13" lengthAdjust="spacingAndGlyphs" textLength="21" x="115" y="45.9951">has</text><polygon fill="#000000" points="139,39.1758,145,42.1758,139,45.1758,139,39.1758" style="stroke: #000000; stroke-width: 1.0;"/><text fill="#000000" font-family="sans-serif" font-size="13" lengthAdjust="spacingAndGlyphs" textLength="7" x="92.1269" y="64.5693">1</text><text fill="#000000" font-family="sans-serif" font-size="13" lengthAdjust="spacingAndGlyphs" textLength="5" x="166.844" y="64.22">*</text><!--MD5=[45817597bcd7048073a670d966abfd17]
link Organization to Collaborator--><path d="M281.21,49.5 C368.724,49.5 549.653,49.5 640.87,49.5 " fill="none" id="Organization-&gt;Collaborator" style="stroke: #A80036; stroke-width: 1.0;"/><polygon fill="#A80036" points="645.946,49.5,636.946,45.5,640.946,49.5,636.946,53.5,645.946,49.5" style="stroke: #A80036; stroke-width: 1.0;"/><text fill="#000000" font-family="sans-serif" font-size="13" lengthAdjust="spacingAndGlyphs" textLength="21" x="426.5" y="45.9951">has</text><polygon fill="#000000" points="450.5,39.1758,456.5,42.1758,450.5,45.1758,450.5,39.1758" style="stroke: #000000; stroke-width: 1.0;"/><text fill="#000000" font-family="sans-serif" font-size="13" lengthAdjust="spacingAndGlyphs" textLength="7" x="288.8333" y="64.1679">1</text><text fill="#000000" font-family="sans-serif" font-size="13" lengthAdjust="spacingAndGlyphs" textLength="5" x="633.0803" y="64.22">*</text><!--MD5=[04ce0ecdab38a3951889ff50c232570f]
link Collaborator to User--><path d="M748.083,49.5 C772.333,49.5 801.727,49.5 827.575,49.5 " fill="none" id="Collaborator-&gt;User" style="stroke: #A80036; stroke-width: 1.0;"/><polygon fill="#A80036" points="832.695,49.5,823.695,45.5,827.695,49.5,823.695,53.5,832.695,49.5" style="stroke: #A80036; stroke-width: 1.0;"/><text fill="#000000" font-family="sans-serif" font-size="13" lengthAdjust="spacingAndGlyphs" textLength="10" x="779" y="45.9951">is</text><polygon fill="#000000" points="792,39.1758,798,42.1758,792,45.1758,792,39.1758" style="stroke: #000000; stroke-width: 1.0;"/><text fill="#000000" font-family="sans-serif" font-size="13" lengthAdjust="spacingAndGlyphs" textLength="7" x="756.0999" y="64.22">1</text><text fill="#000000" font-family="sans-serif" font-size="13" lengthAdjust="spacingAndGlyphs" textLength="7" x="817.9797" y="64.0215">1</text><!--MD5=[4078351e3988aa35b1504a42837f2ab1]
link Organization to Task--><path d="M281.237,69.065 C308.299,79.71 342.231,93.0577 371.979,104.7595 " fill="none" id="Organization-&gt;Task" style="stroke: #A80036; stroke-width: 1.0;"/><polygon fill="#A80036" points="376.716,106.6227,369.8045,99.6062,372.0629,104.7927,366.8765,107.0511,376.716,106.6227" style="stroke: #A80036; stroke-width: 1.0;"/><text fill="#000000" font-family="sans-serif" font-size="13" lengthAdjust="spacingAndGlyphs" textLength="21" x="312" y="77.9951">has</text><polygon fill="#000000" points="336,71.1758,342,74.1758,336,77.1758,336,71.1758" style="stroke: #000000; stroke-width: 1.0;"/><text fill="#000000" font-family="sans-serif" font-size="13" lengthAdjust="spacingAndGlyphs" textLength="7" x="288.8641" y="86.4842">1</text><text fill="#000000" font-family="sans-serif" font-size="13" lengthAdjust="spacingAndGlyphs" textLength="5" x="364.1381" y="118.1719">*</text><!--MD5=[392f7804293287fa5662caa616132930]
link Task to Collaborator--><path d="M510.25,110.8011 C550.783,97.4245 602.179,80.463 640.627,67.774 " fill="none" id="Task-&gt;Collaborator" style="stroke: #A80036; stroke-width: 1.0;"/><polygon fill="#A80036" points="645.726,66.092,635.9257,65.115,640.978,67.6594,638.4336,72.7117,645.726,66.092" style="stroke: #A80036; stroke-width: 1.0;"/><text fill="#000000" font-family="sans-serif" font-size="13" lengthAdjust="spacingAndGlyphs" textLength="61" x="541" y="72.9951">created by</text><polygon fill="#000000" points="605,66.1758,611,69.1758,605,72.1758,605,66.1758" style="stroke: #000000; stroke-width: 1.0;"/><text fill="#000000" font-family="sans-serif" font-size="13" lengthAdjust="spacingAndGlyphs" textLength="5" x="517.8242" y="122.8073">*</text><text fill="#000000" font-family="sans-serif" font-size="13" lengthAdjust="spacingAndGlyphs" textLength="7" x="631.0234" y="83.0932">1</text><!--MD5=[5496b26840874345c36e7a79fc5439c9]
@startuml
skinparam classAttributeIconSize 0
hide methods
left to right direction

class Platform {
-String desig
}

class Organization {
- String nameOrg
- String NIF
}

class Collaborator {
- String nameCollab
- String emailCollab
}

class User {
  -String userName
  -String userEmail
  -String userPassword
}

class Task{
-String taskID
-String taskDescr
- Int taskAssignDuration
-Double taskCostPerHour
-String taskCategory

}

Platform "1" - -> "*" Organization : has >
Organization "1" - -> "*" Collaborator : has >
Collaborator "1" - -> "1" User : is >
Organization "1" - -> "*" Task : has >
Task "*" - -> "1" Collaborator : created by >



@enduml

PlantUML version 1.2020.07(Sun Apr 19 12:42:40 BST 2020)
(GPL source distribution)
Java Runtime: OpenJDK Runtime Environment
JVM: OpenJDK 64-Bit Server VM
Java Version: 11.0.6+8-b765.40
Operating System: Windows 10
Default Encoding: Cp1252
Language: pt
Country: PT
--></g></svg>