<?xml version="1.0" encoding="UTF-8" standalone="no"?><svg xmlns="http://www.w3.org/2000/svg" xmlns:xlink="http://www.w3.org/1999/xlink" contentScriptType="application/ecmascript" contentStyleType="text/css" height="914px" preserveAspectRatio="none" style="width:808px;height:914px;" version="1.1" viewBox="0 0 808 914" width="808px" zoomAndPan="magnify"><defs><filter height="300%" id="fnz4597j6yi4d" width="300%" x="-1" y="-1"><feGaussianBlur result="blurOut" stdDeviation="2.0"/><feColorMatrix in="blurOut" result="blurOut2" type="matrix" values="0 0 0 0 0 0 0 0 0 0 0 0 0 0 0 0 0 0 .4 0"/><feOffset dx="4.0" dy="4.0" in="blurOut2" result="blurOut3"/><feBlend in="SourceGraphic" in2="blurOut3" mode="normal"/></filter></defs><g><!--MD5=[64e2e010ba86d7988e5cd73bd64f61f9]
cluster ui--><polygon fill="#FFFFFF" filter="url(#fnz4597j6yi4d)" points="387,24,406,24,413,47.6094,537,47.6094,537,124,387,124,387,24" style="stroke: #000000; stroke-width: 1.5;"/><line style="stroke: #000000; stroke-width: 1.5;" x1="387" x2="413" y1="47.6094" y2="47.6094"/><text fill="#000000" font-family="sans-serif" font-size="14" font-weight="bold" lengthAdjust="spacingAndGlyphs" textLength="13" x="391" y="40.5332">ui</text><!--MD5=[10ea673caf457862023e152271927b45]
cluster controller--><polygon fill="#FFFFFF" filter="url(#fnz4597j6yi4d)" points="241,157,316,157,323,180.6094,683,180.6094,683,285,241,285,241,157" style="stroke: #000000; stroke-width: 1.5;"/><line style="stroke: #000000; stroke-width: 1.5;" x1="241" x2="323" y1="180.6094" y2="180.6094"/><text fill="#000000" font-family="sans-serif" font-size="14" font-weight="bold" lengthAdjust="spacingAndGlyphs" textLength="69" x="245" y="173.5332">controller</text><!--MD5=[5d4cd377749310b66bf14896f5cd8d9b]
cluster model--><polygon fill="#FFFFFF" filter="url(#fnz4597j6yi4d)" points="22,318,71,318,78,341.6094,785,341.6094,785,902,22,902,22,318" style="stroke: #000000; stroke-width: 1.5;"/><line style="stroke: #000000; stroke-width: 1.5;" x1="22" x2="78" y1="341.6094" y2="341.6094"/><text fill="#000000" font-family="sans-serif" font-size="14" font-weight="bold" lengthAdjust="spacingAndGlyphs" textLength="43" x="26" y="334.5332">model</text><!--MD5=[7f775bfb84d28e8b3efc1913f21e6985]
cluster RegistryClasses--><polygon fill="#FFFFFF" filter="url(#fnz4597j6yi4d)" points="128,535,247,535,254,558.6094,761,558.6094,761,677,128,677,128,535" style="stroke: #000000; stroke-width: 1.5;"/><line style="stroke: #000000; stroke-width: 1.5;" x1="128" x2="254" y1="558.6094" y2="558.6094"/><text fill="#000000" font-family="sans-serif" font-size="14" font-weight="bold" lengthAdjust="spacingAndGlyphs" textLength="113" x="132" y="551.5332">RegistryClasses</text><!--MD5=[a1b5aa3caa6962e4de7882cbc1533c07]
class TaskCreationUI--><rect fill="#FEFECE" filter="url(#fnz4597j6yi4d)" height="48" id="TaskCreationUI" style="stroke: #A80036; stroke-width: 1.5;" width="118" x="403" y="60"/><ellipse cx="418" cy="76" fill="#ADD1B2" rx="11" ry="11" style="stroke: #A80036; stroke-width: 1.0;"/><path d="M420,72.5 Q420.2031,72 420.4375,71.75 Q420.6719,71.5 420.9375,71.5 Q421.4063,71.5 421.7031,71.7813 Q422,72.0625 422,72.7188 L422,74.2813 Q422,74.9375 421.7188,75.2188 Q421.4375,75.5 421,75.5 Q420.6094,75.5 420.3594,75.3281 Q420.1094,75.1563 420,74.7031 Q419.9531,74.3906 419.7813,74.2188 Q419.4688,73.8906 418.9063,73.7031 Q418.3438,73.5 417.7813,73.5 Q417.0781,73.5 416.4844,73.7813 Q415.9063,74.0625 415.4531,74.6875 Q415,75.3125 415,76.1719 L415,77.0938 Q415,78.125 415.8438,78.8125 Q416.6875,79.5 418.1875,79.5 Q419.0781,79.5 419.7031,79.2969 Q420.0625,79.1875 420.4688,78.8281 Q420.7344,78.625 420.875,78.5625 Q421.0156,78.5 421.1875,78.5 Q421.5156,78.5 421.75,78.7656 Q422,79.0156 422,79.375 Q422,79.7188 421.6563,80.125 Q421.1563,80.7188 420.3594,81.0469 Q419.3125,81.5 418.0313,81.5 Q416.5313,81.5 415.3281,80.9063 Q414.3594,80.4375 413.6719,79.4219 Q413,78.4063 413,77.2031 L413,76.1094 Q413,74.8594 413.5938,73.7656 Q414.2031,72.6719 415.25,72.0938 Q416.3125,71.5 417.5,71.5 Q418.2188,71.5 418.8438,71.75 Q419.4688,72 420,72.5 Z "/><text fill="#000000" font-family="sans-serif" font-size="12" lengthAdjust="spacingAndGlyphs" textLength="86" x="432" y="80.9102">TaskCreationUI</text><line style="stroke: #A80036; stroke-width: 1.5;" x1="404" x2="520" y1="92" y2="92"/><line style="stroke: #A80036; stroke-width: 1.5;" x1="404" x2="520" y1="100" y2="100"/><!--MD5=[4b78bf2ba608365a2de8fa34b850267b]
class TaskCreationController--><rect fill="#FEFECE" filter="url(#fnz4597j6yi4d)" height="75.6719" id="TaskCreationController" style="stroke: #A80036; stroke-width: 1.5;" width="409" x="257.5" y="193"/><ellipse cx="393.75" cy="209" fill="#ADD1B2" rx="11" ry="11" style="stroke: #A80036; stroke-width: 1.0;"/><path d="M395.75,205.5 Q395.9531,205 396.1875,204.75 Q396.4219,204.5 396.6875,204.5 Q397.1563,204.5 397.4531,204.7813 Q397.75,205.0625 397.75,205.7188 L397.75,207.2813 Q397.75,207.9375 397.4688,208.2188 Q397.1875,208.5 396.75,208.5 Q396.3594,208.5 396.1094,208.3281 Q395.8594,208.1563 395.75,207.7031 Q395.7031,207.3906 395.5313,207.2188 Q395.2188,206.8906 394.6563,206.7031 Q394.0938,206.5 393.5313,206.5 Q392.8281,206.5 392.2344,206.7813 Q391.6563,207.0625 391.2031,207.6875 Q390.75,208.3125 390.75,209.1719 L390.75,210.0938 Q390.75,211.125 391.5938,211.8125 Q392.4375,212.5 393.9375,212.5 Q394.8281,212.5 395.4531,212.2969 Q395.8125,212.1875 396.2188,211.8281 Q396.4844,211.625 396.625,211.5625 Q396.7656,211.5 396.9375,211.5 Q397.2656,211.5 397.5,211.7656 Q397.75,212.0156 397.75,212.375 Q397.75,212.7188 397.4063,213.125 Q396.9063,213.7188 396.1094,214.0469 Q395.0625,214.5 393.7813,214.5 Q392.2813,214.5 391.0781,213.9063 Q390.1094,213.4375 389.4219,212.4219 Q388.75,211.4063 388.75,210.2031 L388.75,209.1094 Q388.75,207.8594 389.3438,206.7656 Q389.9531,205.6719 391,205.0938 Q392.0625,204.5 393.25,204.5 Q393.9688,204.5 394.5938,204.75 Q395.2188,205 395.75,205.5 Z "/><text fill="#000000" font-family="sans-serif" font-size="12" lengthAdjust="spacingAndGlyphs" textLength="128" x="414.25" y="213.9102">TaskCreationController</text><line style="stroke: #A80036; stroke-width: 1.5;" x1="258.5" x2="665.5" y1="225" y2="225"/><line style="stroke: #A80036; stroke-width: 1.5;" x1="258.5" x2="665.5" y1="233" y2="233"/><text fill="#000000" font-family="sans-serif" font-size="11" lengthAdjust="spacingAndGlyphs" textLength="397" x="263.5" y="248.4189">+newTask(taskID, taskAssignDuration,taskCostPerHour, taskCategory, taskDescr)</text><text fill="#000000" font-family="sans-serif" font-size="11" lengthAdjust="spacingAndGlyphs" textLength="74" x="263.5" y="262.2549">+registerTask()</text><!--MD5=[99b8db98afdc2c8404e39242ef4c1e65]
class Platform--><rect fill="#FEFECE" filter="url(#fnz4597j6yi4d)" height="61.8359" id="Platform" style="stroke: #A80036; stroke-width: 1.5;" width="148" x="147" y="381.5"/><ellipse cx="193.75" cy="397.5" fill="#ADD1B2" rx="11" ry="11" style="stroke: #A80036; stroke-width: 1.0;"/><path d="M195.75,394 Q195.9531,393.5 196.1875,393.25 Q196.4219,393 196.6875,393 Q197.1563,393 197.4531,393.2813 Q197.75,393.5625 197.75,394.2188 L197.75,395.7813 Q197.75,396.4375 197.4688,396.7188 Q197.1875,397 196.75,397 Q196.3594,397 196.1094,396.8281 Q195.8594,396.6563 195.75,396.2031 Q195.7031,395.8906 195.5313,395.7188 Q195.2188,395.3906 194.6563,395.2031 Q194.0938,395 193.5313,395 Q192.8281,395 192.2344,395.2813 Q191.6563,395.5625 191.2031,396.1875 Q190.75,396.8125 190.75,397.6719 L190.75,398.5938 Q190.75,399.625 191.5938,400.3125 Q192.4375,401 193.9375,401 Q194.8281,401 195.4531,400.7969 Q195.8125,400.6875 196.2188,400.3281 Q196.4844,400.125 196.625,400.0625 Q196.7656,400 196.9375,400 Q197.2656,400 197.5,400.2656 Q197.75,400.5156 197.75,400.875 Q197.75,401.2188 197.4063,401.625 Q196.9063,402.2188 196.1094,402.5469 Q195.0625,403 193.7813,403 Q192.2813,403 191.0781,402.4063 Q190.1094,401.9375 189.4219,400.9219 Q188.75,399.9063 188.75,398.7031 L188.75,397.6094 Q188.75,396.3594 189.3438,395.2656 Q189.9531,394.1719 191,393.5938 Q192.0625,393 193.25,393 Q193.9688,393 194.5938,393.25 Q195.2188,393.5 195.75,394 Z "/><text fill="#000000" font-family="sans-serif" font-size="12" lengthAdjust="spacingAndGlyphs" textLength="46" x="214.25" y="402.4102">Platform</text><line style="stroke: #A80036; stroke-width: 1.5;" x1="148" x2="294" y1="413.5" y2="413.5"/><line style="stroke: #A80036; stroke-width: 1.5;" x1="148" x2="294" y1="421.5" y2="421.5"/><text fill="#000000" font-family="sans-serif" font-size="11" lengthAdjust="spacingAndGlyphs" textLength="136" x="153" y="436.9189">+getRegistryOrganizations()</text><!--MD5=[86c7c362de55a38b660185a1328fe18d]
class Organization--><rect fill="#FEFECE" filter="url(#fnz4597j6yi4d)" height="117.1797" id="Organization" style="stroke: #A80036; stroke-width: 1.5;" width="112" x="406" y="354"/><ellipse cx="425.95" cy="370" fill="#ADD1B2" rx="11" ry="11" style="stroke: #A80036; stroke-width: 1.0;"/><path d="M427.95,366.5 Q428.1531,366 428.3875,365.75 Q428.6219,365.5 428.8875,365.5 Q429.3563,365.5 429.6531,365.7813 Q429.95,366.0625 429.95,366.7188 L429.95,368.2813 Q429.95,368.9375 429.6688,369.2188 Q429.3875,369.5 428.95,369.5 Q428.5594,369.5 428.3094,369.3281 Q428.0594,369.1563 427.95,368.7031 Q427.9031,368.3906 427.7313,368.2188 Q427.4188,367.8906 426.8563,367.7031 Q426.2938,367.5 425.7313,367.5 Q425.0281,367.5 424.4344,367.7813 Q423.8563,368.0625 423.4031,368.6875 Q422.95,369.3125 422.95,370.1719 L422.95,371.0938 Q422.95,372.125 423.7938,372.8125 Q424.6375,373.5 426.1375,373.5 Q427.0281,373.5 427.6531,373.2969 Q428.0125,373.1875 428.4188,372.8281 Q428.6844,372.625 428.825,372.5625 Q428.9656,372.5 429.1375,372.5 Q429.4656,372.5 429.7,372.7656 Q429.95,373.0156 429.95,373.375 Q429.95,373.7188 429.6063,374.125 Q429.1063,374.7188 428.3094,375.0469 Q427.2625,375.5 425.9813,375.5 Q424.4813,375.5 423.2781,374.9063 Q422.3094,374.4375 421.6219,373.4219 Q420.95,372.4063 420.95,371.2031 L420.95,370.1094 Q420.95,368.8594 421.5438,367.7656 Q422.1531,366.6719 423.2,366.0938 Q424.2625,365.5 425.45,365.5 Q426.1688,365.5 426.7938,365.75 Q427.4188,366 427.95,366.5 Z "/><text fill="#000000" font-family="sans-serif" font-size="12" lengthAdjust="spacingAndGlyphs" textLength="69" x="441.05" y="374.9102">Organization</text><line style="stroke: #A80036; stroke-width: 1.5;" x1="407" x2="517" y1="386" y2="386"/><text fill="#000000" font-family="sans-serif" font-size="11" lengthAdjust="spacingAndGlyphs" textLength="78" x="412" y="401.4189">-String orgName</text><text fill="#000000" font-family="sans-serif" font-size="11" lengthAdjust="spacingAndGlyphs" textLength="50" x="412" y="415.2549">-String NIF</text><text fill="#000000" font-family="sans-serif" font-size="11" lengthAdjust="spacingAndGlyphs" textLength="100" x="412" y="429.0908">-Integer paymentDay</text><text fill="#000000" font-family="sans-serif" font-size="11" lengthAdjust="spacingAndGlyphs" textLength="92" x="412" y="442.9268">-Time paymentTime</text><line style="stroke: #A80036; stroke-width: 1.5;" x1="407" x2="517" y1="449.3438" y2="449.3438"/><text fill="#000000" font-family="sans-serif" font-size="11" lengthAdjust="spacingAndGlyphs" textLength="69" x="412" y="464.7627">+getListTask()</text><!--MD5=[b34797a66dc35cbf1d65f7e3ca75530e]
class Task--><rect fill="#FEFECE" filter="url(#fnz4597j6yi4d)" height="144.8516" id="Task" style="stroke: #A80036; stroke-width: 1.5;" width="387" x="345.5" y="741"/><ellipse cx="521.25" cy="757" fill="#ADD1B2" rx="11" ry="11" style="stroke: #A80036; stroke-width: 1.0;"/><path d="M523.25,753.5 Q523.4531,753 523.6875,752.75 Q523.9219,752.5 524.1875,752.5 Q524.6563,752.5 524.9531,752.7813 Q525.25,753.0625 525.25,753.7188 L525.25,755.2813 Q525.25,755.9375 524.9688,756.2188 Q524.6875,756.5 524.25,756.5 Q523.8594,756.5 523.6094,756.3281 Q523.3594,756.1563 523.25,755.7031 Q523.2031,755.3906 523.0313,755.2188 Q522.7188,754.8906 522.1563,754.7031 Q521.5938,754.5 521.0313,754.5 Q520.3281,754.5 519.7344,754.7813 Q519.1563,755.0625 518.7031,755.6875 Q518.25,756.3125 518.25,757.1719 L518.25,758.0938 Q518.25,759.125 519.0938,759.8125 Q519.9375,760.5 521.4375,760.5 Q522.3281,760.5 522.9531,760.2969 Q523.3125,760.1875 523.7188,759.8281 Q523.9844,759.625 524.125,759.5625 Q524.2656,759.5 524.4375,759.5 Q524.7656,759.5 525,759.7656 Q525.25,760.0156 525.25,760.375 Q525.25,760.7188 524.9063,761.125 Q524.4063,761.7188 523.6094,762.0469 Q522.5625,762.5 521.2813,762.5 Q519.7813,762.5 518.5781,761.9063 Q517.6094,761.4375 516.9219,760.4219 Q516.25,759.4063 516.25,758.2031 L516.25,757.1094 Q516.25,755.8594 516.8438,754.7656 Q517.4531,753.6719 518.5,753.0938 Q519.5625,752.5 520.75,752.5 Q521.4688,752.5 522.0938,752.75 Q522.7188,753 523.25,753.5 Z "/><text fill="#000000" font-family="sans-serif" font-size="12" lengthAdjust="spacingAndGlyphs" textLength="27" x="541.75" y="761.9102">Task</text><line style="stroke: #A80036; stroke-width: 1.5;" x1="346.5" x2="731.5" y1="773" y2="773"/><text fill="#000000" font-family="sans-serif" font-size="11" lengthAdjust="spacingAndGlyphs" textLength="64" x="351.5" y="788.4189">-String taskID</text><text fill="#000000" font-family="sans-serif" font-size="11" lengthAdjust="spacingAndGlyphs" textLength="84" x="351.5" y="802.2549">-String taskDescr</text><text fill="#000000" font-family="sans-serif" font-size="11" lengthAdjust="spacingAndGlyphs" textLength="112" x="351.5" y="816.0908">-Int taskAssignDuration</text><text fill="#000000" font-family="sans-serif" font-size="11" lengthAdjust="spacingAndGlyphs" textLength="121" x="351.5" y="829.9268">-Double taskCostPerHour</text><text fill="#000000" font-family="sans-serif" font-size="11" lengthAdjust="spacingAndGlyphs" textLength="99" x="351.5" y="843.7627">-String taskCategory</text><line style="stroke: #A80036; stroke-width: 1.5;" x1="346.5" x2="731.5" y1="850.1797" y2="850.1797"/><text fill="#000000" font-family="sans-serif" font-size="11" lengthAdjust="spacingAndGlyphs" textLength="375" x="351.5" y="865.5986">+Task(taskID, taskDescr, taskAssignDuration,taskCostPerHour, taskCategory)</text><text fill="#000000" font-family="sans-serif" font-size="11" lengthAdjust="spacingAndGlyphs" textLength="57" x="351.5" y="879.4346">+validates()</text><!--MD5=[33715664216438c299d64633eb1ff89b]
class RegistryOrganizations--><rect fill="#FEFECE" filter="url(#fnz4597j6yi4d)" height="61.8359" id="RegistryOrganizations" style="stroke: #A80036; stroke-width: 1.5;" width="153" x="144.5" y="585"/><ellipse cx="159.5" cy="601" fill="#ADD1B2" rx="11" ry="11" style="stroke: #A80036; stroke-width: 1.0;"/><path d="M161.5,597.5 Q161.7031,597 161.9375,596.75 Q162.1719,596.5 162.4375,596.5 Q162.9063,596.5 163.2031,596.7813 Q163.5,597.0625 163.5,597.7188 L163.5,599.2813 Q163.5,599.9375 163.2188,600.2188 Q162.9375,600.5 162.5,600.5 Q162.1094,600.5 161.8594,600.3281 Q161.6094,600.1563 161.5,599.7031 Q161.4531,599.3906 161.2813,599.2188 Q160.9688,598.8906 160.4063,598.7031 Q159.8438,598.5 159.2813,598.5 Q158.5781,598.5 157.9844,598.7813 Q157.4063,599.0625 156.9531,599.6875 Q156.5,600.3125 156.5,601.1719 L156.5,602.0938 Q156.5,603.125 157.3438,603.8125 Q158.1875,604.5 159.6875,604.5 Q160.5781,604.5 161.2031,604.2969 Q161.5625,604.1875 161.9688,603.8281 Q162.2344,603.625 162.375,603.5625 Q162.5156,603.5 162.6875,603.5 Q163.0156,603.5 163.25,603.7656 Q163.5,604.0156 163.5,604.375 Q163.5,604.7188 163.1563,605.125 Q162.6563,605.7188 161.8594,606.0469 Q160.8125,606.5 159.5313,606.5 Q158.0313,606.5 156.8281,605.9063 Q155.8594,605.4375 155.1719,604.4219 Q154.5,603.4063 154.5,602.2031 L154.5,601.1094 Q154.5,599.8594 155.0938,598.7656 Q155.7031,597.6719 156.75,597.0938 Q157.8125,596.5 159,596.5 Q159.7188,596.5 160.3438,596.75 Q160.9688,597 161.5,597.5 Z "/><text fill="#000000" font-family="sans-serif" font-size="12" lengthAdjust="spacingAndGlyphs" textLength="121" x="173.5" y="605.9102">RegistryOrganizations</text><line style="stroke: #A80036; stroke-width: 1.5;" x1="145.5" x2="296.5" y1="617" y2="617"/><line style="stroke: #A80036; stroke-width: 1.5;" x1="145.5" x2="296.5" y1="625" y2="625"/><text fill="#000000" font-family="sans-serif" font-size="11" lengthAdjust="spacingAndGlyphs" textLength="107" x="150.5" y="640.4189">+getOrgByUserEmail()</text><!--MD5=[5fcee7f3f291bb175eedf2ea72bc23fc]
class ListTasks--><rect fill="#FEFECE" filter="url(#fnz4597j6yi4d)" height="89.5078" id="ListTasks" style="stroke: #A80036; stroke-width: 1.5;" width="412" x="333" y="571"/><ellipse cx="507.75" cy="587" fill="#ADD1B2" rx="11" ry="11" style="stroke: #A80036; stroke-width: 1.0;"/><path d="M509.75,583.5 Q509.9531,583 510.1875,582.75 Q510.4219,582.5 510.6875,582.5 Q511.1563,582.5 511.4531,582.7813 Q511.75,583.0625 511.75,583.7188 L511.75,585.2813 Q511.75,585.9375 511.4688,586.2188 Q511.1875,586.5 510.75,586.5 Q510.3594,586.5 510.1094,586.3281 Q509.8594,586.1563 509.75,585.7031 Q509.7031,585.3906 509.5313,585.2188 Q509.2188,584.8906 508.6563,584.7031 Q508.0938,584.5 507.5313,584.5 Q506.8281,584.5 506.2344,584.7813 Q505.6563,585.0625 505.2031,585.6875 Q504.75,586.3125 504.75,587.1719 L504.75,588.0938 Q504.75,589.125 505.5938,589.8125 Q506.4375,590.5 507.9375,590.5 Q508.8281,590.5 509.4531,590.2969 Q509.8125,590.1875 510.2188,589.8281 Q510.4844,589.625 510.625,589.5625 Q510.7656,589.5 510.9375,589.5 Q511.2656,589.5 511.5,589.7656 Q511.75,590.0156 511.75,590.375 Q511.75,590.7188 511.4063,591.125 Q510.9063,591.7188 510.1094,592.0469 Q509.0625,592.5 507.7813,592.5 Q506.2813,592.5 505.0781,591.9063 Q504.1094,591.4375 503.4219,590.4219 Q502.75,589.4063 502.75,588.2031 L502.75,587.1094 Q502.75,585.8594 503.3438,584.7656 Q503.9531,583.6719 505,583.0938 Q506.0625,582.5 507.25,582.5 Q507.9688,582.5 508.5938,582.75 Q509.2188,583 509.75,583.5 Z "/><text fill="#000000" font-family="sans-serif" font-size="12" lengthAdjust="spacingAndGlyphs" textLength="54" x="528.25" y="591.9102">ListTasks</text><line style="stroke: #A80036; stroke-width: 1.5;" x1="334" x2="744" y1="603" y2="603"/><line style="stroke: #A80036; stroke-width: 1.5;" x1="334" x2="744" y1="611" y2="611"/><text fill="#000000" font-family="sans-serif" font-size="11" lengthAdjust="spacingAndGlyphs" textLength="400" x="339" y="626.4189">+newTask(taskID, taskAssignDuration, taskCostPerHour, taskCategory, taskDescr)</text><text fill="#000000" font-family="sans-serif" font-size="11" lengthAdjust="spacingAndGlyphs" textLength="100" x="339" y="640.2549">+validatesTask(task)</text><text fill="#000000" font-family="sans-serif" font-size="11" lengthAdjust="spacingAndGlyphs" textLength="52" x="339" y="654.0908">+add(task)</text><!--MD5=[17de690488de85c726504b1ac207056a]
link TaskCreationUI to TaskCreationController--><path d="M462,108.297 C462,129.686 462,161.895 462,187.806 " fill="none" id="TaskCreationUI-&gt;TaskCreationController" style="stroke: #A80036; stroke-width: 1.0; stroke-dasharray: 7.0,7.0;"/><polygon fill="#A80036" points="462,192.899,466,183.899,462,187.899,458,183.899,462,192.899" style="stroke: #A80036; stroke-width: 1.0;"/><!--MD5=[ee9b5f24e931ad518a31fa2c845d3c75]
link TaskCreationController to Task--><path d="M521.821,269.065 C594.272,317.894 712.612,411.284 761,527 C788.091,591.786 796.18,624.226 761,685 C749.2,705.384 732.773,722.792 714.14,737.583 " fill="none" id="TaskCreationController-&gt;Task" style="stroke: #A80036; stroke-width: 1.0; stroke-dasharray: 7.0,7.0;"/><polygon fill="#A80036" points="709.876,740.894,719.4379,738.5341,713.8254,737.8277,714.5318,732.2151,709.876,740.894" style="stroke: #A80036; stroke-width: 1.0;"/><!--MD5=[ae9ad798417a8506cdbcd2bca44708f3]
link TaskCreationController to Organization--><path d="M462,269.193 C462,292.105 462,322.073 462,348.597 " fill="none" id="TaskCreationController-&gt;Organization" style="stroke: #A80036; stroke-width: 1.0; stroke-dasharray: 7.0,7.0;"/><polygon fill="#A80036" points="462,353.852,466,344.852,462,348.852,458,344.852,462,353.852" style="stroke: #A80036; stroke-width: 1.0;"/><!--MD5=[20e1869f7be81f8f202af590461f76ef]
link TaskCreationController to Platform--><path d="M412.065,269.193 C368.877,301.359 307.019,347.432 265.5,378.356 " fill="none" id="TaskCreationController-&gt;Platform" style="stroke: #A80036; stroke-width: 1.0; stroke-dasharray: 7.0,7.0;"/><polygon fill="#A80036" points="261.296,381.487,270.9031,379.3183,265.3057,378.5,266.124,372.9027,261.296,381.487" style="stroke: #A80036; stroke-width: 1.0;"/><!--MD5=[d7e6b8c0ccf00764186b54e4e31b9fc3]
link Platform to RegistryOrganizations--><path d="M221,443.667 C221,480.126 221,541.369 221,579.907 " fill="none" id="Platform-&gt;RegistryOrganizations" style="stroke: #A80036; stroke-width: 1.0;"/><polygon fill="#A80036" points="221,584.957,225,575.957,221,579.957,217,575.957,221,584.957" style="stroke: #A80036; stroke-width: 1.0;"/><text fill="#000000" font-family="sans-serif" font-size="13" lengthAdjust="spacingAndGlyphs" textLength="21" x="222" y="515.4951">has</text><polygon fill="#000000" points="228,524.3516,231,530.3516,234,524.3516,228,524.3516" style="stroke: #000000; stroke-width: 1.0;"/><text fill="#000000" font-family="sans-serif" font-size="13" lengthAdjust="spacingAndGlyphs" textLength="7" x="213.3109" y="464.9239">1</text><text fill="#000000" font-family="sans-serif" font-size="13" lengthAdjust="spacingAndGlyphs" textLength="7" x="213.2344" y="573.9679">1</text><!--MD5=[4444e3f7d3a256ce06ca5b39bcbcc4ba]
link RegistryOrganizations to Organization--><path d="M252.048,584.97 C270.314,567.626 294.064,545.626 316,527 C343.528,503.625 375.052,478.88 401.745,458.48 " fill="none" id="RegistryOrganizations-&gt;Organization" style="stroke: #A80036; stroke-width: 1.0;"/><polygon fill="#A80036" points="405.987,455.244,396.4057,457.524,402.0122,458.2773,401.2589,463.8838,405.987,455.244" style="stroke: #A80036; stroke-width: 1.0;"/><text fill="#000000" font-family="sans-serif" font-size="13" lengthAdjust="spacingAndGlyphs" textLength="21" x="348" y="515.4951">has</text><polygon fill="#000000" points="372,508.6758,378,511.6758,372,514.6758,372,508.6758" style="stroke: #000000; stroke-width: 1.0;"/><text fill="#000000" font-family="sans-serif" font-size="13" lengthAdjust="spacingAndGlyphs" textLength="7" x="251.0741" y="573.9837">1</text><text fill="#000000" font-family="sans-serif" font-size="13" lengthAdjust="spacingAndGlyphs" textLength="5" x="393.1243" y="457.4194">*</text><!--MD5=[5c7004354ac93151ef18ab3264a40448]
link Organization to ListTasks--><path d="M484.065,471.242 C495.492,501.144 509.296,537.269 520.208,565.825 " fill="none" id="Organization-&gt;ListTasks" style="stroke: #A80036; stroke-width: 1.0;"/><polygon fill="#A80036" points="522.072,570.702,522.5964,560.8671,520.2874,566.0313,515.1233,563.7224,522.072,570.702" style="stroke: #A80036; stroke-width: 1.0;"/><text fill="#000000" font-family="sans-serif" font-size="13" lengthAdjust="spacingAndGlyphs" textLength="21" x="501" y="515.4951">has</text><polygon fill="#000000" points="507,524.3516,510,530.3516,513,524.3516,507,524.3516" style="stroke: #000000; stroke-width: 1.0;"/><text fill="#000000" font-family="sans-serif" font-size="13" lengthAdjust="spacingAndGlyphs" textLength="7" x="479.3276" y="492.8818">1</text><text fill="#000000" font-family="sans-serif" font-size="13" lengthAdjust="spacingAndGlyphs" textLength="7" x="511.944" y="560.1005">1</text><!--MD5=[50730d577314823ce15082f9739f74fe]
link ListTasks to Task--><path d="M539,661.362 C539,683.33 539,710.488 539,735.696 " fill="none" id="ListTasks-&gt;Task" style="stroke: #A80036; stroke-width: 1.0;"/><polygon fill="#A80036" points="539,740.709,543,731.709,539,735.709,535,731.709,539,740.709" style="stroke: #A80036; stroke-width: 1.0;"/><text fill="#000000" font-family="sans-serif" font-size="13" lengthAdjust="spacingAndGlyphs" textLength="21" x="540" y="707.4951">has</text><polygon fill="#000000" points="546,716.3516,549,722.3516,552,716.3516,546,716.3516" style="stroke: #000000; stroke-width: 1.0;"/><text fill="#000000" font-family="sans-serif" font-size="13" lengthAdjust="spacingAndGlyphs" textLength="7" x="531.5297" y="682.0843">1</text><text fill="#000000" font-family="sans-serif" font-size="13" lengthAdjust="spacingAndGlyphs" textLength="5" x="533.7422" y="729.8983">*</text><!--MD5=[ed78a468ed200fe64308209ec6c86f1e]
link Platform to Task--><path d="M168.961,443.696 C140.485,463.39 107.853,491.936 92,527 C63.0706,590.986 49.7001,628.948 92,685 C123.253,726.414 235.882,758.392 340.256,779.964 " fill="none" id="Platform-&gt;Task" style="stroke: #A80036; stroke-width: 1.0;"/><polygon fill="#A80036" points="345.219,780.983,337.2073,775.2547,340.3212,779.9774,335.5984,783.0913,345.219,780.983" style="stroke: #A80036; stroke-width: 1.0;"/><text fill="#000000" font-family="sans-serif" font-size="13" lengthAdjust="spacingAndGlyphs" textLength="21" x="93" y="621.4951">has</text><polygon fill="#000000" points="99,630.3516,102,636.3516,105,630.3516,99,630.3516" style="stroke: #000000; stroke-width: 1.0;"/><text fill="#000000" font-family="sans-serif" font-size="13" lengthAdjust="spacingAndGlyphs" textLength="7" x="151.3739" y="464.712">1</text><text fill="#000000" font-family="sans-serif" font-size="13" lengthAdjust="spacingAndGlyphs" textLength="5" x="332.5518" y="776.9052">*</text><!--MD5=[2171314860df3e9d6176be75ac0b7157]
@startuml
skinparam classAttributeIconSize 0
package ui{
class  TaskCreationUI{
}
}
package controller {
class TaskCreationController{
+newTask(taskID, taskAssignDuration,taskCostPerHour, taskCategory, taskDescr)
+registerTask()
}
}
package model{
class Platform{
+getRegistryOrganizations()
}
package RegistryClasses{
class RegistryOrganizations{
+getOrgByUserEmail()
}
class ListTasks{
+newTask(taskID, taskAssignDuration, taskCostPerHour, taskCategory, taskDescr)
+validatesTask(task)
+add(task)
}
}
class Organization{
- String orgName
- String NIF
- Integer paymentDay
- Time paymentTime
+getListTask()
}



class Task{
-String taskID
-String taskDescr
-Int taskAssignDuration
-Double taskCostPerHour
-String taskCategory
+Task(taskID, taskDescr, taskAssignDuration,taskCostPerHour, taskCategory)
+validates()
}

TaskCreationUI ..> TaskCreationController
TaskCreationController ..> Task
TaskCreationController ..> Organization
TaskCreationController ..> Platform
Platform "1" - -> "1" RegistryOrganizations : has >
RegistryOrganizations "1" - -> "*" Organization : has >
Organization "1" - -> "1" ListTasks : has >
ListTasks "1" - -> "*" Task : has >
Platform "1" -> "*" Task : has >




@enduml

PlantUML version 1.2020.09(Sun May 10 11:51:06 BST 2020)
(GPL source distribution)
Java Runtime: OpenJDK Runtime Environment
JVM: OpenJDK 64-Bit Server VM
Java Version: 11.0.7+10-b765.53
Operating System: Windows 10
Default Encoding: Cp1252
Language: pt
Country: PT
--></g></svg>