<?xml version="1.0" encoding="UTF-8" standalone="no"?><svg xmlns="http://www.w3.org/2000/svg" xmlns:xlink="http://www.w3.org/1999/xlink" contentScriptType="application/ecmascript" contentStyleType="text/css" height="385px" preserveAspectRatio="none" style="width:2689px;height:385px;" version="1.1" viewBox="0 0 2689 385" width="2689px" zoomAndPan="magnify"><defs><filter height="300%" id="f16ss5v6ur3tog" width="300%" x="-1" y="-1"><feGaussianBlur result="blurOut" stdDeviation="2.0"/><feColorMatrix in="blurOut" result="blurOut2" type="matrix" values="0 0 0 0 0 0 0 0 0 0 0 0 0 0 0 0 0 0 .4 0"/><feOffset dx="4.0" dy="4.0" in="blurOut2" result="blurOut3"/><feBlend in="SourceGraphic" in2="blurOut3" mode="normal"/></filter></defs><g><!--MD5=[64e2e010ba86d7988e5cd73bd64f61f9]
cluster ui--><polygon fill="#FFFFFF" filter="url(#f16ss5v6ur3tog)" points="22,118,41,118,48,141.6094,204,141.6094,204,218,22,218,22,118" style="stroke: #000000; stroke-width: 1.5;"/><line style="stroke: #000000; stroke-width: 1.5;" x1="22" x2="48" y1="141.6094" y2="141.6094"/><text fill="#000000" font-family="sans-serif" font-size="14" font-weight="bold" lengthAdjust="spacingAndGlyphs" textLength="13" x="26" y="134.5332">ui</text><!--MD5=[10ea673caf457862023e152271927b45]
cluster controller--><polygon fill="#FFFFFF" filter="url(#f16ss5v6ur3tog)" points="299,90,374,90,381,113.6094,1145,113.6094,1145,246,299,246,299,90" style="stroke: #000000; stroke-width: 1.5;"/><line style="stroke: #000000; stroke-width: 1.5;" x1="299" x2="381" y1="113.6094" y2="113.6094"/><text fill="#000000" font-family="sans-serif" font-size="14" font-weight="bold" lengthAdjust="spacingAndGlyphs" textLength="69" x="303" y="106.5332">controller</text><!--MD5=[5d4cd377749310b66bf14896f5cd8d9b]
cluster model--><polygon fill="#FFFFFF" filter="url(#f16ss5v6ur3tog)" points="1240,24,1289,24,1296,47.6094,2667,47.6094,2667,373,1240,373,1240,24" style="stroke: #000000; stroke-width: 1.5;"/><line style="stroke: #000000; stroke-width: 1.5;" x1="1240" x2="1296" y1="47.6094" y2="47.6094"/><text fill="#000000" font-family="sans-serif" font-size="14" font-weight="bold" lengthAdjust="spacingAndGlyphs" textLength="43" x="1244" y="40.5332">model</text><!--MD5=[7f775bfb84d28e8b3efc1913f21e6985]
cluster RegistryClasses--><polygon fill="#FFFFFF" filter="url(#f16ss5v6ur3tog)" points="1264,176,1383,176,1390,199.6094,1673,199.6094,1673,318,1264,318,1264,176" style="stroke: #000000; stroke-width: 1.5;"/><line style="stroke: #000000; stroke-width: 1.5;" x1="1264" x2="1390" y1="199.6094" y2="199.6094"/><text fill="#000000" font-family="sans-serif" font-size="14" font-weight="bold" lengthAdjust="spacingAndGlyphs" textLength="113" x="1268" y="192.5332">RegistryClasses</text><!--MD5=[33b022b896a6b76c3300bfba176e57f2]
class FreelancerCreationUI--><rect fill="#FEFECE" filter="url(#f16ss5v6ur3tog)" height="48" id="FreelancerCreationUI" style="stroke: #A80036; stroke-width: 1.5;" width="150" x="38" y="154"/><ellipse cx="53" cy="170" fill="#ADD1B2" rx="11" ry="11" style="stroke: #A80036; stroke-width: 1.0;"/><path d="M55,166.5 Q55.2031,166 55.4375,165.75 Q55.6719,165.5 55.9375,165.5 Q56.4063,165.5 56.7031,165.7813 Q57,166.0625 57,166.7188 L57,168.2813 Q57,168.9375 56.7188,169.2188 Q56.4375,169.5 56,169.5 Q55.6094,169.5 55.3594,169.3281 Q55.1094,169.1563 55,168.7031 Q54.9531,168.3906 54.7813,168.2188 Q54.4688,167.8906 53.9063,167.7031 Q53.3438,167.5 52.7813,167.5 Q52.0781,167.5 51.4844,167.7813 Q50.9063,168.0625 50.4531,168.6875 Q50,169.3125 50,170.1719 L50,171.0938 Q50,172.125 50.8438,172.8125 Q51.6875,173.5 53.1875,173.5 Q54.0781,173.5 54.7031,173.2969 Q55.0625,173.1875 55.4688,172.8281 Q55.7344,172.625 55.875,172.5625 Q56.0156,172.5 56.1875,172.5 Q56.5156,172.5 56.75,172.7656 Q57,173.0156 57,173.375 Q57,173.7188 56.6563,174.125 Q56.1563,174.7188 55.3594,175.0469 Q54.3125,175.5 53.0313,175.5 Q51.5313,175.5 50.3281,174.9063 Q49.3594,174.4375 48.6719,173.4219 Q48,172.4063 48,171.2031 L48,170.1094 Q48,168.8594 48.5938,167.7656 Q49.2031,166.6719 50.25,166.0938 Q51.3125,165.5 52.5,165.5 Q53.2188,165.5 53.8438,165.75 Q54.4688,166 55,166.5 Z "/><text fill="#000000" font-family="sans-serif" font-size="12" lengthAdjust="spacingAndGlyphs" textLength="118" x="67" y="174.9102">FreelancerCreationUI</text><line style="stroke: #A80036; stroke-width: 1.5;" x1="39" x2="187" y1="186" y2="186"/><line style="stroke: #A80036; stroke-width: 1.5;" x1="39" x2="187" y1="194" y2="194"/><!--MD5=[821ad3a0c9eba134884450086bf24c67]
class FreelancerCreationController--><rect fill="#FEFECE" filter="url(#f16ss5v6ur3tog)" height="103.3438" id="FreelancerCreationController" style="stroke: #A80036; stroke-width: 1.5;" width="814" x="315" y="126.5"/><ellipse cx="637.75" cy="142.5" fill="#ADD1B2" rx="11" ry="11" style="stroke: #A80036; stroke-width: 1.0;"/><path d="M639.75,139 Q639.9531,138.5 640.1875,138.25 Q640.4219,138 640.6875,138 Q641.1563,138 641.4531,138.2813 Q641.75,138.5625 641.75,139.2188 L641.75,140.7813 Q641.75,141.4375 641.4688,141.7188 Q641.1875,142 640.75,142 Q640.3594,142 640.1094,141.8281 Q639.8594,141.6563 639.75,141.2031 Q639.7031,140.8906 639.5313,140.7188 Q639.2188,140.3906 638.6563,140.2031 Q638.0938,140 637.5313,140 Q636.8281,140 636.2344,140.2813 Q635.6563,140.5625 635.2031,141.1875 Q634.75,141.8125 634.75,142.6719 L634.75,143.5938 Q634.75,144.625 635.5938,145.3125 Q636.4375,146 637.9375,146 Q638.8281,146 639.4531,145.7969 Q639.8125,145.6875 640.2188,145.3281 Q640.4844,145.125 640.625,145.0625 Q640.7656,145 640.9375,145 Q641.2656,145 641.5,145.2656 Q641.75,145.5156 641.75,145.875 Q641.75,146.2188 641.4063,146.625 Q640.9063,147.2188 640.1094,147.5469 Q639.0625,148 637.7813,148 Q636.2813,148 635.0781,147.4063 Q634.1094,146.9375 633.4219,145.9219 Q632.75,144.9063 632.75,143.7031 L632.75,142.6094 Q632.75,141.3594 633.3438,140.2656 Q633.9531,139.1719 635,138.5938 Q636.0625,138 637.25,138 Q637.9688,138 638.5938,138.25 Q639.2188,138.5 639.75,139 Z "/><text fill="#000000" font-family="sans-serif" font-size="12" lengthAdjust="spacingAndGlyphs" textLength="160" x="658.25" y="147.4102">FreelancerCreationController</text><line style="stroke: #A80036; stroke-width: 1.5;" x1="316" x2="1128" y1="158.5" y2="158.5"/><line style="stroke: #A80036; stroke-width: 1.5;" x1="316" x2="1128" y1="166.5" y2="166.5"/><ellipse cx="326" cy="177.5" fill="#84BE84" rx="3" ry="3" style="stroke: #038048; stroke-width: 1.0;"/><text fill="#000000" font-family="sans-serif" font-size="11" lengthAdjust="spacingAndGlyphs" textLength="96" x="335" y="181.9189">getExpertiseArray()</text><ellipse cx="326" cy="191.3359" fill="#84BE84" rx="3" ry="3" style="stroke: #038048; stroke-width: 1.0;"/><text fill="#000000" font-family="sans-serif" font-size="11" lengthAdjust="spacingAndGlyphs" textLength="67" x="335" y="195.7549">getCountrys()</text><ellipse cx="326" cy="205.1719" fill="#84BE84" rx="3" ry="3" style="stroke: #038048; stroke-width: 1.0;"/><text fill="#000000" font-family="sans-serif" font-size="11" lengthAdjust="spacingAndGlyphs" textLength="788" x="335" y="209.5908">newFreelancer(FreelancerID,FreelancerName,FreelancerExpertise,FreelancerEMail,FreelancerNIF,FreelancerBanckAccout,FreelancerAddress,FreeLancerCountry)</text><ellipse cx="326" cy="219.0078" fill="#84BE84" rx="3" ry="3" style="stroke: #038048; stroke-width: 1.0;"/><text fill="#000000" font-family="sans-serif" font-size="11" lengthAdjust="spacingAndGlyphs" textLength="117" x="335" y="223.4268">registerFreelancer(free)</text><!--MD5=[99b8db98afdc2c8404e39242ef4c1e65]
class Platform--><rect fill="#FEFECE" filter="url(#f16ss5v6ur3tog)" height="75.6719" id="Platform" style="stroke: #A80036; stroke-width: 1.5;" width="181" x="1720" y="104"/><ellipse cx="1783.25" cy="120" fill="#ADD1B2" rx="11" ry="11" style="stroke: #A80036; stroke-width: 1.0;"/><path d="M1785.25,116.5 Q1785.4531,116 1785.6875,115.75 Q1785.9219,115.5 1786.1875,115.5 Q1786.6563,115.5 1786.9531,115.7813 Q1787.25,116.0625 1787.25,116.7188 L1787.25,118.2813 Q1787.25,118.9375 1786.9688,119.2188 Q1786.6875,119.5 1786.25,119.5 Q1785.8594,119.5 1785.6094,119.3281 Q1785.3594,119.1563 1785.25,118.7031 Q1785.2031,118.3906 1785.0313,118.2188 Q1784.7188,117.8906 1784.1563,117.7031 Q1783.5938,117.5 1783.0313,117.5 Q1782.3281,117.5 1781.7344,117.7813 Q1781.1563,118.0625 1780.7031,118.6875 Q1780.25,119.3125 1780.25,120.1719 L1780.25,121.0938 Q1780.25,122.125 1781.0938,122.8125 Q1781.9375,123.5 1783.4375,123.5 Q1784.3281,123.5 1784.9531,123.2969 Q1785.3125,123.1875 1785.7188,122.8281 Q1785.9844,122.625 1786.125,122.5625 Q1786.2656,122.5 1786.4375,122.5 Q1786.7656,122.5 1787,122.7656 Q1787.25,123.0156 1787.25,123.375 Q1787.25,123.7188 1786.9063,124.125 Q1786.4063,124.7188 1785.6094,125.0469 Q1784.5625,125.5 1783.2813,125.5 Q1781.7813,125.5 1780.5781,124.9063 Q1779.6094,124.4375 1778.9219,123.4219 Q1778.25,122.4063 1778.25,121.2031 L1778.25,120.1094 Q1778.25,118.8594 1778.8438,117.7656 Q1779.4531,116.6719 1780.5,116.0938 Q1781.5625,115.5 1782.75,115.5 Q1783.4688,115.5 1784.0938,115.75 Q1784.7188,116 1785.25,116.5 Z "/><text fill="#000000" font-family="sans-serif" font-size="12" lengthAdjust="spacingAndGlyphs" textLength="46" x="1803.75" y="124.9102">Platform</text><line style="stroke: #A80036; stroke-width: 1.5;" x1="1721" x2="1900" y1="136" y2="136"/><line style="stroke: #A80036; stroke-width: 1.5;" x1="1721" x2="1900" y1="144" y2="144"/><ellipse cx="1731" cy="155" fill="#84BE84" rx="3" ry="3" style="stroke: #038048; stroke-width: 1.0;"/><text fill="#000000" font-family="sans-serif" font-size="11" lengthAdjust="spacingAndGlyphs" textLength="115" x="1740" y="159.4189">getRegistryFreelancer()</text><ellipse cx="1731" cy="168.8359" fill="#84BE84" rx="3" ry="3" style="stroke: #038048; stroke-width: 1.0;"/><text fill="#000000" font-family="sans-serif" font-size="11" lengthAdjust="spacingAndGlyphs" textLength="155" x="1740" y="173.2549">getExternalConverterCurrency()</text><!--MD5=[1f687b5315377fe49fca59b457947463]
class Freelancer--><rect fill="#FEFECE" filter="url(#f16ss5v6ur3tog)" height="200.1953" id="Freelancer" style="stroke: #A80036; stroke-width: 1.5;" width="355" x="2058" y="157"/><ellipse cx="2201.75" cy="173" fill="#ADD1B2" rx="11" ry="11" style="stroke: #A80036; stroke-width: 1.0;"/><path d="M2203.75,169.5 Q2203.9531,169 2204.1875,168.75 Q2204.4219,168.5 2204.6875,168.5 Q2205.1563,168.5 2205.4531,168.7813 Q2205.75,169.0625 2205.75,169.7188 L2205.75,171.2813 Q2205.75,171.9375 2205.4688,172.2188 Q2205.1875,172.5 2204.75,172.5 Q2204.3594,172.5 2204.1094,172.3281 Q2203.8594,172.1563 2203.75,171.7031 Q2203.7031,171.3906 2203.5313,171.2188 Q2203.2188,170.8906 2202.6563,170.7031 Q2202.0938,170.5 2201.5313,170.5 Q2200.8281,170.5 2200.2344,170.7813 Q2199.6563,171.0625 2199.2031,171.6875 Q2198.75,172.3125 2198.75,173.1719 L2198.75,174.0938 Q2198.75,175.125 2199.5938,175.8125 Q2200.4375,176.5 2201.9375,176.5 Q2202.8281,176.5 2203.4531,176.2969 Q2203.8125,176.1875 2204.2188,175.8281 Q2204.4844,175.625 2204.625,175.5625 Q2204.7656,175.5 2204.9375,175.5 Q2205.2656,175.5 2205.5,175.7656 Q2205.75,176.0156 2205.75,176.375 Q2205.75,176.7188 2205.4063,177.125 Q2204.9063,177.7188 2204.1094,178.0469 Q2203.0625,178.5 2201.7813,178.5 Q2200.2813,178.5 2199.0781,177.9063 Q2198.1094,177.4375 2197.4219,176.4219 Q2196.75,175.4063 2196.75,174.2031 L2196.75,173.1094 Q2196.75,171.8594 2197.3438,170.7656 Q2197.9531,169.6719 2199,169.0938 Q2200.0625,168.5 2201.25,168.5 Q2201.9688,168.5 2202.5938,168.75 Q2203.2188,169 2203.75,169.5 Z "/><text fill="#000000" font-family="sans-serif" font-size="12" lengthAdjust="spacingAndGlyphs" textLength="59" x="2222.25" y="177.9102">Freelancer</text><line style="stroke: #A80036; stroke-width: 1.5;" x1="2059" x2="2412" y1="189" y2="189"/><rect fill="none" height="6" style="stroke: #C82930; stroke-width: 1.0;" width="6" x="2066" y="197"/><text fill="#000000" font-family="sans-serif" font-size="11" lengthAdjust="spacingAndGlyphs" textLength="39" x="2078" y="204.4189">String id</text><rect fill="none" height="6" style="stroke: #C82930; stroke-width: 1.0;" width="6" x="2066" y="210.8359"/><text fill="#000000" font-family="sans-serif" font-size="11" lengthAdjust="spacingAndGlyphs" textLength="57" x="2078" y="218.2549">String name</text><rect fill="none" height="6" style="stroke: #C82930; stroke-width: 1.0;" width="6" x="2066" y="224.6719"/><text fill="#000000" font-family="sans-serif" font-size="11" lengthAdjust="spacingAndGlyphs" textLength="55" x="2078" y="232.0908">String email</text><rect fill="none" height="6" style="stroke: #C82930; stroke-width: 1.0;" width="6" x="2066" y="238.5078"/><text fill="#000000" font-family="sans-serif" font-size="11" lengthAdjust="spacingAndGlyphs" textLength="43" x="2078" y="245.9268">String nif</text><rect fill="none" height="6" style="stroke: #C82930; stroke-width: 1.0;" width="6" x="2066" y="252.3438"/><text fill="#000000" font-family="sans-serif" font-size="11" lengthAdjust="spacingAndGlyphs" textLength="95" x="2078" y="259.7627">String bankAccount</text><rect fill="none" height="6" style="stroke: #C82930; stroke-width: 1.0;" width="6" x="2066" y="266.1797"/><text fill="#000000" font-family="sans-serif" font-size="11" lengthAdjust="spacingAndGlyphs" textLength="71" x="2078" y="273.5986">String address</text><rect fill="none" height="6" style="stroke: #C82930; stroke-width: 1.0;" width="6" x="2066" y="280.0156"/><text fill="#000000" font-family="sans-serif" font-size="11" lengthAdjust="spacingAndGlyphs" textLength="68" x="2078" y="287.4346">String country</text><line style="stroke: #A80036; stroke-width: 1.5;" x1="2059" x2="2412" y1="293.8516" y2="293.8516"/><ellipse cx="2069" cy="304.8516" fill="#84BE84" rx="3" ry="3" style="stroke: #038048; stroke-width: 1.0;"/><text fill="#000000" font-family="sans-serif" font-size="11" lengthAdjust="spacingAndGlyphs" textLength="329" x="2078" y="309.2705">Freelancer(name,expertise ,email,nif,bankAccount,address,country)</text><ellipse cx="2069" cy="318.6875" fill="#84BE84" rx="3" ry="3" style="stroke: #038048; stroke-width: 1.0;"/><text fill="#000000" font-family="sans-serif" font-size="11" lengthAdjust="spacingAndGlyphs" textLength="45" x="2078" y="323.1064">validate()</text><ellipse cx="2069" cy="332.5234" fill="#84BE84" rx="3" ry="3" style="stroke: #038048; stroke-width: 1.0;"/><text fill="#000000" font-family="sans-serif" font-size="11" lengthAdjust="spacingAndGlyphs" textLength="96" x="2078" y="336.9424">getExpertiseArray()</text><ellipse cx="2069" cy="346.3594" fill="#84BE84" rx="3" ry="3" style="stroke: #038048; stroke-width: 1.0;"/><text fill="#000000" font-family="sans-serif" font-size="11" lengthAdjust="spacingAndGlyphs" textLength="40" x="2078" y="350.7783">setId(ID)</text><!--MD5=[d9c8ef0624c69f05289faf8129a52165]
class ExternalConverterCurrency--><rect fill="#FEFECE" filter="url(#f16ss5v6ur3tog)" height="61.8359" id="ExternalConverterCurrency" style="stroke: #A80036; stroke-width: 1.5;" width="181" x="2145" y="60"/><ellipse cx="2160" cy="76" fill="#B4A7E5" rx="11" ry="11" style="stroke: #A80036; stroke-width: 1.0;"/><path d="M2161,73 L2161,79 L2163,79 L2163.4844,79 L2164,79.625 L2164,80 L2164,80.375 L2163.4844,81 L2163,81 L2157,81 L2156.5156,81 L2156,80.375 L2156,80 L2156,79.625 L2156.5156,79 L2157,79 L2159,79 L2159,73 L2157,73 L2156.5156,73 L2156,72.375 L2156,72 L2156,71.625 L2156.5156,71 L2157,71 L2163,71 L2163.4844,71 L2164,71.625 L2164,72 L2164,72.375 L2163.4844,73 L2163,73 L2161,73 Z "/><text fill="#000000" font-family="sans-serif" font-size="12" font-style="italic" lengthAdjust="spacingAndGlyphs" textLength="149" x="2174" y="80.9102">ExternalConverterCurrency</text><line style="stroke: #A80036; stroke-width: 1.5;" x1="2146" x2="2325" y1="92" y2="92"/><line style="stroke: #A80036; stroke-width: 1.5;" x1="2146" x2="2325" y1="100" y2="100"/><ellipse cx="2156" cy="111" fill="#84BE84" rx="3" ry="3" style="stroke: #038048; stroke-width: 1.0;"/><text fill="#000000" font-family="sans-serif" font-size="11" lengthAdjust="spacingAndGlyphs" textLength="111" x="2165" y="115.4189">getAvailableCountrys()</text><!--MD5=[7e3fb4eea8c480cc00daae4196c4f291]
class FreelancerExpertise--><rect fill="#FEFECE" filter="url(#f16ss5v6ur3tog)" height="75.6719" id="FreelancerExpertise" style="stroke: #A80036; stroke-width: 1.5;" width="142" x="2509" y="219"/><ellipse cx="2524" cy="235" fill="#EB937F" rx="11" ry="11" style="stroke: #A80036; stroke-width: 1.0;"/><path d="M2522.5,236 L2522.5,238 L2526.5,238 L2526.5,237 L2526.5,236.5156 L2527.125,236 L2527.5,236 L2527.875,236 L2528.5,236.5156 L2528.5,237 L2528.5,240 L2520.5,240 L2520.0156,240 L2519.5,239.375 L2519.5,239 L2519.5,238.625 L2520.0156,238 L2520.5,238 L2520.5,238 L2520.5,232 L2520.5,232 L2520.0156,232 L2519.5,231.375 L2519.5,231 L2519.5,230.625 L2520.0156,230 L2520.5,230 L2528.5,230 L2528.5,233 L2528.5,233.4844 L2527.875,234 L2527.5,234 L2527.125,234 L2526.5,233.4844 L2526.5,233 L2526.5,232 L2522.5,232 L2522.5,234 L2523.5,234 L2523.5,233.5156 L2523.5,233.5156 L2524.125,233 L2524.5,233 L2524.875,233 L2525.5,233.5156 L2525.5,234 L2525.5,236 L2525.5,236.4844 L2524.875,237 L2524.875,237 L2524.5,237 L2524.125,237 L2523.5,236.4844 L2523.5,236.4844 L2523.5,236 L2522.5,236 Z "/><text fill="#000000" font-family="sans-serif" font-size="12" lengthAdjust="spacingAndGlyphs" textLength="110" x="2538" y="239.9102">FreelancerExpertise</text><line style="stroke: #A80036; stroke-width: 1.5;" x1="2510" x2="2650" y1="251" y2="251"/><text fill="#000000" font-family="sans-serif" font-size="11" lengthAdjust="spacingAndGlyphs" textLength="36" x="2515" y="266.4189">JUNIOR</text><text fill="#000000" font-family="sans-serif" font-size="11" lengthAdjust="spacingAndGlyphs" textLength="37" x="2515" y="280.2549">SENIOR</text><line style="stroke: #A80036; stroke-width: 1.5;" x1="2510" x2="2650" y1="286.6719" y2="286.6719"/><!--MD5=[c967c59b7980d99138ab6434123f7b4a]
class RegistryFreelancer--><rect fill="#FEFECE" filter="url(#f16ss5v6ur3tog)" height="89.5078" id="RegistryFreelancer" style="stroke: #A80036; stroke-width: 1.5;" width="377" x="1280" y="212"/><ellipse cx="1412.25" cy="228" fill="#ADD1B2" rx="11" ry="11" style="stroke: #A80036; stroke-width: 1.0;"/><path d="M1414.25,224.5 Q1414.4531,224 1414.6875,223.75 Q1414.9219,223.5 1415.1875,223.5 Q1415.6563,223.5 1415.9531,223.7813 Q1416.25,224.0625 1416.25,224.7188 L1416.25,226.2813 Q1416.25,226.9375 1415.9688,227.2188 Q1415.6875,227.5 1415.25,227.5 Q1414.8594,227.5 1414.6094,227.3281 Q1414.3594,227.1563 1414.25,226.7031 Q1414.2031,226.3906 1414.0313,226.2188 Q1413.7188,225.8906 1413.1563,225.7031 Q1412.5938,225.5 1412.0313,225.5 Q1411.3281,225.5 1410.7344,225.7813 Q1410.1563,226.0625 1409.7031,226.6875 Q1409.25,227.3125 1409.25,228.1719 L1409.25,229.0938 Q1409.25,230.125 1410.0938,230.8125 Q1410.9375,231.5 1412.4375,231.5 Q1413.3281,231.5 1413.9531,231.2969 Q1414.3125,231.1875 1414.7188,230.8281 Q1414.9844,230.625 1415.125,230.5625 Q1415.2656,230.5 1415.4375,230.5 Q1415.7656,230.5 1416,230.7656 Q1416.25,231.0156 1416.25,231.375 Q1416.25,231.7188 1415.9063,232.125 Q1415.4063,232.7188 1414.6094,233.0469 Q1413.5625,233.5 1412.2813,233.5 Q1410.7813,233.5 1409.5781,232.9063 Q1408.6094,232.4375 1407.9219,231.4219 Q1407.25,230.4063 1407.25,229.2031 L1407.25,228.1094 Q1407.25,226.8594 1407.8438,225.7656 Q1408.4531,224.6719 1409.5,224.0938 Q1410.5625,223.5 1411.75,223.5 Q1412.4688,223.5 1413.0938,223.75 Q1413.7188,224 1414.25,224.5 Z "/><text fill="#000000" font-family="sans-serif" font-size="12" lengthAdjust="spacingAndGlyphs" textLength="104" x="1432.75" y="232.9102">RegistryFreelancer</text><line style="stroke: #A80036; stroke-width: 1.5;" x1="1281" x2="1656" y1="244" y2="244"/><line style="stroke: #A80036; stroke-width: 1.5;" x1="1281" x2="1656" y1="252" y2="252"/><ellipse cx="1291" cy="263" fill="#84BE84" rx="3" ry="3" style="stroke: #038048; stroke-width: 1.0;"/><text fill="#000000" font-family="sans-serif" font-size="11" lengthAdjust="spacingAndGlyphs" textLength="351" x="1300" y="267.4189">newFreelancer(name,expertise ,email,nif,bankAccount,address,country)</text><ellipse cx="1291" cy="276.8359" fill="#84BE84" rx="3" ry="3" style="stroke: #038048; stroke-width: 1.0;"/><text fill="#000000" font-family="sans-serif" font-size="11" lengthAdjust="spacingAndGlyphs" textLength="132" x="1300" y="281.2549">generateFreelancerID(free)</text><ellipse cx="1291" cy="290.6719" fill="#84BE84" rx="3" ry="3" style="stroke: #038048; stroke-width: 1.0;"/><text fill="#000000" font-family="sans-serif" font-size="11" lengthAdjust="spacingAndGlyphs" textLength="117" x="1300" y="295.0908">registerFreelancer(free)</text><!--MD5=[68507dedd162eb8badad3bf48e5d1468]
link FreelancerCreationUI to FreelancerCreationController--><path d="M188.126,178 C221.464,178 263.66,178 309.655,178 " fill="none" id="FreelancerCreationUI-&gt;FreelancerCreationController" style="stroke: #A80036; stroke-width: 1.0; stroke-dasharray: 7.0,7.0;"/><polygon fill="#A80036" points="314.698,178,305.698,174,309.698,178,305.698,182,314.698,178" style="stroke: #A80036; stroke-width: 1.0;"/><!--MD5=[95767354310298e54ab0c6eb7d08ef43]
link FreelancerCreationController to Platform--><path d="M1129.12,164.544 C1341.65,157.502 1584.15,149.467 1714.53,145.147 " fill="none" id="FreelancerCreationController-&gt;Platform" style="stroke: #A80036; stroke-width: 1.0; stroke-dasharray: 7.0,7.0;"/><polygon fill="#A80036" points="1719.89,144.969,1710.7687,141.2539,1714.8925,145.1262,1711.0202,149.2499,1719.89,144.969" style="stroke: #A80036; stroke-width: 1.0;"/><!--MD5=[e002709f4399ca8fdcdbeb014c8553af]
link FreelancerCreationController to RegistryFreelancer--><path d="M1129.02,221.083 C1179.64,226.454 1229.42,231.737 1274.57,236.528 " fill="none" id="FreelancerCreationController-&gt;RegistryFreelancer" style="stroke: #A80036; stroke-width: 1.0; stroke-dasharray: 7.0,7.0;"/><polygon fill="#A80036" points="1279.77,237.08,1271.2433,232.1509,1274.798,236.5514,1270.3975,240.106,1279.77,237.08" style="stroke: #A80036; stroke-width: 1.0;"/><!--MD5=[c70e19724f361721558caa20fdacc3dc]
link Platform to ExternalConverterCurrency--><path d="M1901.21,131.184 C1971.31,122.732 2068.49,111.015 2139.83,102.414 " fill="none" id="Platform-&gt;ExternalConverterCurrency" style="stroke: #A80036; stroke-width: 1.0;"/><polygon fill="#A80036" points="2144.92,101.8,2135.5051,98.9088,2139.9561,102.4,2136.465,106.851,2144.92,101.8" style="stroke: #A80036; stroke-width: 1.0;"/><text fill="#000000" font-family="sans-serif" font-size="13" lengthAdjust="spacingAndGlyphs" textLength="21" x="1962.5" y="113.4951">has</text><polygon fill="#000000" points="1986.5,106.6758,1992.5,109.6758,1986.5,112.6758,1986.5,106.6758" style="stroke: #000000; stroke-width: 1.0;"/><text fill="#000000" font-family="sans-serif" font-size="13" lengthAdjust="spacingAndGlyphs" textLength="7" x="1909.0118" y="144.4741">1</text><!--MD5=[f36961f037928911a2bfbfb8d7ff8aa7]
link Freelancer to FreelancerExpertise--><path d="M2413.02,257 C2444.95,257 2476.63,257 2503.63,257 " fill="none" id="Freelancer-&gt;FreelancerExpertise" style="stroke: #A80036; stroke-width: 1.0;"/><polygon fill="#A80036" points="2508.96,257,2499.96,253,2503.96,257,2499.96,261,2508.96,257" style="stroke: #A80036; stroke-width: 1.0;"/><text fill="#000000" font-family="sans-serif" font-size="13" lengthAdjust="spacingAndGlyphs" textLength="21" x="2444" y="253.4951">has</text><polygon fill="#000000" points="2468,246.6758,2474,249.6758,2468,252.6758,2468,246.6758" style="stroke: #000000; stroke-width: 1.0;"/><text fill="#000000" font-family="sans-serif" font-size="13" lengthAdjust="spacingAndGlyphs" textLength="7" x="2421.2225" y="270.8612">1</text><text fill="#000000" font-family="sans-serif" font-size="13" lengthAdjust="spacingAndGlyphs" textLength="7" x="2493.8072" y="271.4073">1</text><!--MD5=[22697d4d863c2e08ab1d60ca0d61f844]
link Platform to Freelancer--><path d="M1901.21,166.389 C1945.38,178.396 2000.29,193.327 2052.72,207.581 " fill="none" id="Platform-&gt;Freelancer" style="stroke: #A80036; stroke-width: 1.0;"/><polygon fill="#A80036" points="2057.79,208.958,2050.1407,202.7541,2052.9622,207.6571,2048.0592,210.4785,2057.79,208.958" style="stroke: #A80036; stroke-width: 1.0;"/><text fill="#000000" font-family="sans-serif" font-size="13" lengthAdjust="spacingAndGlyphs" textLength="82" x="1932" y="172.4951">has registered</text><polygon fill="#000000" points="2017,165.6758,2023,168.6758,2017,171.6758,2017,165.6758" style="stroke: #000000; stroke-width: 1.0;"/><text fill="#000000" font-family="sans-serif" font-size="13" lengthAdjust="spacingAndGlyphs" textLength="7" x="1909.0118" y="182.5945">1</text><text fill="#000000" font-family="sans-serif" font-size="13" lengthAdjust="spacingAndGlyphs" textLength="5" x="2045.1874" y="220.7671">*</text><!--MD5=[ab595ec00e090f026d2027f19023e848]
link RegistryFreelancer to Freelancer--><path d="M1657.13,257 C1777.54,257 1933.12,257 2052.43,257 " fill="none" id="RegistryFreelancer-&gt;Freelancer" style="stroke: #A80036; stroke-width: 1.0;"/><polygon fill="#A80036" points="2057.72,257,2048.72,253,2052.72,257,2048.72,261,2057.72,257" style="stroke: #A80036; stroke-width: 1.0;"/><text fill="#000000" font-family="sans-serif" font-size="13" lengthAdjust="spacingAndGlyphs" textLength="21" x="1793.5" y="253.4951">has</text><polygon fill="#000000" points="1817.5,246.6758,1823.5,249.6758,1817.5,252.6758,1817.5,246.6758" style="stroke: #000000; stroke-width: 1.0;"/><text fill="#000000" font-family="sans-serif" font-size="13" lengthAdjust="spacingAndGlyphs" textLength="7" x="1665.2355" y="270.8504">1</text><text fill="#000000" font-family="sans-serif" font-size="13" lengthAdjust="spacingAndGlyphs" textLength="5" x="2045.1144" y="270.8359">*</text><!--MD5=[0cc2443dfa45dcc710dfcaf4c31413fa]
@startuml

left to right direction
package ui{
class FreelancerCreationUI
}
package controller{
class FreelancerCreationController{
+getExpertiseArray()
+getCountrys()
+newFreelancer(FreelancerID,FreelancerName,FreelancerExpertise,FreelancerEMail,FreelancerNIF,FreelancerBanckAccout,FreelancerAddress,FreeLancerCountry)
+registerFreelancer(free)
}
}
package model{
class Platform {
+getRegistryFreelancer()
+getExternalConverterCurrency()
}
package RegistryClasses{
class RegistryFreelancer{
+newFreelancer(name,expertise ,email,nif,bankAccount,address,country)
+generateFreelancerID(free)
+registerFreelancer(free)
}
}
class Freelancer {
-String id
-String name
-String email
-String nif
-String bankAccount
-String address
-String country
+Freelancer(name,expertise ,email,nif,bankAccount,address,country)
+validate()
+getExpertiseArray()
+setId(ID)
}
Interface ExternalConverterCurrency{
+getAvailableCountrys()
}

Enum FreelancerExpertise{
JUNIOR
SENIOR
}
}
FreelancerCreationUI ...> FreelancerCreationController
FreelancerCreationController ...> Platform
FreelancerCreationController ...> RegistryFreelancer
Platform "1" - -> ExternalConverterCurrency : has >
Freelancer"1" - -> "1"FreelancerExpertise : has >
Platform"1" - -> "*"Freelancer : has registered >
RegistryFreelancer"1" - - ->"*" Freelancer : has >

@enduml

PlantUML version 1.2020.09(Sun May 10 11:51:06 BST 2020)
(GPL source distribution)
Java Runtime: OpenJDK Runtime Environment
JVM: OpenJDK 64-Bit Server VM
Java Version: 11.0.7+10-b765.53
Operating System: Windows 10
Default Encoding: Cp1252
Language: pt
Country: PT
--></g></svg>