<?xml version="1.0" encoding="UTF-8" standalone="no"?><svg xmlns="http://www.w3.org/2000/svg" xmlns:xlink="http://www.w3.org/1999/xlink" contentScriptType="application/ecmascript" contentStyleType="text/css" height="266px" preserveAspectRatio="none" style="width:603px;height:266px;" version="1.1" viewBox="0 0 603 266" width="603px" zoomAndPan="magnify"><defs><filter height="300%" id="f1i06aof28yugr" width="300%" x="-1" y="-1"><feGaussianBlur result="blurOut" stdDeviation="2.0"/><feColorMatrix in="blurOut" result="blurOut2" type="matrix" values="0 0 0 0 0 0 0 0 0 0 0 0 0 0 0 0 0 0 .4 0"/><feOffset dx="4.0" dy="4.0" in="blurOut2" result="blurOut3"/><feBlend in="SourceGraphic" in2="blurOut3" mode="normal"/></filter></defs><g><!--MD5=[f483d6e5de34a60207b28a5563be5e8b]
class Collaborator--><rect fill="#FEFECE" filter="url(#f1i06aof28yugr)" height="75.6719" id="Collaborator" style="stroke: #A80036; stroke-width: 1.5;" width="100" x="6" y="35.5"/><ellipse cx="21" cy="51.5" fill="#ADD1B2" rx="11" ry="11" style="stroke: #A80036; stroke-width: 1.0;"/><path d="M23,48 Q23.2031,47.5 23.4375,47.25 Q23.6719,47 23.9375,47 Q24.4063,47 24.7031,47.2813 Q25,47.5625 25,48.2188 L25,49.7813 Q25,50.4375 24.7188,50.7188 Q24.4375,51 24,51 Q23.6094,51 23.3594,50.8281 Q23.1094,50.6563 23,50.2031 Q22.9531,49.8906 22.7813,49.7188 Q22.4688,49.3906 21.9063,49.2031 Q21.3438,49 20.7813,49 Q20.0781,49 19.4844,49.2813 Q18.9063,49.5625 18.4531,50.1875 Q18,50.8125 18,51.6719 L18,52.5938 Q18,53.625 18.8438,54.3125 Q19.6875,55 21.1875,55 Q22.0781,55 22.7031,54.7969 Q23.0625,54.6875 23.4688,54.3281 Q23.7344,54.125 23.875,54.0625 Q24.0156,54 24.1875,54 Q24.5156,54 24.75,54.2656 Q25,54.5156 25,54.875 Q25,55.2188 24.6563,55.625 Q24.1563,56.2188 23.3594,56.5469 Q22.3125,57 21.0313,57 Q19.5313,57 18.3281,56.4063 Q17.3594,55.9375 16.6719,54.9219 Q16,53.9063 16,52.7031 L16,51.6094 Q16,50.3594 16.5938,49.2656 Q17.2031,48.1719 18.25,47.5938 Q19.3125,47 20.5,47 Q21.2188,47 21.8438,47.25 Q22.4688,47.5 23,48 Z "/><text fill="#000000" font-family="sans-serif" font-size="12" lengthAdjust="spacingAndGlyphs" textLength="68" x="35" y="56.4102">Collaborator</text><line style="stroke: #A80036; stroke-width: 1.5;" x1="7" x2="105" y1="67.5" y2="67.5"/><rect fill="none" height="6" style="stroke: #C82930; stroke-width: 1.0;" width="6" x="14" y="75.5"/><text fill="#000000" font-family="sans-serif" font-size="11" lengthAdjust="spacingAndGlyphs" textLength="57" x="26" y="82.9189">String name</text><rect fill="none" height="6" style="stroke: #C82930; stroke-width: 1.0;" width="6" x="14" y="89.3359"/><text fill="#000000" font-family="sans-serif" font-size="11" lengthAdjust="spacingAndGlyphs" textLength="55" x="26" y="96.7549">String email</text><line style="stroke: #A80036; stroke-width: 1.5;" x1="7" x2="105" y1="103.1719" y2="103.1719"/><!--MD5=[1f687b5315377fe49fca59b457947463]
class Freelancer--><rect fill="#FEFECE" filter="url(#f1i06aof28yugr)" height="144.8516" id="Freelancer" style="stroke: #A80036; stroke-width: 1.5;" width="121" x="231" y="111"/><ellipse cx="259.5" cy="127" fill="#ADD1B2" rx="11" ry="11" style="stroke: #A80036; stroke-width: 1.0;"/><path d="M261.5,123.5 Q261.7031,123 261.9375,122.75 Q262.1719,122.5 262.4375,122.5 Q262.9063,122.5 263.2031,122.7813 Q263.5,123.0625 263.5,123.7188 L263.5,125.2813 Q263.5,125.9375 263.2188,126.2188 Q262.9375,126.5 262.5,126.5 Q262.1094,126.5 261.8594,126.3281 Q261.6094,126.1563 261.5,125.7031 Q261.4531,125.3906 261.2813,125.2188 Q260.9688,124.8906 260.4063,124.7031 Q259.8438,124.5 259.2813,124.5 Q258.5781,124.5 257.9844,124.7813 Q257.4063,125.0625 256.9531,125.6875 Q256.5,126.3125 256.5,127.1719 L256.5,128.0938 Q256.5,129.125 257.3438,129.8125 Q258.1875,130.5 259.6875,130.5 Q260.5781,130.5 261.2031,130.2969 Q261.5625,130.1875 261.9688,129.8281 Q262.2344,129.625 262.375,129.5625 Q262.5156,129.5 262.6875,129.5 Q263.0156,129.5 263.25,129.7656 Q263.5,130.0156 263.5,130.375 Q263.5,130.7188 263.1563,131.125 Q262.6563,131.7188 261.8594,132.0469 Q260.8125,132.5 259.5313,132.5 Q258.0313,132.5 256.8281,131.9063 Q255.8594,131.4375 255.1719,130.4219 Q254.5,129.4063 254.5,128.2031 L254.5,127.1094 Q254.5,125.8594 255.0938,124.7656 Q255.7031,123.6719 256.75,123.0938 Q257.8125,122.5 259,122.5 Q259.7188,122.5 260.3438,122.75 Q260.9688,123 261.5,123.5 Z "/><text fill="#000000" font-family="sans-serif" font-size="12" lengthAdjust="spacingAndGlyphs" textLength="59" x="276.5" y="131.9102">Freelancer</text><line style="stroke: #A80036; stroke-width: 1.5;" x1="232" x2="351" y1="143" y2="143"/><rect fill="none" height="6" style="stroke: #C82930; stroke-width: 1.0;" width="6" x="239" y="151"/><text fill="#000000" font-family="sans-serif" font-size="11" lengthAdjust="spacingAndGlyphs" textLength="39" x="251" y="158.4189">String id</text><rect fill="none" height="6" style="stroke: #C82930; stroke-width: 1.0;" width="6" x="239" y="164.8359"/><text fill="#000000" font-family="sans-serif" font-size="11" lengthAdjust="spacingAndGlyphs" textLength="57" x="251" y="172.2549">String name</text><rect fill="none" height="6" style="stroke: #C82930; stroke-width: 1.0;" width="6" x="239" y="178.6719"/><text fill="#000000" font-family="sans-serif" font-size="11" lengthAdjust="spacingAndGlyphs" textLength="55" x="251" y="186.0908">String email</text><rect fill="none" height="6" style="stroke: #C82930; stroke-width: 1.0;" width="6" x="239" y="192.5078"/><text fill="#000000" font-family="sans-serif" font-size="11" lengthAdjust="spacingAndGlyphs" textLength="43" x="251" y="199.9268">String nif</text><rect fill="none" height="6" style="stroke: #C82930; stroke-width: 1.0;" width="6" x="239" y="206.3438"/><text fill="#000000" font-family="sans-serif" font-size="11" lengthAdjust="spacingAndGlyphs" textLength="95" x="251" y="213.7627">String bankAccount</text><rect fill="none" height="6" style="stroke: #C82930; stroke-width: 1.0;" width="6" x="239" y="220.1797"/><text fill="#000000" font-family="sans-serif" font-size="11" lengthAdjust="spacingAndGlyphs" textLength="71" x="251" y="227.5986">String address</text><rect fill="none" height="6" style="stroke: #C82930; stroke-width: 1.0;" width="6" x="239" y="234.0156"/><text fill="#000000" font-family="sans-serif" font-size="11" lengthAdjust="spacingAndGlyphs" textLength="68" x="251" y="241.4346">String country</text><line style="stroke: #A80036; stroke-width: 1.5;" x1="232" x2="351" y1="247.8516" y2="247.8516"/><!--MD5=[99b8db98afdc2c8404e39242ef4c1e65]
class Platform--><rect fill="#FEFECE" filter="url(#f1i06aof28yugr)" height="48" id="Platform" style="stroke: #A80036; stroke-width: 1.5;" width="78" x="17" y="159.5"/><ellipse cx="32" cy="175.5" fill="#ADD1B2" rx="11" ry="11" style="stroke: #A80036; stroke-width: 1.0;"/><path d="M34,172 Q34.2031,171.5 34.4375,171.25 Q34.6719,171 34.9375,171 Q35.4063,171 35.7031,171.2813 Q36,171.5625 36,172.2188 L36,173.7813 Q36,174.4375 35.7188,174.7188 Q35.4375,175 35,175 Q34.6094,175 34.3594,174.8281 Q34.1094,174.6563 34,174.2031 Q33.9531,173.8906 33.7813,173.7188 Q33.4688,173.3906 32.9063,173.2031 Q32.3438,173 31.7813,173 Q31.0781,173 30.4844,173.2813 Q29.9063,173.5625 29.4531,174.1875 Q29,174.8125 29,175.6719 L29,176.5938 Q29,177.625 29.8438,178.3125 Q30.6875,179 32.1875,179 Q33.0781,179 33.7031,178.7969 Q34.0625,178.6875 34.4688,178.3281 Q34.7344,178.125 34.875,178.0625 Q35.0156,178 35.1875,178 Q35.5156,178 35.75,178.2656 Q36,178.5156 36,178.875 Q36,179.2188 35.6563,179.625 Q35.1563,180.2188 34.3594,180.5469 Q33.3125,181 32.0313,181 Q30.5313,181 29.3281,180.4063 Q28.3594,179.9375 27.6719,178.9219 Q27,177.9063 27,176.7031 L27,175.6094 Q27,174.3594 27.5938,173.2656 Q28.2031,172.1719 29.25,171.5938 Q30.3125,171 31.5,171 Q32.2188,171 32.8438,171.25 Q33.4688,171.5 34,172 Z "/><text fill="#000000" font-family="sans-serif" font-size="12" lengthAdjust="spacingAndGlyphs" textLength="46" x="46" y="180.4102">Platform</text><line style="stroke: #A80036; stroke-width: 1.5;" x1="18" x2="94" y1="191.5" y2="191.5"/><line style="stroke: #A80036; stroke-width: 1.5;" x1="18" x2="94" y1="199.5" y2="199.5"/><!--MD5=[393d5aca414e759d95d5fcf710bb2a1b]
class Expertise--><rect fill="#FEFECE" filter="url(#f1i06aof28yugr)" height="75.6719" id="Expertise" style="stroke: #A80036; stroke-width: 1.5;" width="83" x="486" y="145.5"/><ellipse cx="501" cy="161.5" fill="#EB937F" rx="11" ry="11" style="stroke: #A80036; stroke-width: 1.0;"/><path d="M499.5,162.5 L499.5,164.5 L503.5,164.5 L503.5,163.5 L503.5,163.0156 L504.125,162.5 L504.5,162.5 L504.875,162.5 L505.5,163.0156 L505.5,163.5 L505.5,166.5 L497.5,166.5 L497.0156,166.5 L496.5,165.875 L496.5,165.5 L496.5,165.125 L497.0156,164.5 L497.5,164.5 L497.5,164.5 L497.5,158.5 L497.5,158.5 L497.0156,158.5 L496.5,157.875 L496.5,157.5 L496.5,157.125 L497.0156,156.5 L497.5,156.5 L505.5,156.5 L505.5,159.5 L505.5,159.9844 L504.875,160.5 L504.5,160.5 L504.125,160.5 L503.5,159.9844 L503.5,159.5 L503.5,158.5 L499.5,158.5 L499.5,160.5 L500.5,160.5 L500.5,160.0156 L500.5,160.0156 L501.125,159.5 L501.5,159.5 L501.875,159.5 L502.5,160.0156 L502.5,160.5 L502.5,162.5 L502.5,162.9844 L501.875,163.5 L501.875,163.5 L501.5,163.5 L501.125,163.5 L500.5,162.9844 L500.5,162.9844 L500.5,162.5 L499.5,162.5 Z "/><text fill="#000000" font-family="sans-serif" font-size="12" lengthAdjust="spacingAndGlyphs" textLength="51" x="515" y="166.4102">Expertise</text><line style="stroke: #A80036; stroke-width: 1.5;" x1="487" x2="568" y1="177.5" y2="177.5"/><text fill="#000000" font-family="sans-serif" font-size="11" lengthAdjust="spacingAndGlyphs" textLength="36" x="492" y="192.9189">JUNIOR</text><text fill="#000000" font-family="sans-serif" font-size="11" lengthAdjust="spacingAndGlyphs" textLength="37" x="492" y="206.7549">SENIOR</text><line style="stroke: #A80036; stroke-width: 1.5;" x1="487" x2="568" y1="213.1719" y2="213.1719"/><!--MD5=[3fd616f346a44cd59a91eb10b19e157c]
class User--><rect fill="#FEFECE" filter="url(#f1i06aof28yugr)" height="89.5078" id="User" style="stroke: #A80036; stroke-width: 1.5;" width="129" x="463" y="8.5"/><ellipse cx="509.75" cy="24.5" fill="#ADD1B2" rx="11" ry="11" style="stroke: #A80036; stroke-width: 1.0;"/><path d="M511.75,21 Q511.9531,20.5 512.1875,20.25 Q512.4219,20 512.6875,20 Q513.1563,20 513.4531,20.2813 Q513.75,20.5625 513.75,21.2188 L513.75,22.7813 Q513.75,23.4375 513.4688,23.7188 Q513.1875,24 512.75,24 Q512.3594,24 512.1094,23.8281 Q511.8594,23.6563 511.75,23.2031 Q511.7031,22.8906 511.5313,22.7188 Q511.2188,22.3906 510.6563,22.2031 Q510.0938,22 509.5313,22 Q508.8281,22 508.2344,22.2813 Q507.6563,22.5625 507.2031,23.1875 Q506.75,23.8125 506.75,24.6719 L506.75,25.5938 Q506.75,26.625 507.5938,27.3125 Q508.4375,28 509.9375,28 Q510.8281,28 511.4531,27.7969 Q511.8125,27.6875 512.2188,27.3281 Q512.4844,27.125 512.625,27.0625 Q512.7656,27 512.9375,27 Q513.2656,27 513.5,27.2656 Q513.75,27.5156 513.75,27.875 Q513.75,28.2188 513.4063,28.625 Q512.9063,29.2188 512.1094,29.5469 Q511.0625,30 509.7813,30 Q508.2813,30 507.0781,29.4063 Q506.1094,28.9375 505.4219,27.9219 Q504.75,26.9063 504.75,25.7031 L504.75,24.6094 Q504.75,23.3594 505.3438,22.2656 Q505.9531,21.1719 507,20.5938 Q508.0625,20 509.25,20 Q509.9688,20 510.5938,20.25 Q511.2188,20.5 511.75,21 Z "/><text fill="#000000" font-family="sans-serif" font-size="12" lengthAdjust="spacingAndGlyphs" textLength="27" x="530.25" y="29.4102">User</text><line style="stroke: #A80036; stroke-width: 1.5;" x1="464" x2="591" y1="40.5" y2="40.5"/><rect fill="none" height="6" style="stroke: #C82930; stroke-width: 1.0;" width="6" x="471" y="48.5"/><text fill="#000000" font-family="sans-serif" font-size="11" lengthAdjust="spacingAndGlyphs" textLength="77" x="483" y="55.9189">String userEmail</text><rect fill="none" height="6" style="stroke: #C82930; stroke-width: 1.0;" width="6" x="471" y="62.3359"/><text fill="#000000" font-family="sans-serif" font-size="11" lengthAdjust="spacingAndGlyphs" textLength="80" x="483" y="69.7549">String userName</text><rect fill="none" height="6" style="stroke: #C82930; stroke-width: 1.0;" width="6" x="471" y="76.1719"/><text fill="#000000" font-family="sans-serif" font-size="11" lengthAdjust="spacingAndGlyphs" textLength="103" x="483" y="83.5908">String userPassword</text><line style="stroke: #A80036; stroke-width: 1.5;" x1="464" x2="591" y1="90.0078" y2="90.0078"/><!--MD5=[22697d4d863c2e08ab1d60ca0d61f844]
link Platform to Freelancer--><path d="M95.0355,183.5 C130.303,183.5 183.507,183.5 225.507,183.5 " fill="none" id="Platform-&gt;Freelancer" style="stroke: #A80036; stroke-width: 1.0;"/><polygon fill="#A80036" points="230.572,183.5,221.572,179.5,225.572,183.5,221.572,187.5,230.572,183.5" style="stroke: #A80036; stroke-width: 1.0;"/><text fill="#000000" font-family="sans-serif" font-size="13" lengthAdjust="spacingAndGlyphs" textLength="21" x="151.5" y="179.9951">has</text><polygon fill="#000000" points="175.5,173.1758,181.5,176.1758,175.5,179.1758,175.5,173.1758" style="stroke: #000000; stroke-width: 1.0;"/><text fill="#000000" font-family="sans-serif" font-size="13" lengthAdjust="spacingAndGlyphs" textLength="7" x="102.878" y="198.5025">1</text><text fill="#000000" font-family="sans-serif" font-size="13" lengthAdjust="spacingAndGlyphs" textLength="5" x="217.8417" y="198.0006">*</text><!--MD5=[d2c3650dbd07e79cdad2ffd4a879dec6]
link Collaborator to Freelancer--><path d="M106.234,96.694 C141.206,113.169 188.493,135.445 226.408,153.307 " fill="none" id="Collaborator-&gt;Freelancer" style="stroke: #A80036; stroke-width: 1.0;"/><polygon fill="#A80036" points="230.983,155.462,224.5469,148.007,226.4601,153.3305,221.1366,155.2437,230.983,155.462" style="stroke: #A80036; stroke-width: 1.0;"/><text fill="#000000" font-family="sans-serif" font-size="13" lengthAdjust="spacingAndGlyphs" textLength="50" x="137" y="107.9951">registers</text><polygon fill="#000000" points="190,101.1758,196,104.1758,190,107.1758,190,101.1758" style="stroke: #000000; stroke-width: 1.0;"/><text fill="#000000" font-family="sans-serif" font-size="13" lengthAdjust="spacingAndGlyphs" textLength="7" x="114.1262" y="114.8207">1</text><text fill="#000000" font-family="sans-serif" font-size="13" lengthAdjust="spacingAndGlyphs" textLength="5" x="217.9089" y="166.4218">*</text><!--MD5=[7b2632028b4a8b70293de5c8f2abf332]
link Freelancer to Expertise--><path d="M352.154,183.5 C392.033,183.5 443.722,183.5 480.438,183.5 " fill="none" id="Freelancer-&gt;Expertise" style="stroke: #A80036; stroke-width: 1.0;"/><polygon fill="#A80036" points="485.743,183.5,476.743,179.5,480.743,183.5,476.743,187.5,485.743,183.5" style="stroke: #A80036; stroke-width: 1.0;"/><text fill="#000000" font-family="sans-serif" font-size="13" lengthAdjust="spacingAndGlyphs" textLength="21" x="390.5" y="179.9951">has</text><polygon fill="#000000" points="414.5,173.1758,420.5,176.1758,414.5,179.1758,414.5,173.1758" style="stroke: #000000; stroke-width: 1.0;"/><text fill="#000000" font-family="sans-serif" font-size="13" lengthAdjust="spacingAndGlyphs" textLength="7" x="359.9728" y="198.0006">1</text><text fill="#000000" font-family="sans-serif" font-size="13" lengthAdjust="spacingAndGlyphs" textLength="7" x="470.9645" y="198.4285">1</text><!--MD5=[65ab54bb4516ebbc699d18e0b28e9aea]
link Freelancer to User--><path d="M352.154,150.359 C384.551,132.361 424.741,110.033 458.367,91.352 " fill="none" id="Freelancer-&gt;User" style="stroke: #A80036; stroke-width: 1.0;"/><polygon fill="#A80036" points="462.855,88.858,453.0451,89.7335,458.4846,91.2868,456.9312,96.7262,462.855,88.858" style="stroke: #A80036; stroke-width: 1.0;"/><text fill="#000000" font-family="sans-serif" font-size="13" lengthAdjust="spacingAndGlyphs" textLength="36" x="383" y="102.9951">act as</text><polygon fill="#000000" points="422,96.1758,428,99.1758,422,102.1758,422,96.1758" style="stroke: #000000; stroke-width: 1.0;"/><text fill="#000000" font-family="sans-serif" font-size="13" lengthAdjust="spacingAndGlyphs" textLength="7" x="359.9728" y="160.8205">1</text><text fill="#000000" font-family="sans-serif" font-size="13" lengthAdjust="spacingAndGlyphs" textLength="7" x="447.9757" y="107.4152">1</text><!--MD5=[04ce0ecdab38a3951889ff50c232570f]
link Collaborator to User--><path d="M106.357,71.397 C190.549,67.811 362.089,60.504 457.891,56.423 " fill="none" id="Collaborator-&gt;User" style="stroke: #A80036; stroke-width: 1.0;"/><polygon fill="#A80036" points="462.96,56.207,453.7979,52.5937,457.9645,56.4198,454.1384,60.5865,462.96,56.207" style="stroke: #A80036; stroke-width: 1.0;"/><text fill="#000000" font-family="sans-serif" font-size="13" lengthAdjust="spacingAndGlyphs" textLength="36" x="267" y="57.9951">act as</text><polygon fill="#000000" points="306,51.1758,312,54.1758,306,57.1758,306,51.1758" style="stroke: #000000; stroke-width: 1.0;"/><text fill="#000000" font-family="sans-serif" font-size="13" lengthAdjust="spacingAndGlyphs" textLength="7" x="113.9306" y="85.7692">1</text><text fill="#000000" font-family="sans-serif" font-size="13" lengthAdjust="spacingAndGlyphs" textLength="7" x="448.0929" y="70.9889">1</text><!--MD5=[5906358d9a5281f52525753baded178e]
@startuml
left to right direction

class Collaborator{
 -String name
 -String email
}

class Freelancer {
-String id
-String name
-String email
-String nif
-String bankAccount
-String address
-String country
}

class Platform {
}

enum Expertise {
JUNIOR
SENIOR
}

class User {
-String userEmail
-String userName
-String userPassword
}



Platform"1" - -> "*"Freelancer : has >
Collaborator"1"  - -> "*"Freelancer : registers >
Freelancer "1" - -> "1" Expertise : has >
Freelancer "1" - -> "1" User : act as >
Collaborator "1" - -> "1" User : act as  >


@enduml

PlantUML version 1.2020.09(Sun May 10 11:51:06 BST 2020)
(GPL source distribution)
Java Runtime: OpenJDK Runtime Environment
JVM: OpenJDK 64-Bit Server VM
Java Version: 11.0.7+10-b765.53
Operating System: Windows 10
Default Encoding: Cp1252
Language: pt
Country: PT
--></g></svg>