<?xml version="1.0" encoding="UTF-8" standalone="no"?><svg xmlns="http://www.w3.org/2000/svg" xmlns:xlink="http://www.w3.org/1999/xlink" contentScriptType="application/ecmascript" contentStyleType="text/css" height="324px" preserveAspectRatio="none" style="width:916px;height:324px;" version="1.1" viewBox="0 0 916 324" width="916px" zoomAndPan="magnify"><defs><filter height="300%" id="fxxi9jh2665j" width="300%" x="-1" y="-1"><feGaussianBlur result="blurOut" stdDeviation="2.0"/><feColorMatrix in="blurOut" result="blurOut2" type="matrix" values="0 0 0 0 0 0 0 0 0 0 0 0 0 0 0 0 0 0 .4 0"/><feOffset dx="4.0" dy="4.0" in="blurOut2" result="blurOut3"/><feBlend in="SourceGraphic" in2="blurOut3" mode="normal"/></filter></defs><g><!--MD5=[99b8db98afdc2c8404e39242ef4c1e65]
class Platform--><rect fill="#FEFECE" filter="url(#fxxi9jh2665j)" height="40" id="Platform" style="stroke: #A80036; stroke-width: 1.5;" width="84" x="6" y="148"/><ellipse cx="21" cy="164" fill="#ADD1B2" rx="11" ry="11" style="stroke: #A80036; stroke-width: 1.0;"/><path d="M23.9688,169.6406 Q23.3906,169.9375 22.75,170.0859 Q22.1094,170.2344 21.4063,170.2344 Q18.9063,170.2344 17.5859,168.5859 Q16.2656,166.9375 16.2656,163.8125 Q16.2656,160.6875 17.5859,159.0313 Q18.9063,157.375 21.4063,157.375 Q22.1094,157.375 22.7578,157.5313 Q23.4063,157.6875 23.9688,157.9844 L23.9688,160.7031 Q23.3438,160.125 22.75,159.8516 Q22.1563,159.5781 21.5313,159.5781 Q20.1875,159.5781 19.5,160.6484 Q18.8125,161.7188 18.8125,163.8125 Q18.8125,165.9063 19.5,166.9766 Q20.1875,168.0469 21.5313,168.0469 Q22.1563,168.0469 22.75,167.7734 Q23.3438,167.5 23.9688,166.9219 L23.9688,169.6406 Z "/><text fill="#000000" font-family="sans-serif" font-size="12" lengthAdjust="spacingAndGlyphs" textLength="52" x="35" y="168.1543">Platform</text><line style="stroke: #A80036; stroke-width: 1.5;" x1="7" x2="89" y1="180" y2="180"/><!--MD5=[86c7c362de55a38b660185a1328fe18d]
class Organization--><rect fill="#FEFECE" filter="url(#fxxi9jh2665j)" height="78.4141" id="Organization" style="stroke: #A80036; stroke-width: 1.5;" width="140" x="188" y="129"/><ellipse cx="216.5" cy="145" fill="#ADD1B2" rx="11" ry="11" style="stroke: #A80036; stroke-width: 1.0;"/><path d="M219.4688,150.6406 Q218.8906,150.9375 218.25,151.0859 Q217.6094,151.2344 216.9063,151.2344 Q214.4063,151.2344 213.0859,149.5859 Q211.7656,147.9375 211.7656,144.8125 Q211.7656,141.6875 213.0859,140.0313 Q214.4063,138.375 216.9063,138.375 Q217.6094,138.375 218.2578,138.5313 Q218.9063,138.6875 219.4688,138.9844 L219.4688,141.7031 Q218.8438,141.125 218.25,140.8516 Q217.6563,140.5781 217.0313,140.5781 Q215.6875,140.5781 215,141.6484 Q214.3125,142.7188 214.3125,144.8125 Q214.3125,146.9063 215,147.9766 Q215.6875,149.0469 217.0313,149.0469 Q217.6563,149.0469 218.25,148.7734 Q218.8438,148.5 219.4688,147.9219 L219.4688,150.6406 Z "/><text fill="#000000" font-family="sans-serif" font-size="12" lengthAdjust="spacingAndGlyphs" textLength="78" x="233.5" y="149.1543">Organization</text><line style="stroke: #A80036; stroke-width: 1.5;" x1="189" x2="327" y1="161" y2="161"/><rect fill="none" height="6" style="stroke: #C82930; stroke-width: 1.0;" width="6" x="196" y="169"/><text fill="#000000" font-family="sans-serif" font-size="11" lengthAdjust="spacingAndGlyphs" textLength="90" x="208" y="175.2104">String orgName</text><rect fill="none" height="6" style="stroke: #C82930; stroke-width: 1.0;" width="6" x="196" y="181.8047"/><text fill="#000000" font-family="sans-serif" font-size="11" lengthAdjust="spacingAndGlyphs" textLength="114" x="208" y="188.0151">Integer paymentDay</text><rect fill="none" height="6" style="stroke: #C82930; stroke-width: 1.0;" width="6" x="196" y="194.6094"/><text fill="#000000" font-family="sans-serif" font-size="11" lengthAdjust="spacingAndGlyphs" textLength="109" x="208" y="200.8198">Time paymentTime</text><!--MD5=[f483d6e5de34a60207b28a5563be5e8b]
class Collaborator--><rect fill="#FEFECE" filter="url(#fxxi9jh2665j)" height="65.6094" id="Collaborator" style="stroke: #A80036; stroke-width: 1.5;" width="109" x="462" y="143"/><ellipse cx="477" cy="159" fill="#ADD1B2" rx="11" ry="11" style="stroke: #A80036; stroke-width: 1.0;"/><path d="M479.9688,164.6406 Q479.3906,164.9375 478.75,165.0859 Q478.1094,165.2344 477.4063,165.2344 Q474.9063,165.2344 473.5859,163.5859 Q472.2656,161.9375 472.2656,158.8125 Q472.2656,155.6875 473.5859,154.0313 Q474.9063,152.375 477.4063,152.375 Q478.1094,152.375 478.7578,152.5313 Q479.4063,152.6875 479.9688,152.9844 L479.9688,155.7031 Q479.3438,155.125 478.75,154.8516 Q478.1563,154.5781 477.5313,154.5781 Q476.1875,154.5781 475.5,155.6484 Q474.8125,156.7188 474.8125,158.8125 Q474.8125,160.9063 475.5,161.9766 Q476.1875,163.0469 477.5313,163.0469 Q478.1563,163.0469 478.75,162.7734 Q479.3438,162.5 479.9688,161.9219 L479.9688,164.6406 Z "/><text fill="#000000" font-family="sans-serif" font-size="12" lengthAdjust="spacingAndGlyphs" textLength="77" x="491" y="163.1543">Collaborator</text><line style="stroke: #A80036; stroke-width: 1.5;" x1="463" x2="570" y1="175" y2="175"/><rect fill="none" height="6" style="stroke: #C82930; stroke-width: 1.0;" width="6" x="470" y="183"/><text fill="#000000" font-family="sans-serif" font-size="11" lengthAdjust="spacingAndGlyphs" textLength="70" x="482" y="189.2104">String name</text><rect fill="none" height="6" style="stroke: #C82930; stroke-width: 1.0;" width="6" x="470" y="195.8047"/><text fill="#000000" font-family="sans-serif" font-size="11" lengthAdjust="spacingAndGlyphs" textLength="69" x="482" y="202.0151">String email</text><!--MD5=[b24ed8d4ae84bae9290d9aab401637c7]
class Manager--><rect fill="#FEFECE" filter="url(#fxxi9jh2665j)" height="65.6094" id="Manager" style="stroke: #A80036; stroke-width: 1.5;" width="96" x="468.5" y="42"/><ellipse cx="487.55" cy="58" fill="#ADD1B2" rx="11" ry="11" style="stroke: #A80036; stroke-width: 1.0;"/><path d="M490.5188,63.6406 Q489.9406,63.9375 489.3,64.0859 Q488.6594,64.2344 487.9563,64.2344 Q485.4563,64.2344 484.1359,62.5859 Q482.8156,60.9375 482.8156,57.8125 Q482.8156,54.6875 484.1359,53.0313 Q485.4563,51.375 487.9563,51.375 Q488.6594,51.375 489.3078,51.5313 Q489.9563,51.6875 490.5188,51.9844 L490.5188,54.7031 Q489.8938,54.125 489.3,53.8516 Q488.7063,53.5781 488.0813,53.5781 Q486.7375,53.5781 486.05,54.6484 Q485.3625,55.7188 485.3625,57.8125 Q485.3625,59.9063 486.05,60.9766 Q486.7375,62.0469 488.0813,62.0469 Q488.7063,62.0469 489.3,61.7734 Q489.8938,61.5 490.5188,60.9219 L490.5188,63.6406 Z "/><text fill="#000000" font-family="sans-serif" font-size="12" lengthAdjust="spacingAndGlyphs" textLength="55" x="502.45" y="62.1543">Manager</text><line style="stroke: #A80036; stroke-width: 1.5;" x1="469.5" x2="563.5" y1="74" y2="74"/><rect fill="none" height="6" style="stroke: #C82930; stroke-width: 1.0;" width="6" x="476.5" y="82"/><text fill="#000000" font-family="sans-serif" font-size="11" lengthAdjust="spacingAndGlyphs" textLength="70" x="488.5" y="88.2104">String name</text><rect fill="none" height="6" style="stroke: #C82930; stroke-width: 1.0;" width="6" x="476.5" y="94.8047"/><text fill="#000000" font-family="sans-serif" font-size="11" lengthAdjust="spacingAndGlyphs" textLength="69" x="488.5" y="101.0151">String email</text><!--MD5=[3fd616f346a44cd59a91eb10b19e157c]
class User--><rect fill="#FEFECE" filter="url(#fxxi9jh2665j)" height="78.4141" id="User" style="stroke: #A80036; stroke-width: 1.5;" width="146" x="727.5" y="36"/><ellipse cx="781.75" cy="52" fill="#ADD1B2" rx="11" ry="11" style="stroke: #A80036; stroke-width: 1.0;"/><path d="M784.7188,57.6406 Q784.1406,57.9375 783.5,58.0859 Q782.8594,58.2344 782.1563,58.2344 Q779.6563,58.2344 778.3359,56.5859 Q777.0156,54.9375 777.0156,51.8125 Q777.0156,48.6875 778.3359,47.0313 Q779.6563,45.375 782.1563,45.375 Q782.8594,45.375 783.5078,45.5313 Q784.1563,45.6875 784.7188,45.9844 L784.7188,48.7031 Q784.0938,48.125 783.5,47.8516 Q782.9063,47.5781 782.2813,47.5781 Q780.9375,47.5781 780.25,48.6484 Q779.5625,49.7188 779.5625,51.8125 Q779.5625,53.9063 780.25,54.9766 Q780.9375,56.0469 782.2813,56.0469 Q782.9063,56.0469 783.5,55.7734 Q784.0938,55.5 784.7188,54.9219 L784.7188,57.6406 Z "/><text fill="#000000" font-family="sans-serif" font-size="12" lengthAdjust="spacingAndGlyphs" textLength="29" x="802.25" y="56.1543">User</text><line style="stroke: #A80036; stroke-width: 1.5;" x1="728.5" x2="872.5" y1="68" y2="68"/><rect fill="none" height="6" style="stroke: #C82930; stroke-width: 1.0;" width="6" x="735.5" y="76"/><text fill="#000000" font-family="sans-serif" font-size="11" lengthAdjust="spacingAndGlyphs" textLength="95" x="747.5" y="82.2104">String userEmail</text><rect fill="none" height="6" style="stroke: #C82930; stroke-width: 1.0;" width="6" x="735.5" y="88.8047"/><text fill="#000000" font-family="sans-serif" font-size="11" lengthAdjust="spacingAndGlyphs" textLength="97" x="747.5" y="95.0151">String userName</text><rect fill="none" height="6" style="stroke: #C82930; stroke-width: 1.0;" width="6" x="735.5" y="101.6094"/><text fill="#000000" font-family="sans-serif" font-size="11" lengthAdjust="spacingAndGlyphs" textLength="120" x="747.5" y="107.8198">String userPassword</text><!--MD5=[4555bb1b0911a5adf28ce6dbe60fed2e]
class Transaction--><rect fill="#FEFECE" filter="url(#fxxi9jh2665j)" height="104.0234" id="Transaction" style="stroke: #A80036; stroke-width: 1.5;" width="209" x="696" y="209"/><ellipse cx="759.25" cy="225" fill="#ADD1B2" rx="11" ry="11" style="stroke: #A80036; stroke-width: 1.0;"/><path d="M762.2188,230.6406 Q761.6406,230.9375 761,231.0859 Q760.3594,231.2344 759.6563,231.2344 Q757.1563,231.2344 755.8359,229.5859 Q754.5156,227.9375 754.5156,224.8125 Q754.5156,221.6875 755.8359,220.0313 Q757.1563,218.375 759.6563,218.375 Q760.3594,218.375 761.0078,218.5313 Q761.6563,218.6875 762.2188,218.9844 L762.2188,221.7031 Q761.5938,221.125 761,220.8516 Q760.4063,220.5781 759.7813,220.5781 Q758.4375,220.5781 757.75,221.6484 Q757.0625,222.7188 757.0625,224.8125 Q757.0625,226.9063 757.75,227.9766 Q758.4375,229.0469 759.7813,229.0469 Q760.4063,229.0469 761,228.7734 Q761.5938,228.5 762.2188,227.9219 L762.2188,230.6406 Z "/><text fill="#000000" font-family="sans-serif" font-size="12" lengthAdjust="spacingAndGlyphs" textLength="74" x="779.75" y="229.1543">Transaction</text><line style="stroke: #A80036; stroke-width: 1.5;" x1="697" x2="904" y1="241" y2="241"/><rect fill="none" height="6" style="stroke: #C82930; stroke-width: 1.0;" width="6" x="704" y="249"/><text fill="#000000" font-family="sans-serif" font-size="11" lengthAdjust="spacingAndGlyphs" textLength="85" x="716" y="255.2104">Integer transID</text><rect fill="none" height="6" style="stroke: #C82930; stroke-width: 1.0;" width="6" x="704" y="261.8047"/><text fill="#000000" font-family="sans-serif" font-size="11" lengthAdjust="spacingAndGlyphs" textLength="104" x="716" y="268.0151">Boolean transPaid</text><rect fill="none" height="6" style="stroke: #C82930; stroke-width: 1.0;" width="6" x="704" y="274.6094"/><text fill="#000000" font-family="sans-serif" font-size="11" lengthAdjust="spacingAndGlyphs" textLength="143" x="716" y="280.8198">Date executionFinishDate</text><rect fill="none" height="6" style="stroke: #C82930; stroke-width: 1.0;" width="6" x="704" y="287.4141"/><text fill="#000000" font-family="sans-serif" font-size="11" lengthAdjust="spacingAndGlyphs" textLength="129" x="716" y="293.6245">Integer executionDelay</text><rect fill="none" height="6" style="stroke: #C82930; stroke-width: 1.0;" width="6" x="704" y="300.2188"/><text fill="#000000" font-family="sans-serif" font-size="11" lengthAdjust="spacingAndGlyphs" textLength="183" x="716" y="306.4292">String executionBriefDescription</text><!--MD5=[7640e466c042ba2d6f9c19c816f7f0fc]
link Platform to Organization--><path d="M90.244,168 C116.6248,168 151.3537,168 182.366,168 " fill="none" id="Platform-&gt;Organization" style="stroke: #A80036; stroke-width: 1.0;"/><polygon fill="#A80036" points="187.7086,168,178.7086,164,182.7086,168,178.7086,172,187.7086,168" style="stroke: #A80036; stroke-width: 1.0;"/><text fill="#000000" font-family="sans-serif" font-size="13" lengthAdjust="spacingAndGlyphs" textLength="23" x="121" y="164.0669">has</text><polygon fill="#000000" points="147,158.0664,153,161.0664,147,164.0664,147,158.0664" style="stroke: #000000; stroke-width: 1.0;"/><text fill="#000000" font-family="sans-serif" font-size="13" lengthAdjust="spacingAndGlyphs" textLength="8" x="97.9032" y="181.3201">1</text><text fill="#000000" font-family="sans-serif" font-size="13" lengthAdjust="spacingAndGlyphs" textLength="7" x="173.0989" y="180.8258">*</text><!--MD5=[3781be57b219e856d6dd67e0b949b069]
link Platform to Transaction--><path d="M90.2505,186.9649 C117.7031,198.7696 154.4905,213.6266 188,224 C391.8803,287.1146 452.6932,277.1287 666,270 C674.0384,269.7314 682.3426,269.3726 690.6962,268.9529 " fill="none" id="Platform-&gt;Transaction" style="stroke: #A80036; stroke-width: 1.0;"/><polygon fill="#A80036" points="695.902,268.6839,686.7076,265.1536,690.9087,268.9419,687.1204,273.143,695.902,268.6839" style="stroke: #A80036; stroke-width: 1.0;"/><text fill="#000000" font-family="sans-serif" font-size="13" lengthAdjust="spacingAndGlyphs" textLength="35" x="371" y="263.0669">it has</text><polygon fill="#000000" points="409,257.0664,415,260.0664,409,263.0664,409,257.0664" style="stroke: #000000; stroke-width: 1.0;"/><text fill="#000000" font-family="sans-serif" font-size="13" lengthAdjust="spacingAndGlyphs" textLength="8" x="97.9107" y="203.426">1</text><text fill="#000000" font-family="sans-serif" font-size="13" lengthAdjust="spacingAndGlyphs" textLength="7" x="680.9636" y="281.8699">*</text><!--MD5=[45817597bcd7048073a670d966abfd17]
link Organization to Collaborator--><path d="M328.129,192.6263 C338.0493,195.26 348.2057,197.5167 358,199 C390.5181,203.9247 399.401,203.3573 432,199 C440.1118,197.9157 448.5482,196.2706 456.8142,194.3483 " fill="none" id="Organization-&gt;Collaborator" style="stroke: #A80036; stroke-width: 1.0;"/><polygon fill="#A80036" points="461.9344,193.1182,452.249,191.3315,457.0728,194.2863,454.118,199.1101,461.9344,193.1182" style="stroke: #A80036; stroke-width: 1.0;"/><text fill="#000000" font-family="sans-serif" font-size="13" lengthAdjust="spacingAndGlyphs" textLength="25" x="376" y="195.0669">Has</text><polygon fill="#000000" points="404,189.0664,410,192.0664,404,195.0664,404,189.0664" style="stroke: #000000; stroke-width: 1.0;"/><text fill="#000000" font-family="sans-serif" font-size="13" lengthAdjust="spacingAndGlyphs" textLength="8" x="335.7736" y="207.9917">1</text><text fill="#000000" font-family="sans-serif" font-size="13" lengthAdjust="spacingAndGlyphs" textLength="7" x="447.1318" y="208.5283">*</text><!--MD5=[4e1e6a824b75a9169b4f8be654b0a272]
link Collaborator to Organization--><path d="M461.793,174.3069 C424.4885,173.1524 374.5967,171.6084 333.5158,170.337 " fill="none" id="Collaborator-&gt;Organization" style="stroke: #A80036; stroke-width: 1.0;"/><polygon fill="#A80036" points="328.2948,170.1755,337.1667,174.4521,333.2924,170.3302,337.4143,166.4559,328.2948,170.1755" style="stroke: #A80036; stroke-width: 1.0;"/><polygon fill="#000000" points="366,162.0664,360,165.0664,366,168.0664,366,162.0664" style="stroke: #000000; stroke-width: 1.0;"/><text fill="#000000" font-family="sans-serif" font-size="13" lengthAdjust="spacingAndGlyphs" textLength="59" x="372" y="168.0669">Works for</text><text fill="#000000" font-family="sans-serif" font-size="13" lengthAdjust="spacingAndGlyphs" textLength="8" x="445.9042" y="187.1893">1</text><text fill="#000000" font-family="sans-serif" font-size="13" lengthAdjust="spacingAndGlyphs" textLength="8" x="335.9565" y="183.2257">1</text><!--MD5=[bc039f41cf0b27fadee5cae63fc6e1fe]
link Organization to Manager--><path d="M328.2948,142.7102 C370.7901,127.4218 424.1064,108.2402 463.1324,94.2 " fill="none" id="Organization-&gt;Manager" style="stroke: #A80036; stroke-width: 1.0;"/><polygon fill="#A80036" points="468.3002,92.3407,458.4775,91.6237,463.5954,94.0334,461.1858,99.1513,468.3002,92.3407" style="stroke: #A80036; stroke-width: 1.0;"/><text fill="#000000" font-family="sans-serif" font-size="13" lengthAdjust="spacingAndGlyphs" textLength="25" x="376" y="104.0669">Has</text><polygon fill="#000000" points="404,98.0664,410,101.0664,404,104.0664,404,98.0664" style="stroke: #000000; stroke-width: 1.0;"/><text fill="#000000" font-family="sans-serif" font-size="13" lengthAdjust="spacingAndGlyphs" textLength="8" x="335.9565" y="152.928">1</text><text fill="#000000" font-family="sans-serif" font-size="13" lengthAdjust="spacingAndGlyphs" textLength="7" x="453.3837" y="108.2514">*</text><!--MD5=[8b5db564ea9bd1758097b07ca3fd81a4]
link Collaborator to Transaction--><path d="M571.2581,192.3889 C605.1788,202.5412 649.9437,215.9391 690.9075,228.1994 " fill="none" id="Collaborator-&gt;Transaction" style="stroke: #A80036; stroke-width: 1.0;"/><polygon fill="#A80036" points="695.8832,229.6886,688.4081,223.2759,691.0932,228.2549,686.1142,230.94,695.8832,229.6886" style="stroke: #A80036; stroke-width: 1.0;"/><text fill="#000000" font-family="sans-serif" font-size="13" lengthAdjust="spacingAndGlyphs" textLength="50" x="602" y="200.0669">Creates</text><polygon fill="#000000" points="655,194.0664,661,197.0664,655,200.0664,655,194.0664" style="stroke: #000000; stroke-width: 1.0;"/><text fill="#000000" font-family="sans-serif" font-size="13" lengthAdjust="spacingAndGlyphs" textLength="8" x="579.1537" y="207.701">1</text><text fill="#000000" font-family="sans-serif" font-size="13" lengthAdjust="spacingAndGlyphs" textLength="7" x="680.9434" y="240.0109">*</text><!--MD5=[4b35f5cbbb9f0916ba1866e97e83f62f]
link Transaction to Organization--><path d="M695.6663,262.0248 C628.4164,261.0623 539.499,256.7674 462,243 C414.3847,234.5413 403.3906,227.6872 358,211 C349.7687,207.9739 341.2356,204.6319 332.7807,201.188 " fill="none" id="Transaction-&gt;Organization" style="stroke: #A80036; stroke-width: 1.0;"/><polygon fill="#A80036" points="328.0939,199.2656,334.9026,206.3819,332.7198,201.1631,337.9386,198.9804,328.0939,199.2656" style="stroke: #A80036; stroke-width: 1.0;"/><polygon fill="#000000" points="511,233.0664,505,236.0664,511,239.0664,511,233.0664" style="stroke: #000000; stroke-width: 1.0;"/><text fill="#000000" font-family="sans-serif" font-size="13" lengthAdjust="spacingAndGlyphs" textLength="12" x="517" y="239.0669">of</text><text fill="#000000" font-family="sans-serif" font-size="13" lengthAdjust="spacingAndGlyphs" textLength="7" x="681.0491" y="258.6403">*</text><text fill="#000000" font-family="sans-serif" font-size="13" lengthAdjust="spacingAndGlyphs" textLength="8" x="336.2043" y="220.7473">1</text><!--MD5=[04ce0ecdab38a3951889ff50c232570f]
link Collaborator to User--><path d="M571.2581,156.5262 C614.1903,141.258 674.4936,119.8121 722.4757,102.7481 " fill="none" id="Collaborator-&gt;User" style="stroke: #A80036; stroke-width: 1.0;"/><polygon fill="#A80036" points="727.3745,101.0059,717.5545,100.2529,722.6636,102.6813,720.2351,107.7904,727.3745,101.0059" style="stroke: #A80036; stroke-width: 1.0;"/><text fill="#000000" font-family="sans-serif" font-size="13" lengthAdjust="spacingAndGlyphs" textLength="10" x="622" y="122.0669">is</text><polygon fill="#000000" points="635,116.0664,641,119.0664,635,122.0664,635,116.0664" style="stroke: #000000; stroke-width: 1.0;"/><text fill="#000000" font-family="sans-serif" font-size="13" lengthAdjust="spacingAndGlyphs" textLength="8" x="579.1537" y="167.0193">1</text><text fill="#000000" font-family="sans-serif" font-size="13" lengthAdjust="spacingAndGlyphs" textLength="8" x="711.4209" y="116.5136">1</text><!--MD5=[6eb6e197a729f6ec2412743e0bdbca1d]
link Manager to User--><path d="M564.6767,75 C607.7463,75 671.6593,75 722.088,75 " fill="none" id="Manager-&gt;User" style="stroke: #A80036; stroke-width: 1.0;"/><polygon fill="#A80036" points="727.2346,75,718.2346,71,722.2346,75,718.2346,79,727.2346,75" style="stroke: #A80036; stroke-width: 1.0;"/><text fill="#000000" font-family="sans-serif" font-size="13" lengthAdjust="spacingAndGlyphs" textLength="10" x="622" y="71.0669">is</text><polygon fill="#000000" points="635,65.0664,641,68.0664,635,71.0664,635,65.0664" style="stroke: #000000; stroke-width: 1.0;"/><text fill="#000000" font-family="sans-serif" font-size="13" lengthAdjust="spacingAndGlyphs" textLength="8" x="572.3402" y="88.2069">1</text><text fill="#000000" font-family="sans-serif" font-size="13" lengthAdjust="spacingAndGlyphs" textLength="8" x="711.2666" y="87.8258">1</text><!--MD5=[0cdafcc0dad84b6396b2a91da681dfee]
link Platform to User--><path d="M90.2425,149.7817 C117.8483,138.1296 154.8077,123.0053 188,111 C352.1515,51.6283 397.4837,4.9527 571,24 C621.9816,29.5964 678.2087,41.9863 722.2487,53.1523 " fill="none" id="Platform-&gt;User" style="stroke: #A80036; stroke-width: 1.0;"/><polygon fill="#A80036" points="727.2852,54.4374,719.5537,48.3363,722.4405,53.2011,717.5756,56.0879,727.2852,54.4374" style="stroke: #A80036; stroke-width: 1.0;"/><text fill="#000000" font-family="sans-serif" font-size="13" lengthAdjust="spacingAndGlyphs" textLength="23" x="377" y="21.0669">has</text><polygon fill="#000000" points="403,15.0664,409,18.0664,403,21.0664,403,15.0664" style="stroke: #000000; stroke-width: 1.0;"/><text fill="#000000" font-family="sans-serif" font-size="13" lengthAdjust="spacingAndGlyphs" textLength="8" x="97.9014" y="160.0844">1</text><text fill="#000000" font-family="sans-serif" font-size="13" lengthAdjust="spacingAndGlyphs" textLength="7" x="712.374" y="65.1427">*</text><!--MD5=[69d6a92ca0058730f4d64fdadc628a42]
@startuml
hide methods
left to right direction


class Platform {

}

class Organization {
  -String orgName
  -Integer paymentDay
  -Time paymentTime
}

class Collaborator {
  -String name
  -String email
}

class Manager {
  -String name
  -String email
}

class User{
-String userEmail
-String userName
-String userPassword
}

class Transaction {
-Integer transID
-Boolean transPaid
-Date executionFinishDate
-Integer executionDelay
-String executionBriefDescription
}


Platform"1" - -> "*" Organization : has >
Platform"1" - ->"*" Transaction : it has >
Organization"1" - -> "*"Collaborator : Has >
Organization"1" - -> "*"Manager : Has >
Collaborator"1" - -> "1" Organization : Works for >
Collaborator"1" - ->"*" Transaction : Creates >
Transaction"*" - ->"1" Organization : of >
Collaborator"1" - ->"1" User : is  >
Manager "1" - -> "1" User: is >
Platform"1" - ->"*" User : has >
@enduml

PlantUML version 1.2019.12(Sun Nov 03 10:24:54 UTC 2019)
(GPL source distribution)
Java Runtime: OpenJDK Runtime Environment
JVM: OpenJDK 64-Bit Server VM
Java Version: 1.8.0_232-heroku-b09
Operating System: Linux
Default Encoding: UTF-8
Language: en
Country: US
--></g></svg>