<?xml version="1.0" encoding="UTF-8" standalone="no"?><svg xmlns="http://www.w3.org/2000/svg" xmlns:xlink="http://www.w3.org/1999/xlink" contentScriptType="application/ecmascript" contentStyleType="text/css" height="381px" preserveAspectRatio="none" style="width:1764px;height:381px;" version="1.1" viewBox="0 0 1764 381" width="1764px" zoomAndPan="magnify"><defs><filter height="300%" id="f1sujf3k2dj3yg" width="300%" x="-1" y="-1"><feGaussianBlur result="blurOut" stdDeviation="2.0"/><feColorMatrix in="blurOut" result="blurOut2" type="matrix" values="0 0 0 0 0 0 0 0 0 0 0 0 0 0 0 0 0 0 .4 0"/><feOffset dx="4.0" dy="4.0" in="blurOut2" result="blurOut3"/><feBlend in="SourceGraphic" in2="blurOut3" mode="normal"/></filter></defs><g><!--MD5=[64e2e010ba86d7988e5cd73bd64f61f9]
cluster ui--><polygon fill="#FFFFFF" filter="url(#f1sujf3k2dj3yg)" points="14,139,34,139,41,161.2969,213,161.2969,213,222,14,222,14,139" style="stroke: #000000; stroke-width: 1.5;"/><line style="stroke: #000000; stroke-width: 1.5;" x1="14" x2="41" y1="161.2969" y2="161.2969"/><text fill="#000000" font-family="sans-serif" font-size="14" font-weight="bold" lengthAdjust="spacingAndGlyphs" textLength="14" x="18" y="153.9951">ui</text><!--MD5=[10ea673caf457862023e152271927b45]
cluster controller--><polygon fill="#FFFFFF" filter="url(#f1sujf3k2dj3yg)" points="258,126,341,126,348,148.2969,530,148.2969,530,235,258,235,258,126" style="stroke: #000000; stroke-width: 1.5;"/><line style="stroke: #000000; stroke-width: 1.5;" x1="258" x2="348" y1="148.2969" y2="148.2969"/><text fill="#000000" font-family="sans-serif" font-size="14" font-weight="bold" lengthAdjust="spacingAndGlyphs" textLength="77" x="262" y="140.9951">controller</text><!--MD5=[b8e8f05765f8aabfbcdb4df279087e68]
cluster login--><polygon fill="#FFFFFF" filter="url(#f1sujf3k2dj3yg)" points="587.5,16,631.5,16,638.5,38.2969,749.5,38.2969,749.5,113,587.5,113,587.5,16" style="stroke: #000000; stroke-width: 1.5;"/><line style="stroke: #000000; stroke-width: 1.5;" x1="587.5" x2="638.5" y1="38.2969" y2="38.2969"/><text fill="#000000" font-family="sans-serif" font-size="14" font-weight="bold" lengthAdjust="spacingAndGlyphs" textLength="38" x="591.5" y="30.9951">login</text><!--MD5=[5d4cd377749310b66bf14896f5cd8d9b]
cluster model--><polygon fill="#FFFFFF" filter="url(#f1sujf3k2dj3yg)" points="575,127,629,127,636,149.2969,1742,149.2969,1742,369,575,369,575,127" style="stroke: #000000; stroke-width: 1.5;"/><line style="stroke: #000000; stroke-width: 1.5;" x1="575" x2="636" y1="149.2969" y2="149.2969"/><text fill="#000000" font-family="sans-serif" font-size="14" font-weight="bold" lengthAdjust="spacingAndGlyphs" textLength="48" x="579" y="141.9951">model</text><!--MD5=[272379cf1f80536b6294ad33393ecec2]
cluster registry--><polygon fill="#FFFFFF" filter="url(#f1sujf3k2dj3yg)" points="893,180,961,180,968,202.2969,1080,202.2969,1080,277,893,277,893,180" style="stroke: #000000; stroke-width: 1.5;"/><line style="stroke: #000000; stroke-width: 1.5;" x1="893" x2="968" y1="202.2969" y2="202.2969"/><text fill="#000000" font-family="sans-serif" font-size="14" font-weight="bold" lengthAdjust="spacingAndGlyphs" textLength="62" x="897" y="194.9951">registry</text><!--MD5=[cea3d46a72a829db3df33ddc53a0582a]
class SetPaymentsDatetimeUI--><rect fill="#FEFECE" filter="url(#f1sujf3k2dj3yg)" height="48" id="SetPaymentsDatetimeUI" style="stroke: #A80036; stroke-width: 1.5;" width="183" x="22" y="166"/><ellipse cx="37" cy="182" fill="#ADD1B2" rx="11" ry="11" style="stroke: #A80036; stroke-width: 1.0;"/><path d="M39.9688,187.6406 Q39.3906,187.9375 38.75,188.0859 Q38.1094,188.2344 37.4063,188.2344 Q34.9063,188.2344 33.5859,186.5859 Q32.2656,184.9375 32.2656,181.8125 Q32.2656,178.6875 33.5859,177.0313 Q34.9063,175.375 37.4063,175.375 Q38.1094,175.375 38.7578,175.5313 Q39.4063,175.6875 39.9688,175.9844 L39.9688,178.7031 Q39.3438,178.125 38.75,177.8516 Q38.1563,177.5781 37.5313,177.5781 Q36.1875,177.5781 35.5,178.6484 Q34.8125,179.7188 34.8125,181.8125 Q34.8125,183.9063 35.5,184.9766 Q36.1875,186.0469 37.5313,186.0469 Q38.1563,186.0469 38.75,185.7734 Q39.3438,185.5 39.9688,184.9219 L39.9688,187.6406 Z "/><text fill="#000000" font-family="sans-serif" font-size="12" lengthAdjust="spacingAndGlyphs" textLength="151" x="51" y="186.1543">SetPaymentsDatetimeUI</text><line style="stroke: #A80036; stroke-width: 1.5;" x1="23" x2="204" y1="198" y2="198"/><line style="stroke: #A80036; stroke-width: 1.5;" x1="23" x2="204" y1="206" y2="206"/><!--MD5=[cbc0129207d0b1208da6b1ef8c5a5817]
class SetPaymentsDatetimeController--><rect fill="#FEFECE" filter="url(#f1sujf3k2dj3yg)" height="73.6094" id="SetPaymentsDatetimeController" style="stroke: #A80036; stroke-width: 1.5;" width="256" x="266" y="153"/><ellipse cx="291.8" cy="169" fill="#ADD1B2" rx="11" ry="11" style="stroke: #A80036; stroke-width: 1.0;"/><path d="M294.7688,174.6406 Q294.1906,174.9375 293.55,175.0859 Q292.9094,175.2344 292.2063,175.2344 Q289.7063,175.2344 288.3859,173.5859 Q287.0656,171.9375 287.0656,168.8125 Q287.0656,165.6875 288.3859,164.0313 Q289.7063,162.375 292.2063,162.375 Q292.9094,162.375 293.5578,162.5313 Q294.2063,162.6875 294.7688,162.9844 L294.7688,165.7031 Q294.1438,165.125 293.55,164.8516 Q292.9563,164.5781 292.3313,164.5781 Q290.9875,164.5781 290.3,165.6484 Q289.6125,166.7188 289.6125,168.8125 Q289.6125,170.9063 290.3,171.9766 Q290.9875,173.0469 292.3313,173.0469 Q292.9563,173.0469 293.55,172.7734 Q294.1438,172.5 294.7688,171.9219 L294.7688,174.6406 Z "/><text fill="#000000" font-family="sans-serif" font-size="12" lengthAdjust="spacingAndGlyphs" textLength="200" x="308.2" y="173.1543">SetPaymentsDatetimeController</text><line style="stroke: #A80036; stroke-width: 1.5;" x1="267" x2="521" y1="185" y2="185"/><line style="stroke: #A80036; stroke-width: 1.5;" x1="267" x2="521" y1="193" y2="193"/><text fill="#000000" font-family="sans-serif" font-size="11" lengthAdjust="spacingAndGlyphs" textLength="106" x="272" y="207.2104">+getOrganization()</text><text fill="#000000" font-family="sans-serif" font-size="11" lengthAdjust="spacingAndGlyphs" textLength="244" x="272" y="220.0151">+registerPaymentsDatetime(day,hour,min)</text><!--MD5=[e1e79fb7675434802d8a5d105105c07e]
class LoginSystem--><rect fill="#FEFECE" filter="url(#f1sujf3k2dj3yg)" height="60.8047" id="LoginSystem" style="stroke: #A80036; stroke-width: 1.5;" width="146" x="595.5" y="43.5"/><ellipse cx="626.7" cy="59.5" fill="#ADD1B2" rx="11" ry="11" style="stroke: #A80036; stroke-width: 1.0;"/><path d="M629.6688,65.1406 Q629.0906,65.4375 628.45,65.5859 Q627.8094,65.7344 627.1063,65.7344 Q624.6063,65.7344 623.2859,64.0859 Q621.9656,62.4375 621.9656,59.3125 Q621.9656,56.1875 623.2859,54.5313 Q624.6063,52.875 627.1063,52.875 Q627.8094,52.875 628.4578,53.0313 Q629.1063,53.1875 629.6688,53.4844 L629.6688,56.2031 Q629.0438,55.625 628.45,55.3516 Q627.8563,55.0781 627.2313,55.0781 Q625.8875,55.0781 625.2,56.1484 Q624.5125,57.2188 624.5125,59.3125 Q624.5125,61.4063 625.2,62.4766 Q625.8875,63.5469 627.2313,63.5469 Q627.8563,63.5469 628.45,63.2734 Q629.0438,63 629.6688,62.4219 L629.6688,65.1406 Z "/><text fill="#000000" font-family="sans-serif" font-size="12" lengthAdjust="spacingAndGlyphs" textLength="78" x="644.3" y="63.6543">LoginSystem</text><line style="stroke: #A80036; stroke-width: 1.5;" x1="596.5" x2="740.5" y1="75.5" y2="75.5"/><line style="stroke: #A80036; stroke-width: 1.5;" x1="596.5" x2="740.5" y1="83.5" y2="83.5"/><text fill="#000000" font-family="sans-serif" font-size="11" lengthAdjust="spacingAndGlyphs" textLength="134" x="601.5" y="97.7104">+getLoggedUserEmail()</text><!--MD5=[99b8db98afdc2c8404e39242ef4c1e65]
class Platform--><rect fill="#FEFECE" filter="url(#f1sujf3k2dj3yg)" height="60.8047" id="Platform" style="stroke: #A80036; stroke-width: 1.5;" width="171" x="583" y="211.5"/><ellipse cx="638.25" cy="227.5" fill="#ADD1B2" rx="11" ry="11" style="stroke: #A80036; stroke-width: 1.0;"/><path d="M641.2188,233.1406 Q640.6406,233.4375 640,233.5859 Q639.3594,233.7344 638.6563,233.7344 Q636.1563,233.7344 634.8359,232.0859 Q633.5156,230.4375 633.5156,227.3125 Q633.5156,224.1875 634.8359,222.5313 Q636.1563,220.875 638.6563,220.875 Q639.3594,220.875 640.0078,221.0313 Q640.6563,221.1875 641.2188,221.4844 L641.2188,224.2031 Q640.5938,223.625 640,223.3516 Q639.4063,223.0781 638.7813,223.0781 Q637.4375,223.0781 636.75,224.1484 Q636.0625,225.2188 636.0625,227.3125 Q636.0625,229.4063 636.75,230.4766 Q637.4375,231.5469 638.7813,231.5469 Q639.4063,231.5469 640,231.2734 Q640.5938,231 641.2188,230.4219 L641.2188,233.1406 Z "/><text fill="#000000" font-family="sans-serif" font-size="12" lengthAdjust="spacingAndGlyphs" textLength="52" x="658.75" y="231.6543">Platform</text><line style="stroke: #A80036; stroke-width: 1.5;" x1="584" x2="753" y1="243.5" y2="243.5"/><line style="stroke: #A80036; stroke-width: 1.5;" x1="584" x2="753" y1="251.5" y2="251.5"/><text fill="#000000" font-family="sans-serif" font-size="11" lengthAdjust="spacingAndGlyphs" textLength="159" x="589" y="265.7104">+getRegistryOrganizations()</text><!--MD5=[86c7c362de55a38b660185a1328fe18d]
class Organization--><rect fill="#FEFECE" filter="url(#f1sujf3k2dj3yg)" height="150.4375" id="Organization" style="stroke: #A80036; stroke-width: 1.5;" width="256" x="1219" y="187"/><ellipse cx="1303.75" cy="203" fill="#ADD1B2" rx="11" ry="11" style="stroke: #A80036; stroke-width: 1.0;"/><path d="M1306.7188,208.6406 Q1306.1406,208.9375 1305.5,209.0859 Q1304.8594,209.2344 1304.1563,209.2344 Q1301.6563,209.2344 1300.3359,207.5859 Q1299.0156,205.9375 1299.0156,202.8125 Q1299.0156,199.6875 1300.3359,198.0313 Q1301.6563,196.375 1304.1563,196.375 Q1304.8594,196.375 1305.5078,196.5313 Q1306.1563,196.6875 1306.7188,196.9844 L1306.7188,199.7031 Q1306.0938,199.125 1305.5,198.8516 Q1304.9063,198.5781 1304.2813,198.5781 Q1302.9375,198.5781 1302.25,199.6484 Q1301.5625,200.7188 1301.5625,202.8125 Q1301.5625,204.9063 1302.25,205.9766 Q1302.9375,207.0469 1304.2813,207.0469 Q1304.9063,207.0469 1305.5,206.7734 Q1306.0938,206.5 1306.7188,205.9219 L1306.7188,208.6406 Z "/><text fill="#000000" font-family="sans-serif" font-size="12" lengthAdjust="spacingAndGlyphs" textLength="78" x="1324.25" y="207.1543">Organization</text><line style="stroke: #A80036; stroke-width: 1.5;" x1="1220" x2="1474" y1="219" y2="219"/><text fill="#000000" font-family="sans-serif" font-size="11" lengthAdjust="spacingAndGlyphs" textLength="94" x="1225" y="233.2104">-String orgName</text><text fill="#000000" font-family="sans-serif" font-size="11" lengthAdjust="spacingAndGlyphs" textLength="92" x="1225" y="246.0151">-int paymentDay</text><text fill="#000000" font-family="sans-serif" font-size="11" lengthAdjust="spacingAndGlyphs" textLength="98" x="1225" y="258.8198">-int paymentHour</text><text fill="#000000" font-family="sans-serif" font-size="11" lengthAdjust="spacingAndGlyphs" textLength="108" x="1225" y="271.6245">-int paymentMinute</text><line style="stroke: #A80036; stroke-width: 1.5;" x1="1220" x2="1474" y1="278.2188" y2="278.2188"/><text fill="#000000" font-family="sans-serif" font-size="11" lengthAdjust="spacingAndGlyphs" textLength="132" x="1225" y="292.4292">+getListCollaborators()</text><text fill="#000000" font-family="sans-serif" font-size="11" lengthAdjust="spacingAndGlyphs" textLength="244" x="1225" y="305.2339">+registerPaymentsDatetime(day,hour,min)</text><text fill="#000000" font-family="sans-serif" font-size="11" lengthAdjust="spacingAndGlyphs" textLength="169" x="1225" y="318.0386">+validDatetime(day,hour,min)</text><text fill="#000000" font-family="sans-serif" font-size="11" lengthAdjust="spacingAndGlyphs" textLength="217" x="1225" y="330.8433">+setPaymentsDatetime(day,hour,min)</text><!--MD5=[f483d6e5de34a60207b28a5563be5e8b]
class Collaborator--><rect fill="#FEFECE" filter="url(#f1sujf3k2dj3yg)" height="86.4141" id="Collaborator" style="stroke: #A80036; stroke-width: 1.5;" width="112" x="1622" y="275"/><ellipse cx="1638.35" cy="291" fill="#ADD1B2" rx="11" ry="11" style="stroke: #A80036; stroke-width: 1.0;"/><path d="M1641.3188,296.6406 Q1640.7406,296.9375 1640.1,297.0859 Q1639.4594,297.2344 1638.7563,297.2344 Q1636.2563,297.2344 1634.9359,295.5859 Q1633.6156,293.9375 1633.6156,290.8125 Q1633.6156,287.6875 1634.9359,286.0313 Q1636.2563,284.375 1638.7563,284.375 Q1639.4594,284.375 1640.1078,284.5313 Q1640.7563,284.6875 1641.3188,284.9844 L1641.3188,287.7031 Q1640.6938,287.125 1640.1,286.8516 Q1639.5063,286.5781 1638.8813,286.5781 Q1637.5375,286.5781 1636.85,287.6484 Q1636.1625,288.7188 1636.1625,290.8125 Q1636.1625,292.9063 1636.85,293.9766 Q1637.5375,295.0469 1638.8813,295.0469 Q1639.5063,295.0469 1640.1,294.7734 Q1640.6938,294.5 1641.3188,293.9219 L1641.3188,296.6406 Z "/><text fill="#000000" font-family="sans-serif" font-size="12" lengthAdjust="spacingAndGlyphs" textLength="77" x="1652.65" y="295.1543">Collaborator</text><line style="stroke: #A80036; stroke-width: 1.5;" x1="1623" x2="1733" y1="307" y2="307"/><text fill="#000000" font-family="sans-serif" font-size="11" lengthAdjust="spacingAndGlyphs" textLength="74" x="1628" y="321.2104">-String name</text><text fill="#000000" font-family="sans-serif" font-size="11" lengthAdjust="spacingAndGlyphs" textLength="73" x="1628" y="334.0151">-String email</text><line style="stroke: #A80036; stroke-width: 1.5;" x1="1623" x2="1733" y1="340.6094" y2="340.6094"/><text fill="#000000" font-family="sans-serif" font-size="11" lengthAdjust="spacingAndGlyphs" textLength="100" x="1628" y="354.8198">+hasEmail(email)</text><!--MD5=[b24ed8d4ae84bae9290d9aab401637c7]
class Manager--><rect fill="#FEFECE" filter="url(#f1sujf3k2dj3yg)" height="86.4141" id="Manager" style="stroke: #A80036; stroke-width: 1.5;" width="112" x="1622" y="154"/><ellipse cx="1648.25" cy="170" fill="#ADD1B2" rx="11" ry="11" style="stroke: #A80036; stroke-width: 1.0;"/><path d="M1651.2188,175.6406 Q1650.6406,175.9375 1650,176.0859 Q1649.3594,176.2344 1648.6563,176.2344 Q1646.1563,176.2344 1644.8359,174.5859 Q1643.5156,172.9375 1643.5156,169.8125 Q1643.5156,166.6875 1644.8359,165.0313 Q1646.1563,163.375 1648.6563,163.375 Q1649.3594,163.375 1650.0078,163.5313 Q1650.6563,163.6875 1651.2188,163.9844 L1651.2188,166.7031 Q1650.5938,166.125 1650,165.8516 Q1649.4063,165.5781 1648.7813,165.5781 Q1647.4375,165.5781 1646.75,166.6484 Q1646.0625,167.7188 1646.0625,169.8125 Q1646.0625,171.9063 1646.75,172.9766 Q1647.4375,174.0469 1648.7813,174.0469 Q1649.4063,174.0469 1650,173.7734 Q1650.5938,173.5 1651.2188,172.9219 L1651.2188,175.6406 Z "/><text fill="#000000" font-family="sans-serif" font-size="12" lengthAdjust="spacingAndGlyphs" textLength="55" x="1664.75" y="174.1543">Manager</text><line style="stroke: #A80036; stroke-width: 1.5;" x1="1623" x2="1733" y1="186" y2="186"/><text fill="#000000" font-family="sans-serif" font-size="11" lengthAdjust="spacingAndGlyphs" textLength="74" x="1628" y="200.2104">-String name</text><text fill="#000000" font-family="sans-serif" font-size="11" lengthAdjust="spacingAndGlyphs" textLength="73" x="1628" y="213.0151">-String email</text><line style="stroke: #A80036; stroke-width: 1.5;" x1="1623" x2="1733" y1="219.6094" y2="219.6094"/><text fill="#000000" font-family="sans-serif" font-size="11" lengthAdjust="spacingAndGlyphs" textLength="100" x="1628" y="233.8198">+hasEmail(email)</text><!--MD5=[33715664216438c299d64633eb1ff89b]
class RegistryOrganizations--><rect fill="#FEFECE" filter="url(#f1sujf3k2dj3yg)" height="60.8047" id="RegistryOrganizations" style="stroke: #A80036; stroke-width: 1.5;" width="171" x="901" y="207.5"/><ellipse cx="917.8" cy="223.5" fill="#ADD1B2" rx="11" ry="11" style="stroke: #A80036; stroke-width: 1.0;"/><path d="M920.7688,229.1406 Q920.1906,229.4375 919.55,229.5859 Q918.9094,229.7344 918.2063,229.7344 Q915.7063,229.7344 914.3859,228.0859 Q913.0656,226.4375 913.0656,223.3125 Q913.0656,220.1875 914.3859,218.5313 Q915.7063,216.875 918.2063,216.875 Q918.9094,216.875 919.5578,217.0313 Q920.2063,217.1875 920.7688,217.4844 L920.7688,220.2031 Q920.1438,219.625 919.55,219.3516 Q918.9563,219.0781 918.3313,219.0781 Q916.9875,219.0781 916.3,220.1484 Q915.6125,221.2188 915.6125,223.3125 Q915.6125,225.4063 916.3,226.4766 Q916.9875,227.5469 918.3313,227.5469 Q918.9563,227.5469 919.55,227.2734 Q920.1438,227 920.7688,226.4219 L920.7688,229.1406 Z "/><text fill="#000000" font-family="sans-serif" font-size="12" lengthAdjust="spacingAndGlyphs" textLength="135" x="932.2" y="227.6543">RegistryOrganizations</text><line style="stroke: #A80036; stroke-width: 1.5;" x1="902" x2="1071" y1="239.5" y2="239.5"/><line style="stroke: #A80036; stroke-width: 1.5;" x1="902" x2="1071" y1="247.5" y2="247.5"/><text fill="#000000" font-family="sans-serif" font-size="11" lengthAdjust="spacingAndGlyphs" textLength="159" x="907" y="261.7104">+getOrgByUserEmail(email)</text><!--MD5=[0558ac9bfb0ddb5df2ce46d2c897f11c]
link SetPaymentsDatetimeUI to SetPaymentsDatetimeController--><path d="M205.3462,190 C223.0177,190 241.8579,190 260.5371,190 " fill="none" id="SetPaymentsDatetimeUI-&gt;SetPaymentsDatetimeController" style="stroke: #A80036; stroke-width: 1.0; stroke-dasharray: 7.0,7.0;"/><polygon fill="#A80036" points="265.8002,190,256.8002,186,260.8002,190,256.8002,194,265.8002,190" style="stroke: #A80036; stroke-width: 1.0;"/><!--MD5=[2742f46a3d56d0e1f51a7fb5628bb377]
link SetPaymentsDatetimeController to LoginSystem--><path d="M481.6082,152.9779 C516.752,138.1266 556.9144,121.1546 590.9786,106.7595 " fill="none" id="SetPaymentsDatetimeController-&gt;LoginSystem" style="stroke: #A80036; stroke-width: 1.0; stroke-dasharray: 7.0,7.0;"/><polygon fill="#A80036" points="595.9589,104.6549,586.1117,104.4736,591.3532,106.6012,589.2257,111.8427,595.9589,104.6549" style="stroke: #A80036; stroke-width: 1.0;"/><!--MD5=[c6b29924b500a6a9f6a85e9ab221aa9e]
link SetPaymentsDatetimeController to Platform--><path d="M522.0079,214.2492 C540.7886,217.807 559.8012,221.4086 577.6304,224.7861 " fill="none" id="SetPaymentsDatetimeController-&gt;Platform" style="stroke: #A80036; stroke-width: 1.0; stroke-dasharray: 7.0,7.0;"/><polygon fill="#A80036" points="582.6266,225.7325,574.5284,220.1272,577.714,224.8018,573.0393,227.9873,582.6266,225.7325" style="stroke: #A80036; stroke-width: 1.0;"/><!--MD5=[7ffa0811f97a4e869b59fb4d8447448f]
link SetPaymentsDatetimeController to RegistryOrganizations--><path d="M522.1291,170.0529 C619.2306,159.0635 755.2405,152.5672 871,180 C892.4362,185.08 914.4183,194.7943 933.3748,204.8411 " fill="none" id="SetPaymentsDatetimeController-&gt;RegistryOrganizations" style="stroke: #A80036; stroke-width: 1.0; stroke-dasharray: 7.0,7.0;"/><polygon fill="#A80036" points="938.1268,207.3999,932.099,199.6111,933.7245,205.0294,928.3062,206.6548,938.1268,207.3999" style="stroke: #A80036; stroke-width: 1.0;"/><!--MD5=[43c79996f9fb88ad04fe6fbc8265530d]
link SetPaymentsDatetimeController to Organization--><path d="M437.3344,227.1626 C488.8545,267.4297 579.1499,326 668.5,326 C668.5,326 668.5,326 1145.5,326 C1168.0218,326 1191.3233,322.3233 1213.7369,316.7323 " fill="none" id="SetPaymentsDatetimeController-&gt;Organization" style="stroke: #A80036; stroke-width: 1.0; stroke-dasharray: 7.0,7.0;"/><polygon fill="#A80036" points="1218.8064,315.4317,1209.0947,313.7938,1213.9633,316.6743,1211.0828,321.5428,1218.8064,315.4317" style="stroke: #A80036; stroke-width: 1.0;"/><!--MD5=[d7e6b8c0ccf00764186b54e4e31b9fc3]
link Platform to RegistryOrganizations--><path d="M754.1365,240.9228 C797.9767,240.3714 851.3474,239.7 895.8784,239.1399 " fill="none" id="Platform-&gt;RegistryOrganizations" style="stroke: #A80036; stroke-width: 1.0;"/><polygon fill="#A80036" points="900.9865,239.0756,891.9368,235.1893,895.9869,239.1386,892.0376,243.1887,900.9865,239.0756" style="stroke: #A80036; stroke-width: 1.0;"/><text fill="#000000" font-family="sans-serif" font-size="13" lengthAdjust="spacingAndGlyphs" textLength="23" x="816" y="236.0669">has</text><text fill="#000000" font-family="sans-serif" font-size="13" lengthAdjust="spacingAndGlyphs" textLength="8" x="762.1198" y="253.5763">1</text><text fill="#000000" font-family="sans-serif" font-size="13" lengthAdjust="spacingAndGlyphs" textLength="8" x="885.0142" y="251.9209">1</text><!--MD5=[4444e3f7d3a256ce06ca5b39bcbcc4ba]
link RegistryOrganizations to Organization--><path d="M1072.3907,243.7181 C1114.5875,246.5273 1166.3925,249.9762 1213.5928,253.1185 " fill="none" id="RegistryOrganizations-&gt;Organization" style="stroke: #A80036; stroke-width: 1.0;"/><polygon fill="#A80036" points="1218.7333,253.4607,1210.019,248.8714,1213.7444,253.1284,1209.4874,256.8537,1218.7333,253.4607" style="stroke: #A80036; stroke-width: 1.0;"/><text fill="#000000" font-family="sans-serif" font-size="13" lengthAdjust="spacingAndGlyphs" textLength="23" x="1134" y="244.0669">has</text><text fill="#000000" font-family="sans-serif" font-size="13" lengthAdjust="spacingAndGlyphs" textLength="8" x="1080.1157" y="256.935">1</text><text fill="#000000" font-family="sans-serif" font-size="13" lengthAdjust="spacingAndGlyphs" textLength="7" x="1204.1155" y="265.4587">*</text><!--MD5=[45817597bcd7048073a670d966abfd17]
link Organization to Collaborator--><path d="M1475.447,283.7312 C1523.969,291.9404 1576.9701,300.9073 1616.5821,307.6091 " fill="none" id="Organization-&gt;Collaborator" style="stroke: #A80036; stroke-width: 1.0;"/><polygon fill="#A80036" points="1621.835,308.4978,1613.6284,303.0524,1616.9051,307.6637,1612.2938,310.9403,1621.835,308.4978" style="stroke: #A80036; stroke-width: 1.0;"/><text fill="#000000" font-family="sans-serif" font-size="13" lengthAdjust="spacingAndGlyphs" textLength="23" x="1537" y="291.0669">has</text><text fill="#000000" font-family="sans-serif" font-size="13" lengthAdjust="spacingAndGlyphs" textLength="8" x="1483.1041" y="297.4792">1</text><text fill="#000000" font-family="sans-serif" font-size="13" lengthAdjust="spacingAndGlyphs" textLength="8" x="1606.1264" y="320.2901">1</text><!--MD5=[bc039f41cf0b27fadee5cae63fc6e1fe]
link Organization to Manager--><path d="M1475.447,236.7763 C1523.969,227.2478 1576.9701,216.8397 1616.5821,209.0609 " fill="none" id="Organization-&gt;Manager" style="stroke: #A80036; stroke-width: 1.0;"/><polygon fill="#A80036" points="1621.835,208.0294,1612.2329,205.8385,1616.9287,208.9928,1613.7744,213.6886,1621.835,208.0294" style="stroke: #A80036; stroke-width: 1.0;"/><text fill="#000000" font-family="sans-serif" font-size="13" lengthAdjust="spacingAndGlyphs" textLength="23" x="1537" y="217.0669">has</text><text fill="#000000" font-family="sans-serif" font-size="13" lengthAdjust="spacingAndGlyphs" textLength="8" x="1483.1041" y="247.8097">1</text><text fill="#000000" font-family="sans-serif" font-size="13" lengthAdjust="spacingAndGlyphs" textLength="8" x="1606.1264" y="222.4524">1</text><!--MD5=[1c555c45b0de350b5c83935c90dfc909]
@startuml
skinparam classAttributeIconSize 0
left to right direction

package ui {
class SetPaymentsDatetimeUI {}
}

package controller {
class SetPaymentsDatetimeController {
  +getOrganization()
  +registerPaymentsDatetime(day,hour,min)
}
}

package login {
class LoginSystem {
  +getLoggedUserEmail()
}
}
package model {
class Platform {
  +getRegistryOrganizations()
}

package registry {
class RegistryOrganizations {
  +getOrgByUserEmail(email)
}
}

class Organization {
  -String orgName
  -int paymentDay
  -int paymentHour
  -int paymentMinute
  +getListCollaborators()
  +registerPaymentsDatetime(day,hour,min)
  +validDatetime(day,hour,min)
  +setPaymentsDatetime(day,hour,min)
}

class Collaborator {
  -String name
  -String email
  +hasEmail(email)
}

class Manager {
  -String name
  -String email
  +hasEmail(email)
}
}

SetPaymentsDatetimeUI ..> SetPaymentsDatetimeController
SetPaymentsDatetimeController ..> LoginSystem
SetPaymentsDatetimeController ..> Platform
SetPaymentsDatetimeController ..> RegistryOrganizations
SetPaymentsDatetimeController ..> Organization
Platform "1" - -> "1" RegistryOrganizations: has
RegistryOrganizations "1" - -> "*" Organization: has
Organization "1" - -> "1" Collaborator: has
Organization "1" - -> "1" Manager: has
@enduml

PlantUML version 1.2019.12(Sun Nov 03 10:24:54 UTC 2019)
(GPL source distribution)
Java Runtime: OpenJDK Runtime Environment
JVM: OpenJDK 64-Bit Server VM
Java Version: 1.8.0_232-heroku-b09
Operating System: Linux
Default Encoding: UTF-8
Language: en
Country: US
--></g></svg>