<?xml version="1.0" encoding="UTF-8" standalone="no"?><svg xmlns="http://www.w3.org/2000/svg" xmlns:xlink="http://www.w3.org/1999/xlink" contentScriptType="application/ecmascript" contentStyleType="text/css" height="559px" preserveAspectRatio="none" style="width:2017px;height:559px;" version="1.1" viewBox="0 0 2017 559" width="2017px" zoomAndPan="magnify"><defs><filter height="300%" id="f1bhwvu8rralwi" width="300%" x="-1" y="-1"><feGaussianBlur result="blurOut" stdDeviation="2.0"/><feColorMatrix in="blurOut" result="blurOut2" type="matrix" values="0 0 0 0 0 0 0 0 0 0 0 0 0 0 0 0 0 0 .4 0"/><feOffset dx="4.0" dy="4.0" in="blurOut2" result="blurOut3"/><feBlend in="SourceGraphic" in2="blurOut3" mode="normal"/></filter></defs><g><!--MD5=[10ea673caf457862023e152271927b45]
cluster controller--><polygon fill="#FFFFFF" filter="url(#f1bhwvu8rralwi)" points="242,338,325,338,332,360.2969,443,360.2969,443,473,242,473,242,338" style="stroke: #000000; stroke-width: 1.5;"/><line style="stroke: #000000; stroke-width: 1.5;" x1="242" x2="332" y1="360.2969" y2="360.2969"/><text fill="#000000" font-family="sans-serif" font-size="14" font-weight="bold" lengthAdjust="spacingAndGlyphs" textLength="77" x="246" y="352.9951">controller</text><!--MD5=[5d4cd377749310b66bf14896f5cd8d9b]
cluster model--><polygon fill="#FFFFFF" filter="url(#f1bhwvu8rralwi)" points="488,51,542,51,549,73.2969,1995,73.2969,1995,431,488,431,488,51" style="stroke: #000000; stroke-width: 1.5;"/><line style="stroke: #000000; stroke-width: 1.5;" x1="488" x2="549" y1="73.2969" y2="73.2969"/><text fill="#000000" font-family="sans-serif" font-size="14" font-weight="bold" lengthAdjust="spacingAndGlyphs" textLength="48" x="492" y="65.9951">model</text><!--MD5=[dc4e61d4170cc2f74c09b0195d9b4ebb]
cluster registrys--><polygon fill="#FFFFFF" filter="url(#f1bhwvu8rralwi)" points="1182,184,1259,184,1266,206.2969,1374,206.2969,1374,414,1182,414,1182,184" style="stroke: #000000; stroke-width: 1.5;"/><line style="stroke: #000000; stroke-width: 1.5;" x1="1182" x2="1266" y1="206.2969" y2="206.2969"/><text fill="#000000" font-family="sans-serif" font-size="14" font-weight="bold" lengthAdjust="spacingAndGlyphs" textLength="71" x="1186" y="198.9951">registrys</text><!--MD5=[44c8d33611163af5f07b0410851fddf4]
class AutomaticPaymentsTask--><rect fill="#FEFECE" filter="url(#f1bhwvu8rralwi)" height="99.2188" id="AutomaticPaymentsTask" style="stroke: #A80036; stroke-width: 1.5;" width="185" x="250" y="365.5"/><ellipse cx="265" cy="381.5" fill="#ADD1B2" rx="11" ry="11" style="stroke: #A80036; stroke-width: 1.0;"/><path d="M267.9688,387.1406 Q267.3906,387.4375 266.75,387.5859 Q266.1094,387.7344 265.4063,387.7344 Q262.9063,387.7344 261.5859,386.0859 Q260.2656,384.4375 260.2656,381.3125 Q260.2656,378.1875 261.5859,376.5313 Q262.9063,374.875 265.4063,374.875 Q266.1094,374.875 266.7578,375.0313 Q267.4063,375.1875 267.9688,375.4844 L267.9688,378.2031 Q267.3438,377.625 266.75,377.3516 Q266.1563,377.0781 265.5313,377.0781 Q264.1875,377.0781 263.5,378.1484 Q262.8125,379.2188 262.8125,381.3125 Q262.8125,383.4063 263.5,384.4766 Q264.1875,385.5469 265.5313,385.5469 Q266.1563,385.5469 266.75,385.2734 Q267.3438,385 267.9688,384.4219 L267.9688,387.1406 Z "/><text fill="#000000" font-family="sans-serif" font-size="12" lengthAdjust="spacingAndGlyphs" textLength="153" x="279" y="385.6543">AutomaticPaymentsTask</text><line style="stroke: #A80036; stroke-width: 1.5;" x1="251" x2="434" y1="397.5" y2="397.5"/><line style="stroke: #A80036; stroke-width: 1.5;" x1="251" x2="434" y1="405.5" y2="405.5"/><text fill="#000000" font-family="sans-serif" font-size="11" lengthAdjust="spacingAndGlyphs" textLength="168" x="256" y="419.7104">+AutomaticPaymentTask(org)</text><text fill="#000000" font-family="sans-serif" font-size="11" lengthAdjust="spacingAndGlyphs" textLength="36" x="256" y="432.5151">+run()</text><text fill="#000000" font-family="sans-serif" font-size="11" lengthAdjust="spacingAndGlyphs" textLength="118" x="256" y="445.3198">-makePayments(org)</text><text fill="#000000" font-family="sans-serif" font-size="11" lengthAdjust="spacingAndGlyphs" textLength="140" x="256" y="458.1245">-scheduleNextTimer(org)</text><!--MD5=[99b8db98afdc2c8404e39242ef4c1e65]
class Platform--><rect fill="#FEFECE" filter="url(#f1bhwvu8rralwi)" height="73.6094" id="Platform" style="stroke: #A80036; stroke-width: 1.5;" width="167" x="496" y="265"/><ellipse cx="549.25" cy="281" fill="#ADD1B2" rx="11" ry="11" style="stroke: #A80036; stroke-width: 1.0;"/><path d="M552.2188,286.6406 Q551.6406,286.9375 551,287.0859 Q550.3594,287.2344 549.6563,287.2344 Q547.1563,287.2344 545.8359,285.5859 Q544.5156,283.9375 544.5156,280.8125 Q544.5156,277.6875 545.8359,276.0313 Q547.1563,274.375 549.6563,274.375 Q550.3594,274.375 551.0078,274.5313 Q551.6563,274.6875 552.2188,274.9844 L552.2188,277.7031 Q551.5938,277.125 551,276.8516 Q550.4063,276.5781 549.7813,276.5781 Q548.4375,276.5781 547.75,277.6484 Q547.0625,278.7188 547.0625,280.8125 Q547.0625,282.9063 547.75,283.9766 Q548.4375,285.0469 549.7813,285.0469 Q550.4063,285.0469 551,284.7734 Q551.5938,284.5 552.2188,283.9219 L552.2188,286.6406 Z "/><text fill="#000000" font-family="sans-serif" font-size="12" lengthAdjust="spacingAndGlyphs" textLength="52" x="569.75" y="285.1543">Platform</text><line style="stroke: #A80036; stroke-width: 1.5;" x1="497" x2="662" y1="297" y2="297"/><line style="stroke: #A80036; stroke-width: 1.5;" x1="497" x2="662" y1="305" y2="305"/><text fill="#000000" font-family="sans-serif" font-size="11" lengthAdjust="spacingAndGlyphs" textLength="155" x="502" y="319.2104">+getRegistryTransactions()</text><text fill="#000000" font-family="sans-serif" font-size="11" lengthAdjust="spacingAndGlyphs" textLength="148" x="502" y="332.0151">+getRegistryFreelancers()</text><!--MD5=[86c7c362de55a38b660185a1328fe18d]
class Organization--><rect fill="#FEFECE" filter="url(#f1bhwvu8rralwi)" height="112.0234" id="Organization" style="stroke: #A80036; stroke-width: 1.5;" width="154" x="1833" y="191"/><ellipse cx="1867.8" cy="207" fill="#ADD1B2" rx="11" ry="11" style="stroke: #A80036; stroke-width: 1.0;"/><path d="M1870.7688,212.6406 Q1870.1906,212.9375 1869.55,213.0859 Q1868.9094,213.2344 1868.2063,213.2344 Q1865.7063,213.2344 1864.3859,211.5859 Q1863.0656,209.9375 1863.0656,206.8125 Q1863.0656,203.6875 1864.3859,202.0313 Q1865.7063,200.375 1868.2063,200.375 Q1868.9094,200.375 1869.5578,200.5313 Q1870.2063,200.6875 1870.7688,200.9844 L1870.7688,203.7031 Q1870.1438,203.125 1869.55,202.8516 Q1868.9563,202.5781 1868.3313,202.5781 Q1866.9875,202.5781 1866.3,203.6484 Q1865.6125,204.7188 1865.6125,206.8125 Q1865.6125,208.9063 1866.3,209.9766 Q1866.9875,211.0469 1868.3313,211.0469 Q1868.9563,211.0469 1869.55,210.7734 Q1870.1438,210.5 1870.7688,209.9219 L1870.7688,212.6406 Z "/><text fill="#000000" font-family="sans-serif" font-size="12" lengthAdjust="spacingAndGlyphs" textLength="78" x="1886.2" y="211.1543">Organization</text><line style="stroke: #A80036; stroke-width: 1.5;" x1="1834" x2="1986" y1="223" y2="223"/><text fill="#000000" font-family="sans-serif" font-size="11" lengthAdjust="spacingAndGlyphs" textLength="94" x="1839" y="237.2104">-String orgName</text><text fill="#000000" font-family="sans-serif" font-size="11" lengthAdjust="spacingAndGlyphs" textLength="92" x="1839" y="250.0151">-int paymentDay</text><text fill="#000000" font-family="sans-serif" font-size="11" lengthAdjust="spacingAndGlyphs" textLength="98" x="1839" y="262.8198">-int paymentHour</text><text fill="#000000" font-family="sans-serif" font-size="11" lengthAdjust="spacingAndGlyphs" textLength="108" x="1839" y="275.6245">-int paymentMinute</text><line style="stroke: #A80036; stroke-width: 1.5;" x1="1834" x2="1986" y1="282.2188" y2="282.2188"/><text fill="#000000" font-family="sans-serif" font-size="11" lengthAdjust="spacingAndGlyphs" textLength="142" x="1839" y="296.4292">+getNextPaymentsDate()</text><!--MD5=[4555bb1b0911a5adf28ce6dbe60fed2e]
class Transaction--><rect fill="#FEFECE" filter="url(#f1bhwvu8rralwi)" height="124.8281" id="Transaction" style="stroke: #A80036; stroke-width: 1.5;" width="124" x="1543" y="297.5"/><ellipse cx="1566.1" cy="313.5" fill="#ADD1B2" rx="11" ry="11" style="stroke: #A80036; stroke-width: 1.0;"/><path d="M1569.0688,319.1406 Q1568.4906,319.4375 1567.85,319.5859 Q1567.2094,319.7344 1566.5063,319.7344 Q1564.0063,319.7344 1562.6859,318.0859 Q1561.3656,316.4375 1561.3656,313.3125 Q1561.3656,310.1875 1562.6859,308.5313 Q1564.0063,306.875 1566.5063,306.875 Q1567.2094,306.875 1567.8578,307.0313 Q1568.5063,307.1875 1569.0688,307.4844 L1569.0688,310.2031 Q1568.4438,309.625 1567.85,309.3516 Q1567.2563,309.0781 1566.6313,309.0781 Q1565.2875,309.0781 1564.6,310.1484 Q1563.9125,311.2188 1563.9125,313.3125 Q1563.9125,315.4063 1564.6,316.4766 Q1565.2875,317.5469 1566.6313,317.5469 Q1567.2563,317.5469 1567.85,317.2734 Q1568.4438,317 1569.0688,316.4219 L1569.0688,319.1406 Z "/><text fill="#000000" font-family="sans-serif" font-size="12" lengthAdjust="spacingAndGlyphs" textLength="74" x="1581.9" y="317.6543">Transaction</text><line style="stroke: #A80036; stroke-width: 1.5;" x1="1544" x2="1666" y1="329.5" y2="329.5"/><text fill="#000000" font-family="sans-serif" font-size="11" lengthAdjust="spacingAndGlyphs" textLength="51" x="1549" y="343.7104">-endDate</text><text fill="#000000" font-family="sans-serif" font-size="11" lengthAdjust="spacingAndGlyphs" textLength="34" x="1549" y="356.5151">-delay</text><text fill="#000000" font-family="sans-serif" font-size="11" lengthAdjust="spacingAndGlyphs" textLength="94" x="1549" y="369.3198">-descriptionWork</text><line style="stroke: #A80036; stroke-width: 1.5;" x1="1544" x2="1666" y1="375.9141" y2="375.9141"/><text fill="#000000" font-family="sans-serif" font-size="11" lengthAdjust="spacingAndGlyphs" textLength="105" x="1549" y="390.1245">+payAndRegister()</text><text fill="#000000" font-family="sans-serif" font-size="11" lengthAdjust="spacingAndGlyphs" textLength="95" x="1549" y="402.9292">+getFreelancer()</text><text fill="#000000" font-family="sans-serif" font-size="11" lengthAdjust="spacingAndGlyphs" textLength="112" x="1549" y="415.7339">+getAmountToPay()</text><!--MD5=[1f687b5315377fe49fca59b457947463]
class Freelancer--><rect fill="#FEFECE" filter="url(#f1bhwvu8rralwi)" height="176.0469" id="Freelancer" style="stroke: #A80036; stroke-width: 1.5;" width="184" x="1513" y="86"/><ellipse cx="1567.25" cy="102" fill="#ADD1B2" rx="11" ry="11" style="stroke: #A80036; stroke-width: 1.0;"/><path d="M1570.2188,107.6406 Q1569.6406,107.9375 1569,108.0859 Q1568.3594,108.2344 1567.6563,108.2344 Q1565.1563,108.2344 1563.8359,106.5859 Q1562.5156,104.9375 1562.5156,101.8125 Q1562.5156,98.6875 1563.8359,97.0313 Q1565.1563,95.375 1567.6563,95.375 Q1568.3594,95.375 1569.0078,95.5313 Q1569.6563,95.6875 1570.2188,95.9844 L1570.2188,98.7031 Q1569.5938,98.125 1569,97.8516 Q1568.4063,97.5781 1567.7813,97.5781 Q1566.4375,97.5781 1565.75,98.6484 Q1565.0625,99.7188 1565.0625,101.8125 Q1565.0625,103.9063 1565.75,104.9766 Q1566.4375,106.0469 1567.7813,106.0469 Q1568.4063,106.0469 1569,105.7734 Q1569.5938,105.5 1570.2188,104.9219 L1570.2188,107.6406 Z "/><text fill="#000000" font-family="sans-serif" font-size="12" lengthAdjust="spacingAndGlyphs" textLength="67" x="1587.75" y="106.1543">Freelancer</text><line style="stroke: #A80036; stroke-width: 1.5;" x1="1514" x2="1696" y1="118" y2="118"/><text fill="#000000" font-family="sans-serif" font-size="11" lengthAdjust="spacingAndGlyphs" textLength="112" x="1519" y="132.2104">-String idFreelancer</text><text fill="#000000" font-family="sans-serif" font-size="11" lengthAdjust="spacingAndGlyphs" textLength="133" x="1519" y="145.0151">-String freelancerName</text><text fill="#000000" font-family="sans-serif" font-size="11" lengthAdjust="spacingAndGlyphs" textLength="153" x="1519" y="157.8198">-String freelancerExpertise</text><text fill="#000000" font-family="sans-serif" font-size="11" lengthAdjust="spacingAndGlyphs" textLength="131" x="1519" y="170.6245">-String freelancerEmail</text><text fill="#000000" font-family="sans-serif" font-size="11" lengthAdjust="spacingAndGlyphs" textLength="117" x="1519" y="183.4292">-String freelancerNIF</text><text fill="#000000" font-family="sans-serif" font-size="11" lengthAdjust="spacingAndGlyphs" textLength="172" x="1519" y="196.2339">-String freelancerBankAccount</text><text fill="#000000" font-family="sans-serif" font-size="11" lengthAdjust="spacingAndGlyphs" textLength="147" x="1519" y="209.0386">-String freelancerAddress</text><text fill="#000000" font-family="sans-serif" font-size="11" lengthAdjust="spacingAndGlyphs" textLength="144" x="1519" y="221.8433">-String freelancerCountry</text><line style="stroke: #A80036; stroke-width: 1.5;" x1="1514" x2="1696" y1="228.4375" y2="228.4375"/><text fill="#000000" font-family="sans-serif" font-size="11" lengthAdjust="spacingAndGlyphs" textLength="139" x="1519" y="242.6479">+getFreelancerCountry()</text><text fill="#000000" font-family="sans-serif" font-size="11" lengthAdjust="spacingAndGlyphs" textLength="126" x="1519" y="255.4526">+getFreelancerEmail()</text><!--MD5=[5bd836c76226761f976d0bb420ddb7bc]
class <<interface>>\nExternalEmailSender--><rect fill="#FEFECE" filter="url(#f1bhwvu8rralwi)" height="66.7422" id="&lt;&lt;interface&gt;&gt;\nExternalEmailSender" style="stroke: #A80036; stroke-width: 1.5;" width="209" x="822" y="78.5"/><ellipse cx="858.6" cy="97.4688" fill="#B4A7E5" rx="11" ry="11" style="stroke: #A80036; stroke-width: 1.0;"/><path d="M854.5219,93.2344 L854.5219,91.0781 L861.9125,91.0781 L861.9125,93.2344 L859.4438,93.2344 L859.4438,101.3125 L861.9125,101.3125 L861.9125,103.4688 L854.5219,103.4688 L854.5219,101.3125 L856.9906,101.3125 L856.9906,93.2344 L854.5219,93.2344 Z "/><text fill="#000000" font-family="sans-serif" font-size="12" font-style="italic" lengthAdjust="spacingAndGlyphs" textLength="96" x="893.9" y="94.6387">&lt;&lt;interface&gt;&gt;</text><text fill="#000000" font-family="sans-serif" font-size="12" font-style="italic" lengthAdjust="spacingAndGlyphs" textLength="129" x="877.4" y="108.6074">ExternalEmailSender</text><line style="stroke: #A80036; stroke-width: 1.5;" x1="823" x2="1030" y1="116.4375" y2="116.4375"/><line style="stroke: #A80036; stroke-width: 1.5;" x1="823" x2="1030" y1="124.4375" y2="124.4375"/><text fill="#000000" font-family="sans-serif" font-size="11" lengthAdjust="spacingAndGlyphs" textLength="197" x="828" y="138.6479">+sendEmail(email,header,content)</text><!--MD5=[0b5b4abc5074ea50271049f635e93e1f]
class <<interface>>\nExternalConverterCurrency--><rect fill="#FEFECE" filter="url(#f1bhwvu8rralwi)" height="66.7422" id="&lt;&lt;interface&gt;&gt;\nExternalConverterCurrency" style="stroke: #A80036; stroke-width: 1.5;" width="233" x="810" y="268.5"/><ellipse cx="840.3" cy="287.4688" fill="#B4A7E5" rx="11" ry="11" style="stroke: #A80036; stroke-width: 1.0;"/><path d="M836.2219,283.2344 L836.2219,281.0781 L843.6125,281.0781 L843.6125,283.2344 L841.1438,283.2344 L841.1438,291.3125 L843.6125,291.3125 L843.6125,293.4688 L836.2219,293.4688 L836.2219,291.3125 L838.6906,291.3125 L838.6906,283.2344 L836.2219,283.2344 Z "/><text fill="#000000" font-family="sans-serif" font-size="12" font-style="italic" lengthAdjust="spacingAndGlyphs" textLength="96" x="893.2" y="284.6387">&lt;&lt;interface&gt;&gt;</text><text fill="#000000" font-family="sans-serif" font-size="12" font-style="italic" lengthAdjust="spacingAndGlyphs" textLength="167" x="857.7" y="298.6074">ExternalConverterCurrency</text><line style="stroke: #A80036; stroke-width: 1.5;" x1="811" x2="1042" y1="306.4375" y2="306.4375"/><line style="stroke: #A80036; stroke-width: 1.5;" x1="811" x2="1042" y1="314.4375" y2="314.4375"/><text fill="#000000" font-family="sans-serif" font-size="11" lengthAdjust="spacingAndGlyphs" textLength="221" x="816" y="328.6479">+convertCurrency(amountEUR,country)</text><!--MD5=[7745e6addc1e0893542ccabc1596a478]
class RegistryTransactions--><rect fill="#FEFECE" filter="url(#f1bhwvu8rralwi)" height="73.6094" id="RegistryTransactions" style="stroke: #A80036; stroke-width: 1.5;" width="176" x="1190" y="332"/><ellipse cx="1210.85" cy="348" fill="#ADD1B2" rx="11" ry="11" style="stroke: #A80036; stroke-width: 1.0;"/><path d="M1213.8188,353.6406 Q1213.2406,353.9375 1212.6,354.0859 Q1211.9594,354.2344 1211.2563,354.2344 Q1208.7563,354.2344 1207.4359,352.5859 Q1206.1156,350.9375 1206.1156,347.8125 Q1206.1156,344.6875 1207.4359,343.0313 Q1208.7563,341.375 1211.2563,341.375 Q1211.9594,341.375 1212.6078,341.5313 Q1213.2563,341.6875 1213.8188,341.9844 L1213.8188,344.7031 Q1213.1938,344.125 1212.6,343.8516 Q1212.0063,343.5781 1211.3813,343.5781 Q1210.0375,343.5781 1209.35,344.6484 Q1208.6625,345.7188 1208.6625,347.8125 Q1208.6625,349.9063 1209.35,350.9766 Q1210.0375,352.0469 1211.3813,352.0469 Q1212.0063,352.0469 1212.6,351.7734 Q1213.1938,351.5 1213.8188,350.9219 L1213.8188,353.6406 Z "/><text fill="#000000" font-family="sans-serif" font-size="12" lengthAdjust="spacingAndGlyphs" textLength="131" x="1226.15" y="352.1543">RegistryTransactions</text><line style="stroke: #A80036; stroke-width: 1.5;" x1="1191" x2="1365" y1="364" y2="364"/><line style="stroke: #A80036; stroke-width: 1.5;" x1="1191" x2="1365" y1="372" y2="372"/><text fill="#000000" font-family="sans-serif" font-size="11" lengthAdjust="spacingAndGlyphs" textLength="164" x="1196" y="386.2104">+scheduleOrgPayments(org)</text><text fill="#000000" font-family="sans-serif" font-size="11" lengthAdjust="spacingAndGlyphs" textLength="130" x="1196" y="399.0151">+payTransactions(org)</text><!--MD5=[978a975de38da8c3ea831d1914ac7312]
class RegistryFreelancers--><rect fill="#FEFECE" filter="url(#f1bhwvu8rralwi)" height="86.4141" id="RegistryFreelancers" style="stroke: #A80036; stroke-width: 1.5;" width="156" x="1200" y="211"/><ellipse cx="1215" cy="227" fill="#ADD1B2" rx="11" ry="11" style="stroke: #A80036; stroke-width: 1.0;"/><path d="M1217.9688,232.6406 Q1217.3906,232.9375 1216.75,233.0859 Q1216.1094,233.2344 1215.4063,233.2344 Q1212.9063,233.2344 1211.5859,231.5859 Q1210.2656,229.9375 1210.2656,226.8125 Q1210.2656,223.6875 1211.5859,222.0313 Q1212.9063,220.375 1215.4063,220.375 Q1216.1094,220.375 1216.7578,220.5313 Q1217.4063,220.6875 1217.9688,220.9844 L1217.9688,223.7031 Q1217.3438,223.125 1216.75,222.8516 Q1216.1563,222.5781 1215.5313,222.5781 Q1214.1875,222.5781 1213.5,223.6484 Q1212.8125,224.7188 1212.8125,226.8125 Q1212.8125,228.9063 1213.5,229.9766 Q1214.1875,231.0469 1215.5313,231.0469 Q1216.1563,231.0469 1216.75,230.7734 Q1217.3438,230.5 1217.9688,229.9219 L1217.9688,232.6406 Z "/><text fill="#000000" font-family="sans-serif" font-size="12" lengthAdjust="spacingAndGlyphs" textLength="124" x="1229" y="231.1543">RegistryFreelancers</text><line style="stroke: #A80036; stroke-width: 1.5;" x1="1201" x2="1355" y1="243" y2="243"/><line style="stroke: #A80036; stroke-width: 1.5;" x1="1201" x2="1355" y1="251" y2="251"/><text fill="#000000" font-family="sans-serif" font-size="11" lengthAdjust="spacingAndGlyphs" textLength="140" x="1206" y="265.2104">+sendEmails(paidTrans)</text><text fill="#000000" font-family="sans-serif" font-size="11" lengthAdjust="spacingAndGlyphs" textLength="140" x="1206" y="278.0151">+generateEmailHeader()</text><text fill="#000000" font-family="sans-serif" font-size="11" lengthAdjust="spacingAndGlyphs" textLength="143" x="1206" y="290.8198">+generateEmailContent()</text><!--MD5=[1b844c90688aafb95cd8c95626c3b83a]
class Timer--><rect fill="#FEFECE" filter="url(#f1bhwvu8rralwi)" height="73.6094" id="Timer" style="stroke: #A80036; stroke-width: 1.5;" width="183" x="6" y="378"/><ellipse cx="76.25" cy="394" fill="#ADD1B2" rx="11" ry="11" style="stroke: #A80036; stroke-width: 1.0;"/><path d="M79.2188,399.6406 Q78.6406,399.9375 78,400.0859 Q77.3594,400.2344 76.6563,400.2344 Q74.1563,400.2344 72.8359,398.5859 Q71.5156,396.9375 71.5156,393.8125 Q71.5156,390.6875 72.8359,389.0313 Q74.1563,387.375 76.6563,387.375 Q77.3594,387.375 78.0078,387.5313 Q78.6563,387.6875 79.2188,387.9844 L79.2188,390.7031 Q78.5938,390.125 78,389.8516 Q77.4063,389.5781 76.7813,389.5781 Q75.4375,389.5781 74.75,390.6484 Q74.0625,391.7188 74.0625,393.8125 Q74.0625,395.9063 74.75,396.9766 Q75.4375,398.0469 76.7813,398.0469 Q77.4063,398.0469 78,397.7734 Q78.5938,397.5 79.2188,396.9219 L79.2188,399.6406 Z "/><text fill="#000000" font-family="sans-serif" font-size="12" lengthAdjust="spacingAndGlyphs" textLength="34" x="96.75" y="398.1543">Timer</text><line style="stroke: #A80036; stroke-width: 1.5;" x1="7" x2="188" y1="410" y2="410"/><line style="stroke: #A80036; stroke-width: 1.5;" x1="7" x2="188" y1="418" y2="418"/><text fill="#000000" font-family="sans-serif" font-size="11" lengthAdjust="spacingAndGlyphs" textLength="50" x="12" y="432.2104">+Timer()</text><text fill="#000000" font-family="sans-serif" font-size="11" lengthAdjust="spacingAndGlyphs" textLength="171" x="12" y="445.0151">+schedule(task,paymentDate)</text><!--MD5=[f56fdb61701631ee61ceab53a5594706]
link Timer to AutomaticPaymentsTask--><path d="M189.0774,415 C207.2157,415 226.3218,415 244.659,415 " fill="none" id="Timer-&gt;AutomaticPaymentsTask" style="stroke: #A80036; stroke-width: 1.0; stroke-dasharray: 7.0,7.0;"/><polygon fill="#A80036" points="249.8092,415,240.8092,411,244.8092,415,240.8092,419,249.8092,415" style="stroke: #A80036; stroke-width: 1.0;"/><!--MD5=[3e16383f29a3a2af75607b2a3a7a458c]
link AutomaticPaymentsTask to RegistryTransactions--><path d="M394.8668,464.5275 C440.0904,501.983 509.0896,547 579.5,547 C579.5,547 579.5,547 1104.5,547 C1180.1114,547 1233.4957,463.619 1259.6595,410.9924 " fill="none" id="AutomaticPaymentsTask-&gt;RegistryTransactions" style="stroke: #A80036; stroke-width: 1.0; stroke-dasharray: 7.0,7.0;"/><polygon fill="#A80036" points="1261.954,406.3146,1254.3992,412.6332,1259.752,410.8036,1261.5816,416.1564,1261.954,406.3146" style="stroke: #A80036; stroke-width: 1.0;"/><!--MD5=[aa4084a26c390df5187af78ab8080cd3]
link AutomaticPaymentsTask to Platform--><path d="M435.1486,370.8258 C455.6674,361.0425 477.2733,350.741 497.3399,341.1734 " fill="none" id="AutomaticPaymentsTask-&gt;Platform" style="stroke: #A80036; stroke-width: 1.0; stroke-dasharray: 7.0,7.0;"/><polygon fill="#A80036" points="501.8653,339.0157,492.0199,339.2784,497.352,341.1675,495.4629,346.4996,501.8653,339.0157" style="stroke: #A80036; stroke-width: 1.0;"/><!--MD5=[eab8cb7c2f8003cb335777a4445d6a89]
link AutomaticPaymentsTask to RegistryFreelancers--><path d="M435.0899,450.3073 C478.3107,463.7972 530.8525,476 579.5,476 C579.5,476 579.5,476 1104.5,476 C1134.1456,476 1143.7906,463.8217 1160,439 C1190.8431,391.7694 1150.4659,360.772 1182,314 C1186.0172,308.0417 1190.8451,302.5614 1196.1702,297.5442 " fill="none" id="AutomaticPaymentsTask-&gt;RegistryFreelancers" style="stroke: #A80036; stroke-width: 1.0; stroke-dasharray: 7.0,7.0;"/><polygon fill="#A80036" points="1199.9324,294.1446,1190.573,297.2108,1196.2226,297.4968,1195.9366,303.1464,1199.9324,294.1446" style="stroke: #A80036; stroke-width: 1.0;"/><!--MD5=[0e072f255fb293b35544da9374d74f9e]
link AutomaticPaymentsTask to Organization--><path d="M349.131,365.2101 C366.2184,260.0709 422.0303,25 579.5,25 C579.5,25 579.5,25 1765,25 C1842.1688,25 1880.4486,120.19 1897.6809,185.9061 " fill="none" id="AutomaticPaymentsTask-&gt;Organization" style="stroke: #A80036; stroke-width: 1.0;"/><polygon fill="#A80036" points="1898.9851,190.98,1900.6181,181.2675,1897.7401,186.1375,1892.8701,183.2595,1898.9851,190.98" style="stroke: #A80036; stroke-width: 1.0;"/><text fill="#000000" font-family="sans-serif" font-size="13" lengthAdjust="spacingAndGlyphs" textLength="23" x="1136" y="21.0669">has</text><text fill="#000000" font-family="sans-serif" font-size="13" lengthAdjust="spacingAndGlyphs" textLength="8" x="341.4845" y="354.5729">1</text><text fill="#000000" font-family="sans-serif" font-size="13" lengthAdjust="spacingAndGlyphs" textLength="8" x="1889.0613" y="179.9154">1</text><!--MD5=[f56c104f15763193ce2ef6c69b6eefab]
link Platform to RegistryTransactions--><path d="M620.5139,339.2207 C650.4213,362.4632 693.1457,388 736.5,388 C736.5,388 736.5,388 1104.5,388 C1130.6351,388 1158.8539,385.8433 1184.7856,382.9831 " fill="none" id="Platform-&gt;RegistryTransactions" style="stroke: #A80036; stroke-width: 1.0;"/><polygon fill="#A80036" points="1189.9401,382.4021,1180.5486,379.4356,1184.9716,382.9623,1181.4449,387.3852,1189.9401,382.4021" style="stroke: #A80036; stroke-width: 1.0;"/><text fill="#000000" font-family="sans-serif" font-size="13" lengthAdjust="spacingAndGlyphs" textLength="23" x="915" y="384.0669">has</text><text fill="#000000" font-family="sans-serif" font-size="13" lengthAdjust="spacingAndGlyphs" textLength="8" x="618.6443" y="358.7378">1</text><text fill="#000000" font-family="sans-serif" font-size="13" lengthAdjust="spacingAndGlyphs" textLength="8" x="1174.0287" y="396.2878">1</text><!--MD5=[94cb6410d42b328ceb5f0256c504c7d6]
link RegistryTransactions to Transaction--><path d="M1366.0602,366.5763 C1420.1024,365.0889 1488.2285,363.2139 1537.8953,361.8469 " fill="none" id="RegistryTransactions-&gt;Transaction" style="stroke: #A80036; stroke-width: 1.0;"/><polygon fill="#A80036" points="1542.9458,361.7079,1533.839,357.9573,1537.9477,361.8456,1534.0594,365.9543,1542.9458,361.7079" style="stroke: #A80036; stroke-width: 1.0;"/><text fill="#000000" font-family="sans-serif" font-size="13" lengthAdjust="spacingAndGlyphs" textLength="23" x="1428" y="361.0669">has</text><text fill="#000000" font-family="sans-serif" font-size="13" lengthAdjust="spacingAndGlyphs" textLength="8" x="1373.9716" y="379.1019">1</text><text fill="#000000" font-family="sans-serif" font-size="13" lengthAdjust="spacingAndGlyphs" textLength="7" x="1527.9564" y="374.9156">*</text><!--MD5=[4f878dd892a20705c739bf9da60c4694]
link Platform to RegistryFreelancers--><path d="M611.2877,264.7474 C640.4706,234.9057 686.6406,198 736.5,198 C736.5,198 736.5,198 1104.5,198 C1134.8695,198 1166.8466,205.8667 1194.96,215.7031 " fill="none" id="Platform-&gt;RegistryFreelancers" style="stroke: #A80036; stroke-width: 1.0;"/><polygon fill="#A80036" points="1199.7993,217.4289,1192.6659,210.6382,1195.0898,215.7494,1189.9786,218.1733,1199.7993,217.4289" style="stroke: #A80036; stroke-width: 1.0;"/><text fill="#000000" font-family="sans-serif" font-size="13" lengthAdjust="spacingAndGlyphs" textLength="23" x="915" y="194.0669">has</text><text fill="#000000" font-family="sans-serif" font-size="13" lengthAdjust="spacingAndGlyphs" textLength="8" x="617.6624" y="253.8894">1</text><text fill="#000000" font-family="sans-serif" font-size="13" lengthAdjust="spacingAndGlyphs" textLength="8" x="1183.9645" y="226.7116">1</text><!--MD5=[d3b007cf1732ff75c77d91b21620c56e]
link RegistryFreelancers to Freelancer--><path d="M1356.3246,234.838 C1401.8099,223.7101 1459.4972,209.597 1507.8568,197.7659 " fill="none" id="RegistryFreelancers-&gt;Freelancer" style="stroke: #A80036; stroke-width: 1.0;"/><polygon fill="#A80036" points="1512.8054,196.5552,1503.1126,194.8087,1507.9487,197.7435,1505.0139,202.5795,1512.8054,196.5552" style="stroke: #A80036; stroke-width: 1.0;"/><text fill="#000000" font-family="sans-serif" font-size="13" lengthAdjust="spacingAndGlyphs" textLength="23" x="1428" y="208.0669">has</text><text fill="#000000" font-family="sans-serif" font-size="13" lengthAdjust="spacingAndGlyphs" textLength="8" x="1363.9139" y="245.8168">1</text><text fill="#000000" font-family="sans-serif" font-size="13" lengthAdjust="spacingAndGlyphs" textLength="7" x="1497.8807" y="211.1146">*</text><!--MD5=[4b35f5cbbb9f0916ba1866e97e83f62f]
link Transaction to Organization--><path d="M1667.0889,336.9966 C1713.4902,319.8053 1777.3692,296.1386 1827.9752,277.3895 " fill="none" id="Transaction-&gt;Organization" style="stroke: #A80036; stroke-width: 1.0;"/><polygon fill="#A80036" points="1832.8301,275.5908,1823.001,274.9668,1828.1416,277.3279,1825.7804,282.4685,1832.8301,275.5908" style="stroke: #A80036; stroke-width: 1.0;"/><text fill="#000000" font-family="sans-serif" font-size="13" lengthAdjust="spacingAndGlyphs" textLength="12" x="1759" y="296.0669">of</text><text fill="#000000" font-family="sans-serif" font-size="13" lengthAdjust="spacingAndGlyphs" textLength="7" x="1675.0825" y="347.1926">*</text><text fill="#000000" font-family="sans-serif" font-size="13" lengthAdjust="spacingAndGlyphs" textLength="8" x="1817.0936" y="291.1028">1</text><!--MD5=[f26de1a7e4ef02805f91a2dbf03db44e]
link Platform to <<interface>>\nExternalConverterCurrency--><path d="M663.0567,302 C705.5279,302 757.938,302 804.7981,302 " fill="none" id="Platform-&gt;&lt;&lt;interface&gt;&gt;\nExternalConverterCurrency" style="stroke: #A80036; stroke-width: 1.0;"/><polygon fill="#A80036" points="809.8976,302,800.8976,298,804.8976,302,800.8976,306,809.8976,302" style="stroke: #A80036; stroke-width: 1.0;"/><text fill="#000000" font-family="sans-serif" font-size="13" lengthAdjust="spacingAndGlyphs" textLength="23" x="725" y="298.0669">has</text><text fill="#000000" font-family="sans-serif" font-size="13" lengthAdjust="spacingAndGlyphs" textLength="8" x="671.1283" y="314.7824">1</text><text fill="#000000" font-family="sans-serif" font-size="13" lengthAdjust="spacingAndGlyphs" textLength="8" x="794.1715" y="314.5599">1</text><!--MD5=[fcae52a1a22336ec25b13619cbfa8fc4]
link Platform to <<interface>>\nExternalEmailSender--><path d="M608.7734,264.9094 C629.8771,240.352 660.3045,209.0846 693,189 C730.7464,165.8126 776.2631,148.7708 817.0465,136.7024 " fill="none" id="Platform-&gt;&lt;&lt;interface&gt;&gt;\nExternalEmailSender" style="stroke: #A80036; stroke-width: 1.0;"/><polygon fill="#A80036" points="821.9957,135.2553,812.2348,133.942,817.1967,136.6586,814.4801,141.6205,821.9957,135.2553" style="stroke: #A80036; stroke-width: 1.0;"/><text fill="#000000" font-family="sans-serif" font-size="13" lengthAdjust="spacingAndGlyphs" textLength="23" x="725" y="158.0669">has</text><text fill="#000000" font-family="sans-serif" font-size="13" lengthAdjust="spacingAndGlyphs" textLength="8" x="605.4332" y="253.8032">1</text><text fill="#000000" font-family="sans-serif" font-size="13" lengthAdjust="spacingAndGlyphs" textLength="8" x="806.0274" y="149.5951">1</text><!--MD5=[7903040302dc5b3cbaaa25ded89b0d1f]
link <<interface>>\nExternalEmailSender to RegistryFreelancers--><path d="M1031.2037,141.9829 C1072.0267,154.8445 1118.8152,171.0501 1160,189 C1173.2916,194.793 1187.0653,201.5919 1200.3084,208.5699 " fill="none" id="&lt;&lt;interface&gt;&gt;\nExternalEmailSender-&gt;RegistryFreelancers" style="stroke: #A80036; stroke-width: 1.0; stroke-dasharray: 7.0,7.0;"/><polygon fill="#A80036" points="1204.7777,210.9421,1198.7034,203.1895,1200.3613,208.5979,1194.9528,210.2558,1204.7777,210.9421" style="stroke: #A80036; stroke-width: 1.0;"/><!--MD5=[9121d13c8ce8b38d8291fe67f449ed56]
link <<interface>>\nExternalConverterCurrency to RegistryFreelancers--><path d="M1043.0562,286.0834 C1092.7018,279.3039 1149.4824,271.5501 1194.7862,265.3635 " fill="none" id="&lt;&lt;interface&gt;&gt;\nExternalConverterCurrency-&gt;RegistryFreelancers" style="stroke: #A80036; stroke-width: 1.0; stroke-dasharray: 7.0,7.0;"/><polygon fill="#A80036" points="1199.972,264.6553,1190.5135,261.9099,1195.018,265.3319,1191.596,269.8363,1199.972,264.6553" style="stroke: #A80036; stroke-width: 1.0;"/><!--MD5=[63e0f461ffd473891b5c94bdc58d2f1d]
@startuml
skinparam classAttributeIconSize 0
left to right direction

package controller {
class AutomaticPaymentsTask {
  +AutomaticPaymentTask(org)
  +run()
  -makePayments(org)
  -scheduleNextTimer(org)
}
}

class Timer {
  +Timer()
  +schedule(task,paymentDate)
}

package model {
class Platform {
  +getRegistryTransactions()
  +getRegistryFreelancers()
}
class Organization {
  -String orgName
  -int paymentDay
  -int paymentHour
  -int paymentMinute
  +getNextPaymentsDate()
}
package registrys {
class RegistryTransactions {
  +scheduleOrgPayments(org)
  +payTransactions(org)
}
class RegistryFreelancers {
  +sendEmails(paidTrans)
  +generateEmailHeader()
  +generateEmailContent()
}
}
class Transaction {
  -endDate
  -delay
  -descriptionWork
  +payAndRegister()
  +getFreelancer()
  +getAmountToPay()
}
class Freelancer {
  -String idFreelancer
  -String freelancerName
  -String freelancerExpertise
  -String freelancerEmail
  -String freelancerNIF
  -String freelancerBankAccount
  -String freelancerAddress
  -String freelancerCountry
  +getFreelancerCountry()
  +getFreelancerEmail()
}
interface "<<interface>>\nExternalEmailSender" {
  +sendEmail(email,header,content)
}
interface "<<interface>>\nExternalConverterCurrency" {
  +convertCurrency(amountEUR,country)
}
}

Timer ..> AutomaticPaymentsTask
AutomaticPaymentsTask ..> RegistryTransactions
AutomaticPaymentsTask ..> Platform
AutomaticPaymentsTask ..> RegistryFreelancers
AutomaticPaymentsTask "1" - -> "1" Organization: has
Platform "1" - -> "1" RegistryTransactions: has
RegistryTransactions "1" - -> "*" Transaction: has
Platform "1" - -> "1" RegistryFreelancers: has
RegistryFreelancers "1" - -> "*" Freelancer: has
Transaction "*" - -> "1" Organization: of
Platform"1" - ->"1" "<<interface>>\nExternalConverterCurrency" : has
Platform"1" - ->"1" "<<interface>>\nExternalEmailSender" : has
"<<interface>>\nExternalEmailSender" ..> RegistryFreelancers
"<<interface>>\nExternalConverterCurrency" ..> RegistryFreelancers
@enduml

PlantUML version 1.2019.12(Sun Nov 03 10:24:54 UTC 2019)
(GPL source distribution)
Java Runtime: OpenJDK Runtime Environment
JVM: OpenJDK 64-Bit Server VM
Java Version: 1.8.0_232-heroku-b09
Operating System: Linux
Default Encoding: UTF-8
Language: en
Country: US
--></g></svg>