<?xml version="1.0" encoding="UTF-8" standalone="no"?><svg xmlns="http://www.w3.org/2000/svg" xmlns:xlink="http://www.w3.org/1999/xlink" contentScriptType="application/ecmascript" contentStyleType="text/css" height="419px" preserveAspectRatio="none" style="width:1547px;height:419px;" version="1.1" viewBox="0 0 1547 419" width="1547px" zoomAndPan="magnify"><defs><filter height="300%" id="fzq5xzoi0naeg" width="300%" x="-1" y="-1"><feGaussianBlur result="blurOut" stdDeviation="2.0"/><feColorMatrix in="blurOut" result="blurOut2" type="matrix" values="0 0 0 0 0 0 0 0 0 0 0 0 0 0 0 0 0 0 .4 0"/><feOffset dx="4.0" dy="4.0" in="blurOut2" result="blurOut3"/><feBlend in="SourceGraphic" in2="blurOut3" mode="normal"/></filter></defs><g><!--MD5=[99b8db98afdc2c8404e39242ef4c1e65]
class Platform--><rect fill="#FEFECE" filter="url(#fzq5xzoi0naeg)" height="40" id="Platform" style="stroke: #A80036; stroke-width: 1.5;" width="84" x="6" y="198.7249"/><ellipse cx="21" cy="214.7249" fill="#ADD1B2" rx="11" ry="11" style="stroke: #A80036; stroke-width: 1.0;"/><path d="M23.9688,220.3655 Q23.3906,220.6624 22.75,220.8108 Q22.1094,220.9593 21.4063,220.9593 Q18.9063,220.9593 17.5859,219.3108 Q16.2656,217.6624 16.2656,214.5374 Q16.2656,211.4124 17.5859,209.7562 Q18.9063,208.0999 21.4063,208.0999 Q22.1094,208.0999 22.7578,208.2562 Q23.4063,208.4124 23.9688,208.7093 L23.9688,211.428 Q23.3438,210.8499 22.75,210.5765 Q22.1563,210.303 21.5313,210.303 Q20.1875,210.303 19.5,211.3733 Q18.8125,212.4437 18.8125,214.5374 Q18.8125,216.6312 19.5,217.7015 Q20.1875,218.7718 21.5313,218.7718 Q22.1563,218.7718 22.75,218.4983 Q23.3438,218.2249 23.9688,217.6468 L23.9688,220.3655 Z "/><text fill="#000000" font-family="sans-serif" font-size="12" lengthAdjust="spacingAndGlyphs" textLength="52" x="35" y="218.8792">Platform</text><line style="stroke: #A80036; stroke-width: 1.5;" x1="7" x2="89" y1="230.7249" y2="230.7249"/><!--MD5=[86c7c362de55a38b660185a1328fe18d]
class Organization--><rect fill="#FEFECE" filter="url(#fzq5xzoi0naeg)" height="78.4141" id="Organization" style="stroke: #A80036; stroke-width: 1.5;" width="140" x="1116" y="169.7249"/><ellipse cx="1144.5" cy="185.7249" fill="#ADD1B2" rx="11" ry="11" style="stroke: #A80036; stroke-width: 1.0;"/><path d="M1147.4688,191.3655 Q1146.8906,191.6624 1146.25,191.8108 Q1145.6094,191.9593 1144.9063,191.9593 Q1142.4063,191.9593 1141.0859,190.3108 Q1139.7656,188.6624 1139.7656,185.5374 Q1139.7656,182.4124 1141.0859,180.7562 Q1142.4063,179.0999 1144.9063,179.0999 Q1145.6094,179.0999 1146.2578,179.2562 Q1146.9063,179.4124 1147.4688,179.7093 L1147.4688,182.428 Q1146.8438,181.8499 1146.25,181.5765 Q1145.6563,181.303 1145.0313,181.303 Q1143.6875,181.303 1143,182.3733 Q1142.3125,183.4437 1142.3125,185.5374 Q1142.3125,187.6312 1143,188.7015 Q1143.6875,189.7718 1145.0313,189.7718 Q1145.6563,189.7718 1146.25,189.4983 Q1146.8438,189.2249 1147.4688,188.6468 L1147.4688,191.3655 Z "/><text fill="#000000" font-family="sans-serif" font-size="12" lengthAdjust="spacingAndGlyphs" textLength="78" x="1161.5" y="189.8792">Organization</text><line style="stroke: #A80036; stroke-width: 1.5;" x1="1117" x2="1255" y1="201.7249" y2="201.7249"/><rect fill="none" height="6" style="stroke: #C82930; stroke-width: 1.0;" width="6" x="1124" y="209.7249"/><text fill="#000000" font-family="sans-serif" font-size="11" lengthAdjust="spacingAndGlyphs" textLength="90" x="1136" y="215.9353">String orgName</text><rect fill="none" height="6" style="stroke: #C82930; stroke-width: 1.0;" width="6" x="1124" y="222.5296"/><text fill="#000000" font-family="sans-serif" font-size="11" lengthAdjust="spacingAndGlyphs" textLength="114" x="1136" y="228.74">Integer paymentDay</text><rect fill="none" height="6" style="stroke: #C82930; stroke-width: 1.0;" width="6" x="1124" y="235.3343"/><text fill="#000000" font-family="sans-serif" font-size="11" lengthAdjust="spacingAndGlyphs" textLength="109" x="1136" y="241.5447">Time paymentTime</text><!--MD5=[1f687b5315377fe49fca59b457947463]
class Freelancer--><rect fill="#FEFECE" filter="url(#fzq5xzoi0naeg)" height="142.4375" id="Freelancer" style="stroke: #A80036; stroke-width: 1.5;" width="194" x="788" y="77.7249"/><ellipse cx="847.25" cy="93.7249" fill="#ADD1B2" rx="11" ry="11" style="stroke: #A80036; stroke-width: 1.0;"/><path d="M850.2188,99.3655 Q849.6406,99.6624 849,99.8108 Q848.3594,99.9593 847.6563,99.9593 Q845.1563,99.9593 843.8359,98.3108 Q842.5156,96.6624 842.5156,93.5374 Q842.5156,90.4124 843.8359,88.7561 Q845.1563,87.0999 847.6563,87.0999 Q848.3594,87.0999 849.0078,87.2561 Q849.6563,87.4124 850.2188,87.7093 L850.2188,90.428 Q849.5938,89.8499 849,89.5765 Q848.4063,89.303 847.7813,89.303 Q846.4375,89.303 845.75,90.3733 Q845.0625,91.4436 845.0625,93.5374 Q845.0625,95.6311 845.75,96.7015 Q846.4375,97.7718 847.7813,97.7718 Q848.4063,97.7718 849,97.4983 Q849.5938,97.2249 850.2188,96.6468 L850.2188,99.3655 Z "/><text fill="#000000" font-family="sans-serif" font-size="12" lengthAdjust="spacingAndGlyphs" textLength="67" x="867.75" y="97.8792">Freelancer</text><line style="stroke: #A80036; stroke-width: 1.5;" x1="789" x2="981" y1="109.7249" y2="109.7249"/><rect fill="none" height="6" style="stroke: #C82930; stroke-width: 1.0;" width="6" x="796" y="117.7249"/><text fill="#000000" font-family="sans-serif" font-size="11" lengthAdjust="spacingAndGlyphs" textLength="108" x="808" y="123.9353">String idFreelancer</text><rect fill="none" height="6" style="stroke: #C82930; stroke-width: 1.0;" width="6" x="796" y="130.5296"/><text fill="#000000" font-family="sans-serif" font-size="11" lengthAdjust="spacingAndGlyphs" textLength="129" x="808" y="136.74">String freelancerName</text><rect fill="none" height="6" style="stroke: #C82930; stroke-width: 1.0;" width="6" x="796" y="143.3343"/><text fill="#000000" font-family="sans-serif" font-size="11" lengthAdjust="spacingAndGlyphs" textLength="149" x="808" y="149.5447">String freelancerExpertise</text><rect fill="none" height="6" style="stroke: #C82930; stroke-width: 1.0;" width="6" x="796" y="156.139"/><text fill="#000000" font-family="sans-serif" font-size="11" lengthAdjust="spacingAndGlyphs" textLength="127" x="808" y="162.3494">String freelancerEmail</text><rect fill="none" height="6" style="stroke: #C82930; stroke-width: 1.0;" width="6" x="796" y="168.9437"/><text fill="#000000" font-family="sans-serif" font-size="11" lengthAdjust="spacingAndGlyphs" textLength="113" x="808" y="175.1541">String freelancerNIF</text><rect fill="none" height="6" style="stroke: #C82930; stroke-width: 1.0;" width="6" x="796" y="181.7483"/><text fill="#000000" font-family="sans-serif" font-size="11" lengthAdjust="spacingAndGlyphs" textLength="168" x="808" y="187.9588">String freelancerBankAccount</text><rect fill="none" height="6" style="stroke: #C82930; stroke-width: 1.0;" width="6" x="796" y="194.553"/><text fill="#000000" font-family="sans-serif" font-size="11" lengthAdjust="spacingAndGlyphs" textLength="143" x="808" y="200.7635">String freelancerAddress</text><rect fill="none" height="6" style="stroke: #C82930; stroke-width: 1.0;" width="6" x="796" y="207.3577"/><text fill="#000000" font-family="sans-serif" font-size="11" lengthAdjust="spacingAndGlyphs" textLength="140" x="808" y="213.5682">String freelancerCountry</text><!--MD5=[b34797a66dc35cbf1d65f7e3ca75530e]
class Task--><rect fill="#FEFECE" filter="url(#fzq5xzoi0naeg)" height="91.2188" id="Task" style="stroke: #A80036; stroke-width: 1.5;" width="180" x="1356" y="285.2249"/><ellipse cx="1427.25" cy="301.2249" fill="#ADD1B2" rx="11" ry="11" style="stroke: #A80036; stroke-width: 1.0;"/><path d="M1430.2188,306.8655 Q1429.6406,307.1624 1429,307.3108 Q1428.3594,307.4593 1427.6563,307.4593 Q1425.1563,307.4593 1423.8359,305.8108 Q1422.5156,304.1624 1422.5156,301.0374 Q1422.5156,297.9124 1423.8359,296.2562 Q1425.1563,294.5999 1427.6563,294.5999 Q1428.3594,294.5999 1429.0078,294.7562 Q1429.6563,294.9124 1430.2188,295.2093 L1430.2188,297.928 Q1429.5938,297.3499 1429,297.0765 Q1428.4063,296.803 1427.7813,296.803 Q1426.4375,296.803 1425.75,297.8733 Q1425.0625,298.9437 1425.0625,301.0374 Q1425.0625,303.1312 1425.75,304.2015 Q1426.4375,305.2718 1427.7813,305.2718 Q1428.4063,305.2718 1429,304.9983 Q1429.5938,304.7249 1430.2188,304.1468 L1430.2188,306.8655 Z "/><text fill="#000000" font-family="sans-serif" font-size="12" lengthAdjust="spacingAndGlyphs" textLength="29" x="1447.75" y="305.3792">Task</text><line style="stroke: #A80036; stroke-width: 1.5;" x1="1357" x2="1535" y1="317.2249" y2="317.2249"/><rect fill="none" height="6" style="stroke: #C82930; stroke-width: 1.0;" width="6" x="1364" y="325.2249"/><text fill="#000000" font-family="sans-serif" font-size="11" lengthAdjust="spacingAndGlyphs" textLength="79" x="1376" y="331.4353">Integer taskID</text><rect fill="none" height="6" style="stroke: #C82930; stroke-width: 1.0;" width="6" x="1364" y="338.0296"/><text fill="#000000" font-family="sans-serif" font-size="11" lengthAdjust="spacingAndGlyphs" textLength="154" x="1376" y="344.24">Integer taskAssignDuration</text><rect fill="none" height="6" style="stroke: #C82930; stroke-width: 1.0;" width="6" x="1364" y="350.8343"/><text fill="#000000" font-family="sans-serif" font-size="11" lengthAdjust="spacingAndGlyphs" textLength="139" x="1376" y="357.0447">Double taskCostPerHour</text><rect fill="none" height="6" style="stroke: #C82930; stroke-width: 1.0;" width="6" x="1364" y="363.639"/><text fill="#000000" font-family="sans-serif" font-size="11" lengthAdjust="spacingAndGlyphs" textLength="113" x="1376" y="369.8494">String taskCategory</text><!--MD5=[4555bb1b0911a5adf28ce6dbe60fed2e]
class Transaction--><rect fill="#FEFECE" filter="url(#fzq5xzoi0naeg)" height="104.0234" id="Transaction" style="stroke: #A80036; stroke-width: 1.5;" width="209" x="491" y="213.7249"/><ellipse cx="554.25" cy="229.7249" fill="#ADD1B2" rx="11" ry="11" style="stroke: #A80036; stroke-width: 1.0;"/><path d="M557.2188,235.3655 Q556.6406,235.6624 556,235.8108 Q555.3594,235.9593 554.6563,235.9593 Q552.1563,235.9593 550.8359,234.3108 Q549.5156,232.6624 549.5156,229.5374 Q549.5156,226.4124 550.8359,224.7562 Q552.1563,223.0999 554.6563,223.0999 Q555.3594,223.0999 556.0078,223.2562 Q556.6563,223.4124 557.2188,223.7093 L557.2188,226.428 Q556.5938,225.8499 556,225.5765 Q555.4063,225.303 554.7813,225.303 Q553.4375,225.303 552.75,226.3733 Q552.0625,227.4437 552.0625,229.5374 Q552.0625,231.6312 552.75,232.7015 Q553.4375,233.7718 554.7813,233.7718 Q555.4063,233.7718 556,233.4983 Q556.5938,233.2249 557.2188,232.6468 L557.2188,235.3655 Z "/><text fill="#000000" font-family="sans-serif" font-size="12" lengthAdjust="spacingAndGlyphs" textLength="74" x="574.75" y="233.8792">Transaction</text><line style="stroke: #A80036; stroke-width: 1.5;" x1="492" x2="699" y1="245.7249" y2="245.7249"/><rect fill="none" height="6" style="stroke: #C82930; stroke-width: 1.0;" width="6" x="499" y="253.7249"/><text fill="#000000" font-family="sans-serif" font-size="11" lengthAdjust="spacingAndGlyphs" textLength="85" x="511" y="259.9353">Integer transID</text><rect fill="none" height="6" style="stroke: #C82930; stroke-width: 1.0;" width="6" x="499" y="266.5296"/><text fill="#000000" font-family="sans-serif" font-size="11" lengthAdjust="spacingAndGlyphs" textLength="104" x="511" y="272.74">Boolean transPaid</text><rect fill="none" height="6" style="stroke: #C82930; stroke-width: 1.0;" width="6" x="499" y="279.3343"/><text fill="#000000" font-family="sans-serif" font-size="11" lengthAdjust="spacingAndGlyphs" textLength="143" x="511" y="285.5447">Date executionFinishDate</text><rect fill="none" height="6" style="stroke: #C82930; stroke-width: 1.0;" width="6" x="499" y="292.139"/><text fill="#000000" font-family="sans-serif" font-size="11" lengthAdjust="spacingAndGlyphs" textLength="129" x="511" y="298.3494">Integer executionDelay</text><rect fill="none" height="6" style="stroke: #C82930; stroke-width: 1.0;" width="6" x="499" y="304.9437"/><text fill="#000000" font-family="sans-serif" font-size="11" lengthAdjust="spacingAndGlyphs" textLength="183" x="511" y="311.1541">String executionBriefDescription</text><!--MD5=[bff7eb28cf1d4a2cb4d5ed4aed40cfed]
class externalConverterCurrency--><rect fill="#FEFECE" filter="url(#fzq5xzoi0naeg)" height="40" id="externalConverterCurrency" style="stroke: #A80036; stroke-width: 1.5;" width="199" x="496" y="356.7249"/><ellipse cx="511" cy="372.7249" fill="#ADD1B2" rx="11" ry="11" style="stroke: #A80036; stroke-width: 1.0;"/><path d="M513.9688,378.3655 Q513.3906,378.6624 512.75,378.8108 Q512.1094,378.9593 511.4063,378.9593 Q508.9063,378.9593 507.5859,377.3108 Q506.2656,375.6624 506.2656,372.5374 Q506.2656,369.4124 507.5859,367.7562 Q508.9063,366.0999 511.4063,366.0999 Q512.1094,366.0999 512.7578,366.2562 Q513.4063,366.4124 513.9688,366.7093 L513.9688,369.428 Q513.3438,368.8499 512.75,368.5765 Q512.1563,368.303 511.5313,368.303 Q510.1875,368.303 509.5,369.3733 Q508.8125,370.4437 508.8125,372.5374 Q508.8125,374.6312 509.5,375.7015 Q510.1875,376.7718 511.5313,376.7718 Q512.1563,376.7718 512.75,376.4983 Q513.3438,376.2249 513.9688,375.6468 L513.9688,378.3655 Z "/><text fill="#000000" font-family="sans-serif" font-size="12" lengthAdjust="spacingAndGlyphs" textLength="167" x="525" y="376.8792">externalConverterCurrency</text><line style="stroke: #A80036; stroke-width: 1.5;" x1="497" x2="694" y1="388.7249" y2="388.7249"/><!--MD5=[7c8846fd7dc3143484153b44582f7f3a]
class externalEmailSender--><rect fill="#FEFECE" filter="url(#fzq5xzoi0naeg)" height="40" id="externalEmailSender" style="stroke: #A80036; stroke-width: 1.5;" width="161" x="200" y="288.7249"/><ellipse cx="215" cy="304.7249" fill="#ADD1B2" rx="11" ry="11" style="stroke: #A80036; stroke-width: 1.0;"/><path d="M217.9688,310.3655 Q217.3906,310.6624 216.75,310.8108 Q216.1094,310.9593 215.4063,310.9593 Q212.9063,310.9593 211.5859,309.3108 Q210.2656,307.6624 210.2656,304.5374 Q210.2656,301.4124 211.5859,299.7562 Q212.9063,298.0999 215.4063,298.0999 Q216.1094,298.0999 216.7578,298.2562 Q217.4063,298.4124 217.9688,298.7093 L217.9688,301.428 Q217.3438,300.8499 216.75,300.5765 Q216.1563,300.303 215.5313,300.303 Q214.1875,300.303 213.5,301.3733 Q212.8125,302.4437 212.8125,304.5374 Q212.8125,306.6312 213.5,307.7015 Q214.1875,308.7718 215.5313,308.7718 Q216.1563,308.7718 216.75,308.4983 Q217.3438,308.2249 217.9688,307.6468 L217.9688,310.3655 Z "/><text fill="#000000" font-family="sans-serif" font-size="12" lengthAdjust="spacingAndGlyphs" textLength="129" x="229" y="308.8792">externalEmailSender</text><line style="stroke: #A80036; stroke-width: 1.5;" x1="201" x2="360" y1="320.7249" y2="320.7249"/><!--MD5=[22697d4d863c2e08ab1d60ca0d61f844]
link Platform to Freelancer--><path d="M90.0357,207.5888 C99.8125,205.3367 110.2222,203.2079 120,201.7249 C355.4505,166.0154 635.3688,154.3326 782.6539,150.5344 " fill="none" id="Platform-&gt;Freelancer" style="stroke: #A80036; stroke-width: 1.0;"/><polygon fill="#A80036" points="787.837,150.4026,778.7381,146.633,782.8386,150.5299,778.9417,154.6304,787.837,150.4026" style="stroke: #A80036; stroke-width: 1.0;"/><text fill="#000000" font-family="sans-serif" font-size="13" lengthAdjust="spacingAndGlyphs" textLength="23" x="408" y="162.7918">has</text><polygon fill="#000000" points="434,156.7913,440,159.7913,434,162.7913,434,156.7913" style="stroke: #000000; stroke-width: 1.0;"/><text fill="#000000" font-family="sans-serif" font-size="13" lengthAdjust="spacingAndGlyphs" textLength="8" x="97.9481" y="201.464">1</text><text fill="#000000" font-family="sans-serif" font-size="13" lengthAdjust="spacingAndGlyphs" textLength="7" x="773.13" y="163.1605">*</text><!--MD5=[7640e466c042ba2d6f9c19c816f7f0fc]
link Platform to Organization--><path d="M59.1743,198.6942 C88.4696,149.1276 172.73,24.7249 280.5,24.7249 C280.5,24.7249 280.5,24.7249 885,24.7249 C992.6613,24.7249 1094.3884,111.4776 1147.5703,165.8463 " fill="none" id="Platform-&gt;Organization" style="stroke: #A80036; stroke-width: 1.0;"/><polygon fill="#A80036" points="1151.3149,169.7033,1147.9155,160.4597,1147.832,166.1159,1142.1757,166.0324,1151.3149,169.7033" style="stroke: #A80036; stroke-width: 1.0;"/><text fill="#000000" font-family="sans-serif" font-size="13" lengthAdjust="spacingAndGlyphs" textLength="23" x="577.5" y="20.7918">has</text><polygon fill="#000000" points="603.5,14.7913,609.5,17.7913,603.5,20.7913,603.5,14.7913" style="stroke: #000000; stroke-width: 1.0;"/><text fill="#000000" font-family="sans-serif" font-size="13" lengthAdjust="spacingAndGlyphs" textLength="8" x="53.2818" y="187.6935">1</text><text fill="#000000" font-family="sans-serif" font-size="13" lengthAdjust="spacingAndGlyphs" textLength="7" x="1137.7518" y="158.7501">*</text><!--MD5=[3781be57b219e856d6dd67e0b949b069]
link Platform to Transaction--><path d="M90.0523,222.3349 C173.9003,229.5328 364.2732,245.8753 485.9667,256.3221 " fill="none" id="Platform-&gt;Transaction" style="stroke: #A80036; stroke-width: 1.0;"/><polygon fill="#A80036" points="490.9872,256.7531,482.3625,251.9976,486.0055,256.3252,481.6779,259.9683,490.9872,256.7531" style="stroke: #A80036; stroke-width: 1.0;"/><text fill="#000000" font-family="sans-serif" font-size="13" lengthAdjust="spacingAndGlyphs" textLength="35" x="263" y="228.7918">it has</text><text fill="#000000" font-family="sans-serif" font-size="13" lengthAdjust="spacingAndGlyphs" textLength="8" x="97.9675" y="236.3227">1</text><text fill="#000000" font-family="sans-serif" font-size="13" lengthAdjust="spacingAndGlyphs" textLength="7" x="476.055" y="268.7159">*</text><!--MD5=[c7848a70a4af3a94a66c84e202de1375]
link Platform to externalConverterCurrency--><path d="M61.4964,238.7784 C85.0633,271.8129 137.2394,336.6133 200,362.7249 C292.6426,401.2691 408.2987,400.392 490.5603,392.5278 " fill="none" id="Platform-&gt;externalConverterCurrency" style="stroke: #A80036; stroke-width: 1.0;"/><polygon fill="#A80036" points="495.9298,392,486.5817,388.8996,490.9538,392.4891,487.3643,396.8613,495.9298,392" style="stroke: #A80036; stroke-width: 1.0;"/><text fill="#000000" font-family="sans-serif" font-size="13" lengthAdjust="spacingAndGlyphs" textLength="35" x="256.5" y="358.7918">it has</text><polygon fill="#000000" points="294.5,352.7913,300.5,355.7913,294.5,358.7913,294.5,352.7913" style="stroke: #000000; stroke-width: 1.0;"/><text fill="#000000" font-family="sans-serif" font-size="13" lengthAdjust="spacingAndGlyphs" textLength="8" x="56.286" y="258.9586">1</text><text fill="#000000" font-family="sans-serif" font-size="13" lengthAdjust="spacingAndGlyphs" textLength="8" x="480.0002" y="405.8157">1</text><!--MD5=[a044c09987d851a8785df94c2fd21fc5]
link Platform to externalEmailSender--><path d="M77.9192,238.9149 C90.5229,246.7976 105.5891,255.4337 120,261.7249 C143.6991,272.0711 170.3345,280.907 194.9945,288.0312 " fill="none" id="Platform-&gt;externalEmailSender" style="stroke: #A80036; stroke-width: 1.0;"/><polygon fill="#A80036" points="199.8988,289.4332,192.345,283.1133,195.0914,288.0588,190.146,290.8052,199.8988,289.4332" style="stroke: #A80036; stroke-width: 1.0;"/><text fill="#000000" font-family="sans-serif" font-size="13" lengthAdjust="spacingAndGlyphs" textLength="35" x="121" y="257.7918">it has</text><polygon fill="#000000" points="159,251.7913,165,254.7913,159,257.7913,159,251.7913" style="stroke: #000000; stroke-width: 1.0;"/><text fill="#000000" font-family="sans-serif" font-size="13" lengthAdjust="spacingAndGlyphs" textLength="8" x="77.209" y="258.7883">1</text><text fill="#000000" font-family="sans-serif" font-size="13" lengthAdjust="spacingAndGlyphs" textLength="8" x="184.0996" y="300.4192">1</text><!--MD5=[4078351e3988aa35b1504a42837f2ab1]
link Organization to Task--><path d="M1256.0172,241.5792 C1285.2619,255.3017 1319.6936,271.4581 1351.155,286.2208 " fill="none" id="Organization-&gt;Task" style="stroke: #A80036; stroke-width: 1.0;"/><polygon fill="#A80036" points="1355.7744,288.3883,1349.326,280.9439,1351.248,286.2643,1345.9276,288.1862,1355.7744,288.3883" style="stroke: #A80036; stroke-width: 1.0;"/><text fill="#000000" font-family="sans-serif" font-size="13" lengthAdjust="spacingAndGlyphs" textLength="25" x="1287" y="255.7918">Has</text><polygon fill="#000000" points="1315,249.7913,1321,252.7913,1315,255.7913,1315,249.7913" style="stroke: #000000; stroke-width: 1.0;"/><text fill="#000000" font-family="sans-serif" font-size="13" lengthAdjust="spacingAndGlyphs" textLength="8" x="1264.1128" y="258.0445">1</text><text fill="#000000" font-family="sans-serif" font-size="13" lengthAdjust="spacingAndGlyphs" textLength="7" x="1341.0127" y="297.5667">*</text><!--MD5=[e3634236d56168138121ff45734d5165]
link Freelancer to Organization--><path d="M982.3104,168.1224 C1023.8986,176.4124 1071.7056,185.942 1110.5486,193.6848 " fill="none" id="Freelancer-&gt;Organization" style="stroke: #A80036; stroke-width: 1.0;"/><polygon fill="#A80036" points="1115.725,194.7166,1107.6808,189.0341,1110.8215,193.739,1106.1166,196.8797,1115.725,194.7166" style="stroke: #A80036; stroke-width: 1.0;"/><text fill="#000000" font-family="sans-serif" font-size="13" lengthAdjust="spacingAndGlyphs" textLength="59" x="1013" y="171.7918">Works for</text><polygon fill="#000000" points="1075,165.7913,1081,168.7913,1075,171.7913,1075,165.7913" style="stroke: #000000; stroke-width: 1.0;"/><text fill="#000000" font-family="sans-serif" font-size="13" lengthAdjust="spacingAndGlyphs" textLength="8" x="990.067" y="182.237">1</text><text fill="#000000" font-family="sans-serif" font-size="13" lengthAdjust="spacingAndGlyphs" textLength="7" x="1101.117" y="206.0978">*</text><!--MD5=[1ba3bd4f93cb79c528974baff0351fc0]
link externalEmailSender to Transaction--><path d="M361.2113,297.7072 C399.1344,292.5304 444.9214,286.2801 485.9202,280.6835 " fill="none" id="externalEmailSender-&gt;Transaction" style="stroke: #A80036; stroke-width: 1.0;"/><polygon fill="#A80036" points="490.8955,280.0043,481.4372,277.2583,485.9414,280.6806,482.5192,285.1848,490.8955,280.0043" style="stroke: #A80036; stroke-width: 1.0;"/><text fill="#000000" font-family="sans-serif" font-size="13" lengthAdjust="spacingAndGlyphs" textLength="55" x="392" y="280.7918">gets info</text><polygon fill="#000000" points="450,274.7913,456,277.7913,450,280.7913,450,274.7913" style="stroke: #000000; stroke-width: 1.0;"/><text fill="#000000" font-family="sans-serif" font-size="13" lengthAdjust="spacingAndGlyphs" textLength="8" x="369.0206" y="309.4559">1</text><text fill="#000000" font-family="sans-serif" font-size="13" lengthAdjust="spacingAndGlyphs" textLength="8" x="474.9199" y="293.6746">1</text><!--MD5=[9d681d8e258500b93a28174ff8acad30]
link externalEmailSender to externalConverterCurrency--><path d="M361.2113,326.1483 C402.8097,335.1283 453.87,346.1508 497.6937,355.6112 " fill="none" id="externalEmailSender-&gt;externalConverterCurrency" style="stroke: #A80036; stroke-width: 1.0;"/><polygon fill="#A80036" points="502.7274,356.6978,494.7742,350.8886,497.84,355.6427,493.086,358.7085,502.7274,356.6978" style="stroke: #A80036; stroke-width: 1.0;"/><text fill="#000000" font-family="sans-serif" font-size="13" lengthAdjust="spacingAndGlyphs" textLength="56" x="398" y="328.7918">interacts</text><text fill="#000000" font-family="sans-serif" font-size="13" lengthAdjust="spacingAndGlyphs" textLength="8" x="369.0206" y="340.5189">1</text><text fill="#000000" font-family="sans-serif" font-size="13" lengthAdjust="spacingAndGlyphs" textLength="8" x="479.9091" y="349.5598">1</text><!--MD5=[4b35f5cbbb9f0916ba1866e97e83f62f]
link Transaction to Organization--><path d="M700.0731,267.7217 C778.068,267.9411 887.0708,265.5641 982,253.7249 C1025.0536,248.3555 1072.4167,238.1777 1110.66,228.858 " fill="none" id="Transaction-&gt;Organization" style="stroke: #A80036; stroke-width: 1.0;"/><polygon fill="#A80036" points="1115.7548,227.6084,1106.061,225.8676,1110.8988,228.7996,1107.9668,233.6373,1115.7548,227.6084" style="stroke: #A80036; stroke-width: 1.0;"/><text fill="#000000" font-family="sans-serif" font-size="13" lengthAdjust="spacingAndGlyphs" textLength="12" x="872.5" y="249.7918">of</text><polygon fill="#000000" points="887.5,243.7913,893.5,246.7913,887.5,249.7913,887.5,243.7913" style="stroke: #000000; stroke-width: 1.0;"/><text fill="#000000" font-family="sans-serif" font-size="13" lengthAdjust="spacingAndGlyphs" textLength="7" x="708.0097" y="264.3885">*</text><text fill="#000000" font-family="sans-serif" font-size="13" lengthAdjust="spacingAndGlyphs" textLength="8" x="1100.0983" y="242.3816">1</text><!--MD5=[8e4873cec2cb3febaaa9495c716fc885]
link Transaction to Task--><path d="M700.2142,273.7278 C866.904,286.4672 1190.1181,311.169 1350.6926,323.441 " fill="none" id="Transaction-&gt;Task" style="stroke: #A80036; stroke-width: 1.0;"/><polygon fill="#A80036" points="1355.8657,323.8364,1347.1968,319.162,1350.8802,323.4553,1346.587,327.1387,1355.8657,323.8364" style="stroke: #A80036; stroke-width: 1.0;"/><text fill="#000000" font-family="sans-serif" font-size="13" lengthAdjust="spacingAndGlyphs" textLength="54" x="1015.5" y="294.7918">refers to</text><polygon fill="#000000" points="1072.5,288.7913,1078.5,291.7913,1072.5,294.7913,1072.5,288.7913" style="stroke: #000000; stroke-width: 1.0;"/><text fill="#000000" font-family="sans-serif" font-size="13" lengthAdjust="spacingAndGlyphs" textLength="8" x="707.8582" y="286.8886">1</text><text fill="#000000" font-family="sans-serif" font-size="13" lengthAdjust="spacingAndGlyphs" textLength="8" x="1340.0702" y="335.9504">1</text><!--MD5=[542f32193441b56ea302115ed1249c3b]
link Transaction to Freelancer--><path d="M700.0161,223.4853 C727.1154,212.5332 756.2584,200.7552 783.2152,189.8608 " fill="none" id="Transaction-&gt;Freelancer" style="stroke: #A80036; stroke-width: 1.0;"/><polygon fill="#A80036" points="787.8709,187.9792,778.0278,187.643,783.2352,189.8527,781.0254,195.0601,787.8709,187.9792" style="stroke: #A80036; stroke-width: 1.0;"/><text fill="#000000" font-family="sans-serif" font-size="13" lengthAdjust="spacingAndGlyphs" textLength="13" x="731" y="196.7918">to</text><polygon fill="#000000" points="747,190.7913,753,193.7913,747,196.7913,747,190.7913" style="stroke: #000000; stroke-width: 1.0;"/><text fill="#000000" font-family="sans-serif" font-size="13" lengthAdjust="spacingAndGlyphs" textLength="8" x="707.9853" y="233.005">1</text><text fill="#000000" font-family="sans-serif" font-size="13" lengthAdjust="spacingAndGlyphs" textLength="8" x="772.1282" y="203.6141">1</text><!--MD5=[774a942756c6b3dc81a2f344fd6b69a6]
@startuml
hide methods
left to right direction


class Platform {

}

class Organization {
  -String orgName
  -Integer paymentDay
  -Time paymentTime
}

class Freelancer {
-String idFreelancer
-String freelancerName
-String freelancerExpertise
-String freelancerEmail
-String freelancerNIF
-String freelancerBankAccount
-String freelancerAddress
-String freelancerCountry
}


class Task{
-Integer taskID
-Integer taskAssignDuration
-Double taskCostPerHour
-String taskCategory
}

class Transaction {
-Integer transID
-Boolean transPaid
-Date executionFinishDate
-Integer executionDelay
-String executionBriefDescription
}
class externalConverterCurrency{
}
class externalEmailSender

Platform"1" - -> "*" Freelancer : has >
Platform"1" - -> "*" Organization : has >
Platform"1" - ->"*" Transaction : it has
Platform"1" - ->"1" externalConverterCurrency : it has >
Platform"1" - ->"1" externalEmailSender : it has >
Organization"1" - ->"*" Task : Has >
Freelancer"1" - ->"*" Organization : Works for >
externalEmailSender"1" - -> "1"Transaction : gets info >
externalEmailSender"1" - ->"1" externalConverterCurrency : interacts
Transaction"*" - ->"1" Organization : of >
Transaction "1" - -> "1" Task: refers to >
Transaction "1" - -> "1" Freelancer: to >
@enduml

PlantUML version 1.2019.12(Sun Nov 03 10:24:54 UTC 2019)
(GPL source distribution)
Java Runtime: OpenJDK Runtime Environment
JVM: OpenJDK 64-Bit Server VM
Java Version: 1.8.0_232-heroku-b09
Operating System: Linux
Default Encoding: UTF-8
Language: en
Country: US
--></g></svg>