<?xml version="1.0" encoding="UTF-8" standalone="no"?><svg xmlns="http://www.w3.org/2000/svg" xmlns:xlink="http://www.w3.org/1999/xlink" contentScriptType="application/ecmascript" contentStyleType="text/css" height="488px" preserveAspectRatio="none" style="width:392px;height:488px;" version="1.1" viewBox="0 0 392 488" width="392px" zoomAndPan="magnify"><defs><filter height="300%" id="f15dswou4juu93" width="300%" x="-1" y="-1"><feGaussianBlur result="blurOut" stdDeviation="2.0"/><feColorMatrix in="blurOut" result="blurOut2" type="matrix" values="0 0 0 0 0 0 0 0 0 0 0 0 0 0 0 0 0 0 .4 0"/><feOffset dx="4.0" dy="4.0" in="blurOut2" result="blurOut3"/><feBlend in="SourceGraphic" in2="blurOut3" mode="normal"/></filter></defs><g><!--MD5=[f483d6e5de34a60207b28a5563be5e8b]
class Collaborator--><rect fill="#FEFECE" filter="url(#f15dswou4juu93)" height="67.6719" id="Collaborator" style="stroke: #A80036; stroke-width: 1.5;" width="100" x="149.5" y="8"/><ellipse cx="164.5" cy="24" fill="#ADD1B2" rx="11" ry="11" style="stroke: #A80036; stroke-width: 1.0;"/><path d="M166.5,20.5 Q166.7031,20 166.9375,19.75 Q167.1719,19.5 167.4375,19.5 Q167.9063,19.5 168.2031,19.7813 Q168.5,20.0625 168.5,20.7188 L168.5,22.2813 Q168.5,22.9375 168.2188,23.2188 Q167.9375,23.5 167.5,23.5 Q167.1094,23.5 166.8594,23.3281 Q166.6094,23.1563 166.5,22.7031 Q166.4531,22.3906 166.2813,22.2188 Q165.9688,21.8906 165.4063,21.7031 Q164.8438,21.5 164.2813,21.5 Q163.5781,21.5 162.9844,21.7813 Q162.4063,22.0625 161.9531,22.6875 Q161.5,23.3125 161.5,24.1719 L161.5,25.0938 Q161.5,26.125 162.3438,26.8125 Q163.1875,27.5 164.6875,27.5 Q165.5781,27.5 166.2031,27.2969 Q166.5625,27.1875 166.9688,26.8281 Q167.2344,26.625 167.375,26.5625 Q167.5156,26.5 167.6875,26.5 Q168.0156,26.5 168.25,26.7656 Q168.5,27.0156 168.5,27.375 Q168.5,27.7188 168.1563,28.125 Q167.6563,28.7188 166.8594,29.0469 Q165.8125,29.5 164.5313,29.5 Q163.0313,29.5 161.8281,28.9063 Q160.8594,28.4375 160.1719,27.4219 Q159.5,26.4063 159.5,25.2031 L159.5,24.1094 Q159.5,22.8594 160.0938,21.7656 Q160.7031,20.6719 161.75,20.0938 Q162.8125,19.5 164,19.5 Q164.7188,19.5 165.3438,19.75 Q165.9688,20 166.5,20.5 Z "/><text fill="#000000" font-family="sans-serif" font-size="12" lengthAdjust="spacingAndGlyphs" textLength="68" x="178.5" y="28.9102">Collaborator</text><line style="stroke: #A80036; stroke-width: 1.5;" x1="150.5" x2="248.5" y1="40" y2="40"/><rect fill="none" height="6" style="stroke: #C82930; stroke-width: 1.0;" width="6" x="157.5" y="48"/><text fill="#000000" font-family="sans-serif" font-size="11" lengthAdjust="spacingAndGlyphs" textLength="57" x="169.5" y="55.4189">String name</text><rect fill="none" height="6" style="stroke: #C82930; stroke-width: 1.0;" width="6" x="157.5" y="61.8359"/><text fill="#000000" font-family="sans-serif" font-size="11" lengthAdjust="spacingAndGlyphs" textLength="55" x="169.5" y="69.2549">String email</text><!--MD5=[1f687b5315377fe49fca59b457947463]
class Freelancer--><rect fill="#FEFECE" filter="url(#f15dswou4juu93)" height="136.8516" id="Freelancer" style="stroke: #A80036; stroke-width: 1.5;" width="121" x="6" y="341"/><ellipse cx="34.5" cy="357" fill="#ADD1B2" rx="11" ry="11" style="stroke: #A80036; stroke-width: 1.0;"/><path d="M36.5,353.5 Q36.7031,353 36.9375,352.75 Q37.1719,352.5 37.4375,352.5 Q37.9063,352.5 38.2031,352.7813 Q38.5,353.0625 38.5,353.7188 L38.5,355.2813 Q38.5,355.9375 38.2188,356.2188 Q37.9375,356.5 37.5,356.5 Q37.1094,356.5 36.8594,356.3281 Q36.6094,356.1563 36.5,355.7031 Q36.4531,355.3906 36.2813,355.2188 Q35.9688,354.8906 35.4063,354.7031 Q34.8438,354.5 34.2813,354.5 Q33.5781,354.5 32.9844,354.7813 Q32.4063,355.0625 31.9531,355.6875 Q31.5,356.3125 31.5,357.1719 L31.5,358.0938 Q31.5,359.125 32.3438,359.8125 Q33.1875,360.5 34.6875,360.5 Q35.5781,360.5 36.2031,360.2969 Q36.5625,360.1875 36.9688,359.8281 Q37.2344,359.625 37.375,359.5625 Q37.5156,359.5 37.6875,359.5 Q38.0156,359.5 38.25,359.7656 Q38.5,360.0156 38.5,360.375 Q38.5,360.7188 38.1563,361.125 Q37.6563,361.7188 36.8594,362.0469 Q35.8125,362.5 34.5313,362.5 Q33.0313,362.5 31.8281,361.9063 Q30.8594,361.4375 30.1719,360.4219 Q29.5,359.4063 29.5,358.2031 L29.5,357.1094 Q29.5,355.8594 30.0938,354.7656 Q30.7031,353.6719 31.75,353.0938 Q32.8125,352.5 34,352.5 Q34.7188,352.5 35.3438,352.75 Q35.9688,353 36.5,353.5 Z "/><text fill="#000000" font-family="sans-serif" font-size="12" lengthAdjust="spacingAndGlyphs" textLength="59" x="51.5" y="361.9102">Freelancer</text><line style="stroke: #A80036; stroke-width: 1.5;" x1="7" x2="126" y1="373" y2="373"/><rect fill="none" height="6" style="stroke: #C82930; stroke-width: 1.0;" width="6" x="14" y="381"/><text fill="#000000" font-family="sans-serif" font-size="11" lengthAdjust="spacingAndGlyphs" textLength="39" x="26" y="388.4189">String id</text><rect fill="none" height="6" style="stroke: #C82930; stroke-width: 1.0;" width="6" x="14" y="394.8359"/><text fill="#000000" font-family="sans-serif" font-size="11" lengthAdjust="spacingAndGlyphs" textLength="57" x="26" y="402.2549">String name</text><rect fill="none" height="6" style="stroke: #C82930; stroke-width: 1.0;" width="6" x="14" y="408.6719"/><text fill="#000000" font-family="sans-serif" font-size="11" lengthAdjust="spacingAndGlyphs" textLength="55" x="26" y="416.0908">String email</text><rect fill="none" height="6" style="stroke: #C82930; stroke-width: 1.0;" width="6" x="14" y="422.5078"/><text fill="#000000" font-family="sans-serif" font-size="11" lengthAdjust="spacingAndGlyphs" textLength="43" x="26" y="429.9268">String nif</text><rect fill="none" height="6" style="stroke: #C82930; stroke-width: 1.0;" width="6" x="14" y="436.3438"/><text fill="#000000" font-family="sans-serif" font-size="11" lengthAdjust="spacingAndGlyphs" textLength="95" x="26" y="443.7627">String bankAccount</text><rect fill="none" height="6" style="stroke: #C82930; stroke-width: 1.0;" width="6" x="14" y="450.1797"/><text fill="#000000" font-family="sans-serif" font-size="11" lengthAdjust="spacingAndGlyphs" textLength="71" x="26" y="457.5986">String address</text><rect fill="none" height="6" style="stroke: #C82930; stroke-width: 1.0;" width="6" x="14" y="464.0156"/><text fill="#000000" font-family="sans-serif" font-size="11" lengthAdjust="spacingAndGlyphs" textLength="68" x="26" y="471.4346">String country</text><!--MD5=[b34797a66dc35cbf1d65f7e3ca75530e]
class Task--><rect fill="#FEFECE" filter="url(#f15dswou4juu93)" height="109.1797" id="Task" style="stroke: #A80036; stroke-width: 1.5;" width="163" x="218" y="355"/><ellipse cx="281.75" cy="371" fill="#ADD1B2" rx="11" ry="11" style="stroke: #A80036; stroke-width: 1.0;"/><path d="M283.75,367.5 Q283.9531,367 284.1875,366.75 Q284.4219,366.5 284.6875,366.5 Q285.1563,366.5 285.4531,366.7813 Q285.75,367.0625 285.75,367.7188 L285.75,369.2813 Q285.75,369.9375 285.4688,370.2188 Q285.1875,370.5 284.75,370.5 Q284.3594,370.5 284.1094,370.3281 Q283.8594,370.1563 283.75,369.7031 Q283.7031,369.3906 283.5313,369.2188 Q283.2188,368.8906 282.6563,368.7031 Q282.0938,368.5 281.5313,368.5 Q280.8281,368.5 280.2344,368.7813 Q279.6563,369.0625 279.2031,369.6875 Q278.75,370.3125 278.75,371.1719 L278.75,372.0938 Q278.75,373.125 279.5938,373.8125 Q280.4375,374.5 281.9375,374.5 Q282.8281,374.5 283.4531,374.2969 Q283.8125,374.1875 284.2188,373.8281 Q284.4844,373.625 284.625,373.5625 Q284.7656,373.5 284.9375,373.5 Q285.2656,373.5 285.5,373.7656 Q285.75,374.0156 285.75,374.375 Q285.75,374.7188 285.4063,375.125 Q284.9063,375.7188 284.1094,376.0469 Q283.0625,376.5 281.7813,376.5 Q280.2813,376.5 279.0781,375.9063 Q278.1094,375.4375 277.4219,374.4219 Q276.75,373.4063 276.75,372.2031 L276.75,371.1094 Q276.75,369.8594 277.3438,368.7656 Q277.9531,367.6719 279,367.0938 Q280.0625,366.5 281.25,366.5 Q281.9688,366.5 282.5938,366.75 Q283.2188,367 283.75,367.5 Z "/><text fill="#000000" font-family="sans-serif" font-size="12" lengthAdjust="spacingAndGlyphs" textLength="27" x="302.25" y="375.9102">Task</text><line style="stroke: #A80036; stroke-width: 1.5;" x1="219" x2="380" y1="387" y2="387"/><rect fill="none" height="6" style="stroke: #C82930; stroke-width: 1.0;" width="6" x="226" y="395"/><text fill="#000000" font-family="sans-serif" font-size="11" lengthAdjust="spacingAndGlyphs" textLength="65" x="238" y="402.4189">Integer taskID</text><rect fill="none" height="6" style="stroke: #C82930; stroke-width: 1.0;" width="6" x="226" y="408.8359"/><text fill="#000000" font-family="sans-serif" font-size="11" lengthAdjust="spacingAndGlyphs" textLength="130" x="238" y="416.2549">Integer taskAssignDuration</text><rect fill="none" height="6" style="stroke: #C82930; stroke-width: 1.0;" width="6" x="226" y="422.6719"/><text fill="#000000" font-family="sans-serif" font-size="11" lengthAdjust="spacingAndGlyphs" textLength="117" x="238" y="430.0908">Double taskCostPerHour</text><rect fill="none" height="6" style="stroke: #C82930; stroke-width: 1.0;" width="6" x="226" y="436.5078"/><text fill="#000000" font-family="sans-serif" font-size="11" lengthAdjust="spacingAndGlyphs" textLength="95" x="238" y="443.9268">String taskCategory</text><rect fill="none" height="6" style="stroke: #C82930; stroke-width: 1.0;" width="6" x="226" y="450.3438"/><text fill="#000000" font-family="sans-serif" font-size="11" lengthAdjust="spacingAndGlyphs" textLength="137" x="238" y="457.7627">boolean taskHasTransaction</text><!--MD5=[4555bb1b0911a5adf28ce6dbe60fed2e]
class Transaction--><rect fill="#FEFECE" filter="url(#f15dswou4juu93)" height="109.1797" id="Transaction" style="stroke: #A80036; stroke-width: 1.5;" width="187" x="106" y="154"/><ellipse cx="162.75" cy="170" fill="#ADD1B2" rx="11" ry="11" style="stroke: #A80036; stroke-width: 1.0;"/><path d="M164.75,166.5 Q164.9531,166 165.1875,165.75 Q165.4219,165.5 165.6875,165.5 Q166.1563,165.5 166.4531,165.7813 Q166.75,166.0625 166.75,166.7188 L166.75,168.2813 Q166.75,168.9375 166.4688,169.2188 Q166.1875,169.5 165.75,169.5 Q165.3594,169.5 165.1094,169.3281 Q164.8594,169.1563 164.75,168.7031 Q164.7031,168.3906 164.5313,168.2188 Q164.2188,167.8906 163.6563,167.7031 Q163.0938,167.5 162.5313,167.5 Q161.8281,167.5 161.2344,167.7813 Q160.6563,168.0625 160.2031,168.6875 Q159.75,169.3125 159.75,170.1719 L159.75,171.0938 Q159.75,172.125 160.5938,172.8125 Q161.4375,173.5 162.9375,173.5 Q163.8281,173.5 164.4531,173.2969 Q164.8125,173.1875 165.2188,172.8281 Q165.4844,172.625 165.625,172.5625 Q165.7656,172.5 165.9375,172.5 Q166.2656,172.5 166.5,172.7656 Q166.75,173.0156 166.75,173.375 Q166.75,173.7188 166.4063,174.125 Q165.9063,174.7188 165.1094,175.0469 Q164.0625,175.5 162.7813,175.5 Q161.2813,175.5 160.0781,174.9063 Q159.1094,174.4375 158.4219,173.4219 Q157.75,172.4063 157.75,171.2031 L157.75,170.1094 Q157.75,168.8594 158.3438,167.7656 Q158.9531,166.6719 160,166.0938 Q161.0625,165.5 162.25,165.5 Q162.9688,165.5 163.5938,165.75 Q164.2188,166 164.75,166.5 Z "/><text fill="#000000" font-family="sans-serif" font-size="12" lengthAdjust="spacingAndGlyphs" textLength="65" x="183.25" y="174.9102">Transaction</text><line style="stroke: #A80036; stroke-width: 1.5;" x1="107" x2="292" y1="186" y2="186"/><rect fill="none" height="6" style="stroke: #C82930; stroke-width: 1.0;" width="6" x="114" y="194"/><text fill="#000000" font-family="sans-serif" font-size="11" lengthAdjust="spacingAndGlyphs" textLength="70" x="126" y="201.4189">Integer transID</text><rect fill="none" height="6" style="stroke: #C82930; stroke-width: 1.0;" width="6" x="114" y="207.8359"/><text fill="#000000" font-family="sans-serif" font-size="11" lengthAdjust="spacingAndGlyphs" textLength="93" x="126" y="215.2549">Boolean transPaids</text><rect fill="none" height="6" style="stroke: #C82930; stroke-width: 1.0;" width="6" x="114" y="221.6719"/><text fill="#000000" font-family="sans-serif" font-size="11" lengthAdjust="spacingAndGlyphs" textLength="122" x="126" y="229.0908">Date executionFinishDate</text><rect fill="none" height="6" style="stroke: #C82930; stroke-width: 1.0;" width="6" x="114" y="235.5078"/><text fill="#000000" font-family="sans-serif" font-size="11" lengthAdjust="spacingAndGlyphs" textLength="110" x="126" y="242.9268">Integer executionDelay</text><rect fill="none" height="6" style="stroke: #C82930; stroke-width: 1.0;" width="6" x="114" y="249.3438"/><text fill="#000000" font-family="sans-serif" font-size="11" lengthAdjust="spacingAndGlyphs" textLength="161" x="126" y="256.7627">String executionBriefDescriptions</text><!--MD5=[f919d21ae7a75ef5ececc535e09d5009]
link Collaborator to Task--><path d="M248.264,76.161 C272.222,95.624 298.478,122.563 310.5,154 C334.832,217.627 325.901,296.822 314.926,349.817 " fill="none" id="Collaborator-&gt;Task" style="stroke: #A80036; stroke-width: 1.0;"/><polygon fill="#A80036" points="313.859,354.863,319.6343,346.8852,314.8934,349.9712,311.8074,345.2302,313.859,354.863" style="stroke: #A80036; stroke-width: 1.0;"/><text fill="#000000" font-family="sans-serif" font-size="13" lengthAdjust="spacingAndGlyphs" textLength="45" x="327.5" y="213.9951">Creates</text><polygon fill="#000000" points="345.5,222.8516,348.5,228.8516,351.5,222.8516,345.5,222.8516" style="stroke: #000000; stroke-width: 1.0;"/><!--MD5=[d2c3650dbd07e79cdad2ffd4a879dec6]
link Collaborator to Freelancer--><path d="M149.264,60.167 C108.553,77.055 53.9217,107.19 28.5,154 C-1.9229,210.019 13.3757,282.659 32.8778,335.986 " fill="none" id="Collaborator-&gt;Freelancer" style="stroke: #A80036; stroke-width: 1.0;"/><polygon fill="#A80036" points="34.654,340.761,35.2659,330.9312,32.9111,336.0746,27.7677,333.7198,34.654,340.761" style="stroke: #A80036; stroke-width: 1.0;"/><text fill="#000000" font-family="sans-serif" font-size="13" lengthAdjust="spacingAndGlyphs" textLength="45" x="29.5" y="213.9951">Creates</text><polygon fill="#000000" points="47.5,222.8516,50.5,228.8516,53.5,222.8516,47.5,222.8516" style="stroke: #000000; stroke-width: 1.0;"/><!--MD5=[8b5db564ea9bd1758097b07ca3fd81a4]
link Collaborator to Transaction--><path d="M199.5,76.289 C199.5,97.061 199.5,124.385 199.5,148.717 " fill="none" id="Collaborator-&gt;Transaction" style="stroke: #A80036; stroke-width: 1.0;"/><polygon fill="#A80036" points="199.5,153.861,203.5,144.861,199.5,148.861,195.5,144.861,199.5,153.861" style="stroke: #A80036; stroke-width: 1.0;"/><text fill="#000000" font-family="sans-serif" font-size="13" lengthAdjust="spacingAndGlyphs" textLength="45" x="200.5" y="120.4951">Creates</text><polygon fill="#000000" points="218.5,129.3516,221.5,135.3516,224.5,129.3516,218.5,129.3516" style="stroke: #000000; stroke-width: 1.0;"/><!--MD5=[8e4873cec2cb3febaaa9495c716fc885]
link Transaction to Task--><path d="M226.43,263.09 C239.937,289.969 256.321,322.574 270.149,350.092 " fill="none" id="Transaction-&gt;Task" style="stroke: #A80036; stroke-width: 1.0;"/><polygon fill="#A80036" points="272.522,354.814,272.0572,344.9761,270.2779,350.3459,264.9082,348.5666,272.522,354.814" style="stroke: #A80036; stroke-width: 1.0;"/><text fill="#000000" font-family="sans-serif" font-size="13" lengthAdjust="spacingAndGlyphs" textLength="21" x="250.5" y="307.4951">has</text><polygon fill="#000000" points="256.5,316.3516,259.5,322.3516,262.5,316.3516,256.5,316.3516" style="stroke: #000000; stroke-width: 1.0;"/><!--MD5=[542f32193441b56ea302115ed1249c3b]
link Transaction to Freelancer--><path d="M163.683,263.09 C148.555,285.725 130.714,312.42 114.474,336.719 " fill="none" id="Transaction-&gt;Freelancer" style="stroke: #A80036; stroke-width: 1.0;"/><polygon fill="#A80036" points="111.673,340.911,119.9998,335.6512,114.4514,336.754,113.3486,331.2057,111.673,340.911" style="stroke: #A80036; stroke-width: 1.0;"/><text fill="#000000" font-family="sans-serif" font-size="13" lengthAdjust="spacingAndGlyphs" textLength="21" x="142.5" y="307.4951">has</text><polygon fill="#000000" points="148.5,316.3516,151.5,322.3516,154.5,316.3516,148.5,316.3516" style="stroke: #000000; stroke-width: 1.0;"/><!--MD5=[57233cd49d9585ff9528cd024646f9e2]
@startuml
hide methods

class Collaborator {
-String name
-String email
}
class Freelancer {
-String id
-String name
-String email
-String nif
-String bankAccount
-String address
-String country
}

class Task{
-Integer taskID
-Integer taskAssignDuration
-Double taskCostPerHour
-String taskCategory
-boolean taskHasTransaction
}

class Transaction {
-Integer transID
-Boolean transPaids
-Date executionFinishDate
-Integer executionDelay
-String executionBriefDescriptions
}

Collaborator - -> Task : Creates >
Collaborator - -> Freelancer : Creates >
Collaborator - -> Transaction: Creates >
Transaction - -> Task : has >
Transaction - -> Freelancer : has >

@enduml

PlantUML version 1.2020.09(Sun May 10 11:51:06 BST 2020)
(GPL source distribution)
Java Runtime: OpenJDK Runtime Environment
JVM: OpenJDK 64-Bit Server VM
Java Version: 11.0.7+10-b765.53
Operating System: Windows 10
Default Encoding: Cp1252
Language: pt
Country: PT
--></g></svg>