<?xml version="1.0" encoding="UTF-8" standalone="no"?><svg xmlns="http://www.w3.org/2000/svg" xmlns:xlink="http://www.w3.org/1999/xlink" contentScriptType="application/ecmascript" contentStyleType="text/css" height="859.2px" preserveAspectRatio="none" style="width:1423px;height:859px;" version="1.1" viewBox="0 0 1423 859" width="1423.2px" zoomAndPan="magnify"><defs><filter height="300%" id="fqaq80yih8jwf" width="300%" x="-1" y="-1"><feGaussianBlur result="blurOut" stdDeviation="1.6"/><feColorMatrix in="blurOut" result="blurOut2" type="matrix" values="0 0 0 0 0 0 0 0 0 0 0 0 0 0 0 0 0 0 .4 0"/><feOffset dx="3.2" dy="3.2" in="blurOut2" result="blurOut3"/><feBlend in="SourceGraphic" in2="blurOut3" mode="normal"/></filter></defs><g><!--MD5=[9681dc6e01e10c6b4fe06895ae94f592]
cluster UI--><polygon fill="#FFFFFF" filter="url(#fqaq80yih8jwf)" points="17.6,498.4,33.6,498.4,39.2,517.2875,168,517.2875,168,578.4,17.6,578.4,17.6,498.4" style="stroke: #000000; stroke-width: 1.2000000000000002;"/><line style="stroke: #000000; stroke-width: 1.2000000000000002;" x1="17.6" x2="39.2" y1="517.2875" y2="517.2875"/><text fill="#000000" font-family="sans-serif" font-size="11.2" font-weight="bold" lengthAdjust="spacingAndGlyphs" textLength="11.2" x="20.8" y="511.6266">UI</text><!--MD5=[1f2cfc53d9d308f53762fd0fcbaa4873]
cluster Controller--><polygon fill="#FFFFFF" filter="url(#fqaq80yih8jwf)" points="194.4,470.4,256,470.4,261.6,489.2875,507.2,489.2875,507.2,606.4,194.4,606.4,194.4,470.4" style="stroke: #000000; stroke-width: 1.2000000000000002;"/><line style="stroke: #000000; stroke-width: 1.2000000000000002;" x1="194.4" x2="261.6" y1="489.2875" y2="489.2875"/><text fill="#000000" font-family="sans-serif" font-size="11.2" font-weight="bold" lengthAdjust="spacingAndGlyphs" textLength="56.8" x="197.6" y="483.6266">Controller</text><!--MD5=[b8e8f05765f8aabfbcdb4df279087e68]
cluster login--><polygon fill="#FFFFFF" filter="url(#fqaq80yih8jwf)" points="626.8,758.4,659.6,758.4,665.2,777.2875,758,777.2875,758,849.6,626.8,849.6,626.8,758.4" style="stroke: #000000; stroke-width: 1.2000000000000002;"/><line style="stroke: #000000; stroke-width: 1.2000000000000002;" x1="626.8" x2="665.2" y1="777.2875" y2="777.2875"/><text fill="#000000" font-family="sans-serif" font-size="11.2" font-weight="bold" lengthAdjust="spacingAndGlyphs" textLength="28" x="630" y="771.6266">login</text><!--MD5=[7f775bfb84d28e8b3efc1913f21e6985]
cluster RegistryClasses--><polygon fill="#FFFFFF" filter="url(#fqaq80yih8jwf)" points="533.6,392.8,628.8,392.8,634.4,411.6875,851.2,411.6875,851.2,739.2,533.6,739.2,533.6,392.8" style="stroke: #000000; stroke-width: 1.2000000000000002;"/><line style="stroke: #000000; stroke-width: 1.2000000000000002;" x1="533.6" x2="634.4" y1="411.6875" y2="411.6875"/><text fill="#000000" font-family="sans-serif" font-size="11.2" font-weight="bold" lengthAdjust="spacingAndGlyphs" textLength="90.4" x="536.8" y="406.0266">RegistryClasses</text><!--MD5=[5d4cd377749310b66bf14896f5cd8d9b]
cluster model--><polygon fill="#FFFFFF" filter="url(#fqaq80yih8jwf)" points="618.8,19.2,658,19.2,663.6,38.0875,1405.6,38.0875,1405.6,373.6,618.8,373.6,618.8,19.2" style="stroke: #000000; stroke-width: 1.2000000000000002;"/><line style="stroke: #000000; stroke-width: 1.2000000000000002;" x1="618.8" x2="663.6" y1="38.0875" y2="38.0875"/><text fill="#000000" font-family="sans-serif" font-size="11.2" font-weight="bold" lengthAdjust="spacingAndGlyphs" textLength="34.4" x="622" y="32.4266">model</text><!--MD5=[8ddd35ed1c9d3570ae7056d20fb660a0]
class TransactionCreationUI--><rect fill="#FEFECE" filter="url(#fqaq80yih8jwf)" height="38.4" id="TransactionCreationUI" style="stroke: #A80036; stroke-width: 1.2000000000000002;" width="124.8" x="30.4" y="527.2"/><ellipse cx="42.4" cy="540" fill="#ADD1B2" rx="8.8" ry="8.8" style="stroke: #A80036; stroke-width: 0.8;"/><path d="M44,537.2 Q44.1625,536.8 44.35,536.6 Q44.5375,536.4 44.75,536.4 Q45.125,536.4 45.3625,536.625 Q45.6,536.85 45.6,537.375 L45.6,538.625 Q45.6,539.15 45.375,539.375 Q45.15,539.6 44.8,539.6 Q44.4875,539.6 44.2875,539.4625 Q44.0875,539.325 44,538.9625 Q43.9625,538.7125 43.825,538.575 Q43.575,538.3125 43.125,538.1625 Q42.675,538 42.225,538 Q41.6625,538 41.1875,538.225 Q40.725,538.45 40.3625,538.95 Q40,539.45 40,540.1375 L40,540.875 Q40,541.7 40.675,542.25 Q41.35,542.8 42.55,542.8 Q43.2625,542.8 43.7625,542.6375 Q44.05,542.55 44.375,542.2625 Q44.5875,542.1 44.7,542.05 Q44.8125,542 44.95,542 Q45.2125,542 45.4,542.2125 Q45.6,542.4125 45.6,542.7 Q45.6,542.975 45.325,543.3 Q44.925,543.775 44.2875,544.0375 Q43.45,544.4 42.425,544.4 Q41.225,544.4 40.2625,543.925 Q39.4875,543.55 38.9375,542.7375 Q38.4,541.925 38.4,540.9625 L38.4,540.0875 Q38.4,539.0875 38.875,538.2125 Q39.3625,537.3375 40.2,536.875 Q41.05,536.4 42,536.4 Q42.575,536.4 43.075,536.6 Q43.575,536.8 44,537.2 Z "/><text fill="#000000" font-family="sans-serif" font-size="9.6" lengthAdjust="spacingAndGlyphs" textLength="99.2" x="53.6" y="543.9281">TransactionCreationUI</text><line style="stroke: #A80036; stroke-width: 1.2000000000000002;" x1="31.2" x2="154.4" y1="552.8" y2="552.8"/><line style="stroke: #A80036; stroke-width: 1.2000000000000002;" x1="31.2" x2="154.4" y1="559.2" y2="559.2"/><!--MD5=[655107b99f33f4c5ee8bf80eb7d93945]
class TransactionCreationController--><rect fill="#FEFECE" filter="url(#fqaq80yih8jwf)" height="93.7438" id="TransactionCreationController" style="stroke: #A80036; stroke-width: 1.2000000000000002;" width="287.2" x="207.2" y="499.6"/><ellipse cx="281" cy="512.4" fill="#ADD1B2" rx="8.8" ry="8.8" style="stroke: #A80036; stroke-width: 0.8;"/><path d="M282.6,509.6 Q282.7625,509.2 282.95,509 Q283.1375,508.8 283.35,508.8 Q283.725,508.8 283.9625,509.025 Q284.2,509.25 284.2,509.775 L284.2,511.025 Q284.2,511.55 283.975,511.775 Q283.75,512 283.4,512 Q283.0875,512 282.8875,511.8625 Q282.6875,511.725 282.6,511.3625 Q282.5625,511.1125 282.425,510.975 Q282.175,510.7125 281.725,510.5625 Q281.275,510.4 280.825,510.4 Q280.2625,510.4 279.7875,510.625 Q279.325,510.85 278.9625,511.35 Q278.6,511.85 278.6,512.5375 L278.6,513.275 Q278.6,514.1 279.275,514.65 Q279.95,515.2 281.15,515.2 Q281.8625,515.2 282.3625,515.0375 Q282.65,514.95 282.975,514.6625 Q283.1875,514.5 283.3,514.45 Q283.4125,514.4 283.55,514.4 Q283.8125,514.4 284,514.6125 Q284.2,514.8125 284.2,515.1 Q284.2,515.375 283.925,515.7 Q283.525,516.175 282.8875,516.4375 Q282.05,516.8 281.025,516.8 Q279.825,516.8 278.8625,516.325 Q278.0875,515.95 277.5375,515.1375 Q277,514.325 277,513.3625 L277,512.4875 Q277,511.4875 277.475,510.6125 Q277.9625,509.7375 278.8,509.275 Q279.65,508.8 280.6,508.8 Q281.175,508.8 281.675,509 Q282.175,509.2 282.6,509.6 Z "/><text fill="#000000" font-family="sans-serif" font-size="9.6" lengthAdjust="spacingAndGlyphs" textLength="132.8" x="297.4" y="516.3281">TransactionCreationController</text><line style="stroke: #A80036; stroke-width: 1.2000000000000002;" x1="208" x2="493.6" y1="525.2" y2="525.2"/><line style="stroke: #A80036; stroke-width: 1.2000000000000002;" x1="208" x2="493.6" y1="531.6" y2="531.6"/><ellipse cx="216" cy="540.4" fill="#84BE84" rx="2.4" ry="2.4" style="stroke: #038048; stroke-width: 0.8;"/><text fill="#000000" font-family="sans-serif" font-size="8.8" lengthAdjust="spacingAndGlyphs" textLength="50.4" x="223.2" y="543.9352">getListTask()</text><ellipse cx="216" cy="551.4688" fill="#84BE84" rx="2.4" ry="2.4" style="stroke: #038048; stroke-width: 0.8;"/><text fill="#000000" font-family="sans-serif" font-size="8.8" lengthAdjust="spacingAndGlyphs" textLength="78.4" x="223.2" y="555.0039">getListFreelancers()</text><ellipse cx="216" cy="562.5375" fill="#84BE84" rx="2.4" ry="2.4" style="stroke: #038048; stroke-width: 0.8;"/><text fill="#000000" font-family="sans-serif" font-size="8.8" lengthAdjust="spacingAndGlyphs" textLength="266.4" x="223.2" y="566.0727">newTransaction(Task , Freelancer, endDate, delay, descriptionWork)</text><ellipse cx="216" cy="573.6063" fill="#84BE84" rx="2.4" ry="2.4" style="stroke: #038048; stroke-width: 0.8;"/><text fill="#000000" font-family="sans-serif" font-size="8.8" lengthAdjust="spacingAndGlyphs" textLength="72" x="223.2" y="577.1414">getAmountToPay()</text><ellipse cx="216" cy="584.675" fill="#84BE84" rx="2.4" ry="2.4" style="stroke: #038048; stroke-width: 0.8;"/><text fill="#000000" font-family="sans-serif" font-size="8.8" lengthAdjust="spacingAndGlyphs" textLength="81.6" x="223.2" y="588.2102">registerTransaction()</text><!--MD5=[e1e79fb7675434802d8a5d105105c07e]
class LoginSystem--><rect fill="#FEFECE" filter="url(#fqaq80yih8jwf)" height="49.4688" id="LoginSystem" style="stroke: #A80036; stroke-width: 1.2000000000000002;" width="105.6" x="639.6" y="787.2"/><ellipse cx="661.68" cy="800" fill="#ADD1B2" rx="8.8" ry="8.8" style="stroke: #A80036; stroke-width: 0.8;"/><path d="M663.28,797.2 Q663.4425,796.8 663.63,796.6 Q663.8175,796.4 664.03,796.4 Q664.405,796.4 664.6425,796.625 Q664.88,796.85 664.88,797.375 L664.88,798.625 Q664.88,799.15 664.655,799.375 Q664.43,799.6 664.08,799.6 Q663.7675,799.6 663.5675,799.4625 Q663.3675,799.325 663.28,798.9625 Q663.2425,798.7125 663.105,798.575 Q662.855,798.3125 662.405,798.1625 Q661.955,798 661.505,798 Q660.9425,798 660.4675,798.225 Q660.005,798.45 659.6425,798.95 Q659.28,799.45 659.28,800.1375 L659.28,800.875 Q659.28,801.7 659.955,802.25 Q660.63,802.8 661.83,802.8 Q662.5425,802.8 663.0425,802.6375 Q663.33,802.55 663.655,802.2625 Q663.8675,802.1 663.98,802.05 Q664.0925,802 664.23,802 Q664.4925,802 664.68,802.2125 Q664.88,802.4125 664.88,802.7 Q664.88,802.975 664.605,803.3 Q664.205,803.775 663.5675,804.0375 Q662.73,804.4 661.705,804.4 Q660.505,804.4 659.5425,803.925 Q658.7675,803.55 658.2175,802.7375 Q657.68,801.925 657.68,800.9625 L657.68,800.0875 Q657.68,799.0875 658.155,798.2125 Q658.6425,797.3375 659.48,796.875 Q660.33,796.4 661.28,796.4 Q661.855,796.4 662.355,796.6 Q662.855,796.8 663.28,797.2 Z "/><text fill="#000000" font-family="sans-serif" font-size="9.6" lengthAdjust="spacingAndGlyphs" textLength="57.6" x="675.12" y="803.9281">LoginSystem</text><line style="stroke: #A80036; stroke-width: 1.2000000000000002;" x1="640.4" x2="744.4" y1="812.8" y2="812.8"/><line style="stroke: #A80036; stroke-width: 1.2000000000000002;" x1="640.4" x2="744.4" y1="819.2" y2="819.2"/><ellipse cx="648.4" cy="828" fill="#84BE84" rx="2.4" ry="2.4" style="stroke: #038048; stroke-width: 0.8;"/><text fill="#000000" font-family="sans-serif" font-size="8.8" lengthAdjust="spacingAndGlyphs" textLength="84.8" x="655.6" y="831.5352">getLoggedUserEmail()</text><!--MD5=[408e9f1b08fb7f5d72f52b3078f11e8b]
class registryOrganization--><rect fill="#FEFECE" filter="url(#fqaq80yih8jwf)" height="49.4688" id="registryOrganization" style="stroke: #A80036; stroke-width: 1.2000000000000002;" width="120.8" x="632" y="521.6"/><ellipse cx="647.6" cy="534.4" fill="#ADD1B2" rx="8.8" ry="8.8" style="stroke: #A80036; stroke-width: 0.8;"/><path d="M649.2,531.6 Q649.3625,531.2 649.55,531 Q649.7375,530.8 649.95,530.8 Q650.325,530.8 650.5625,531.025 Q650.8,531.25 650.8,531.775 L650.8,533.025 Q650.8,533.55 650.575,533.775 Q650.35,534 650,534 Q649.6875,534 649.4875,533.8625 Q649.2875,533.725 649.2,533.3625 Q649.1625,533.1125 649.025,532.975 Q648.775,532.7125 648.325,532.5625 Q647.875,532.4 647.425,532.4 Q646.8625,532.4 646.3875,532.625 Q645.925,532.85 645.5625,533.35 Q645.2,533.85 645.2,534.5375 L645.2,535.275 Q645.2,536.1 645.875,536.65 Q646.55,537.2 647.75,537.2 Q648.4625,537.2 648.9625,537.0375 Q649.25,536.95 649.575,536.6625 Q649.7875,536.5 649.9,536.45 Q650.0125,536.4 650.15,536.4 Q650.4125,536.4 650.6,536.6125 Q650.8,536.8125 650.8,537.1 Q650.8,537.375 650.525,537.7 Q650.125,538.175 649.4875,538.4375 Q648.65,538.8 647.625,538.8 Q646.425,538.8 645.4625,538.325 Q644.6875,537.95 644.1375,537.1375 Q643.6,536.325 643.6,535.3625 L643.6,534.4875 Q643.6,533.4875 644.075,532.6125 Q644.5625,531.7375 645.4,531.275 Q646.25,530.8 647.2,530.8 Q647.775,530.8 648.275,531 Q648.775,531.2 649.2,531.6 Z "/><text fill="#000000" font-family="sans-serif" font-size="9.6" lengthAdjust="spacingAndGlyphs" textLength="87.2" x="659.6" y="538.3281">registryOrganization</text><line style="stroke: #A80036; stroke-width: 1.2000000000000002;" x1="632.8" x2="752" y1="547.2" y2="547.2"/><line style="stroke: #A80036; stroke-width: 1.2000000000000002;" x1="632.8" x2="752" y1="553.6" y2="553.6"/><ellipse cx="640.8" cy="562.4" fill="#84BE84" rx="2.4" ry="2.4" style="stroke: #038048; stroke-width: 0.8;"/><text fill="#000000" font-family="sans-serif" font-size="8.8" lengthAdjust="spacingAndGlyphs" textLength="100" x="648" y="565.9352">getOrgByUserEmail(email)</text><!--MD5=[731b9538a70137f504ebaadc61dc6b43]
class registryTransaction--><rect fill="#FEFECE" filter="url(#fqaq80yih8jwf)" height="71.6063" id="registryTransaction" style="stroke: #A80036; stroke-width: 1.2000000000000002;" width="292" x="546.4" y="421.6"/><ellipse cx="647" cy="434.4" fill="#ADD1B2" rx="8.8" ry="8.8" style="stroke: #A80036; stroke-width: 0.8;"/><path d="M648.6,431.6 Q648.7625,431.2 648.95,431 Q649.1375,430.8 649.35,430.8 Q649.725,430.8 649.9625,431.025 Q650.2,431.25 650.2,431.775 L650.2,433.025 Q650.2,433.55 649.975,433.775 Q649.75,434 649.4,434 Q649.0875,434 648.8875,433.8625 Q648.6875,433.725 648.6,433.3625 Q648.5625,433.1125 648.425,432.975 Q648.175,432.7125 647.725,432.5625 Q647.275,432.4 646.825,432.4 Q646.2625,432.4 645.7875,432.625 Q645.325,432.85 644.9625,433.35 Q644.6,433.85 644.6,434.5375 L644.6,435.275 Q644.6,436.1 645.275,436.65 Q645.95,437.2 647.15,437.2 Q647.8625,437.2 648.3625,437.0375 Q648.65,436.95 648.975,436.6625 Q649.1875,436.5 649.3,436.45 Q649.4125,436.4 649.55,436.4 Q649.8125,436.4 650,436.6125 Q650.2,436.8125 650.2,437.1 Q650.2,437.375 649.925,437.7 Q649.525,438.175 648.8875,438.4375 Q648.05,438.8 647.025,438.8 Q645.825,438.8 644.8625,438.325 Q644.0875,437.95 643.5375,437.1375 Q643,436.325 643,435.3625 L643,434.4875 Q643,433.4875 643.475,432.6125 Q643.9625,431.7375 644.8,431.275 Q645.65,430.8 646.6,430.8 Q647.175,430.8 647.675,431 Q648.175,431.2 648.6,431.6 Z "/><text fill="#000000" font-family="sans-serif" font-size="9.6" lengthAdjust="spacingAndGlyphs" textLength="84" x="663.4" y="438.3281">registryTransaction</text><line style="stroke: #A80036; stroke-width: 1.2000000000000002;" x1="547.2" x2="837.6" y1="447.2" y2="447.2"/><line style="stroke: #A80036; stroke-width: 1.2000000000000002;" x1="547.2" x2="837.6" y1="453.6" y2="453.6"/><ellipse cx="555.2" cy="462.4" fill="#84BE84" rx="2.4" ry="2.4" style="stroke: #038048; stroke-width: 0.8;"/><text fill="#000000" font-family="sans-serif" font-size="8.8" lengthAdjust="spacingAndGlyphs" textLength="271.2" x="562.4" y="465.9352">newTransaction(org,transID,endDate,delay,descriptionWork,task,free)</text><ellipse cx="555.2" cy="473.4688" fill="#84BE84" rx="2.4" ry="2.4" style="stroke: #038048; stroke-width: 0.8;"/><text fill="#000000" font-family="sans-serif" font-size="8.8" lengthAdjust="spacingAndGlyphs" textLength="101.6" x="562.4" y="477.0039">validateTransaction(trans)</text><ellipse cx="555.2" cy="484.5375" fill="#84BE84" rx="2.4" ry="2.4" style="stroke: #038048; stroke-width: 0.8;"/><text fill="#000000" font-family="sans-serif" font-size="8.8" lengthAdjust="spacingAndGlyphs" textLength="101.6" x="562.4" y="488.0727">registerTransaction(trans)</text><!--MD5=[87f5338d87a288939010b88821272816]
class registryFreelancer--><rect fill="#FEFECE" filter="url(#fqaq80yih8jwf)" height="49.4688" id="registryFreelancer" style="stroke: #A80036; stroke-width: 1.2000000000000002;" width="104.8" x="640" y="599.2"/><ellipse cx="652" cy="612" fill="#ADD1B2" rx="8.8" ry="8.8" style="stroke: #A80036; stroke-width: 0.8;"/><path d="M653.6,609.2 Q653.7625,608.8 653.95,608.6 Q654.1375,608.4 654.35,608.4 Q654.725,608.4 654.9625,608.625 Q655.2,608.85 655.2,609.375 L655.2,610.625 Q655.2,611.15 654.975,611.375 Q654.75,611.6 654.4,611.6 Q654.0875,611.6 653.8875,611.4625 Q653.6875,611.325 653.6,610.9625 Q653.5625,610.7125 653.425,610.575 Q653.175,610.3125 652.725,610.1625 Q652.275,610 651.825,610 Q651.2625,610 650.7875,610.225 Q650.325,610.45 649.9625,610.95 Q649.6,611.45 649.6,612.1375 L649.6,612.875 Q649.6,613.7 650.275,614.25 Q650.95,614.8 652.15,614.8 Q652.8625,614.8 653.3625,614.6375 Q653.65,614.55 653.975,614.2625 Q654.1875,614.1 654.3,614.05 Q654.4125,614 654.55,614 Q654.8125,614 655,614.2125 Q655.2,614.4125 655.2,614.7 Q655.2,614.975 654.925,615.3 Q654.525,615.775 653.8875,616.0375 Q653.05,616.4 652.025,616.4 Q650.825,616.4 649.8625,615.925 Q649.0875,615.55 648.5375,614.7375 Q648,613.925 648,612.9625 L648,612.0875 Q648,611.0875 648.475,610.2125 Q648.9625,609.3375 649.8,608.875 Q650.65,608.4 651.6,608.4 Q652.175,608.4 652.675,608.6 Q653.175,608.8 653.6,609.2 Z "/><text fill="#000000" font-family="sans-serif" font-size="9.6" lengthAdjust="spacingAndGlyphs" textLength="79.2" x="663.2" y="615.9281">registryFreelancer</text><line style="stroke: #A80036; stroke-width: 1.2000000000000002;" x1="640.8" x2="744" y1="624.8" y2="624.8"/><line style="stroke: #A80036; stroke-width: 1.2000000000000002;" x1="640.8" x2="744" y1="631.2" y2="631.2"/><ellipse cx="648.8" cy="640" fill="#84BE84" rx="2.4" ry="2.4" style="stroke: #038048; stroke-width: 0.8;"/><text fill="#000000" font-family="sans-serif" font-size="8.8" lengthAdjust="spacingAndGlyphs" textLength="78.4" x="656" y="643.5352">getListFreelancers()</text><!--MD5=[b06a3547c6ce1bbc9e54a161efa0ce5f]
class ListTask--><rect fill="#FEFECE" filter="url(#fqaq80yih8jwf)" height="49.4688" id="ListTask" style="stroke: #A80036; stroke-width: 1.2000000000000002;" width="148.8" x="618" y="676.8"/><ellipse cx="670.2" cy="689.6" fill="#ADD1B2" rx="8.8" ry="8.8" style="stroke: #A80036; stroke-width: 0.8;"/><path d="M671.8,686.8 Q671.9625,686.4 672.15,686.2 Q672.3375,686 672.55,686 Q672.925,686 673.1625,686.225 Q673.4,686.45 673.4,686.975 L673.4,688.225 Q673.4,688.75 673.175,688.975 Q672.95,689.2 672.6,689.2 Q672.2875,689.2 672.0875,689.0625 Q671.8875,688.925 671.8,688.5625 Q671.7625,688.3125 671.625,688.175 Q671.375,687.9125 670.925,687.7625 Q670.475,687.6 670.025,687.6 Q669.4625,687.6 668.9875,687.825 Q668.525,688.05 668.1625,688.55 Q667.8,689.05 667.8,689.7375 L667.8,690.475 Q667.8,691.3 668.475,691.85 Q669.15,692.4 670.35,692.4 Q671.0625,692.4 671.5625,692.2375 Q671.85,692.15 672.175,691.8625 Q672.3875,691.7 672.5,691.65 Q672.6125,691.6 672.75,691.6 Q673.0125,691.6 673.2,691.8125 Q673.4,692.0125 673.4,692.3 Q673.4,692.575 673.125,692.9 Q672.725,693.375 672.0875,693.6375 Q671.25,694 670.225,694 Q669.025,694 668.0625,693.525 Q667.2875,693.15 666.7375,692.3375 Q666.2,691.525 666.2,690.5625 L666.2,689.6875 Q666.2,688.6875 666.675,687.8125 Q667.1625,686.9375 668,686.475 Q668.85,686 669.8,686 Q670.375,686 670.875,686.2 Q671.375,686.4 671.8,686.8 Z "/><text fill="#000000" font-family="sans-serif" font-size="9.6" lengthAdjust="spacingAndGlyphs" textLength="37.6" x="686.6" y="693.5281">ListTask</text><line style="stroke: #A80036; stroke-width: 1.2000000000000002;" x1="618.8" x2="766" y1="702.4" y2="702.4"/><line style="stroke: #A80036; stroke-width: 1.2000000000000002;" x1="618.8" x2="766" y1="708.8" y2="708.8"/><ellipse cx="626.8" cy="717.6" fill="#84BE84" rx="2.4" ry="2.4" style="stroke: #038048; stroke-width: 0.8;"/><text fill="#000000" font-family="sans-serif" font-size="8.8" lengthAdjust="spacingAndGlyphs" textLength="128" x="634" y="721.1352">getListTaskWithNoTransactions()</text><!--MD5=[86c7c362de55a38b660185a1328fe18d]
class Organization--><rect fill="#FEFECE" filter="url(#fqaq80yih8jwf)" height="49.4688" id="Organization" style="stroke: #A80036; stroke-width: 1.2000000000000002;" width="80.8" x="1013.6" y="311.2"/><ellipse cx="1025.6" cy="324" fill="#ADD1B2" rx="8.8" ry="8.8" style="stroke: #A80036; stroke-width: 0.8;"/><path d="M1027.2,321.2 Q1027.3625,320.8 1027.55,320.6 Q1027.7375,320.4 1027.95,320.4 Q1028.325,320.4 1028.5625,320.625 Q1028.8,320.85 1028.8,321.375 L1028.8,322.625 Q1028.8,323.15 1028.575,323.375 Q1028.35,323.6 1028,323.6 Q1027.6875,323.6 1027.4875,323.4625 Q1027.2875,323.325 1027.2,322.9625 Q1027.1625,322.7125 1027.025,322.575 Q1026.775,322.3125 1026.325,322.1625 Q1025.875,322 1025.425,322 Q1024.8625,322 1024.3875,322.225 Q1023.925,322.45 1023.5625,322.95 Q1023.2,323.45 1023.2,324.1375 L1023.2,324.875 Q1023.2,325.7 1023.875,326.25 Q1024.55,326.8 1025.75,326.8 Q1026.4625,326.8 1026.9625,326.6375 Q1027.25,326.55 1027.575,326.2625 Q1027.7875,326.1 1027.9,326.05 Q1028.0125,326 1028.15,326 Q1028.4125,326 1028.6,326.2125 Q1028.8,326.4125 1028.8,326.7 Q1028.8,326.975 1028.525,327.3 Q1028.125,327.775 1027.4875,328.0375 Q1026.65,328.4 1025.625,328.4 Q1024.425,328.4 1023.4625,327.925 Q1022.6875,327.55 1022.1375,326.7375 Q1021.6,325.925 1021.6,324.9625 L1021.6,324.0875 Q1021.6,323.0875 1022.075,322.2125 Q1022.5625,321.3375 1023.4,320.875 Q1024.25,320.4 1025.2,320.4 Q1025.775,320.4 1026.275,320.6 Q1026.775,320.8 1027.2,321.2 Z "/><text fill="#000000" font-family="sans-serif" font-size="9.6" lengthAdjust="spacingAndGlyphs" textLength="55.2" x="1036.8" y="327.9281">Organization</text><line style="stroke: #A80036; stroke-width: 1.2000000000000002;" x1="1014.4" x2="1093.6" y1="336.8" y2="336.8"/><line style="stroke: #A80036; stroke-width: 1.2000000000000002;" x1="1014.4" x2="1093.6" y1="343.2" y2="343.2"/><ellipse cx="1022.4" cy="352" fill="#84BE84" rx="2.4" ry="2.4" style="stroke: #038048; stroke-width: 0.8;"/><text fill="#000000" font-family="sans-serif" font-size="8.8" lengthAdjust="spacingAndGlyphs" textLength="50.4" x="1029.6" y="355.5352">getListTask()</text><!--MD5=[4555bb1b0911a5adf28ce6dbe60fed2e]
class Transaction--><rect fill="#FEFECE" filter="url(#fqaq80yih8jwf)" height="93.7438" id="Transaction" style="stroke: #A80036; stroke-width: 1.2000000000000002;" width="274.4" x="916.8" y="189.2"/><ellipse cx="1024.6" cy="202" fill="#ADD1B2" rx="8.8" ry="8.8" style="stroke: #A80036; stroke-width: 0.8;"/><path d="M1026.2,199.2 Q1026.3625,198.8 1026.55,198.6 Q1026.7375,198.4 1026.95,198.4 Q1027.325,198.4 1027.5625,198.625 Q1027.8,198.85 1027.8,199.375 L1027.8,200.625 Q1027.8,201.15 1027.575,201.375 Q1027.35,201.6 1027,201.6 Q1026.6875,201.6 1026.4875,201.4625 Q1026.2875,201.325 1026.2,200.9625 Q1026.1625,200.7125 1026.025,200.575 Q1025.775,200.3125 1025.325,200.1625 Q1024.875,200 1024.425,200 Q1023.8625,200 1023.3875,200.225 Q1022.925,200.45 1022.5625,200.95 Q1022.2,201.45 1022.2,202.1375 L1022.2,202.875 Q1022.2,203.7 1022.875,204.25 Q1023.55,204.8 1024.75,204.8 Q1025.4625,204.8 1025.9625,204.6375 Q1026.25,204.55 1026.575,204.2625 Q1026.7875,204.1 1026.9,204.05 Q1027.0125,204 1027.15,204 Q1027.4125,204 1027.6,204.2125 Q1027.8,204.4125 1027.8,204.7 Q1027.8,204.975 1027.525,205.3 Q1027.125,205.775 1026.4875,206.0375 Q1025.65,206.4 1024.625,206.4 Q1023.425,206.4 1022.4625,205.925 Q1021.6875,205.55 1021.1375,204.7375 Q1020.6,203.925 1020.6,202.9625 L1020.6,202.0875 Q1020.6,201.0875 1021.075,200.2125 Q1021.5625,199.3375 1022.4,198.875 Q1023.25,198.4 1024.2,198.4 Q1024.775,198.4 1025.275,198.6 Q1025.775,198.8 1026.2,199.2 Z "/><text fill="#000000" font-family="sans-serif" font-size="9.6" lengthAdjust="spacingAndGlyphs" textLength="52" x="1041" y="205.9281">Transaction</text><line style="stroke: #A80036; stroke-width: 1.2000000000000002;" x1="917.6" x2="1190.4" y1="214.8" y2="214.8"/><rect fill="none" height="4.8" style="stroke: #C82930; stroke-width: 0.8;" width="4.8" x="923.2" y="221.2"/><text fill="#000000" font-family="sans-serif" font-size="8.8" lengthAdjust="spacingAndGlyphs" textLength="32" x="932.8" y="227.1352">endDate</text><rect fill="none" height="4.8" style="stroke: #C82930; stroke-width: 0.8;" width="4.8" x="923.2" y="232.2688"/><text fill="#000000" font-family="sans-serif" font-size="8.8" lengthAdjust="spacingAndGlyphs" textLength="20.8" x="932.8" y="238.2039">delay</text><rect fill="none" height="4.8" style="stroke: #C82930; stroke-width: 0.8;" width="4.8" x="923.2" y="243.3375"/><text fill="#000000" font-family="sans-serif" font-size="8.8" lengthAdjust="spacingAndGlyphs" textLength="62.4" x="932.8" y="249.2727">descriptionWork</text><line style="stroke: #A80036; stroke-width: 1.2000000000000002;" x1="917.6" x2="1190.4" y1="254.4063" y2="254.4063"/><ellipse cx="925.6" cy="263.2063" fill="#84BE84" rx="2.4" ry="2.4" style="stroke: #038048; stroke-width: 0.8;"/><text fill="#000000" font-family="sans-serif" font-size="8.8" lengthAdjust="spacingAndGlyphs" textLength="253.6" x="932.8" y="266.7414">Transaction(org,transID,endDate,delay,descriptionWork,task,free)</text><ellipse cx="925.6" cy="274.275" fill="#84BE84" rx="2.4" ry="2.4" style="stroke: #038048; stroke-width: 0.8;"/><text fill="#000000" font-family="sans-serif" font-size="8.8" lengthAdjust="spacingAndGlyphs" textLength="72" x="932.8" y="277.8102">getAmountToPay()</text><!--MD5=[b34797a66dc35cbf1d65f7e3ca75530e]
class Task--><rect fill="#FEFECE" filter="url(#fqaq80yih8jwf)" height="82.675" id="Task" style="stroke: #A80036; stroke-width: 1.2000000000000002;" width="124.8" x="1268" y="263.6"/><ellipse cx="1316.2" cy="276.4" fill="#ADD1B2" rx="8.8" ry="8.8" style="stroke: #A80036; stroke-width: 0.8;"/><path d="M1317.8,273.6 Q1317.9625,273.2 1318.15,273 Q1318.3375,272.8 1318.55,272.8 Q1318.925,272.8 1319.1625,273.025 Q1319.4,273.25 1319.4,273.775 L1319.4,275.025 Q1319.4,275.55 1319.175,275.775 Q1318.95,276 1318.6,276 Q1318.2875,276 1318.0875,275.8625 Q1317.8875,275.725 1317.8,275.3625 Q1317.7625,275.1125 1317.625,274.975 Q1317.375,274.7125 1316.925,274.5625 Q1316.475,274.4 1316.025,274.4 Q1315.4625,274.4 1314.9875,274.625 Q1314.525,274.85 1314.1625,275.35 Q1313.8,275.85 1313.8,276.5375 L1313.8,277.275 Q1313.8,278.1 1314.475,278.65 Q1315.15,279.2 1316.35,279.2 Q1317.0625,279.2 1317.5625,279.0375 Q1317.85,278.95 1318.175,278.6625 Q1318.3875,278.5 1318.5,278.45 Q1318.6125,278.4 1318.75,278.4 Q1319.0125,278.4 1319.2,278.6125 Q1319.4,278.8125 1319.4,279.1 Q1319.4,279.375 1319.125,279.7 Q1318.725,280.175 1318.0875,280.4375 Q1317.25,280.8 1316.225,280.8 Q1315.025,280.8 1314.0625,280.325 Q1313.2875,279.95 1312.7375,279.1375 Q1312.2,278.325 1312.2,277.3625 L1312.2,276.4875 Q1312.2,275.4875 1312.675,274.6125 Q1313.1625,273.7375 1314,273.275 Q1314.85,272.8 1315.8,272.8 Q1316.375,272.8 1316.875,273 Q1317.375,273.2 1317.8,273.6 Z "/><text fill="#000000" font-family="sans-serif" font-size="9.6" lengthAdjust="spacingAndGlyphs" textLength="21.6" x="1332.6" y="280.3281">Task</text><line style="stroke: #A80036; stroke-width: 1.2000000000000002;" x1="1268.8" x2="1392" y1="289.2" y2="289.2"/><rect fill="none" height="4.8" style="stroke: #C82930; stroke-width: 0.8;" width="4.8" x="1274.4" y="295.6"/><text fill="#000000" font-family="sans-serif" font-size="8.8" lengthAdjust="spacingAndGlyphs" textLength="52" x="1284" y="301.5352">Integer taskID</text><rect fill="none" height="4.8" style="stroke: #C82930; stroke-width: 0.8;" width="4.8" x="1274.4" y="306.6688"/><text fill="#000000" font-family="sans-serif" font-size="8.8" lengthAdjust="spacingAndGlyphs" textLength="104" x="1284" y="312.6039">Integer taskAssignDuration</text><rect fill="none" height="4.8" style="stroke: #C82930; stroke-width: 0.8;" width="4.8" x="1274.4" y="317.7375"/><text fill="#000000" font-family="sans-serif" font-size="8.8" lengthAdjust="spacingAndGlyphs" textLength="93.6" x="1284" y="323.6727">Double taskCostPerHour</text><rect fill="none" height="4.8" style="stroke: #C82930; stroke-width: 0.8;" width="4.8" x="1274.4" y="328.8063"/><text fill="#000000" font-family="sans-serif" font-size="8.8" lengthAdjust="spacingAndGlyphs" textLength="76" x="1284" y="334.7414">String taskCategory</text><line style="stroke: #A80036; stroke-width: 1.2000000000000002;" x1="1268.8" x2="1392" y1="339.875" y2="339.875"/><!--MD5=[1f687b5315377fe49fca59b457947463]
class Freelancer--><rect fill="#FEFECE" filter="url(#fqaq80yih8jwf)" height="115.8813" id="Freelancer" style="stroke: #A80036; stroke-width: 1.2000000000000002;" width="96.8" x="1282" y="119.6"/><ellipse cx="1304.8" cy="132.4" fill="#ADD1B2" rx="8.8" ry="8.8" style="stroke: #A80036; stroke-width: 0.8;"/><path d="M1306.4,129.6 Q1306.5625,129.2 1306.75,129 Q1306.9375,128.8 1307.15,128.8 Q1307.525,128.8 1307.7625,129.025 Q1308,129.25 1308,129.775 L1308,131.025 Q1308,131.55 1307.775,131.775 Q1307.55,132 1307.2,132 Q1306.8875,132 1306.6875,131.8625 Q1306.4875,131.725 1306.4,131.3625 Q1306.3625,131.1125 1306.225,130.975 Q1305.975,130.7125 1305.525,130.5625 Q1305.075,130.4 1304.625,130.4 Q1304.0625,130.4 1303.5875,130.625 Q1303.125,130.85 1302.7625,131.35 Q1302.4,131.85 1302.4,132.5375 L1302.4,133.275 Q1302.4,134.1 1303.075,134.65 Q1303.75,135.2 1304.95,135.2 Q1305.6625,135.2 1306.1625,135.0375 Q1306.45,134.95 1306.775,134.6625 Q1306.9875,134.5 1307.1,134.45 Q1307.2125,134.4 1307.35,134.4 Q1307.6125,134.4 1307.8,134.6125 Q1308,134.8125 1308,135.1 Q1308,135.375 1307.725,135.7 Q1307.325,136.175 1306.6875,136.4375 Q1305.85,136.8 1304.825,136.8 Q1303.625,136.8 1302.6625,136.325 Q1301.8875,135.95 1301.3375,135.1375 Q1300.8,134.325 1300.8,133.3625 L1300.8,132.4875 Q1300.8,131.4875 1301.275,130.6125 Q1301.7625,129.7375 1302.6,129.275 Q1303.45,128.8 1304.4,128.8 Q1304.975,128.8 1305.475,129 Q1305.975,129.2 1306.4,129.6 Z "/><text fill="#000000" font-family="sans-serif" font-size="9.6" lengthAdjust="spacingAndGlyphs" textLength="47.2" x="1318.4" y="136.3281">Freelancer</text><line style="stroke: #A80036; stroke-width: 1.2000000000000002;" x1="1282.8" x2="1378" y1="145.2" y2="145.2"/><rect fill="none" height="4.8" style="stroke: #C82930; stroke-width: 0.8;" width="4.8" x="1288.4" y="151.6"/><text fill="#000000" font-family="sans-serif" font-size="8.8" lengthAdjust="spacingAndGlyphs" textLength="31.2" x="1298" y="157.5352">String id</text><rect fill="none" height="4.8" style="stroke: #C82930; stroke-width: 0.8;" width="4.8" x="1288.4" y="162.6688"/><text fill="#000000" font-family="sans-serif" font-size="8.8" lengthAdjust="spacingAndGlyphs" textLength="45.6" x="1298" y="168.6039">String name</text><rect fill="none" height="4.8" style="stroke: #C82930; stroke-width: 0.8;" width="4.8" x="1288.4" y="173.7375"/><text fill="#000000" font-family="sans-serif" font-size="8.8" lengthAdjust="spacingAndGlyphs" textLength="44" x="1298" y="179.6727">String email</text><rect fill="none" height="4.8" style="stroke: #C82930; stroke-width: 0.8;" width="4.8" x="1288.4" y="184.8063"/><text fill="#000000" font-family="sans-serif" font-size="8.8" lengthAdjust="spacingAndGlyphs" textLength="34.4" x="1298" y="190.7414">String nif</text><rect fill="none" height="4.8" style="stroke: #C82930; stroke-width: 0.8;" width="4.8" x="1288.4" y="195.875"/><text fill="#000000" font-family="sans-serif" font-size="8.8" lengthAdjust="spacingAndGlyphs" textLength="76" x="1298" y="201.8102">String bankAccount</text><rect fill="none" height="4.8" style="stroke: #C82930; stroke-width: 0.8;" width="4.8" x="1288.4" y="206.9438"/><text fill="#000000" font-family="sans-serif" font-size="8.8" lengthAdjust="spacingAndGlyphs" textLength="56.8" x="1298" y="212.8789">String address</text><rect fill="none" height="4.8" style="stroke: #C82930; stroke-width: 0.8;" width="4.8" x="1288.4" y="218.0125"/><text fill="#000000" font-family="sans-serif" font-size="8.8" lengthAdjust="spacingAndGlyphs" textLength="54.4" x="1298" y="223.9477">String country</text><line style="stroke: #A80036; stroke-width: 1.2000000000000002;" x1="1282.8" x2="1378" y1="229.0813" y2="229.0813"/><!--MD5=[99b8db98afdc2c8404e39242ef4c1e65]
class Platform--><rect fill="#FEFECE" filter="url(#fqaq80yih8jwf)" height="71.6063" id="Platform" style="stroke: #A80036; stroke-width: 1.2000000000000002;" width="121.6" x="631.6" y="200"/><ellipse cx="670.6" cy="212.8" fill="#ADD1B2" rx="8.8" ry="8.8" style="stroke: #A80036; stroke-width: 0.8;"/><path d="M672.2,210 Q672.3625,209.6 672.55,209.4 Q672.7375,209.2 672.95,209.2 Q673.325,209.2 673.5625,209.425 Q673.8,209.65 673.8,210.175 L673.8,211.425 Q673.8,211.95 673.575,212.175 Q673.35,212.4 673,212.4 Q672.6875,212.4 672.4875,212.2625 Q672.2875,212.125 672.2,211.7625 Q672.1625,211.5125 672.025,211.375 Q671.775,211.1125 671.325,210.9625 Q670.875,210.8 670.425,210.8 Q669.8625,210.8 669.3875,211.025 Q668.925,211.25 668.5625,211.75 Q668.2,212.25 668.2,212.9375 L668.2,213.675 Q668.2,214.5 668.875,215.05 Q669.55,215.6 670.75,215.6 Q671.4625,215.6 671.9625,215.4375 Q672.25,215.35 672.575,215.0625 Q672.7875,214.9 672.9,214.85 Q673.0125,214.8 673.15,214.8 Q673.4125,214.8 673.6,215.0125 Q673.8,215.2125 673.8,215.5 Q673.8,215.775 673.525,216.1 Q673.125,216.575 672.4875,216.8375 Q671.65,217.2 670.625,217.2 Q669.425,217.2 668.4625,216.725 Q667.6875,216.35 667.1375,215.5375 Q666.6,214.725 666.6,213.7625 L666.6,212.8875 Q666.6,211.8875 667.075,211.0125 Q667.5625,210.1375 668.4,209.675 Q669.25,209.2 670.2,209.2 Q670.775,209.2 671.275,209.4 Q671.775,209.6 672.2,210 Z "/><text fill="#000000" font-family="sans-serif" font-size="9.6" lengthAdjust="spacingAndGlyphs" textLength="36.8" x="687" y="216.7281">Platform</text><line style="stroke: #A80036; stroke-width: 1.2000000000000002;" x1="632.4" x2="752.4" y1="225.6" y2="225.6"/><line style="stroke: #A80036; stroke-width: 1.2000000000000002;" x1="632.4" x2="752.4" y1="232" y2="232"/><ellipse cx="640.4" cy="240.8" fill="#84BE84" rx="2.4" ry="2.4" style="stroke: #038048; stroke-width: 0.8;"/><text fill="#000000" font-family="sans-serif" font-size="8.8" lengthAdjust="spacingAndGlyphs" textLength="100.8" x="647.6" y="244.3352">GetRegistryOrganization()</text><ellipse cx="640.4" cy="251.8688" fill="#84BE84" rx="2.4" ry="2.4" style="stroke: #038048; stroke-width: 0.8;"/><text fill="#000000" font-family="sans-serif" font-size="8.8" lengthAdjust="spacingAndGlyphs" textLength="93.6" x="647.6" y="255.4039">GetRegistryFreelancer()</text><ellipse cx="640.4" cy="262.9375" fill="#84BE84" rx="2.4" ry="2.4" style="stroke: #038048; stroke-width: 0.8;"/><text fill="#000000" font-family="sans-serif" font-size="8.8" lengthAdjust="spacingAndGlyphs" textLength="97.6" x="647.6" y="266.4727">GetRegistryTransaction()</text><!--MD5=[fd143684f63d5bc85a71b310c34c95b2]
link TransactionCreationUI to TransactionCreationController--><path d="M155.3408,546.4 C170.0192,546.4 186.304,546.4 203.0248,546.4 " fill="none" id="TransactionCreationUI-&gt;TransactionCreationController" style="stroke: #A80036; stroke-width: 0.8; stroke-dasharray: 7.0,7.0;"/><polygon fill="#A80036" points="207.0544,546.4,199.8544,543.2,203.0544,546.4,199.8544,549.6,207.0544,546.4" style="stroke: #A80036; stroke-width: 0.8;"/><!--MD5=[7375737aef2fda340487d74a607d31ae]
link TransactionCreationController to LoginSystem--><path d="M385.2896,593.3864 C417.7344,635.9464 470.176,698.1048 527.2,739.2 C560.2408,763.0112 602.3048,781.4608 635.6136,793.8295 " fill="none" id="TransactionCreationController-&gt;LoginSystem" style="stroke: #A80036; stroke-width: 0.8; stroke-dasharray: 7.0,7.0;"/><polygon fill="#A80036" points="639.424,795.2325,633.7726,789.7423,635.6702,793.8507,631.5618,795.7484,639.424,795.2325" style="stroke: #A80036; stroke-width: 0.8;"/><!--MD5=[296bb6134d197781b972fbca82a96c60]
link TransactionCreationController to Platform--><path d="M402.8696,499.5936 C469.9376,438.3648 586.2512,332.1776 648.824,275.052 " fill="none" id="TransactionCreationController-&gt;Platform" style="stroke: #A80036; stroke-width: 0.8; stroke-dasharray: 7.0,7.0;"/><polygon fill="#A80036" points="652.1304,272.0336,644.6555,274.5248,649.1763,274.7305,648.9706,279.2513,652.1304,272.0336" style="stroke: #A80036; stroke-width: 0.8;"/><!--MD5=[fed7171df5b84c2251cbdf45b86c9f0c]
link TransactionCreationController to registryFreelancer--><path d="M494.5592,579.028 C544.4224,590.4088 597.472,602.5168 635.9496,611.2984 " fill="none" id="TransactionCreationController-&gt;registryFreelancer" style="stroke: #A80036; stroke-width: 0.8; stroke-dasharray: 7.0,7.0;"/><polygon fill="#A80036" points="639.8616,612.1912,633.5545,607.4689,635.9619,611.3009,632.13,613.7083,639.8616,612.1912" style="stroke: #A80036; stroke-width: 0.8;"/><!--MD5=[8fb6c1b34ce53c4535f04e4214879889]
link TransactionCreationController to registryTransaction--><path d="M494.5592,509.0624 C512.7848,504.3024 531.4368,499.4312 549.6472,494.6744 " fill="none" id="TransactionCreationController-&gt;registryTransaction" style="stroke: #A80036; stroke-width: 0.8; stroke-dasharray: 7.0,7.0;"/><polygon fill="#A80036" points="553.5264,493.6616,545.7517,492.3836,549.6561,494.6718,547.3679,498.5762,553.5264,493.6616" style="stroke: #A80036; stroke-width: 0.8;"/><!--MD5=[e54d8890b595718f6221a75034d38b36]
link TransactionCreationController to registryOrganization--><path d="M494.5592,546.4 C540.9928,546.4 590.1888,546.4 627.808,546.4 " fill="none" id="TransactionCreationController-&gt;registryOrganization" style="stroke: #A80036; stroke-width: 0.8; stroke-dasharray: 7.0,7.0;"/><polygon fill="#A80036" points="631.8736,546.4,624.6736,543.2,627.8736,546.4,624.6736,549.6,631.8736,546.4" style="stroke: #A80036; stroke-width: 0.8;"/><!--MD5=[41d1960983cdb79cf484d8f1cb93979f]
link registryFreelancer to Freelancer--><path d="M745.0864,624.3992 C780.7904,621.96 827.096,613.0488 857.6,585.6 C864.04,579.808 858.392,573.7992 864,567.2 C971.112,441.0872 1073.936,506.3392 1191.2,389.6 C1241.496,339.5288 1227.648,307.984 1268,249.6 C1271.56,244.4448 1275.432,239.2296 1279.432,234.0864 " fill="none" id="registryFreelancer-&gt;Freelancer" style="stroke: #A80036; stroke-width: 0.8;"/><polygon fill="#A80036" points="1281.936,230.8944,1274.9704,234.5769,1279.4638,234.039,1280.0017,238.5324,1281.936,230.8944" style="stroke: #A80036; stroke-width: 0.8;"/><text fill="#000000" font-family="sans-serif" font-size="10.4" lengthAdjust="spacingAndGlyphs" textLength="16.8" x="1040.4" y="386.7961">has</text><polygon fill="#000000" points="1059.6,381.3406,1064.4,383.7406,1059.6,386.1406,1059.6,381.3406" style="stroke: #000000; stroke-width: 0.8;"/><text fill="#000000" font-family="sans-serif" font-size="10.4" lengthAdjust="spacingAndGlyphs" textLength="5.6" x="751.1552" y="635.9615">1</text><text fill="#000000" font-family="sans-serif" font-size="10.4" lengthAdjust="spacingAndGlyphs" textLength="4" x="1271.4703" y="249.3645">*</text><!--MD5=[5dbd4785254718d2534ec751282f5540]
link registryOrganization to Organization--><path d="M753.088,539.6328 C785.3848,534.24 825.152,524.7008 857.6,508 C928.968,471.2624 995.408,402.7752 1029.44,364.2312 " fill="none" id="registryOrganization-&gt;Organization" style="stroke: #A80036; stroke-width: 0.8;"/><polygon fill="#A80036" points="1032.232,361.0528,1025.0763,364.3507,1029.5923,364.0581,1029.8849,368.5742,1032.232,361.0528" style="stroke: #A80036; stroke-width: 0.8;"/><text fill="#000000" font-family="sans-serif" font-size="10.4" lengthAdjust="spacingAndGlyphs" textLength="16.8" x="864.8" y="486.7961">has</text><polygon fill="#000000" points="884,481.3406,888.8,483.7406,884,486.1406,884,481.3406" style="stroke: #000000; stroke-width: 0.8;"/><text fill="#000000" font-family="sans-serif" font-size="10.4" lengthAdjust="spacingAndGlyphs" textLength="5.6" x="759.1392" y="550.4136">1</text><text fill="#000000" font-family="sans-serif" font-size="10.4" lengthAdjust="spacingAndGlyphs" textLength="4" x="1023.7012" y="377.8839">*</text><!--MD5=[9b91bc16468d85234ab340feee09721e]
link registryTransaction to Transaction--><path d="M780.9672,421.5832 C807.096,408.6056 834.808,392.4368 857.6,373.6 C890.6,346.3232 883.152,324.0744 916.8,297.6 C922.4,293.1944 928.368,289.0256 934.552,285.0936 " fill="none" id="registryTransaction-&gt;Transaction" style="stroke: #A80036; stroke-width: 0.8;"/><polygon fill="#A80036" points="938.016,282.9336,930.2129,284.0254,934.6211,285.049,933.5975,289.4572,938.016,282.9336" style="stroke: #A80036; stroke-width: 0.8;"/><text fill="#000000" font-family="sans-serif" font-size="10.4" lengthAdjust="spacingAndGlyphs" textLength="16.8" x="864.8" y="321.9961">has</text><polygon fill="#000000" points="884,316.5406,888.8,318.9406,884,321.3406,884,316.5406" style="stroke: #000000; stroke-width: 0.8;"/><text fill="#000000" font-family="sans-serif" font-size="10.4" lengthAdjust="spacingAndGlyphs" textLength="5.6" x="789.0363" y="412.8729">1</text><text fill="#000000" font-family="sans-serif" font-size="10.4" lengthAdjust="spacingAndGlyphs" textLength="4" x="919.6367" y="300.2381">*</text><!--MD5=[9d963be07912ebb513990051144e238a]
link ListTask to Task--><path d="M766.9096,708.9104 C887.736,716.3272 1126.248,710.9144 1244,570.4 C1297.864,506.1256 1318.024,407.3416 1325.432,350.1008 " fill="none" id="ListTask-&gt;Task" style="stroke: #A80036; stroke-width: 0.8;"/><polygon fill="#A80036" points="1325.944,346.0528,1321.868,352.7957,1325.4434,350.0213,1328.2177,353.5967,1325.944,346.0528" style="stroke: #A80036; stroke-width: 0.8;"/><text fill="#000000" font-family="sans-serif" font-size="10.4" lengthAdjust="spacingAndGlyphs" textLength="16.8" x="1040.4" y="617.9961">has</text><polygon fill="#000000" points="1059.6,612.5406,1064.4,614.9406,1059.6,617.3406,1059.6,612.5406" style="stroke: #000000; stroke-width: 0.8;"/><text fill="#000000" font-family="sans-serif" font-size="10.4" lengthAdjust="spacingAndGlyphs" textLength="5.6" x="773.3118" y="720.859">1</text><text fill="#000000" font-family="sans-serif" font-size="10.4" lengthAdjust="spacingAndGlyphs" textLength="4" x="1321.0361" y="363.5505">*</text><!--MD5=[542f32193441b56ea302115ed1249c3b]
link Transaction to Freelancer--><path d="M1191.392,206.9712 C1222.208,200.4224 1253.08,193.8624 1277.8,188.608 " fill="none" id="Transaction-&gt;Freelancer" style="stroke: #A80036; stroke-width: 0.8;"/><polygon fill="#A80036" points="1281.712,187.7768,1274.003,186.1484,1277.7999,188.6109,1275.3375,192.4078,1281.712,187.7768" style="stroke: #A80036; stroke-width: 0.8;"/><text fill="#000000" font-family="sans-serif" font-size="10.4" lengthAdjust="spacingAndGlyphs" textLength="16.8" x="1216" y="193.9961">has</text><polygon fill="#000000" points="1235.2,188.5406,1240,190.9406,1235.2,193.3406,1235.2,188.5406" style="stroke: #000000; stroke-width: 0.8;"/><text fill="#000000" font-family="sans-serif" font-size="10.4" lengthAdjust="spacingAndGlyphs" textLength="5.6" x="1197.7445" y="216.745">1</text><text fill="#000000" font-family="sans-serif" font-size="10.4" lengthAdjust="spacingAndGlyphs" textLength="5.6" x="1270.1587" y="200.5127">1</text><!--MD5=[8e4873cec2cb3febaaa9495c716fc885]
link Transaction to Task--><path d="M1191.392,270.1984 C1216.632,276.516 1241.904,282.8432 1263.8,288.3272 " fill="none" id="Transaction-&gt;Task" style="stroke: #A80036; stroke-width: 0.8;"/><polygon fill="#A80036" points="1267.856,289.3408,1261.6488,284.4879,1263.9758,288.3693,1260.0944,290.6963,1267.856,289.3408" style="stroke: #A80036; stroke-width: 0.8;"/><text fill="#000000" font-family="sans-serif" font-size="10.4" lengthAdjust="spacingAndGlyphs" textLength="16.8" x="1216" y="273.1961">has</text><polygon fill="#000000" points="1235.2,267.7406,1240,270.1406,1235.2,272.5406,1235.2,267.7406" style="stroke: #000000; stroke-width: 0.8;"/><text fill="#000000" font-family="sans-serif" font-size="10.4" lengthAdjust="spacingAndGlyphs" textLength="5.6" x="1197.7445" y="282.8372">1</text><text fill="#000000" font-family="sans-serif" font-size="10.4" lengthAdjust="spacingAndGlyphs" textLength="5.6" x="1256.0279" y="299.2737">1</text><!--MD5=[22697d4d863c2e08ab1d60ca0d61f844]
link Platform to Freelancer--><path d="M735.0216,199.9048 C777.4832,166.5576 846.784,120.8728 916.8,112 C1061.192,93.7024 1109.888,69.0552 1244,125.6 C1255.448,130.4248 1267.168,136.6056 1278.12,143.0096 " fill="none" id="Platform-&gt;Freelancer" style="stroke: #A80036; stroke-width: 0.8;"/><polygon fill="#A80036" points="1281.8,145.188,1277.2295,138.77,1278.3564,143.1529,1273.9734,144.2798,1281.8,145.188" style="stroke: #A80036; stroke-width: 0.8;"/><text fill="#000000" font-family="sans-serif" font-size="10.4" lengthAdjust="spacingAndGlyphs" textLength="72" x="1018" y="88.3961">has registered&gt;</text><text fill="#000000" font-family="sans-serif" font-size="10.4" lengthAdjust="spacingAndGlyphs" textLength="5.6" x="735.5193" y="191.4455">1</text><text fill="#000000" font-family="sans-serif" font-size="10.4" lengthAdjust="spacingAndGlyphs" textLength="4" x="1271.6331" y="152.8383">*</text><!--MD5=[ed78a468ed200fe64308209ec6c86f1e]
link Platform to Task--><path d="M753.2808,214.9896 C797.7944,200.5776 860.28,182.748 916.8,175.2 C988.872,165.576 1185.48,132.848 1244,176 C1271.696,196.4192 1249.208,220.7768 1268,249.6 C1270.4,253.284 1273.112,256.8768 1276.016,260.3472 " fill="none" id="Platform-&gt;Task" style="stroke: #A80036; stroke-width: 0.8;"/><polygon fill="#A80036" points="1278.744,263.4992,1276.4608,255.9582,1276.1299,260.4715,1271.6166,260.1407,1278.744,263.4992" style="stroke: #A80036; stroke-width: 0.8;"/><text fill="#000000" font-family="sans-serif" font-size="10.4" lengthAdjust="spacingAndGlyphs" textLength="65.6" x="1016" y="151.5961">has registered</text><polygon fill="#000000" points="1084,146.1406,1088.8,148.5406,1084,150.9406,1084,146.1406" style="stroke: #000000; stroke-width: 0.8;"/><text fill="#000000" font-family="sans-serif" font-size="10.4" lengthAdjust="spacingAndGlyphs" textLength="5.6" x="759.5494" y="224.3807">1</text><text fill="#000000" font-family="sans-serif" font-size="10.4" lengthAdjust="spacingAndGlyphs" textLength="4" x="1267.1986" y="254.7878">*</text><!--MD5=[3781be57b219e856d6dd67e0b949b069]
link Platform to Transaction--><path d="M753.2536,236 C796.6344,236 857.072,236 912.344,236 " fill="none" id="Platform-&gt;Transaction" style="stroke: #A80036; stroke-width: 0.8;"/><polygon fill="#A80036" points="916.648,236,909.448,232.8,912.648,236,909.448,239.2,916.648,236" style="stroke: #A80036; stroke-width: 0.8;"/><text fill="#000000" font-family="sans-serif" font-size="10.4" lengthAdjust="spacingAndGlyphs" textLength="16.8" x="864.8" y="233.1961">has</text><polygon fill="#000000" points="884,227.7406,888.8,230.1406,884,232.5406,884,227.7406" style="stroke: #000000; stroke-width: 0.8;"/><text fill="#000000" font-family="sans-serif" font-size="10.4" lengthAdjust="spacingAndGlyphs" textLength="5.6" x="759.5195" y="247.4593">1</text><text fill="#000000" font-family="sans-serif" font-size="10.4" lengthAdjust="spacingAndGlyphs" textLength="4" x="906.3336" y="247.0892">*</text><!--MD5=[7640e466c042ba2d6f9c19c816f7f0fc]
link Platform to Organization--><path d="M753.2536,252.6816 C825.488,272.7464 945.016,305.948 1009.208,323.7792 " fill="none" id="Platform-&gt;Organization" style="stroke: #A80036; stroke-width: 0.8;"/><polygon fill="#A80036" points="1013.352,324.9312,1007.2753,319.9158,1009.4988,323.8574,1005.5572,326.0809,1013.352,324.9312" style="stroke: #A80036; stroke-width: 0.8;"/><text fill="#000000" font-family="sans-serif" font-size="10.4" lengthAdjust="spacingAndGlyphs" textLength="16.8" x="864.8" y="282.7961">has</text><polygon fill="#000000" points="884,277.3406,888.8,279.7406,884,282.1406,884,277.3406" style="stroke: #000000; stroke-width: 0.8;"/><text fill="#000000" font-family="sans-serif" font-size="10.4" lengthAdjust="spacingAndGlyphs" textLength="5.6" x="759.5195" y="265.783">1</text><text fill="#000000" font-family="sans-serif" font-size="10.4" lengthAdjust="spacingAndGlyphs" textLength="4" x="1003.0881" y="335.0719">*</text><!--MD5=[30a9d08d7dc467ac860797373cb7da8d]
link Organization to ListTask--><path d="M1034,360.844 C1006.528,396.8792 955.104,466.1968 916.8,528.8 C890.4,571.9392 880.648,581.8432 864,629.6 C859,643.9552 868.128,652.2312 857.6,663.2 C835.312,686.4248 801.8944,696.7904 770.9952,701.0552 " fill="none" id="Organization-&gt;ListTask" style="stroke: #A80036; stroke-width: 0.8;"/><polygon fill="#A80036" points="766.8496,701.5928,774.4019,703.8384,770.8163,701.0774,773.5773,697.4918,766.8496,701.5928" style="stroke: #A80036; stroke-width: 0.8;"/><text fill="#000000" font-family="sans-serif" font-size="10.4" lengthAdjust="spacingAndGlyphs" textLength="16.8" x="864.8" y="564.3961">has</text><polygon fill="#000000" points="869.6,571.4813,872,576.2813,874.4,571.4813,869.6,571.4813" style="stroke: #000000; stroke-width: 0.8;"/><text fill="#000000" font-family="sans-serif" font-size="10.4" lengthAdjust="spacingAndGlyphs" textLength="5.6" x="1030.6138" y="377.8319">1</text><text fill="#000000" font-family="sans-serif" font-size="10.4" lengthAdjust="spacingAndGlyphs" textLength="5.6" x="773.2468" y="699.0754">1</text><!--MD5=[fe16f150de291db60adb5e57b988c2df]
@startuml

left to right direction
package UI{
class TransactionCreationUI
}
package Controller {
class TransactionCreationController{
+getListTask()
+getListFreelancers()
+newTransaction(Task , Freelancer, endDate, delay, descriptionWork)
+getAmountToPay()
+registerTransaction()
}
}
package login{

class LoginSystem {
+getLoggedUserEmail()
}
}

package RegistryClasses{
class registryOrganization{
+getOrgByUserEmail(email)
}
class  registryTransaction{
+newTransaction(org,transID,endDate,delay,descriptionWork,task,free)
+validateTransaction(trans)
+registerTransaction(trans)
}
class registryFreelancer{
+getListFreelancers()
}
class ListTask{
+getListTaskWithNoTransactions()
}
}
package model{
class Organization{
+getListTask()
}
class Transaction{
-endDate
-delay
-descriptionWork
+Transaction(org,transID,endDate,delay,descriptionWork,task,free)
+getAmountToPay()
}
class Task{
-Integer taskID
-Integer taskAssignDuration
-Double taskCostPerHour
-String taskCategory
}
class Freelancer{
-String id
-String name
-String email
-String nif
-String bankAccount
-String address
-String country
}
class Platform {
+GetRegistryOrganization()
+GetRegistryFreelancer()
+GetRegistryTransaction()
}
}
TransactionCreationUI ..> TransactionCreationController
TransactionCreationController ..> LoginSystem
TransactionCreationController ..> Platform
TransactionCreationController ..> registryFreelancer
TransactionCreationController .> registryTransaction
TransactionCreationController ..> registryOrganization
registryFreelancer"1" - -> "*"Freelancer : has >
registryOrganization"1" - ->"*" Organization : has >
registryTransaction"1" - -> "*"Transaction : has >
ListTask "1" - -> "*" Task : has >
Transaction "1" - -> "1" Freelancer : has >
Transaction "1" - -> "1" Task : has >
Platform "1" - -> "*" Freelancer : has registered>
Platform "1" - -> "*" Task : has registered >
Platform "1" - -> "*" Transaction : has >
Platform "1" - -> "*" Organization : has >
Organization "1" - -> "1" ListTask : has >
@enduml

PlantUML version 1.2020.09(Sun May 10 11:51:06 BST 2020)
(GPL source distribution)
Java Runtime: OpenJDK Runtime Environment
JVM: OpenJDK 64-Bit Server VM
Java Version: 11.0.7+10-b765.53
Operating System: Windows 10
Default Encoding: Cp1252
Language: pt
Country: PT
--></g></svg>