<?xml version="1.0" encoding="UTF-8" standalone="no"?><svg xmlns="http://www.w3.org/2000/svg" xmlns:xlink="http://www.w3.org/1999/xlink" contentScriptType="application/ecmascript" contentStyleType="text/css" height="408px" preserveAspectRatio="none" style="width:767px;height:408px;" version="1.1" viewBox="0 0 767 408" width="767px" zoomAndPan="magnify"><defs><filter height="300%" id="fzgaj8qrrm3le" width="300%" x="-1" y="-1"><feGaussianBlur result="blurOut" stdDeviation="2.0"/><feColorMatrix in="blurOut" result="blurOut2" type="matrix" values="0 0 0 0 0 0 0 0 0 0 0 0 0 0 0 0 0 0 .4 0"/><feOffset dx="4.0" dy="4.0" in="blurOut2" result="blurOut3"/><feBlend in="SourceGraphic" in2="blurOut3" mode="normal"/></filter></defs><g><!--MD5=[99b8db98afdc2c8404e39242ef4c1e65]
class Platform--><rect fill="#FEFECE" filter="url(#fzgaj8qrrm3le)" height="40" id="Platform" style="stroke: #A80036; stroke-width: 1.5;" width="84" x="6" y="92.5"/><ellipse cx="21" cy="108.5" fill="#ADD1B2" rx="11" ry="11" style="stroke: #A80036; stroke-width: 1.0;"/><path d="M23.9688,114.1406 Q23.3906,114.4375 22.75,114.5859 Q22.1094,114.7344 21.4063,114.7344 Q18.9063,114.7344 17.5859,113.0859 Q16.2656,111.4375 16.2656,108.3125 Q16.2656,105.1875 17.5859,103.5313 Q18.9063,101.875 21.4063,101.875 Q22.1094,101.875 22.7578,102.0313 Q23.4063,102.1875 23.9688,102.4844 L23.9688,105.2031 Q23.3438,104.625 22.75,104.3516 Q22.1563,104.0781 21.5313,104.0781 Q20.1875,104.0781 19.5,105.1484 Q18.8125,106.2188 18.8125,108.3125 Q18.8125,110.4063 19.5,111.4766 Q20.1875,112.5469 21.5313,112.5469 Q22.1563,112.5469 22.75,112.2734 Q23.3438,112 23.9688,111.4219 L23.9688,114.1406 Z "/><text fill="#000000" font-family="sans-serif" font-size="12" lengthAdjust="spacingAndGlyphs" textLength="52" x="35" y="112.6543">Platform</text><line style="stroke: #A80036; stroke-width: 1.5;" x1="7" x2="89" y1="124.5" y2="124.5"/><!--MD5=[3fd616f346a44cd59a91eb10b19e157c]
class User--><rect fill="#FEFECE" filter="url(#fzgaj8qrrm3le)" height="78.4141" id="User" style="stroke: #A80036; stroke-width: 1.5;" width="146" x="586" y="8.5"/><ellipse cx="640.25" cy="24.5" fill="#ADD1B2" rx="11" ry="11" style="stroke: #A80036; stroke-width: 1.0;"/><path d="M643.2188,30.1406 Q642.6406,30.4375 642,30.5859 Q641.3594,30.7344 640.6563,30.7344 Q638.1563,30.7344 636.8359,29.0859 Q635.5156,27.4375 635.5156,24.3125 Q635.5156,21.1875 636.8359,19.5313 Q638.1563,17.875 640.6563,17.875 Q641.3594,17.875 642.0078,18.0313 Q642.6563,18.1875 643.2188,18.4844 L643.2188,21.2031 Q642.5938,20.625 642,20.3516 Q641.4063,20.0781 640.7813,20.0781 Q639.4375,20.0781 638.75,21.1484 Q638.0625,22.2188 638.0625,24.3125 Q638.0625,26.4063 638.75,27.4766 Q639.4375,28.5469 640.7813,28.5469 Q641.4063,28.5469 642,28.2734 Q642.5938,28 643.2188,27.4219 L643.2188,30.1406 Z "/><text fill="#000000" font-family="sans-serif" font-size="12" lengthAdjust="spacingAndGlyphs" textLength="29" x="660.75" y="28.6543">User</text><line style="stroke: #A80036; stroke-width: 1.5;" x1="587" x2="731" y1="40.5" y2="40.5"/><rect fill="none" height="6" style="stroke: #C82930; stroke-width: 1.0;" width="6" x="594" y="48.5"/><text fill="#000000" font-family="sans-serif" font-size="11" lengthAdjust="spacingAndGlyphs" textLength="95" x="606" y="54.7104">String userEmail</text><rect fill="none" height="6" style="stroke: #C82930; stroke-width: 1.0;" width="6" x="594" y="61.3047"/><text fill="#000000" font-family="sans-serif" font-size="11" lengthAdjust="spacingAndGlyphs" textLength="97" x="606" y="67.5151">String userName</text><rect fill="none" height="6" style="stroke: #C82930; stroke-width: 1.0;" width="6" x="594" y="74.1094"/><text fill="#000000" font-family="sans-serif" font-size="11" lengthAdjust="spacingAndGlyphs" textLength="120" x="606" y="80.3198">String userPassword</text><!--MD5=[1f687b5315377fe49fca59b457947463]
class Freelancer--><rect fill="#FEFECE" filter="url(#fzgaj8qrrm3le)" height="142.4375" id="Freelancer" style="stroke: #A80036; stroke-width: 1.5;" width="194" x="562" y="128.5"/><ellipse cx="621.25" cy="144.5" fill="#ADD1B2" rx="11" ry="11" style="stroke: #A80036; stroke-width: 1.0;"/><path d="M624.2188,150.1406 Q623.6406,150.4375 623,150.5859 Q622.3594,150.7344 621.6563,150.7344 Q619.1563,150.7344 617.8359,149.0859 Q616.5156,147.4375 616.5156,144.3125 Q616.5156,141.1875 617.8359,139.5313 Q619.1563,137.875 621.6563,137.875 Q622.3594,137.875 623.0078,138.0313 Q623.6563,138.1875 624.2188,138.4844 L624.2188,141.2031 Q623.5938,140.625 623,140.3516 Q622.4063,140.0781 621.7813,140.0781 Q620.4375,140.0781 619.75,141.1484 Q619.0625,142.2188 619.0625,144.3125 Q619.0625,146.4063 619.75,147.4766 Q620.4375,148.5469 621.7813,148.5469 Q622.4063,148.5469 623,148.2734 Q623.5938,148 624.2188,147.4219 L624.2188,150.1406 Z "/><text fill="#000000" font-family="sans-serif" font-size="12" lengthAdjust="spacingAndGlyphs" textLength="67" x="641.75" y="148.6543">Freelancer</text><line style="stroke: #A80036; stroke-width: 1.5;" x1="563" x2="755" y1="160.5" y2="160.5"/><rect fill="none" height="6" style="stroke: #C82930; stroke-width: 1.0;" width="6" x="570" y="168.5"/><text fill="#000000" font-family="sans-serif" font-size="11" lengthAdjust="spacingAndGlyphs" textLength="108" x="582" y="174.7104">String idFreelancer</text><rect fill="none" height="6" style="stroke: #C82930; stroke-width: 1.0;" width="6" x="570" y="181.3047"/><text fill="#000000" font-family="sans-serif" font-size="11" lengthAdjust="spacingAndGlyphs" textLength="129" x="582" y="187.5151">String freelancerName</text><rect fill="none" height="6" style="stroke: #C82930; stroke-width: 1.0;" width="6" x="570" y="194.1094"/><text fill="#000000" font-family="sans-serif" font-size="11" lengthAdjust="spacingAndGlyphs" textLength="149" x="582" y="200.3198">String freelancerExpertise</text><rect fill="none" height="6" style="stroke: #C82930; stroke-width: 1.0;" width="6" x="570" y="206.9141"/><text fill="#000000" font-family="sans-serif" font-size="11" lengthAdjust="spacingAndGlyphs" textLength="127" x="582" y="213.1245">String freelancerEmail</text><rect fill="none" height="6" style="stroke: #C82930; stroke-width: 1.0;" width="6" x="570" y="219.7188"/><text fill="#000000" font-family="sans-serif" font-size="11" lengthAdjust="spacingAndGlyphs" textLength="113" x="582" y="225.9292">String freelancerNIF</text><rect fill="none" height="6" style="stroke: #C82930; stroke-width: 1.0;" width="6" x="570" y="232.5234"/><text fill="#000000" font-family="sans-serif" font-size="11" lengthAdjust="spacingAndGlyphs" textLength="168" x="582" y="238.7339">String freelancerBankAccount</text><rect fill="none" height="6" style="stroke: #C82930; stroke-width: 1.0;" width="6" x="570" y="245.3281"/><text fill="#000000" font-family="sans-serif" font-size="11" lengthAdjust="spacingAndGlyphs" textLength="143" x="582" y="251.5386">String freelancerAddress</text><rect fill="none" height="6" style="stroke: #C82930; stroke-width: 1.0;" width="6" x="570" y="258.1328"/><text fill="#000000" font-family="sans-serif" font-size="11" lengthAdjust="spacingAndGlyphs" textLength="140" x="582" y="264.3433">String freelancerCountry</text><!--MD5=[b34797a66dc35cbf1d65f7e3ca75530e]
class Task--><rect fill="#FEFECE" filter="url(#fzgaj8qrrm3le)" height="91.2188" id="Task" style="stroke: #A80036; stroke-width: 1.5;" width="180" x="569" y="306"/><ellipse cx="640.25" cy="322" fill="#ADD1B2" rx="11" ry="11" style="stroke: #A80036; stroke-width: 1.0;"/><path d="M643.2188,327.6406 Q642.6406,327.9375 642,328.0859 Q641.3594,328.2344 640.6563,328.2344 Q638.1563,328.2344 636.8359,326.5859 Q635.5156,324.9375 635.5156,321.8125 Q635.5156,318.6875 636.8359,317.0313 Q638.1563,315.375 640.6563,315.375 Q641.3594,315.375 642.0078,315.5313 Q642.6563,315.6875 643.2188,315.9844 L643.2188,318.7031 Q642.5938,318.125 642,317.8516 Q641.4063,317.5781 640.7813,317.5781 Q639.4375,317.5781 638.75,318.6484 Q638.0625,319.7188 638.0625,321.8125 Q638.0625,323.9063 638.75,324.9766 Q639.4375,326.0469 640.7813,326.0469 Q641.4063,326.0469 642,325.7734 Q642.5938,325.5 643.2188,324.9219 L643.2188,327.6406 Z "/><text fill="#000000" font-family="sans-serif" font-size="12" lengthAdjust="spacingAndGlyphs" textLength="29" x="660.75" y="326.1543">Task</text><line style="stroke: #A80036; stroke-width: 1.5;" x1="570" x2="748" y1="338" y2="338"/><rect fill="none" height="6" style="stroke: #C82930; stroke-width: 1.0;" width="6" x="577" y="346"/><text fill="#000000" font-family="sans-serif" font-size="11" lengthAdjust="spacingAndGlyphs" textLength="79" x="589" y="352.2104">Integer taskID</text><rect fill="none" height="6" style="stroke: #C82930; stroke-width: 1.0;" width="6" x="577" y="358.8047"/><text fill="#000000" font-family="sans-serif" font-size="11" lengthAdjust="spacingAndGlyphs" textLength="154" x="589" y="365.0151">Integer taskAssignDuration</text><rect fill="none" height="6" style="stroke: #C82930; stroke-width: 1.0;" width="6" x="577" y="371.6094"/><text fill="#000000" font-family="sans-serif" font-size="11" lengthAdjust="spacingAndGlyphs" textLength="139" x="589" y="377.8198">Double taskCostPerHour</text><rect fill="none" height="6" style="stroke: #C82930; stroke-width: 1.0;" width="6" x="577" y="384.4141"/><text fill="#000000" font-family="sans-serif" font-size="11" lengthAdjust="spacingAndGlyphs" textLength="113" x="589" y="390.6245">String taskCategory</text><!--MD5=[da547346deef918ea16944ba046651ef]
class Administrator--><rect fill="#FEFECE" filter="url(#fzgaj8qrrm3le)" height="40" id="Administrator" style="stroke: #A80036; stroke-width: 1.5;" width="116" x="270.5" y="20.5"/><ellipse cx="285.5" cy="36.5" fill="#ADD1B2" rx="11" ry="11" style="stroke: #A80036; stroke-width: 1.0;"/><path d="M288.4688,42.1406 Q287.8906,42.4375 287.25,42.5859 Q286.6094,42.7344 285.9063,42.7344 Q283.4063,42.7344 282.0859,41.0859 Q280.7656,39.4375 280.7656,36.3125 Q280.7656,33.1875 282.0859,31.5313 Q283.4063,29.875 285.9063,29.875 Q286.6094,29.875 287.2578,30.0313 Q287.9063,30.1875 288.4688,30.4844 L288.4688,33.2031 Q287.8438,32.625 287.25,32.3516 Q286.6563,32.0781 286.0313,32.0781 Q284.6875,32.0781 284,33.1484 Q283.3125,34.2188 283.3125,36.3125 Q283.3125,38.4063 284,39.4766 Q284.6875,40.5469 286.0313,40.5469 Q286.6563,40.5469 287.25,40.2734 Q287.8438,40 288.4688,39.4219 L288.4688,42.1406 Z "/><text fill="#000000" font-family="sans-serif" font-size="12" lengthAdjust="spacingAndGlyphs" textLength="84" x="299.5" y="40.6543">Administrator</text><line style="stroke: #A80036; stroke-width: 1.5;" x1="271.5" x2="385.5" y1="52.5" y2="52.5"/><!--MD5=[4555bb1b0911a5adf28ce6dbe60fed2e]
class Transaction--><rect fill="#FEFECE" filter="url(#fzgaj8qrrm3le)" height="104.0234" id="Transaction" style="stroke: #A80036; stroke-width: 1.5;" width="209" x="224" y="269.5"/><ellipse cx="287.25" cy="285.5" fill="#ADD1B2" rx="11" ry="11" style="stroke: #A80036; stroke-width: 1.0;"/><path d="M290.2188,291.1406 Q289.6406,291.4375 289,291.5859 Q288.3594,291.7344 287.6563,291.7344 Q285.1563,291.7344 283.8359,290.0859 Q282.5156,288.4375 282.5156,285.3125 Q282.5156,282.1875 283.8359,280.5313 Q285.1563,278.875 287.6563,278.875 Q288.3594,278.875 289.0078,279.0313 Q289.6563,279.1875 290.2188,279.4844 L290.2188,282.2031 Q289.5938,281.625 289,281.3516 Q288.4063,281.0781 287.7813,281.0781 Q286.4375,281.0781 285.75,282.1484 Q285.0625,283.2188 285.0625,285.3125 Q285.0625,287.4063 285.75,288.4766 Q286.4375,289.5469 287.7813,289.5469 Q288.4063,289.5469 289,289.2734 Q289.5938,289 290.2188,288.4219 L290.2188,291.1406 Z "/><text fill="#000000" font-family="sans-serif" font-size="12" lengthAdjust="spacingAndGlyphs" textLength="74" x="307.75" y="289.6543">Transaction</text><line style="stroke: #A80036; stroke-width: 1.5;" x1="225" x2="432" y1="301.5" y2="301.5"/><rect fill="none" height="6" style="stroke: #C82930; stroke-width: 1.0;" width="6" x="232" y="309.5"/><text fill="#000000" font-family="sans-serif" font-size="11" lengthAdjust="spacingAndGlyphs" textLength="85" x="244" y="315.7104">Integer transID</text><rect fill="none" height="6" style="stroke: #C82930; stroke-width: 1.0;" width="6" x="232" y="322.3047"/><text fill="#000000" font-family="sans-serif" font-size="11" lengthAdjust="spacingAndGlyphs" textLength="104" x="244" y="328.5151">Boolean transPaid</text><rect fill="none" height="6" style="stroke: #C82930; stroke-width: 1.0;" width="6" x="232" y="335.1094"/><text fill="#000000" font-family="sans-serif" font-size="11" lengthAdjust="spacingAndGlyphs" textLength="143" x="244" y="341.3198">Date executionFinishDate</text><rect fill="none" height="6" style="stroke: #C82930; stroke-width: 1.0;" width="6" x="232" y="347.9141"/><text fill="#000000" font-family="sans-serif" font-size="11" lengthAdjust="spacingAndGlyphs" textLength="129" x="244" y="354.1245">Integer executionDelay</text><rect fill="none" height="6" style="stroke: #C82930; stroke-width: 1.0;" width="6" x="232" y="360.7188"/><text fill="#000000" font-family="sans-serif" font-size="11" lengthAdjust="spacingAndGlyphs" textLength="183" x="244" y="366.9292">String executionBriefDescription</text><!--MD5=[22697d4d863c2e08ab1d60ca0d61f844]
link Platform to Freelancer--><path d="M90.4792,118.5486 C186.1338,132.1688 420.6608,165.563 556.7349,184.9385 " fill="none" id="Platform-&gt;Freelancer" style="stroke: #A80036; stroke-width: 1.0;"/><polygon fill="#A80036" points="561.9347,185.6789,553.5886,180.4499,556.9847,184.9739,552.4606,188.3699,561.9347,185.6789" style="stroke: #A80036; stroke-width: 1.0;"/><text fill="#000000" font-family="sans-serif" font-size="13" lengthAdjust="spacingAndGlyphs" textLength="23" x="310.5" y="134.5669">has</text><polygon fill="#000000" points="336.5,128.5664,342.5,131.5664,336.5,134.5664,336.5,128.5664" style="stroke: #000000; stroke-width: 1.0;"/><text fill="#000000" font-family="sans-serif" font-size="13" lengthAdjust="spacingAndGlyphs" textLength="8" x="97.8868" y="132.7854">1</text><text fill="#000000" font-family="sans-serif" font-size="13" lengthAdjust="spacingAndGlyphs" textLength="7" x="546.9209" y="197.2299">*</text><!--MD5=[0f7004bed4496639b3a5258ab2ead378]
link Platform to Administrator--><path d="M90.2431,101.2839 C100.0103,98.7097 110.3636,95.9962 120,93.5 C168.8145,80.8552 224.1326,66.8065 265.5172,56.3517 " fill="none" id="Platform-&gt;Administrator" style="stroke: #A80036; stroke-width: 1.0;"/><polygon fill="#A80036" points="270.4937,55.0949,260.7882,53.4203,265.6459,56.3192,262.7471,61.1768,270.4937,55.0949" style="stroke: #A80036; stroke-width: 1.0;"/><text fill="#000000" font-family="sans-serif" font-size="13" lengthAdjust="spacingAndGlyphs" textLength="23" x="139" y="72.5669">has</text><polygon fill="#000000" points="165,66.5664,171,69.5664,165,72.5664,165,66.5664" style="stroke: #000000; stroke-width: 1.0;"/><text fill="#000000" font-family="sans-serif" font-size="13" lengthAdjust="spacingAndGlyphs" textLength="8" x="97.9021" y="95.2619">1</text><text fill="#000000" font-family="sans-serif" font-size="13" lengthAdjust="spacingAndGlyphs" textLength="7" x="255.6132" y="70.0012">*</text><!--MD5=[020250475aebc24ba5d0c773fd881bc9]
link Administrator to Platform--><path d="M270.2009,33.8335 C227.1759,31.1965 168.0112,32.4464 120,51.5 C100.0957,59.3992 81.7467,75.1347 68.5539,88.6449 " fill="none" id="Administrator-&gt;Platform" style="stroke: #A80036; stroke-width: 1.0;"/><polygon fill="#A80036" points="64.9726,92.3881,74.0846,88.6503,68.4291,88.7753,68.3041,83.1198,64.9726,92.3881" style="stroke: #A80036; stroke-width: 1.0;"/><polygon fill="#000000" points="128,25.5664,122,28.5664,128,31.5664,128,25.5664" style="stroke: #000000; stroke-width: 1.0;"/><text fill="#000000" font-family="sans-serif" font-size="13" lengthAdjust="spacingAndGlyphs" textLength="59" x="134" y="31.5669">Works for</text><text fill="#000000" font-family="sans-serif" font-size="13" lengthAdjust="spacingAndGlyphs" textLength="7" x="255.6691" y="46.0101">*</text><text fill="#000000" font-family="sans-serif" font-size="13" lengthAdjust="spacingAndGlyphs" textLength="8" x="60.7833" y="81.3635">1</text><!--MD5=[3781be57b219e856d6dd67e0b949b069]
link Platform to Transaction--><path d="M54.147,132.5038 C63.7958,160.7578 85.086,212.2716 120,242.5 C148.1021,266.8307 184.4586,284.0239 218.9229,296.0108 " fill="none" id="Platform-&gt;Transaction" style="stroke: #A80036; stroke-width: 1.0;"/><polygon fill="#A80036" points="223.9929,297.7418,216.7681,291.0484,219.2611,296.1262,214.1832,298.6192,223.9929,297.7418" style="stroke: #A80036; stroke-width: 1.0;"/><text fill="#000000" font-family="sans-serif" font-size="13" lengthAdjust="spacingAndGlyphs" textLength="35" x="139.5" y="238.5669">it has</text><text fill="#000000" font-family="sans-serif" font-size="13" lengthAdjust="spacingAndGlyphs" textLength="8" x="46.7777" y="152.6694">1</text><text fill="#000000" font-family="sans-serif" font-size="13" lengthAdjust="spacingAndGlyphs" textLength="7" x="209.0611" y="308.6187">*</text><!--MD5=[8e4873cec2cb3febaaa9495c716fc885]
link Transaction to Task--><path d="M433.0723,330.9922 C474.7899,334.779 522.4989,339.1096 563.2924,342.8125 " fill="none" id="Transaction-&gt;Task" style="stroke: #A80036; stroke-width: 1.0;"/><polygon fill="#A80036" points="568.744,343.3073,560.1424,338.5101,563.7645,342.8553,559.4193,346.4773,568.744,343.3073" style="stroke: #A80036; stroke-width: 1.0;"/><text fill="#000000" font-family="sans-serif" font-size="13" lengthAdjust="spacingAndGlyphs" textLength="54" x="464" y="329.5669">refers to</text><polygon fill="#000000" points="521,323.5664,527,326.5664,521,329.5664,521,323.5664" style="stroke: #000000; stroke-width: 1.0;"/><text fill="#000000" font-family="sans-serif" font-size="13" lengthAdjust="spacingAndGlyphs" textLength="8" x="441.0456" y="344.311">1</text><text fill="#000000" font-family="sans-serif" font-size="13" lengthAdjust="spacingAndGlyphs" textLength="8" x="552.9384" y="355.3133">1</text><!--MD5=[542f32193441b56ea302115ed1249c3b]
link Transaction to Freelancer--><path d="M433.0723,282.8984 C472.6886,268.2746 517.708,251.6562 557.0771,237.1236 " fill="none" id="Transaction-&gt;Freelancer" style="stroke: #A80036; stroke-width: 1.0;"/><polygon fill="#A80036" points="561.8495,235.3619,552.0212,234.7262,557.1589,237.0934,554.7916,242.2311,561.8495,235.3619" style="stroke: #A80036; stroke-width: 1.0;"/><text fill="#000000" font-family="sans-serif" font-size="13" lengthAdjust="spacingAndGlyphs" textLength="13" x="484.5" y="246.5669">to</text><polygon fill="#000000" points="500.5,240.5664,506.5,243.5664,500.5,246.5664,500.5,240.5664" style="stroke: #000000; stroke-width: 1.0;"/><text fill="#000000" font-family="sans-serif" font-size="13" lengthAdjust="spacingAndGlyphs" textLength="8" x="441.0456" y="292.6853">1</text><text fill="#000000" font-family="sans-serif" font-size="13" lengthAdjust="spacingAndGlyphs" textLength="8" x="546.1052" y="250.737">1</text><!--MD5=[edc107c0a572352bcd12c9afaba4390b]
link Administrator to User--><path d="M386.826,41.7353 C440.7011,42.8764 521.1484,44.5803 580.6206,45.8399 " fill="none" id="Administrator-&gt;User" style="stroke: #A80036; stroke-width: 1.0;"/><polygon fill="#A80036" points="585.9468,45.9527,577.0335,41.7631,580.9479,45.8468,576.8641,49.7613,585.9468,45.9527" style="stroke: #A80036; stroke-width: 1.0;"/><text fill="#000000" font-family="sans-serif" font-size="13" lengthAdjust="spacingAndGlyphs" textLength="10" x="486" y="39.5669">is</text><polygon fill="#000000" points="499,33.5664,505,36.5664,499,39.5664,499,33.5664" style="stroke: #000000; stroke-width: 1.0;"/><text fill="#000000" font-family="sans-serif" font-size="13" lengthAdjust="spacingAndGlyphs" textLength="8" x="394.422" y="54.8749">1</text><text fill="#000000" font-family="sans-serif" font-size="13" lengthAdjust="spacingAndGlyphs" textLength="8" x="570.0007" y="58.619">1</text><!--MD5=[0cdafcc0dad84b6396b2a91da681dfee]
link Platform to User--><path d="M90.0602,112.7052 C161.0482,112.5666 309.0282,110.1886 433,94.5 C482.6723,88.214 537.6883,76.8694 581.0018,66.9009 " fill="none" id="Platform-&gt;User" style="stroke: #A80036; stroke-width: 1.0;"/><polygon fill="#A80036" points="585.9565,65.7549,576.2866,63.8861,581.0851,66.8817,578.0895,71.6803,585.9565,65.7549" style="stroke: #A80036; stroke-width: 1.0;"/><text fill="#000000" font-family="sans-serif" font-size="13" lengthAdjust="spacingAndGlyphs" textLength="23" x="310.5" y="90.5669">has</text><polygon fill="#000000" points="336.5,84.5664,342.5,87.5664,336.5,90.5664,336.5,84.5664" style="stroke: #000000; stroke-width: 1.0;"/><text fill="#000000" font-family="sans-serif" font-size="13" lengthAdjust="spacingAndGlyphs" textLength="8" x="97.9768" y="112.9242">1</text><text fill="#000000" font-family="sans-serif" font-size="13" lengthAdjust="spacingAndGlyphs" textLength="7" x="571.063" y="80.4633">*</text><!--MD5=[072f9d8c0686747d5f7ce17238a632a8]
@startuml
hide methods
left to right direction


class Platform {

}

class User{
-String userEmail
-String userName
-String userPassword
}


class Freelancer {
-String idFreelancer
-String freelancerName
-String freelancerExpertise
-String freelancerEmail
-String freelancerNIF
-String freelancerBankAccount
-String freelancerAddress
-String freelancerCountry
}


class Task{
-Integer taskID
-Integer taskAssignDuration
-Double taskCostPerHour
-String taskCategory
}
class Administrator {

}
class Transaction {
-Integer transID
-Boolean transPaid
-Date executionFinishDate
-Integer executionDelay
-String executionBriefDescription
}

Platform"1" - -> "*" Freelancer : has >
Platform "1" - -> "*" Administrator : has >
Platform"1" - ->"*" Transaction : it has
Administrator"*" - -> "1" Platform : Works for >
Transaction "1" - -> "1" Task: refers to >
Transaction "1" - -> "1" Freelancer: to >
Administrator"1" - -> "1"User : is  >
Platform"1" - ->"*" User : has >
@enduml

PlantUML version 1.2019.12(Sun Nov 03 10:24:54 UTC 2019)
(GPL source distribution)
Java Runtime: OpenJDK Runtime Environment
JVM: OpenJDK 64-Bit Server VM
Java Version: 1.8.0_232-heroku-b09
Operating System: Linux
Default Encoding: UTF-8
Language: en
Country: US
--></g></svg>