<?xml version="1.0" encoding="UTF-8" standalone="no"?><svg xmlns="http://www.w3.org/2000/svg" xmlns:xlink="http://www.w3.org/1999/xlink" contentScriptType="application/ecmascript" contentStyleType="text/css" height="422px" preserveAspectRatio="none" style="width:1453px;height:422px;" version="1.1" viewBox="0 0 1453 422" width="1453px" zoomAndPan="magnify"><defs><filter height="300%" id="f1eg2ypyn29j04" width="300%" x="-1" y="-1"><feGaussianBlur result="blurOut" stdDeviation="2.0"/><feColorMatrix in="blurOut" result="blurOut2" type="matrix" values="0 0 0 0 0 0 0 0 0 0 0 0 0 0 0 0 0 0 .4 0"/><feOffset dx="4.0" dy="4.0" in="blurOut2" result="blurOut3"/><feBlend in="SourceGraphic" in2="blurOut3" mode="normal"/></filter></defs><g><!--MD5=[64e2e010ba86d7988e5cd73bd64f61f9]
cluster ui--><polygon fill="#FFFFFF" filter="url(#f1eg2ypyn29j04)" points="14,231,34,231,41,253.2969,195,253.2969,195,314,14,314,14,231" style="stroke: #000000; stroke-width: 1.5;"/><line style="stroke: #000000; stroke-width: 1.5;" x1="14" x2="41" y1="253.2969" y2="253.2969"/><text fill="#000000" font-family="sans-serif" font-size="14" font-weight="bold" lengthAdjust="spacingAndGlyphs" textLength="14" x="18" y="245.9951">ui</text><!--MD5=[10ea673caf457862023e152271927b45]
cluster controller--><polygon fill="#FFFFFF" filter="url(#f1eg2ypyn29j04)" points="240,135,323,135,330,157.2969,470,157.2969,470,410,240,410,240,135" style="stroke: #000000; stroke-width: 1.5;"/><line style="stroke: #000000; stroke-width: 1.5;" x1="240" x2="330" y1="157.2969" y2="157.2969"/><text fill="#000000" font-family="sans-serif" font-size="14" font-weight="bold" lengthAdjust="spacingAndGlyphs" textLength="77" x="244" y="149.9951">controller</text><!--MD5=[5d4cd377749310b66bf14896f5cd8d9b]
cluster model--><polygon fill="#FFFFFF" filter="url(#f1eg2ypyn29j04)" points="515,16,569,16,576,38.2969,1431,38.2969,1431,409,515,409,515,16" style="stroke: #000000; stroke-width: 1.5;"/><line style="stroke: #000000; stroke-width: 1.5;" x1="515" x2="576" y1="38.2969" y2="38.2969"/><text fill="#000000" font-family="sans-serif" font-size="14" font-weight="bold" lengthAdjust="spacingAndGlyphs" textLength="48" x="519" y="30.9951">model</text><!--MD5=[dc4e61d4170cc2f74c09b0195d9b4ebb]
cluster registrys--><polygon fill="#FFFFFF" filter="url(#f1eg2ypyn29j04)" points="829,43,906,43,913,65.2969,1100,65.2969,1100,401,829,401,829,43" style="stroke: #000000; stroke-width: 1.5;"/><line style="stroke: #000000; stroke-width: 1.5;" x1="829" x2="913" y1="65.2969" y2="65.2969"/><text fill="#000000" font-family="sans-serif" font-size="14" font-weight="bold" lengthAdjust="spacingAndGlyphs" textLength="71" x="833" y="57.9951">registrys</text><!--MD5=[278816213ad7879ffaa9ad907d1dfd34]
class StatsAllFreelancersUI--><rect fill="#FEFECE" filter="url(#f1eg2ypyn29j04)" height="48" id="StatsAllFreelancersUI" style="stroke: #A80036; stroke-width: 1.5;" width="165" x="22" y="258"/><ellipse cx="37" cy="274" fill="#ADD1B2" rx="11" ry="11" style="stroke: #A80036; stroke-width: 1.0;"/><path d="M39.9688,279.6406 Q39.3906,279.9375 38.75,280.0859 Q38.1094,280.2344 37.4063,280.2344 Q34.9063,280.2344 33.5859,278.5859 Q32.2656,276.9375 32.2656,273.8125 Q32.2656,270.6875 33.5859,269.0313 Q34.9063,267.375 37.4063,267.375 Q38.1094,267.375 38.7578,267.5313 Q39.4063,267.6875 39.9688,267.9844 L39.9688,270.7031 Q39.3438,270.125 38.75,269.8516 Q38.1563,269.5781 37.5313,269.5781 Q36.1875,269.5781 35.5,270.6484 Q34.8125,271.7188 34.8125,273.8125 Q34.8125,275.9063 35.5,276.9766 Q36.1875,278.0469 37.5313,278.0469 Q38.1563,278.0469 38.75,277.7734 Q39.3438,277.5 39.9688,276.9219 L39.9688,279.6406 Z "/><text fill="#000000" font-family="sans-serif" font-size="12" lengthAdjust="spacingAndGlyphs" textLength="133" x="51" y="278.1543">StatsAllFreelancersUI</text><line style="stroke: #A80036; stroke-width: 1.5;" x1="23" x2="186" y1="290" y2="290"/><line style="stroke: #A80036; stroke-width: 1.5;" x1="23" x2="186" y1="298" y2="298"/><!--MD5=[f42499a5cf5d0febde14e862d7ee20aa]
class StatsAllFreelancersController--><rect fill="#FEFECE" filter="url(#f1eg2ypyn29j04)" height="240.0703" id="StatsAllFreelancersController" style="stroke: #A80036; stroke-width: 1.5;" width="214" x="248" y="162"/><ellipse cx="263" cy="178" fill="#ADD1B2" rx="11" ry="11" style="stroke: #A80036; stroke-width: 1.0;"/><path d="M265.9688,183.6406 Q265.3906,183.9375 264.75,184.0859 Q264.1094,184.2344 263.4063,184.2344 Q260.9063,184.2344 259.5859,182.5859 Q258.2656,180.9375 258.2656,177.8125 Q258.2656,174.6875 259.5859,173.0313 Q260.9063,171.375 263.4063,171.375 Q264.1094,171.375 264.7578,171.5313 Q265.4063,171.6875 265.9688,171.9844 L265.9688,174.7031 Q265.3438,174.125 264.75,173.8516 Q264.1563,173.5781 263.5313,173.5781 Q262.1875,173.5781 261.5,174.6484 Q260.8125,175.7188 260.8125,177.8125 Q260.8125,179.9063 261.5,180.9766 Q262.1875,182.0469 263.5313,182.0469 Q264.1563,182.0469 264.75,181.7734 Q265.3438,181.5 265.9688,180.9219 L265.9688,183.6406 Z "/><text fill="#000000" font-family="sans-serif" font-size="12" lengthAdjust="spacingAndGlyphs" textLength="182" x="277" y="182.1543">StatsAllFreelancersController</text><line style="stroke: #A80036; stroke-width: 1.5;" x1="249" x2="461" y1="194" y2="194"/><line style="stroke: #A80036; stroke-width: 1.5;" x1="249" x2="461" y1="202" y2="202"/><text fill="#000000" font-family="sans-serif" font-size="11" lengthAdjust="spacingAndGlyphs" textLength="103" x="254" y="216.2104">+getMeanDelays()</text><text fill="#000000" font-family="sans-serif" font-size="11" lengthAdjust="spacingAndGlyphs" textLength="125" x="254" y="229.0151">+getDeviationDelays()</text><text fill="#000000" font-family="sans-serif" font-size="11" lengthAdjust="spacingAndGlyphs" textLength="158" x="254" y="241.8198">+getHistogramDataDelays()</text><text fill="#000000" font-family="sans-serif" font-size="11" lengthAdjust="spacingAndGlyphs" textLength="92" x="254" y="254.6245">+getMeanPays()</text><text fill="#000000" font-family="sans-serif" font-size="11" lengthAdjust="spacingAndGlyphs" textLength="114" x="254" y="267.4292">+getDeviationPays()</text><text fill="#000000" font-family="sans-serif" font-size="11" lengthAdjust="spacingAndGlyphs" textLength="147" x="254" y="280.2339">+getHistogramDataPays()</text><text fill="#000000" font-family="sans-serif" font-size="11" lengthAdjust="spacingAndGlyphs" textLength="94" x="254" y="293.0386">+getProbability()</text><text fill="#000000" font-family="sans-serif" font-size="11" lengthAdjust="spacingAndGlyphs" textLength="122" x="254" y="305.8433">+getListFreelancers()</text><text fill="#000000" font-family="sans-serif" font-size="11" lengthAdjust="spacingAndGlyphs" textLength="125" x="254" y="318.6479">+getFreelancer(index)</text><text fill="#000000" font-family="sans-serif" font-size="11" lengthAdjust="spacingAndGlyphs" textLength="142" x="254" y="331.4526">+getMeanDelaysOfFrl(frl)</text><text fill="#000000" font-family="sans-serif" font-size="11" lengthAdjust="spacingAndGlyphs" textLength="164" x="254" y="344.2573">+getDeviationDelaysOfFrl(frl)</text><text fill="#000000" font-family="sans-serif" font-size="11" lengthAdjust="spacingAndGlyphs" textLength="197" x="254" y="357.062">+getHistogramDataDelaysOfFrl(frl)</text><text fill="#000000" font-family="sans-serif" font-size="11" lengthAdjust="spacingAndGlyphs" textLength="131" x="254" y="369.8667">+getMeanPaysOfFrl(frl)</text><text fill="#000000" font-family="sans-serif" font-size="11" lengthAdjust="spacingAndGlyphs" textLength="153" x="254" y="382.6714">+getDeviationPaysOfFrl(frl)</text><text fill="#000000" font-family="sans-serif" font-size="11" lengthAdjust="spacingAndGlyphs" textLength="186" x="254" y="395.4761">+getHistogramDataPaysOfFrl(frl)</text><!--MD5=[99b8db98afdc2c8404e39242ef4c1e65]
class Platform--><rect fill="#FEFECE" filter="url(#f1eg2ypyn29j04)" height="73.6094" id="Platform" style="stroke: #A80036; stroke-width: 1.5;" width="167" x="523" y="155"/><ellipse cx="576.25" cy="171" fill="#ADD1B2" rx="11" ry="11" style="stroke: #A80036; stroke-width: 1.0;"/><path d="M579.2188,176.6406 Q578.6406,176.9375 578,177.0859 Q577.3594,177.2344 576.6563,177.2344 Q574.1563,177.2344 572.8359,175.5859 Q571.5156,173.9375 571.5156,170.8125 Q571.5156,167.6875 572.8359,166.0313 Q574.1563,164.375 576.6563,164.375 Q577.3594,164.375 578.0078,164.5313 Q578.6563,164.6875 579.2188,164.9844 L579.2188,167.7031 Q578.5938,167.125 578,166.8516 Q577.4063,166.5781 576.7813,166.5781 Q575.4375,166.5781 574.75,167.6484 Q574.0625,168.7188 574.0625,170.8125 Q574.0625,172.9063 574.75,173.9766 Q575.4375,175.0469 576.7813,175.0469 Q577.4063,175.0469 578,174.7734 Q578.5938,174.5 579.2188,173.9219 L579.2188,176.6406 Z "/><text fill="#000000" font-family="sans-serif" font-size="12" lengthAdjust="spacingAndGlyphs" textLength="52" x="596.75" y="175.1543">Platform</text><line style="stroke: #A80036; stroke-width: 1.5;" x1="524" x2="689" y1="187" y2="187"/><line style="stroke: #A80036; stroke-width: 1.5;" x1="524" x2="689" y1="195" y2="195"/><text fill="#000000" font-family="sans-serif" font-size="11" lengthAdjust="spacingAndGlyphs" textLength="155" x="529" y="209.2104">+getRegistryTransactions()</text><text fill="#000000" font-family="sans-serif" font-size="11" lengthAdjust="spacingAndGlyphs" textLength="148" x="529" y="222.0151">+getRegistryFreelancers()</text><!--MD5=[4555bb1b0911a5adf28ce6dbe60fed2e]
class Transaction--><rect fill="#FEFECE" filter="url(#f1eg2ypyn29j04)" height="99.2188" id="Transaction" style="stroke: #A80036; stroke-width: 1.5;" width="144" x="1259" y="236.5"/><ellipse cx="1291.1" cy="252.5" fill="#ADD1B2" rx="11" ry="11" style="stroke: #A80036; stroke-width: 1.0;"/><path d="M1294.0688,258.1406 Q1293.4906,258.4375 1292.85,258.5859 Q1292.2094,258.7344 1291.5063,258.7344 Q1289.0063,258.7344 1287.6859,257.0859 Q1286.3656,255.4375 1286.3656,252.3125 Q1286.3656,249.1875 1287.6859,247.5313 Q1289.0063,245.875 1291.5063,245.875 Q1292.2094,245.875 1292.8578,246.0313 Q1293.5063,246.1875 1294.0688,246.4844 L1294.0688,249.2031 Q1293.4438,248.625 1292.85,248.3516 Q1292.2563,248.0781 1291.6313,248.0781 Q1290.2875,248.0781 1289.6,249.1484 Q1288.9125,250.2188 1288.9125,252.3125 Q1288.9125,254.4063 1289.6,255.4766 Q1290.2875,256.5469 1291.6313,256.5469 Q1292.2563,256.5469 1292.85,256.2734 Q1293.4438,256 1294.0688,255.4219 L1294.0688,258.1406 Z "/><text fill="#000000" font-family="sans-serif" font-size="12" lengthAdjust="spacingAndGlyphs" textLength="74" x="1308.9" y="256.6543">Transaction</text><line style="stroke: #A80036; stroke-width: 1.5;" x1="1260" x2="1402" y1="268.5" y2="268.5"/><text fill="#000000" font-family="sans-serif" font-size="11" lengthAdjust="spacingAndGlyphs" textLength="81" x="1265" y="282.7104">-Date endDate</text><text fill="#000000" font-family="sans-serif" font-size="11" lengthAdjust="spacingAndGlyphs" textLength="52" x="1265" y="295.5151">-int delay</text><text fill="#000000" font-family="sans-serif" font-size="11" lengthAdjust="spacingAndGlyphs" textLength="132" x="1265" y="308.3198">-String descriptionWork</text><text fill="#000000" font-family="sans-serif" font-size="11" lengthAdjust="spacingAndGlyphs" textLength="77" x="1265" y="321.1245">-boolean paid</text><line style="stroke: #A80036; stroke-width: 1.5;" x1="1260" x2="1402" y1="327.7188" y2="327.7188"/><!--MD5=[1f687b5315377fe49fca59b457947463]
class Freelancer--><rect fill="#FEFECE" filter="url(#f1eg2ypyn29j04)" height="150.4375" id="Freelancer" style="stroke: #A80036; stroke-width: 1.5;" width="184" x="1239" y="43"/><ellipse cx="1293.25" cy="59" fill="#ADD1B2" rx="11" ry="11" style="stroke: #A80036; stroke-width: 1.0;"/><path d="M1296.2188,64.6406 Q1295.6406,64.9375 1295,65.0859 Q1294.3594,65.2344 1293.6563,65.2344 Q1291.1563,65.2344 1289.8359,63.5859 Q1288.5156,61.9375 1288.5156,58.8125 Q1288.5156,55.6875 1289.8359,54.0313 Q1291.1563,52.375 1293.6563,52.375 Q1294.3594,52.375 1295.0078,52.5313 Q1295.6563,52.6875 1296.2188,52.9844 L1296.2188,55.7031 Q1295.5938,55.125 1295,54.8516 Q1294.4063,54.5781 1293.7813,54.5781 Q1292.4375,54.5781 1291.75,55.6484 Q1291.0625,56.7188 1291.0625,58.8125 Q1291.0625,60.9063 1291.75,61.9766 Q1292.4375,63.0469 1293.7813,63.0469 Q1294.4063,63.0469 1295,62.7734 Q1295.5938,62.5 1296.2188,61.9219 L1296.2188,64.6406 Z "/><text fill="#000000" font-family="sans-serif" font-size="12" lengthAdjust="spacingAndGlyphs" textLength="67" x="1313.75" y="63.1543">Freelancer</text><line style="stroke: #A80036; stroke-width: 1.5;" x1="1240" x2="1422" y1="75" y2="75"/><text fill="#000000" font-family="sans-serif" font-size="11" lengthAdjust="spacingAndGlyphs" textLength="112" x="1245" y="89.2104">-String idFreelancer</text><text fill="#000000" font-family="sans-serif" font-size="11" lengthAdjust="spacingAndGlyphs" textLength="133" x="1245" y="102.0151">-String freelancerName</text><text fill="#000000" font-family="sans-serif" font-size="11" lengthAdjust="spacingAndGlyphs" textLength="153" x="1245" y="114.8198">-String freelancerExpertise</text><text fill="#000000" font-family="sans-serif" font-size="11" lengthAdjust="spacingAndGlyphs" textLength="131" x="1245" y="127.6245">-String freelancerEmail</text><text fill="#000000" font-family="sans-serif" font-size="11" lengthAdjust="spacingAndGlyphs" textLength="117" x="1245" y="140.4292">-String freelancerNIF</text><text fill="#000000" font-family="sans-serif" font-size="11" lengthAdjust="spacingAndGlyphs" textLength="172" x="1245" y="153.2339">-String freelancerBankAccount</text><text fill="#000000" font-family="sans-serif" font-size="11" lengthAdjust="spacingAndGlyphs" textLength="147" x="1245" y="166.0386">-String freelancerAddress</text><text fill="#000000" font-family="sans-serif" font-size="11" lengthAdjust="spacingAndGlyphs" textLength="144" x="1245" y="178.8433">-String freelancerCountry</text><line style="stroke: #A80036; stroke-width: 1.5;" x1="1240" x2="1422" y1="185.4375" y2="185.4375"/><!--MD5=[7745e6addc1e0893542ccabc1596a478]
class RegistryTransactions--><rect fill="#FEFECE" filter="url(#f1eg2ypyn29j04)" height="214.4609" id="RegistryTransactions" style="stroke: #A80036; stroke-width: 1.5;" width="255" x="837" y="179"/><ellipse cx="894.75" cy="195" fill="#ADD1B2" rx="11" ry="11" style="stroke: #A80036; stroke-width: 1.0;"/><path d="M897.7188,200.6406 Q897.1406,200.9375 896.5,201.0859 Q895.8594,201.2344 895.1563,201.2344 Q892.6563,201.2344 891.3359,199.5859 Q890.0156,197.9375 890.0156,194.8125 Q890.0156,191.6875 891.3359,190.0313 Q892.6563,188.375 895.1563,188.375 Q895.8594,188.375 896.5078,188.5313 Q897.1563,188.6875 897.7188,188.9844 L897.7188,191.7031 Q897.0938,191.125 896.5,190.8516 Q895.9063,190.5781 895.2813,190.5781 Q893.9375,190.5781 893.25,191.6484 Q892.5625,192.7188 892.5625,194.8125 Q892.5625,196.9063 893.25,197.9766 Q893.9375,199.0469 895.2813,199.0469 Q895.9063,199.0469 896.5,198.7734 Q897.0938,198.5 897.7188,197.9219 L897.7188,200.6406 Z "/><text fill="#000000" font-family="sans-serif" font-size="12" lengthAdjust="spacingAndGlyphs" textLength="131" x="915.25" y="199.1543">RegistryTransactions</text><line style="stroke: #A80036; stroke-width: 1.5;" x1="838" x2="1091" y1="211" y2="211"/><line style="stroke: #A80036; stroke-width: 1.5;" x1="838" x2="1091" y1="219" y2="219"/><text fill="#000000" font-family="sans-serif" font-size="11" lengthAdjust="spacingAndGlyphs" textLength="103" x="843" y="233.2104">+getMeanDelays()</text><text fill="#000000" font-family="sans-serif" font-size="11" lengthAdjust="spacingAndGlyphs" textLength="125" x="843" y="246.0151">+getDeviationDelays()</text><text fill="#000000" font-family="sans-serif" font-size="11" lengthAdjust="spacingAndGlyphs" textLength="158" x="843" y="258.8198">+getHistogramDataDelays()</text><text fill="#000000" font-family="sans-serif" font-size="11" lengthAdjust="spacingAndGlyphs" textLength="92" x="843" y="271.6245">+getMeanPays()</text><text fill="#000000" font-family="sans-serif" font-size="11" lengthAdjust="spacingAndGlyphs" textLength="114" x="843" y="284.4292">+getDeviationPays()</text><text fill="#000000" font-family="sans-serif" font-size="11" lengthAdjust="spacingAndGlyphs" textLength="147" x="843" y="297.2339">+getHistogramDataPays()</text><text fill="#000000" font-family="sans-serif" font-size="11" lengthAdjust="spacingAndGlyphs" textLength="94" x="843" y="310.0386">+getProbability()</text><text fill="#000000" font-family="sans-serif" font-size="11" lengthAdjust="spacingAndGlyphs" textLength="188" x="843" y="322.8433">+getMeanDelaysOfFreelancer(frl)</text><text fill="#000000" font-family="sans-serif" font-size="11" lengthAdjust="spacingAndGlyphs" textLength="210" x="843" y="335.6479">+getDeviationDelaysOfFreelancer(frl)</text><text fill="#000000" font-family="sans-serif" font-size="11" lengthAdjust="spacingAndGlyphs" textLength="243" x="843" y="348.4526">+getHistogramDataDelaysOfFreelancer(frl)</text><text fill="#000000" font-family="sans-serif" font-size="11" lengthAdjust="spacingAndGlyphs" textLength="177" x="843" y="361.2573">+getMeanPaysOfFreelancer(frl)</text><text fill="#000000" font-family="sans-serif" font-size="11" lengthAdjust="spacingAndGlyphs" textLength="199" x="843" y="374.062">+getDeviationPaysOfFreelancer(frl)</text><text fill="#000000" font-family="sans-serif" font-size="11" lengthAdjust="spacingAndGlyphs" textLength="232" x="843" y="386.8667">+getHistogramDataPaysOfFreelancer(frl)</text><!--MD5=[978a975de38da8c3ea831d1914ac7312]
class RegistryFreelancers--><rect fill="#FEFECE" filter="url(#f1eg2ypyn29j04)" height="73.6094" id="RegistryFreelancers" style="stroke: #A80036; stroke-width: 1.5;" width="181" x="874" y="70"/><ellipse cx="900.25" cy="86" fill="#ADD1B2" rx="11" ry="11" style="stroke: #A80036; stroke-width: 1.0;"/><path d="M903.2188,91.6406 Q902.6406,91.9375 902,92.0859 Q901.3594,92.2344 900.6563,92.2344 Q898.1563,92.2344 896.8359,90.5859 Q895.5156,88.9375 895.5156,85.8125 Q895.5156,82.6875 896.8359,81.0313 Q898.1563,79.375 900.6563,79.375 Q901.3594,79.375 902.0078,79.5313 Q902.6563,79.6875 903.2188,79.9844 L903.2188,82.7031 Q902.5938,82.125 902,81.8516 Q901.4063,81.5781 900.7813,81.5781 Q899.4375,81.5781 898.75,82.6484 Q898.0625,83.7188 898.0625,85.8125 Q898.0625,87.9063 898.75,88.9766 Q899.4375,90.0469 900.7813,90.0469 Q901.4063,90.0469 902,89.7734 Q902.5938,89.5 903.2188,88.9219 L903.2188,91.6406 Z "/><text fill="#000000" font-family="sans-serif" font-size="12" lengthAdjust="spacingAndGlyphs" textLength="124" x="916.75" y="90.1543">RegistryFreelancers</text><line style="stroke: #A80036; stroke-width: 1.5;" x1="875" x2="1054" y1="102" y2="102"/><line style="stroke: #A80036; stroke-width: 1.5;" x1="875" x2="1054" y1="110" y2="110"/><text fill="#000000" font-family="sans-serif" font-size="11" lengthAdjust="spacingAndGlyphs" textLength="122" x="880" y="124.2104">+getListFreelancers()</text><text fill="#000000" font-family="sans-serif" font-size="11" lengthAdjust="spacingAndGlyphs" textLength="169" x="880" y="137.0151">+getFreelancerByIndex(index)</text><!--MD5=[3f6d87b70f3f99dae09acda75e0be413]
link StatsAllFreelancersUI to StatsAllFreelancersController--><path d="M187.2173,282 C204.9331,282 223.9371,282 242.5594,282 " fill="none" id="StatsAllFreelancersUI-&gt;StatsAllFreelancersController" style="stroke: #A80036; stroke-width: 1.0; stroke-dasharray: 7.0,7.0;"/><polygon fill="#A80036" points="247.8003,282,238.8003,278,242.8003,282,238.8003,286,247.8003,282" style="stroke: #A80036; stroke-width: 1.0;"/><!--MD5=[2879dc249e9f623a0570c8ab1a73cf0b]
link StatsAllFreelancersController to Platform--><path d="M462.0233,243.7014 C480.5986,237.0542 499.7315,230.2074 517.7516,223.7589 " fill="none" id="StatsAllFreelancersController-&gt;Platform" style="stroke: #A80036; stroke-width: 1.0; stroke-dasharray: 7.0,7.0;"/><polygon fill="#A80036" points="522.8033,221.9511,512.9818,221.2174,518.0957,223.6358,515.6773,228.7496,522.8033,221.9511" style="stroke: #A80036; stroke-width: 1.0;"/><!--MD5=[ae50356fa9b5278f2c8ca602ac9a2719]
link StatsAllFreelancersController to RegistryTransactions--><path d="M462.0463,304.3019 C472.1364,305.8036 482.2383,307.0819 492,308 C631.3849,321.1093 667.3369,317.7071 807,308 C814.9831,307.4451 823.1775,306.7339 831.4329,305.9088 " fill="none" id="StatsAllFreelancersController-&gt;RegistryTransactions" style="stroke: #A80036; stroke-width: 1.0; stroke-dasharray: 7.0,7.0;"/><polygon fill="#A80036" points="836.5797,305.3808,827.2184,302.3205,831.6058,305.8912,828.0351,310.2787,836.5797,305.3808" style="stroke: #A80036; stroke-width: 1.0;"/><!--MD5=[482e5f4bce1d03bbe6c68ea5fdfdbc4c]
link StatsAllFreelancersController to RegistryFreelancers--><path d="M462.1945,291.1687 C579.2437,298.75 756.7659,302.3443 807,260 C841.4629,230.9498 799.787,195.325 829,161 C839.7837,148.3293 853.9575,138.6055 869.071,131.1506 " fill="none" id="StatsAllFreelancersController-&gt;RegistryFreelancers" style="stroke: #A80036; stroke-width: 1.0; stroke-dasharray: 7.0,7.0;"/><polygon fill="#A80036" points="873.7889,128.9091,863.9432,129.1585,869.2727,131.0548,867.3764,136.3844,873.7889,128.9091" style="stroke: #A80036; stroke-width: 1.0;"/><!--MD5=[f56c104f15763193ce2ef6c69b6eefab]
link Platform to RegistryTransactions--><path d="M690.4351,214.0388 C732.5942,225.1085 784.6647,238.7807 832.0562,251.2242 " fill="none" id="Platform-&gt;RegistryTransactions" style="stroke: #A80036; stroke-width: 1.0;"/><polygon fill="#A80036" points="836.9218,252.5018,829.2328,246.3472,832.0857,251.232,827.201,254.0849,836.9218,252.5018" style="stroke: #A80036; stroke-width: 1.0;"/><text fill="#000000" font-family="sans-serif" font-size="13" lengthAdjust="spacingAndGlyphs" textLength="23" x="752" y="227.0669">has</text><text fill="#000000" font-family="sans-serif" font-size="13" lengthAdjust="spacingAndGlyphs" textLength="8" x="697.992" y="228.6667">1</text><text fill="#000000" font-family="sans-serif" font-size="13" lengthAdjust="spacingAndGlyphs" textLength="8" x="820.9038" y="262.9744">1</text><!--MD5=[94cb6410d42b328ceb5f0256c504c7d6]
link RegistryTransactions to Transaction--><path d="M1092.1694,286 C1145.9864,286 1206.8677,286 1253.6923,286 " fill="none" id="RegistryTransactions-&gt;Transaction" style="stroke: #A80036; stroke-width: 1.0;"/><polygon fill="#A80036" points="1258.7538,286,1249.7538,282,1253.7538,286,1249.7538,290,1258.7538,286" style="stroke: #A80036; stroke-width: 1.0;"/><text fill="#000000" font-family="sans-serif" font-size="13" lengthAdjust="spacingAndGlyphs" textLength="23" x="1154" y="282.0669">has</text><text fill="#000000" font-family="sans-serif" font-size="13" lengthAdjust="spacingAndGlyphs" textLength="8" x="1100.193" y="298.5139">1</text><text fill="#000000" font-family="sans-serif" font-size="13" lengthAdjust="spacingAndGlyphs" textLength="7" x="1243.9425" y="298.8359">*</text><!--MD5=[4f878dd892a20705c739bf9da60c4694]
link Platform to RegistryFreelancers--><path d="M690.4351,172.0713 C743.8985,159.3774 813.3012,142.8991 868.8878,129.7012 " fill="none" id="Platform-&gt;RegistryFreelancers" style="stroke: #A80036; stroke-width: 1.0;"/><polygon fill="#A80036" points="873.8823,128.5154,864.2017,126.7028,869.0176,129.6705,866.0499,134.4864,873.8823,128.5154" style="stroke: #A80036; stroke-width: 1.0;"/><text fill="#000000" font-family="sans-serif" font-size="13" lengthAdjust="spacingAndGlyphs" textLength="23" x="752" y="148.0669">has</text><text fill="#000000" font-family="sans-serif" font-size="13" lengthAdjust="spacingAndGlyphs" textLength="8" x="697.992" y="183.0926">1</text><text fill="#000000" font-family="sans-serif" font-size="13" lengthAdjust="spacingAndGlyphs" textLength="8" x="858.0468" y="143.0068">1</text><!--MD5=[d3b007cf1732ff75c77d91b21620c56e]
link RegistryFreelancers to Freelancer--><path d="M1055.0955,109.7191 C1109.3081,111.3462 1178.2025,113.414 1233.5846,115.0762 " fill="none" id="RegistryFreelancers-&gt;Freelancer" style="stroke: #A80036; stroke-width: 1.0;"/><polygon fill="#A80036" points="1238.901,115.2358,1230.0252,110.9673,1233.9033,115.0857,1229.7849,118.9637,1238.901,115.2358" style="stroke: #A80036; stroke-width: 1.0;"/><text fill="#000000" font-family="sans-serif" font-size="13" lengthAdjust="spacingAndGlyphs" textLength="23" x="1154" y="109.0669">has</text><text fill="#000000" font-family="sans-serif" font-size="13" lengthAdjust="spacingAndGlyphs" textLength="8" x="1062.9292" y="122.6539">1</text><text fill="#000000" font-family="sans-serif" font-size="13" lengthAdjust="spacingAndGlyphs" textLength="7" x="1223.9842" y="127.6823">*</text><!--MD5=[99f9c07bbe0eb7c896cf336442cc7f4c]
@startuml
skinparam classAttributeIconSize 0
left to right direction

package ui {
class StatsAllFreelancersUI {}
}

package controller {
class StatsAllFreelancersController {
  +getMeanDelays()
  +getDeviationDelays()
  +getHistogramDataDelays()
  +getMeanPays()
  +getDeviationPays()
  +getHistogramDataPays()
  +getProbability()
  +getListFreelancers()
  +getFreelancer(index)
  +getMeanDelaysOfFrl(frl)
  +getDeviationDelaysOfFrl(frl)
  +getHistogramDataDelaysOfFrl(frl)
  +getMeanPaysOfFrl(frl)
  +getDeviationPaysOfFrl(frl)
  +getHistogramDataPaysOfFrl(frl)
}
}

package model {
class Platform {
  +getRegistryTransactions()
  +getRegistryFreelancers()
}

package registrys {
class RegistryTransactions {
  +getMeanDelays()
  +getDeviationDelays()
  +getHistogramDataDelays()
  +getMeanPays()
  +getDeviationPays()
  +getHistogramDataPays()
  +getProbability()
  +getMeanDelaysOfFreelancer(frl)
  +getDeviationDelaysOfFreelancer(frl)
  +getHistogramDataDelaysOfFreelancer(frl)
  +getMeanPaysOfFreelancer(frl)
  +getDeviationPaysOfFreelancer(frl)
  +getHistogramDataPaysOfFreelancer(frl)
}
class RegistryFreelancers {
  +getListFreelancers()
  +getFreelancerByIndex(index)
}
}
 
class Transaction {
  -Date endDate
  -int delay
  -String descriptionWork
  -boolean paid
}

class Freelancer {
  -String idFreelancer
  -String freelancerName
  -String freelancerExpertise
  -String freelancerEmail
  -String freelancerNIF
  -String freelancerBankAccount
  -String freelancerAddress
  -String freelancerCountry
}
}

StatsAllFreelancersUI ..> StatsAllFreelancersController
StatsAllFreelancersController ..> Platform
StatsAllFreelancersController ..> RegistryTransactions
StatsAllFreelancersController ..> RegistryFreelancers
Platform "1" - -> "1" RegistryTransactions: has
RegistryTransactions "1" - -> "*" Transaction: has
Platform "1" - -> "1" RegistryFreelancers: has
RegistryFreelancers "1" - -> "*" Freelancer: has
@enduml

PlantUML version 1.2019.12(Sun Nov 03 10:24:54 UTC 2019)
(GPL source distribution)
Java Runtime: OpenJDK Runtime Environment
JVM: OpenJDK 64-Bit Server VM
Java Version: 1.8.0_232-heroku-b09
Operating System: Linux
Default Encoding: UTF-8
Language: en
Country: US
--></g></svg>