<?xml version="1.0" encoding="UTF-8" standalone="no"?><svg xmlns="http://www.w3.org/2000/svg" xmlns:xlink="http://www.w3.org/1999/xlink" contentScriptType="application/ecmascript" contentStyleType="text/css" height="267px" preserveAspectRatio="none" style="width:861px;height:267px;" version="1.1" viewBox="0 0 861 267" width="861px" zoomAndPan="magnify"><defs><filter height="300%" id="fsfuc893tpn2n" width="300%" x="-1" y="-1"><feGaussianBlur result="blurOut" stdDeviation="2.0"/><feColorMatrix in="blurOut" result="blurOut2" type="matrix" values="0 0 0 0 0 0 0 0 0 0 0 0 0 0 0 0 0 0 .4 0"/><feOffset dx="4.0" dy="4.0" in="blurOut2" result="blurOut3"/><feBlend in="SourceGraphic" in2="blurOut3" mode="normal"/></filter></defs><g><!--MD5=[99b8db98afdc2c8404e39242ef4c1e65]
class Platform--><rect fill="#FEFECE" filter="url(#fsfuc893tpn2n)" height="40" id="Platform" style="stroke: #A80036; stroke-width: 1.5;" width="78" x="6" y="166"/><ellipse cx="21" cy="182" fill="#ADD1B2" rx="11" ry="11" style="stroke: #A80036; stroke-width: 1.0;"/><path d="M23,178.5 Q23.2031,178 23.4375,177.75 Q23.6719,177.5 23.9375,177.5 Q24.4063,177.5 24.7031,177.7813 Q25,178.0625 25,178.7188 L25,180.2813 Q25,180.9375 24.7188,181.2188 Q24.4375,181.5 24,181.5 Q23.6094,181.5 23.3594,181.3281 Q23.1094,181.1563 23,180.7031 Q22.9531,180.3906 22.7813,180.2188 Q22.4688,179.8906 21.9063,179.7031 Q21.3438,179.5 20.7813,179.5 Q20.0781,179.5 19.4844,179.7813 Q18.9063,180.0625 18.4531,180.6875 Q18,181.3125 18,182.1719 L18,183.0938 Q18,184.125 18.8438,184.8125 Q19.6875,185.5 21.1875,185.5 Q22.0781,185.5 22.7031,185.2969 Q23.0625,185.1875 23.4688,184.8281 Q23.7344,184.625 23.875,184.5625 Q24.0156,184.5 24.1875,184.5 Q24.5156,184.5 24.75,184.7656 Q25,185.0156 25,185.375 Q25,185.7188 24.6563,186.125 Q24.1563,186.7188 23.3594,187.0469 Q22.3125,187.5 21.0313,187.5 Q19.5313,187.5 18.3281,186.9063 Q17.3594,186.4375 16.6719,185.4219 Q16,184.4063 16,183.2031 L16,182.1094 Q16,180.8594 16.5938,179.7656 Q17.2031,178.6719 18.25,178.0938 Q19.3125,177.5 20.5,177.5 Q21.2188,177.5 21.8438,177.75 Q22.4688,178 23,178.5 Z "/><text fill="#000000" font-family="sans-serif" font-size="12" lengthAdjust="spacingAndGlyphs" textLength="46" x="35" y="186.9102">Platform</text><line style="stroke: #A80036; stroke-width: 1.5;" x1="7" x2="83" y1="198" y2="198"/><!--MD5=[86c7c362de55a38b660185a1328fe18d]
class Organization--><rect fill="#FEFECE" filter="url(#fsfuc893tpn2n)" height="95.3438" id="Organization" style="stroke: #A80036; stroke-width: 1.5;" width="112" x="207" y="70.5"/><ellipse cx="226.95" cy="86.5" fill="#ADD1B2" rx="11" ry="11" style="stroke: #A80036; stroke-width: 1.0;"/><path d="M228.95,83 Q229.1531,82.5 229.3875,82.25 Q229.6219,82 229.8875,82 Q230.3563,82 230.6531,82.2813 Q230.95,82.5625 230.95,83.2188 L230.95,84.7813 Q230.95,85.4375 230.6688,85.7188 Q230.3875,86 229.95,86 Q229.5594,86 229.3094,85.8281 Q229.0594,85.6563 228.95,85.2031 Q228.9031,84.8906 228.7313,84.7188 Q228.4188,84.3906 227.8563,84.2031 Q227.2938,84 226.7313,84 Q226.0281,84 225.4344,84.2813 Q224.8563,84.5625 224.4031,85.1875 Q223.95,85.8125 223.95,86.6719 L223.95,87.5938 Q223.95,88.625 224.7938,89.3125 Q225.6375,90 227.1375,90 Q228.0281,90 228.6531,89.7969 Q229.0125,89.6875 229.4188,89.3281 Q229.6844,89.125 229.825,89.0625 Q229.9656,89 230.1375,89 Q230.4656,89 230.7,89.2656 Q230.95,89.5156 230.95,89.875 Q230.95,90.2188 230.6063,90.625 Q230.1063,91.2188 229.3094,91.5469 Q228.2625,92 226.9813,92 Q225.4813,92 224.2781,91.4063 Q223.3094,90.9375 222.6219,89.9219 Q221.95,88.9063 221.95,87.7031 L221.95,86.6094 Q221.95,85.3594 222.5438,84.2656 Q223.1531,83.1719 224.2,82.5938 Q225.2625,82 226.45,82 Q227.1688,82 227.7938,82.25 Q228.4188,82.5 228.95,83 Z "/><text fill="#000000" font-family="sans-serif" font-size="12" lengthAdjust="spacingAndGlyphs" textLength="69" x="242.05" y="91.4102">Organization</text><line style="stroke: #A80036; stroke-width: 1.5;" x1="208" x2="318" y1="102.5" y2="102.5"/><text fill="#000000" font-family="sans-serif" font-size="11" lengthAdjust="spacingAndGlyphs" textLength="78" x="213" y="117.9189">-String orgName</text><text fill="#000000" font-family="sans-serif" font-size="11" lengthAdjust="spacingAndGlyphs" textLength="47" x="213" y="131.7549">-String nif</text><text fill="#000000" font-family="sans-serif" font-size="11" lengthAdjust="spacingAndGlyphs" textLength="100" x="213" y="145.5908">-Integer paymentDay</text><text fill="#000000" font-family="sans-serif" font-size="11" lengthAdjust="spacingAndGlyphs" textLength="92" x="213" y="159.4268">-Time paymentTime</text><!--MD5=[f483d6e5de34a60207b28a5563be5e8b]
class Collaborator--><rect fill="#FEFECE" filter="url(#fsfuc893tpn2n)" height="67.6719" id="Collaborator" style="stroke: #A80036; stroke-width: 1.5;" width="102" x="533" y="12"/><ellipse cx="548.9" cy="28" fill="#ADD1B2" rx="11" ry="11" style="stroke: #A80036; stroke-width: 1.0;"/><path d="M550.9,24.5 Q551.1031,24 551.3375,23.75 Q551.5719,23.5 551.8375,23.5 Q552.3063,23.5 552.6031,23.7813 Q552.9,24.0625 552.9,24.7188 L552.9,26.2813 Q552.9,26.9375 552.6188,27.2188 Q552.3375,27.5 551.9,27.5 Q551.5094,27.5 551.2594,27.3281 Q551.0094,27.1563 550.9,26.7031 Q550.8531,26.3906 550.6813,26.2188 Q550.3688,25.8906 549.8063,25.7031 Q549.2438,25.5 548.6813,25.5 Q547.9781,25.5 547.3844,25.7813 Q546.8063,26.0625 546.3531,26.6875 Q545.9,27.3125 545.9,28.1719 L545.9,29.0938 Q545.9,30.125 546.7438,30.8125 Q547.5875,31.5 549.0875,31.5 Q549.9781,31.5 550.6031,31.2969 Q550.9625,31.1875 551.3688,30.8281 Q551.6344,30.625 551.775,30.5625 Q551.9156,30.5 552.0875,30.5 Q552.4156,30.5 552.65,30.7656 Q552.9,31.0156 552.9,31.375 Q552.9,31.7188 552.5563,32.125 Q552.0563,32.7188 551.2594,33.0469 Q550.2125,33.5 548.9313,33.5 Q547.4313,33.5 546.2281,32.9063 Q545.2594,32.4375 544.5719,31.4219 Q543.9,30.4063 543.9,29.2031 L543.9,28.1094 Q543.9,26.8594 544.4938,25.7656 Q545.1031,24.6719 546.15,24.0938 Q547.2125,23.5 548.4,23.5 Q549.1188,23.5 549.7438,23.75 Q550.3688,24 550.9,24.5 Z "/><text fill="#000000" font-family="sans-serif" font-size="12" lengthAdjust="spacingAndGlyphs" textLength="68" x="563.1" y="32.9102">Collaborator</text><line style="stroke: #A80036; stroke-width: 1.5;" x1="534" x2="634" y1="44" y2="44"/><text fill="#000000" font-family="sans-serif" font-size="11" lengthAdjust="spacingAndGlyphs" textLength="90" x="539" y="59.4189">-String nameCollab</text><text fill="#000000" font-family="sans-serif" font-size="11" lengthAdjust="spacingAndGlyphs" textLength="88" x="539" y="73.2549">-String emailCollab</text><!--MD5=[3fd616f346a44cd59a91eb10b19e157c]
class User--><rect fill="#FEFECE" filter="url(#fsfuc893tpn2n)" height="81.5078" id="User" style="stroke: #A80036; stroke-width: 1.5;" width="119" x="731" y="108"/><ellipse cx="773" cy="124" fill="#ADD1B2" rx="11" ry="11" style="stroke: #A80036; stroke-width: 1.0;"/><path d="M775,120.5 Q775.2031,120 775.4375,119.75 Q775.6719,119.5 775.9375,119.5 Q776.4063,119.5 776.7031,119.7813 Q777,120.0625 777,120.7188 L777,122.2813 Q777,122.9375 776.7188,123.2188 Q776.4375,123.5 776,123.5 Q775.6094,123.5 775.3594,123.3281 Q775.1094,123.1563 775,122.7031 Q774.9531,122.3906 774.7813,122.2188 Q774.4688,121.8906 773.9063,121.7031 Q773.3438,121.5 772.7813,121.5 Q772.0781,121.5 771.4844,121.7813 Q770.9063,122.0625 770.4531,122.6875 Q770,123.3125 770,124.1719 L770,125.0938 Q770,126.125 770.8438,126.8125 Q771.6875,127.5 773.1875,127.5 Q774.0781,127.5 774.7031,127.2969 Q775.0625,127.1875 775.4688,126.8281 Q775.7344,126.625 775.875,126.5625 Q776.0156,126.5 776.1875,126.5 Q776.5156,126.5 776.75,126.7656 Q777,127.0156 777,127.375 Q777,127.7188 776.6563,128.125 Q776.1563,128.7188 775.3594,129.0469 Q774.3125,129.5 773.0313,129.5 Q771.5313,129.5 770.3281,128.9063 Q769.3594,128.4375 768.6719,127.4219 Q768,126.4063 768,125.2031 L768,124.1094 Q768,122.8594 768.5938,121.7656 Q769.2031,120.6719 770.25,120.0938 Q771.3125,119.5 772.5,119.5 Q773.2188,119.5 773.8438,119.75 Q774.4688,120 775,120.5 Z "/><text fill="#000000" font-family="sans-serif" font-size="12" lengthAdjust="spacingAndGlyphs" textLength="27" x="793" y="128.9102">User</text><line style="stroke: #A80036; stroke-width: 1.5;" x1="732" x2="849" y1="140" y2="140"/><text fill="#000000" font-family="sans-serif" font-size="11" lengthAdjust="spacingAndGlyphs" textLength="84" x="737" y="155.4189">-String userName</text><text fill="#000000" font-family="sans-serif" font-size="11" lengthAdjust="spacingAndGlyphs" textLength="81" x="737" y="169.2549">-String userEmail</text><text fill="#000000" font-family="sans-serif" font-size="11" lengthAdjust="spacingAndGlyphs" textLength="107" x="737" y="183.0908">-String userPassword</text><!--MD5=[9a2889027d1a5f59ee05c53124f224f8]
class PasswordGenerator--><rect fill="#FEFECE" filter="url(#fsfuc893tpn2n)" height="40" id="PasswordGenerator" style="stroke: #A80036; stroke-width: 1.5;" width="143" x="349" y="216"/><ellipse cx="364" cy="232" fill="#ADD1B2" rx="11" ry="11" style="stroke: #A80036; stroke-width: 1.0;"/><path d="M366,228.5 Q366.2031,228 366.4375,227.75 Q366.6719,227.5 366.9375,227.5 Q367.4063,227.5 367.7031,227.7813 Q368,228.0625 368,228.7188 L368,230.2813 Q368,230.9375 367.7188,231.2188 Q367.4375,231.5 367,231.5 Q366.6094,231.5 366.3594,231.3281 Q366.1094,231.1563 366,230.7031 Q365.9531,230.3906 365.7813,230.2188 Q365.4688,229.8906 364.9063,229.7031 Q364.3438,229.5 363.7813,229.5 Q363.0781,229.5 362.4844,229.7813 Q361.9063,230.0625 361.4531,230.6875 Q361,231.3125 361,232.1719 L361,233.0938 Q361,234.125 361.8438,234.8125 Q362.6875,235.5 364.1875,235.5 Q365.0781,235.5 365.7031,235.2969 Q366.0625,235.1875 366.4688,234.8281 Q366.7344,234.625 366.875,234.5625 Q367.0156,234.5 367.1875,234.5 Q367.5156,234.5 367.75,234.7656 Q368,235.0156 368,235.375 Q368,235.7188 367.6563,236.125 Q367.1563,236.7188 366.3594,237.0469 Q365.3125,237.5 364.0313,237.5 Q362.5313,237.5 361.3281,236.9063 Q360.3594,236.4375 359.6719,235.4219 Q359,234.4063 359,233.2031 L359,232.1094 Q359,230.8594 359.5938,229.7656 Q360.2031,228.6719 361.25,228.0938 Q362.3125,227.5 363.5,227.5 Q364.2188,227.5 364.8438,227.75 Q365.4688,228 366,228.5 Z "/><text fill="#000000" font-family="sans-serif" font-size="12" lengthAdjust="spacingAndGlyphs" textLength="111" x="378" y="236.9102">PasswordGenerator</text><line style="stroke: #A80036; stroke-width: 1.5;" x1="350" x2="491" y1="248" y2="248"/><!--MD5=[b24ed8d4ae84bae9290d9aab401637c7]
class Manager--><rect fill="#FEFECE" filter="url(#fsfuc893tpn2n)" height="67.6719" id="Manager" style="stroke: #A80036; stroke-width: 1.5;" width="93" x="537.5" y="115"/><ellipse cx="558.35" cy="131" fill="#ADD1B2" rx="11" ry="11" style="stroke: #A80036; stroke-width: 1.0;"/><path d="M560.35,127.5 Q560.5531,127 560.7875,126.75 Q561.0219,126.5 561.2875,126.5 Q561.7563,126.5 562.0531,126.7813 Q562.35,127.0625 562.35,127.7188 L562.35,129.2813 Q562.35,129.9375 562.0688,130.2188 Q561.7875,130.5 561.35,130.5 Q560.9594,130.5 560.7094,130.3281 Q560.4594,130.1563 560.35,129.7031 Q560.3031,129.3906 560.1313,129.2188 Q559.8188,128.8906 559.2563,128.7031 Q558.6938,128.5 558.1313,128.5 Q557.4281,128.5 556.8344,128.7813 Q556.2563,129.0625 555.8031,129.6875 Q555.35,130.3125 555.35,131.1719 L555.35,132.0938 Q555.35,133.125 556.1938,133.8125 Q557.0375,134.5 558.5375,134.5 Q559.4281,134.5 560.0531,134.2969 Q560.4125,134.1875 560.8188,133.8281 Q561.0844,133.625 561.225,133.5625 Q561.3656,133.5 561.5375,133.5 Q561.8656,133.5 562.1,133.7656 Q562.35,134.0156 562.35,134.375 Q562.35,134.7188 562.0063,135.125 Q561.5063,135.7188 560.7094,136.0469 Q559.6625,136.5 558.3813,136.5 Q556.8813,136.5 555.6781,135.9063 Q554.7094,135.4375 554.0219,134.4219 Q553.35,133.4063 553.35,132.2031 L553.35,131.1094 Q553.35,129.8594 553.9438,128.7656 Q554.5531,127.6719 555.6,127.0938 Q556.6625,126.5 557.85,126.5 Q558.5688,126.5 559.1938,126.75 Q559.8188,127 560.35,127.5 Z "/><text fill="#000000" font-family="sans-serif" font-size="12" lengthAdjust="spacingAndGlyphs" textLength="48" x="573.65" y="135.9102">Manager</text><line style="stroke: #A80036; stroke-width: 1.5;" x1="538.5" x2="629.5" y1="147" y2="147"/><text fill="#000000" font-family="sans-serif" font-size="11" lengthAdjust="spacingAndGlyphs" textLength="81" x="543.5" y="162.4189">-String nameMan</text><text fill="#000000" font-family="sans-serif" font-size="11" lengthAdjust="spacingAndGlyphs" textLength="79" x="543.5" y="176.2549">-String emailMan</text><!--MD5=[7640e466c042ba2d6f9c19c816f7f0fc]
link Platform to Organization--><path d="M84.1193,173.9995 C116.689,163.7459 164.119,148.814 201.813,136.948 " fill="none" id="Platform-&gt;Organization" style="stroke: #A80036; stroke-width: 1.0;"/><polygon fill="#A80036" points="206.829,135.369,197.0432,134.2566,202.0598,136.8706,199.4458,141.8873,206.829,135.369" style="stroke: #A80036; stroke-width: 1.0;"/><text fill="#000000" font-family="sans-serif" font-size="13" lengthAdjust="spacingAndGlyphs" textLength="21" x="128.5" y="141.4951">has</text><polygon fill="#000000" points="152.5,134.6758,158.5,137.6758,152.5,140.6758,152.5,134.6758" style="stroke: #000000; stroke-width: 1.0;"/><text fill="#000000" font-family="sans-serif" font-size="13" lengthAdjust="spacingAndGlyphs" textLength="7" x="91.9772" y="186.7894">1</text><text fill="#000000" font-family="sans-serif" font-size="13" lengthAdjust="spacingAndGlyphs" textLength="5" x="193.9451" y="152.2736">*</text><!--MD5=[a93f0abdb22d11e7007997ee71e618df]
link Platform to PasswordGenerator--><path d="M84.2158,191.1159 C145.071,199.2625 265.144,215.3365 343.85,225.8729 " fill="none" id="Platform-&gt;PasswordGenerator" style="stroke: #A80036; stroke-width: 1.0;"/><polygon fill="#A80036" points="348.974,226.5587,340.5837,221.4008,344.0181,225.8958,339.5231,229.3302,348.974,226.5587" style="stroke: #A80036; stroke-width: 1.0;"/><text fill="#000000" font-family="sans-serif" font-size="13" lengthAdjust="spacingAndGlyphs" textLength="48" x="115" y="191.4951">resort to</text><polygon fill="#000000" points="166,184.6758,172,187.6758,166,190.6758,166,184.6758" style="stroke: #000000; stroke-width: 1.0;"/><text fill="#000000" font-family="sans-serif" font-size="13" lengthAdjust="spacingAndGlyphs" textLength="7" x="92.0915" y="207.0617">1</text><text fill="#000000" font-family="sans-serif" font-size="13" lengthAdjust="spacingAndGlyphs" textLength="7" x="333.768" y="239.9154">1</text><!--MD5=[45817597bcd7048073a670d966abfd17]
link Organization to Collaborator--><path d="M304.651,70.185 C317.498,58.373 332.651,47.304 349,41 C406.914,18.669 479.029,24.767 527.777,33.319 " fill="none" id="Organization-&gt;Collaborator" style="stroke: #A80036; stroke-width: 1.0;"/><polygon fill="#A80036" points="532.715,34.208,524.5658,28.6771,527.7941,33.3224,523.1488,36.5506,532.715,34.208" style="stroke: #A80036; stroke-width: 1.0;"/><text fill="#000000" font-family="sans-serif" font-size="13" lengthAdjust="spacingAndGlyphs" textLength="21" x="403.5" y="22.4951">has</text><polygon fill="#000000" points="427.5,15.6758,433.5,18.6758,427.5,21.6758,427.5,15.6758" style="stroke: #000000; stroke-width: 1.0;"/><text fill="#000000" font-family="sans-serif" font-size="13" lengthAdjust="spacingAndGlyphs" textLength="7" x="303.2544" y="59.4829">1</text><text fill="#000000" font-family="sans-serif" font-size="13" lengthAdjust="spacingAndGlyphs" textLength="7" x="518.0109" y="47.2177">1</text><!--MD5=[4e1e6a824b75a9169b4f8be654b0a272]
link Collaborator to Organization--><path d="M532.949,57.614 C519.644,60.684 505.281,63.982 492,67 C435.138,79.921 370.237,94.413 324.259,104.637 " fill="none" id="Collaborator-&gt;Organization" style="stroke: #A80036; stroke-width: 1.0;"/><polygon fill="#A80036" points="319.31,105.737,328.9639,107.687,324.1907,104.6511,327.2265,99.8779,319.31,105.737" style="stroke: #A80036; stroke-width: 1.0;"/><polygon fill="#000000" points="395,56.6758,389,59.6758,395,62.6758,395,56.6758" style="stroke: #000000; stroke-width: 1.0;"/><text fill="#000000" font-family="sans-serif" font-size="13" lengthAdjust="spacingAndGlyphs" textLength="52" x="401" y="63.4951">works for</text><text fill="#000000" font-family="sans-serif" font-size="13" lengthAdjust="spacingAndGlyphs" textLength="7" x="517.9368" y="74.0398">1</text><text fill="#000000" font-family="sans-serif" font-size="13" lengthAdjust="spacingAndGlyphs" textLength="7" x="326.9732" y="118.6864">1</text><!--MD5=[bc039f41cf0b27fadee5cae63fc6e1fe]
link Organization to Manager--><path d="M319.201,123.364 C379.094,129.185 473.926,138.4 532.085,144.052 " fill="none" id="Organization-&gt;Manager" style="stroke: #A80036; stroke-width: 1.0;"/><polygon fill="#A80036" points="537.249,144.554,528.6773,139.7036,532.2724,144.0712,527.9048,147.6663,537.249,144.554" style="stroke: #A80036; stroke-width: 1.0;"/><text fill="#000000" font-family="sans-serif" font-size="13" lengthAdjust="spacingAndGlyphs" textLength="21" x="403.5" y="122.4951">has</text><polygon fill="#000000" points="427.5,115.6758,433.5,118.6758,427.5,121.6758,427.5,115.6758" style="stroke: #000000; stroke-width: 1.0;"/><text fill="#000000" font-family="sans-serif" font-size="13" lengthAdjust="spacingAndGlyphs" textLength="7" x="326.8502" y="138.5719">1</text><text fill="#000000" font-family="sans-serif" font-size="13" lengthAdjust="spacingAndGlyphs" textLength="7" x="522.5543" y="158.6454">1</text><!--MD5=[0db232928abf712234bb9d536d76910e]
link Manager to Organization--><path d="M537.356,160.5546 C489.613,170.6976 412.874,181.4832 349,165 C340.459,162.7958 331.859,159.5299 323.581,155.728 " fill="none" id="Manager-&gt;Organization" style="stroke: #A80036; stroke-width: 1.0;"/><polygon fill="#A80036" points="319.017,153.564,325.4348,161.0348,323.5347,155.7066,328.8629,153.8065,319.017,153.564" style="stroke: #A80036; stroke-width: 1.0;"/><polygon fill="#000000" points="395,154.6758,389,157.6758,395,160.6758,395,154.6758" style="stroke: #000000; stroke-width: 1.0;"/><text fill="#000000" font-family="sans-serif" font-size="13" lengthAdjust="spacingAndGlyphs" textLength="52" x="401" y="161.4951">works for</text><text fill="#000000" font-family="sans-serif" font-size="13" lengthAdjust="spacingAndGlyphs" textLength="7" x="522.3643" y="177.2204">1</text><text fill="#000000" font-family="sans-serif" font-size="13" lengthAdjust="spacingAndGlyphs" textLength="7" x="327.0146" y="172.9136">1</text><!--MD5=[04ce0ecdab38a3951889ff50c232570f]
link Collaborator to User--><path d="M635.026,71.197 C662.525,85.047 696.913,102.367 726.259,117.147 " fill="none" id="Collaborator-&gt;User" style="stroke: #A80036; stroke-width: 1.0;"/><polygon fill="#A80036" points="730.923,119.497,724.6863,111.8744,726.458,117.2467,721.0858,119.0184,730.923,119.497" style="stroke: #A80036; stroke-width: 1.0;"/><text fill="#000000" font-family="sans-serif" font-size="13" lengthAdjust="spacingAndGlyphs" textLength="10" x="677" y="90.4951">is</text><polygon fill="#000000" points="690,83.6758,696,86.6758,690,89.6758,690,83.6758" style="stroke: #000000; stroke-width: 1.0;"/><text fill="#000000" font-family="sans-serif" font-size="13" lengthAdjust="spacingAndGlyphs" textLength="7" x="643.0345" y="89.6178">1</text><text fill="#000000" font-family="sans-serif" font-size="13" lengthAdjust="spacingAndGlyphs" textLength="7" x="715.8413" y="130.2911">1</text><!--MD5=[6eb6e197a729f6ec2412743e0bdbca1d]
link Manager to User--><path d="M630.639,149 C658.57,149 694.731,149 725.495,149 " fill="none" id="Manager-&gt;User" style="stroke: #A80036; stroke-width: 1.0;"/><polygon fill="#A80036" points="730.777,149,721.777,145,725.777,149,721.777,153,730.777,149" style="stroke: #A80036; stroke-width: 1.0;"/><text fill="#000000" font-family="sans-serif" font-size="13" lengthAdjust="spacingAndGlyphs" textLength="10" x="677" y="145.4951">is</text><polygon fill="#000000" points="690,138.6758,696,141.6758,690,144.6758,690,138.6758" style="stroke: #000000; stroke-width: 1.0;"/><text fill="#000000" font-family="sans-serif" font-size="13" lengthAdjust="spacingAndGlyphs" textLength="7" x="638.6299" y="163.8243">1</text><text fill="#000000" font-family="sans-serif" font-size="13" lengthAdjust="spacingAndGlyphs" textLength="7" x="716.0717" y="163.5215">1</text><!--MD5=[3ee2d758a553b7a7d2e02277961d34a0]
link PasswordGenerator to User--><path d="M492.175,237.4215 C536.969,236.6736 595.73,232.6267 646,219 C673.453,211.5583 701.953,198.8356 726.251,186.2612 " fill="none" id="PasswordGenerator-&gt;User" style="stroke: #A80036; stroke-width: 1.0;"/><polygon fill="#A80036" points="730.738,183.9163,720.9089,184.5396,726.3066,186.2321,724.6141,191.6298,730.738,183.9163" style="stroke: #A80036; stroke-width: 1.0;"/><text fill="#000000" font-family="sans-serif" font-size="13" lengthAdjust="spacingAndGlyphs" textLength="109" x="523" y="215.4951">generate password</text><polygon fill="#000000" points="635,208.6758,641,211.6758,635,214.6758,635,208.6758" style="stroke: #000000; stroke-width: 1.0;"/><text fill="#000000" font-family="sans-serif" font-size="13" lengthAdjust="spacingAndGlyphs" textLength="7" x="499.9274" y="251.9063">1</text><text fill="#000000" font-family="sans-serif" font-size="13" lengthAdjust="spacingAndGlyphs" textLength="5" x="718.1498" y="202.6933">*</text><!--MD5=[6102088ef8fa49966239e8ac60c47856]
@startuml
skinparam classAttributeIconSize 0
hide methods
left to right direction

class Platform {
}

class Organization {
- String orgName
- String nif
- Integer paymentDay
- Time paymentTime
}

class Collaborator {
- String nameCollab
- String emailCollab
}

class User {
  -String userName
  -String userEmail
  -String userPassword
}

class PasswordGenerator{
}

class Manager{
-String nameMan
-String emailMan
}

Platform "1" - -> "*" Organization : has >
Platform "1" - -> "1" PasswordGenerator : resort to >
Organization "1" - -> "1" Collaborator : has >
Organization "1" - -> "1" Manager : has >
Collaborator "1" - -> "1" User : is >
Manager "1" - -> "1" User : is >
PasswordGenerator "1" - -> "*" User : generate password >
Collaborator "1" - -> "1" Organization : works for >
Manager "1" - -> "1" Organization : works for >


@enduml

PlantUML version 1.2020.07(Sun Apr 19 12:42:40 BST 2020)
(GPL source distribution)
Java Runtime: OpenJDK Runtime Environment
JVM: OpenJDK 64-Bit Server VM
Java Version: 11.0.6+8-b765.40
Operating System: Windows 10
Default Encoding: Cp1252
Language: pt
Country: PT
--></g></svg>