<?xml version="1.0" encoding="UTF-8" standalone="no"?><svg xmlns="http://www.w3.org/2000/svg" xmlns:xlink="http://www.w3.org/1999/xlink" contentScriptType="application/ecmascript" contentStyleType="text/css" height="1025px" preserveAspectRatio="none" style="width:846px;height:1025px;" version="1.1" viewBox="0 0 846 1025" width="846px" zoomAndPan="magnify"><defs><filter height="300%" id="f16iysvsbthc8r" width="300%" x="-1" y="-1"><feGaussianBlur result="blurOut" stdDeviation="2.0"/><feColorMatrix in="blurOut" result="blurOut2" type="matrix" values="0 0 0 0 0 0 0 0 0 0 0 0 0 0 0 0 0 0 .4 0"/><feOffset dx="4.0" dy="4.0" in="blurOut2" result="blurOut3"/><feBlend in="SourceGraphic" in2="blurOut3" mode="normal"/></filter></defs><g><!--MD5=[b8e8f05765f8aabfbcdb4df279087e68]
cluster login--><polygon fill="#FFFFFF" filter="url(#f16iysvsbthc8r)" points="22,332,63,332,70,355.6094,326,355.6094,326,460,22,460,22,332" style="stroke: #000000; stroke-width: 1.5;"/><line style="stroke: #000000; stroke-width: 1.5;" x1="22" x2="70" y1="355.6094" y2="355.6094"/><text fill="#000000" font-family="sans-serif" font-size="14" font-weight="bold" lengthAdjust="spacingAndGlyphs" textLength="35" x="26" y="348.5332">login</text><!--MD5=[5d4cd377749310b66bf14896f5cd8d9b]
cluster model--><polygon fill="#FFFFFF" filter="url(#f16iysvsbthc8r)" points="350,339,399,339,406,362.6094,824,362.6094,824,1013,350,1013,350,339" style="stroke: #000000; stroke-width: 1.5;"/><line style="stroke: #000000; stroke-width: 1.5;" x1="350" x2="406" y1="362.6094" y2="362.6094"/><text fill="#000000" font-family="sans-serif" font-size="14" font-weight="bold" lengthAdjust="spacingAndGlyphs" textLength="43" x="354" y="355.5332">model</text><!--MD5=[7f775bfb84d28e8b3efc1913f21e6985]
cluster RegistryClasses--><polygon fill="#FFFFFF" filter="url(#f16iysvsbthc8r)" points="530,493,649,493,656,516.6094,800,516.6094,800,662,530,662,530,493" style="stroke: #000000; stroke-width: 1.5;"/><line style="stroke: #000000; stroke-width: 1.5;" x1="530" x2="656" y1="516.6094" y2="516.6094"/><text fill="#000000" font-family="sans-serif" font-size="14" font-weight="bold" lengthAdjust="spacingAndGlyphs" textLength="113" x="534" y="509.5332">RegistryClasses</text><!--MD5=[10ea673caf457862023e152271927b45]
cluster controller--><polygon fill="#FFFFFF" filter="url(#f16iysvsbthc8r)" points="486,157,561,157,568,180.6094,756,180.6094,756,299,486,299,486,157" style="stroke: #000000; stroke-width: 1.5;"/><line style="stroke: #000000; stroke-width: 1.5;" x1="486" x2="568" y1="180.6094" y2="180.6094"/><text fill="#000000" font-family="sans-serif" font-size="14" font-weight="bold" lengthAdjust="spacingAndGlyphs" textLength="69" x="490" y="173.5332">controller</text><!--MD5=[64e2e010ba86d7988e5cd73bd64f61f9]
cluster ui--><polygon fill="#FFFFFF" filter="url(#f16iysvsbthc8r)" points="525,24,544,24,551,47.6094,717,47.6094,717,124,525,124,525,24" style="stroke: #000000; stroke-width: 1.5;"/><line style="stroke: #000000; stroke-width: 1.5;" x1="525" x2="551" y1="47.6094" y2="47.6094"/><text fill="#000000" font-family="sans-serif" font-size="14" font-weight="bold" lengthAdjust="spacingAndGlyphs" textLength="13" x="529" y="40.5332">ui</text><!--MD5=[e1e79fb7675434802d8a5d105105c07e]
class LoginSystem--><rect fill="#FEFECE" filter="url(#f16iysvsbthc8r)" height="75.6719" id="LoginSystem" style="stroke: #A80036; stroke-width: 1.5;" width="271" x="38.5" y="368"/><ellipse cx="133.75" cy="384" fill="#ADD1B2" rx="11" ry="11" style="stroke: #A80036; stroke-width: 1.0;"/><path d="M135.75,380.5 Q135.9531,380 136.1875,379.75 Q136.4219,379.5 136.6875,379.5 Q137.1563,379.5 137.4531,379.7813 Q137.75,380.0625 137.75,380.7188 L137.75,382.2813 Q137.75,382.9375 137.4688,383.2188 Q137.1875,383.5 136.75,383.5 Q136.3594,383.5 136.1094,383.3281 Q135.8594,383.1563 135.75,382.7031 Q135.7031,382.3906 135.5313,382.2188 Q135.2188,381.8906 134.6563,381.7031 Q134.0938,381.5 133.5313,381.5 Q132.8281,381.5 132.2344,381.7813 Q131.6563,382.0625 131.2031,382.6875 Q130.75,383.3125 130.75,384.1719 L130.75,385.0938 Q130.75,386.125 131.5938,386.8125 Q132.4375,387.5 133.9375,387.5 Q134.8281,387.5 135.4531,387.2969 Q135.8125,387.1875 136.2188,386.8281 Q136.4844,386.625 136.625,386.5625 Q136.7656,386.5 136.9375,386.5 Q137.2656,386.5 137.5,386.7656 Q137.75,387.0156 137.75,387.375 Q137.75,387.7188 137.4063,388.125 Q136.9063,388.7188 136.1094,389.0469 Q135.0625,389.5 133.7813,389.5 Q132.2813,389.5 131.0781,388.9063 Q130.1094,388.4375 129.4219,387.4219 Q128.75,386.4063 128.75,385.2031 L128.75,384.1094 Q128.75,382.8594 129.3438,381.7656 Q129.9531,380.6719 131,380.0938 Q132.0625,379.5 133.25,379.5 Q133.9688,379.5 134.5938,379.75 Q135.2188,380 135.75,380.5 Z "/><text fill="#000000" font-family="sans-serif" font-size="12" lengthAdjust="spacingAndGlyphs" textLength="72" x="154.25" y="388.9102">LoginSystem</text><line style="stroke: #A80036; stroke-width: 1.5;" x1="39.5" x2="308.5" y1="400" y2="400"/><line style="stroke: #A80036; stroke-width: 1.5;" x1="39.5" x2="308.5" y1="408" y2="408"/><text fill="#000000" font-family="sans-serif" font-size="11" lengthAdjust="spacingAndGlyphs" textLength="259" x="44.5" y="423.4189">+newUser(nameCollab,emailCollab,COLLABORATOR)</text><text fill="#000000" font-family="sans-serif" font-size="11" lengthAdjust="spacingAndGlyphs" textLength="251" x="44.5" y="437.2549">+newUser(nameManager,emailManager,MANAGER)</text><!--MD5=[f483d6e5de34a60207b28a5563be5e8b]
class Collaborator--><rect fill="#FEFECE" filter="url(#f16iysvsbthc8r)" height="89.5078" id="Collaborator" style="stroke: #A80036; stroke-width: 1.5;" width="198" x="366" y="907"/><ellipse cx="426.75" cy="923" fill="#ADD1B2" rx="11" ry="11" style="stroke: #A80036; stroke-width: 1.0;"/><path d="M428.75,919.5 Q428.9531,919 429.1875,918.75 Q429.4219,918.5 429.6875,918.5 Q430.1563,918.5 430.4531,918.7813 Q430.75,919.0625 430.75,919.7188 L430.75,921.2813 Q430.75,921.9375 430.4688,922.2188 Q430.1875,922.5 429.75,922.5 Q429.3594,922.5 429.1094,922.3281 Q428.8594,922.1563 428.75,921.7031 Q428.7031,921.3906 428.5313,921.2188 Q428.2188,920.8906 427.6563,920.7031 Q427.0938,920.5 426.5313,920.5 Q425.8281,920.5 425.2344,920.7813 Q424.6563,921.0625 424.2031,921.6875 Q423.75,922.3125 423.75,923.1719 L423.75,924.0938 Q423.75,925.125 424.5938,925.8125 Q425.4375,926.5 426.9375,926.5 Q427.8281,926.5 428.4531,926.2969 Q428.8125,926.1875 429.2188,925.8281 Q429.4844,925.625 429.625,925.5625 Q429.7656,925.5 429.9375,925.5 Q430.2656,925.5 430.5,925.7656 Q430.75,926.0156 430.75,926.375 Q430.75,926.7188 430.4063,927.125 Q429.9063,927.7188 429.1094,928.0469 Q428.0625,928.5 426.7813,928.5 Q425.2813,928.5 424.0781,927.9063 Q423.1094,927.4375 422.4219,926.4219 Q421.75,925.4063 421.75,924.2031 L421.75,923.1094 Q421.75,921.8594 422.3438,920.7656 Q422.9531,919.6719 424,919.0938 Q425.0625,918.5 426.25,918.5 Q426.9688,918.5 427.5938,918.75 Q428.2188,919 428.75,919.5 Z "/><text fill="#000000" font-family="sans-serif" font-size="12" lengthAdjust="spacingAndGlyphs" textLength="68" x="447.25" y="927.9102">Collaborator</text><line style="stroke: #A80036; stroke-width: 1.5;" x1="367" x2="563" y1="939" y2="939"/><text fill="#000000" font-family="sans-serif" font-size="11" lengthAdjust="spacingAndGlyphs" textLength="90" x="372" y="954.4189">-String nameCollab</text><text fill="#000000" font-family="sans-serif" font-size="11" lengthAdjust="spacingAndGlyphs" textLength="88" x="372" y="968.2549">-String emailCollab</text><line style="stroke: #A80036; stroke-width: 1.5;" x1="367" x2="563" y1="974.6719" y2="974.6719"/><text fill="#000000" font-family="sans-serif" font-size="11" lengthAdjust="spacingAndGlyphs" textLength="186" x="372" y="990.0908">+Collaborator(nameCollab ,emailCollab)</text><!--MD5=[b24ed8d4ae84bae9290d9aab401637c7]
class Manager--><rect fill="#FEFECE" filter="url(#f16iysvsbthc8r)" height="89.5078" id="Manager" style="stroke: #A80036; stroke-width: 1.5;" width="164" x="599" y="907"/><ellipse cx="652.75" cy="923" fill="#ADD1B2" rx="11" ry="11" style="stroke: #A80036; stroke-width: 1.0;"/><path d="M654.75,919.5 Q654.9531,919 655.1875,918.75 Q655.4219,918.5 655.6875,918.5 Q656.1563,918.5 656.4531,918.7813 Q656.75,919.0625 656.75,919.7188 L656.75,921.2813 Q656.75,921.9375 656.4688,922.2188 Q656.1875,922.5 655.75,922.5 Q655.3594,922.5 655.1094,922.3281 Q654.8594,922.1563 654.75,921.7031 Q654.7031,921.3906 654.5313,921.2188 Q654.2188,920.8906 653.6563,920.7031 Q653.0938,920.5 652.5313,920.5 Q651.8281,920.5 651.2344,920.7813 Q650.6563,921.0625 650.2031,921.6875 Q649.75,922.3125 649.75,923.1719 L649.75,924.0938 Q649.75,925.125 650.5938,925.8125 Q651.4375,926.5 652.9375,926.5 Q653.8281,926.5 654.4531,926.2969 Q654.8125,926.1875 655.2188,925.8281 Q655.4844,925.625 655.625,925.5625 Q655.7656,925.5 655.9375,925.5 Q656.2656,925.5 656.5,925.7656 Q656.75,926.0156 656.75,926.375 Q656.75,926.7188 656.4063,927.125 Q655.9063,927.7188 655.1094,928.0469 Q654.0625,928.5 652.7813,928.5 Q651.2813,928.5 650.0781,927.9063 Q649.1094,927.4375 648.4219,926.4219 Q647.75,925.4063 647.75,924.2031 L647.75,923.1094 Q647.75,921.8594 648.3438,920.7656 Q648.9531,919.6719 650,919.0938 Q651.0625,918.5 652.25,918.5 Q652.9688,918.5 653.5938,918.75 Q654.2188,919 654.75,919.5 Z "/><text fill="#000000" font-family="sans-serif" font-size="12" lengthAdjust="spacingAndGlyphs" textLength="48" x="673.25" y="927.9102">Manager</text><line style="stroke: #A80036; stroke-width: 1.5;" x1="600" x2="762" y1="939" y2="939"/><text fill="#000000" font-family="sans-serif" font-size="11" lengthAdjust="spacingAndGlyphs" textLength="81" x="605" y="954.4189">-String nameMan</text><text fill="#000000" font-family="sans-serif" font-size="11" lengthAdjust="spacingAndGlyphs" textLength="79" x="605" y="968.2549">-String emailMan</text><line style="stroke: #A80036; stroke-width: 1.5;" x1="600" x2="762" y1="974.6719" y2="974.6719"/><text fill="#000000" font-family="sans-serif" font-size="11" lengthAdjust="spacingAndGlyphs" textLength="152" x="605" y="990.0908">+Manager(nameMan, emailMan)</text><!--MD5=[86c7c362de55a38b660185a1328fe18d]
class Organization--><rect fill="#FEFECE" filter="url(#f16iysvsbthc8r)" height="103.3438" id="Organization" style="stroke: #A80036; stroke-width: 1.5;" width="149" x="590.5" y="726"/><ellipse cx="627.1" cy="742" fill="#ADD1B2" rx="11" ry="11" style="stroke: #A80036; stroke-width: 1.0;"/><path d="M629.1,738.5 Q629.3031,738 629.5375,737.75 Q629.7719,737.5 630.0375,737.5 Q630.5063,737.5 630.8031,737.7813 Q631.1,738.0625 631.1,738.7188 L631.1,740.2813 Q631.1,740.9375 630.8188,741.2188 Q630.5375,741.5 630.1,741.5 Q629.7094,741.5 629.4594,741.3281 Q629.2094,741.1563 629.1,740.7031 Q629.0531,740.3906 628.8813,740.2188 Q628.5688,739.8906 628.0063,739.7031 Q627.4438,739.5 626.8813,739.5 Q626.1781,739.5 625.5844,739.7813 Q625.0063,740.0625 624.5531,740.6875 Q624.1,741.3125 624.1,742.1719 L624.1,743.0938 Q624.1,744.125 624.9438,744.8125 Q625.7875,745.5 627.2875,745.5 Q628.1781,745.5 628.8031,745.2969 Q629.1625,745.1875 629.5688,744.8281 Q629.8344,744.625 629.975,744.5625 Q630.1156,744.5 630.2875,744.5 Q630.6156,744.5 630.85,744.7656 Q631.1,745.0156 631.1,745.375 Q631.1,745.7188 630.7563,746.125 Q630.2563,746.7188 629.4594,747.0469 Q628.4125,747.5 627.1313,747.5 Q625.6313,747.5 624.4281,746.9063 Q623.4594,746.4375 622.7719,745.4219 Q622.1,744.4063 622.1,743.2031 L622.1,742.1094 Q622.1,740.8594 622.6938,739.7656 Q623.3031,738.6719 624.35,738.0938 Q625.4125,737.5 626.6,737.5 Q627.3188,737.5 627.9438,737.75 Q628.5688,738 629.1,738.5 Z "/><text fill="#000000" font-family="sans-serif" font-size="12" lengthAdjust="spacingAndGlyphs" textLength="69" x="645.9" y="746.9102">Organization</text><line style="stroke: #A80036; stroke-width: 1.5;" x1="591.5" x2="738.5" y1="758" y2="758"/><text fill="#000000" font-family="sans-serif" font-size="11" lengthAdjust="spacingAndGlyphs" textLength="79" x="596.5" y="773.4189">-String nameOrg</text><text fill="#000000" font-family="sans-serif" font-size="11" lengthAdjust="spacingAndGlyphs" textLength="47" x="596.5" y="787.2549">-String nif</text><line style="stroke: #A80036; stroke-width: 1.5;" x1="591.5" x2="738.5" y1="793.6719" y2="793.6719"/><text fill="#000000" font-family="sans-serif" font-size="11" lengthAdjust="spacingAndGlyphs" textLength="51" x="596.5" y="809.0908">+validate()</text><text fill="#000000" font-family="sans-serif" font-size="11" lengthAdjust="spacingAndGlyphs" textLength="137" x="596.5" y="822.9268">+Organization(nameOrg, nif)</text><!--MD5=[99b8db98afdc2c8404e39242ef4c1e65]
class Platform--><rect fill="#FEFECE" filter="url(#f16iysvsbthc8r)" height="61.8359" id="Platform" style="stroke: #A80036; stroke-width: 1.5;" width="258" x="366" y="375"/><ellipse cx="467.75" cy="391" fill="#ADD1B2" rx="11" ry="11" style="stroke: #A80036; stroke-width: 1.0;"/><path d="M469.75,387.5 Q469.9531,387 470.1875,386.75 Q470.4219,386.5 470.6875,386.5 Q471.1563,386.5 471.4531,386.7813 Q471.75,387.0625 471.75,387.7188 L471.75,389.2813 Q471.75,389.9375 471.4688,390.2188 Q471.1875,390.5 470.75,390.5 Q470.3594,390.5 470.1094,390.3281 Q469.8594,390.1563 469.75,389.7031 Q469.7031,389.3906 469.5313,389.2188 Q469.2188,388.8906 468.6563,388.7031 Q468.0938,388.5 467.5313,388.5 Q466.8281,388.5 466.2344,388.7813 Q465.6563,389.0625 465.2031,389.6875 Q464.75,390.3125 464.75,391.1719 L464.75,392.0938 Q464.75,393.125 465.5938,393.8125 Q466.4375,394.5 467.9375,394.5 Q468.8281,394.5 469.4531,394.2969 Q469.8125,394.1875 470.2188,393.8281 Q470.4844,393.625 470.625,393.5625 Q470.7656,393.5 470.9375,393.5 Q471.2656,393.5 471.5,393.7656 Q471.75,394.0156 471.75,394.375 Q471.75,394.7188 471.4063,395.125 Q470.9063,395.7188 470.1094,396.0469 Q469.0625,396.5 467.7813,396.5 Q466.2813,396.5 465.0781,395.9063 Q464.1094,395.4375 463.4219,394.4219 Q462.75,393.4063 462.75,392.2031 L462.75,391.1094 Q462.75,389.8594 463.3438,388.7656 Q463.9531,387.6719 465,387.0938 Q466.0625,386.5 467.25,386.5 Q467.9688,386.5 468.5938,386.75 Q469.2188,387 469.75,387.5 Z "/><text fill="#000000" font-family="sans-serif" font-size="12" lengthAdjust="spacingAndGlyphs" textLength="46" x="488.25" y="395.9102">Platform</text><line style="stroke: #A80036; stroke-width: 1.5;" x1="367" x2="623" y1="407" y2="407"/><line style="stroke: #A80036; stroke-width: 1.5;" x1="367" x2="623" y1="415" y2="415"/><text fill="#000000" font-family="sans-serif" font-size="11" lengthAdjust="spacingAndGlyphs" textLength="246" x="372" y="430.4189">+RegistryOrganizations getRegistryOrganizations()</text><!--MD5=[33715664216438c299d64633eb1ff89b]
class RegistryOrganizations--><rect fill="#FEFECE" filter="url(#f16iysvsbthc8r)" height="117.1797" id="RegistryOrganizations" style="stroke: #A80036; stroke-width: 1.5;" width="237" x="546.5" y="529"/><ellipse cx="600.25" cy="545" fill="#ADD1B2" rx="11" ry="11" style="stroke: #A80036; stroke-width: 1.0;"/><path d="M602.25,541.5 Q602.4531,541 602.6875,540.75 Q602.9219,540.5 603.1875,540.5 Q603.6563,540.5 603.9531,540.7813 Q604.25,541.0625 604.25,541.7188 L604.25,543.2813 Q604.25,543.9375 603.9688,544.2188 Q603.6875,544.5 603.25,544.5 Q602.8594,544.5 602.6094,544.3281 Q602.3594,544.1563 602.25,543.7031 Q602.2031,543.3906 602.0313,543.2188 Q601.7188,542.8906 601.1563,542.7031 Q600.5938,542.5 600.0313,542.5 Q599.3281,542.5 598.7344,542.7813 Q598.1563,543.0625 597.7031,543.6875 Q597.25,544.3125 597.25,545.1719 L597.25,546.0938 Q597.25,547.125 598.0938,547.8125 Q598.9375,548.5 600.4375,548.5 Q601.3281,548.5 601.9531,548.2969 Q602.3125,548.1875 602.7188,547.8281 Q602.9844,547.625 603.125,547.5625 Q603.2656,547.5 603.4375,547.5 Q603.7656,547.5 604,547.7656 Q604.25,548.0156 604.25,548.375 Q604.25,548.7188 603.9063,549.125 Q603.4063,549.7188 602.6094,550.0469 Q601.5625,550.5 600.2813,550.5 Q598.7813,550.5 597.5781,549.9063 Q596.6094,549.4375 595.9219,548.4219 Q595.25,547.4063 595.25,546.2031 L595.25,545.1094 Q595.25,543.8594 595.8438,542.7656 Q596.4531,541.6719 597.5,541.0938 Q598.5625,540.5 599.75,540.5 Q600.4688,540.5 601.0938,540.75 Q601.7188,541 602.25,541.5 Z "/><text fill="#000000" font-family="sans-serif" font-size="12" lengthAdjust="spacingAndGlyphs" textLength="121" x="620.75" y="549.9102">RegistryOrganizations</text><line style="stroke: #A80036; stroke-width: 1.5;" x1="547.5" x2="782.5" y1="561" y2="561"/><line style="stroke: #A80036; stroke-width: 1.5;" x1="547.5" x2="782.5" y1="569" y2="569"/><text fill="#000000" font-family="sans-serif" font-size="11" lengthAdjust="spacingAndGlyphs" textLength="225" x="552.5" y="584.4189">+newOrganization (nameOrg, nif , nameCollab,</text><text fill="#000000" font-family="sans-serif" font-size="11" lengthAdjust="spacingAndGlyphs" textLength="197" x="555.5" y="598.2549">emailCollab,nameManager,emailManager)</text><text fill="#000000" font-family="sans-serif" font-size="11" lengthAdjust="spacingAndGlyphs" textLength="67" x="552.5" y="612.0908">+validate(org)</text><text fill="#000000" font-family="sans-serif" font-size="11" lengthAdjust="spacingAndGlyphs" textLength="48" x="552.5" y="625.9268">+add(org)</text><text fill="#000000" font-family="sans-serif" font-size="11" lengthAdjust="spacingAndGlyphs" textLength="128" x="552.5" y="639.7627">+registerOrganization(org)</text><!--MD5=[4f951974ade12dc82702c8e5d25dd0a5]
class RegisterOrganizationController--><rect fill="#FEFECE" filter="url(#f16iysvsbthc8r)" height="89.5078" id="RegisterOrganizationController" style="stroke: #A80036; stroke-width: 1.5;" width="237" x="502.5" y="193"/><ellipse cx="533.25" cy="209" fill="#ADD1B2" rx="11" ry="11" style="stroke: #A80036; stroke-width: 1.0;"/><path d="M535.25,205.5 Q535.4531,205 535.6875,204.75 Q535.9219,204.5 536.1875,204.5 Q536.6563,204.5 536.9531,204.7813 Q537.25,205.0625 537.25,205.7188 L537.25,207.2813 Q537.25,207.9375 536.9688,208.2188 Q536.6875,208.5 536.25,208.5 Q535.8594,208.5 535.6094,208.3281 Q535.3594,208.1563 535.25,207.7031 Q535.2031,207.3906 535.0313,207.2188 Q534.7188,206.8906 534.1563,206.7031 Q533.5938,206.5 533.0313,206.5 Q532.3281,206.5 531.7344,206.7813 Q531.1563,207.0625 530.7031,207.6875 Q530.25,208.3125 530.25,209.1719 L530.25,210.0938 Q530.25,211.125 531.0938,211.8125 Q531.9375,212.5 533.4375,212.5 Q534.3281,212.5 534.9531,212.2969 Q535.3125,212.1875 535.7188,211.8281 Q535.9844,211.625 536.125,211.5625 Q536.2656,211.5 536.4375,211.5 Q536.7656,211.5 537,211.7656 Q537.25,212.0156 537.25,212.375 Q537.25,212.7188 536.9063,213.125 Q536.4063,213.7188 535.6094,214.0469 Q534.5625,214.5 533.2813,214.5 Q531.7813,214.5 530.5781,213.9063 Q529.6094,213.4375 528.9219,212.4219 Q528.25,211.4063 528.25,210.2031 L528.25,209.1094 Q528.25,207.8594 528.8438,206.7656 Q529.4531,205.6719 530.5,205.0938 Q531.5625,204.5 532.75,204.5 Q533.4688,204.5 534.0938,204.75 Q534.7188,205 535.25,205.5 Z "/><text fill="#000000" font-family="sans-serif" font-size="12" lengthAdjust="spacingAndGlyphs" textLength="170" x="550.75" y="213.9102">RegisterOrganizationController</text><line style="stroke: #A80036; stroke-width: 1.5;" x1="503.5" x2="738.5" y1="225" y2="225"/><line style="stroke: #A80036; stroke-width: 1.5;" x1="503.5" x2="738.5" y1="233" y2="233"/><text fill="#000000" font-family="sans-serif" font-size="11" lengthAdjust="spacingAndGlyphs" textLength="225" x="508.5" y="248.4189">+newOrganization (nameOrg, nif , nameCollab,</text><text fill="#000000" font-family="sans-serif" font-size="11" lengthAdjust="spacingAndGlyphs" textLength="197" x="508.5" y="262.2549">emailCollab,nameManager,emailManager)</text><text fill="#000000" font-family="sans-serif" font-size="11" lengthAdjust="spacingAndGlyphs" textLength="112" x="508.5" y="276.0908">+registerOrganization()</text><!--MD5=[690c9444a84a9a133b26ae44540ba6a6]
class RegisterOrganizationUI--><rect fill="#FEFECE" filter="url(#f16iysvsbthc8r)" height="48" id="RegisterOrganizationUI" style="stroke: #A80036; stroke-width: 1.5;" width="160" x="541" y="60"/><ellipse cx="556" cy="76" fill="#ADD1B2" rx="11" ry="11" style="stroke: #A80036; stroke-width: 1.0;"/><path d="M558,72.5 Q558.2031,72 558.4375,71.75 Q558.6719,71.5 558.9375,71.5 Q559.4063,71.5 559.7031,71.7813 Q560,72.0625 560,72.7188 L560,74.2813 Q560,74.9375 559.7188,75.2188 Q559.4375,75.5 559,75.5 Q558.6094,75.5 558.3594,75.3281 Q558.1094,75.1563 558,74.7031 Q557.9531,74.3906 557.7813,74.2188 Q557.4688,73.8906 556.9063,73.7031 Q556.3438,73.5 555.7813,73.5 Q555.0781,73.5 554.4844,73.7813 Q553.9063,74.0625 553.4531,74.6875 Q553,75.3125 553,76.1719 L553,77.0938 Q553,78.125 553.8438,78.8125 Q554.6875,79.5 556.1875,79.5 Q557.0781,79.5 557.7031,79.2969 Q558.0625,79.1875 558.4688,78.8281 Q558.7344,78.625 558.875,78.5625 Q559.0156,78.5 559.1875,78.5 Q559.5156,78.5 559.75,78.7656 Q560,79.0156 560,79.375 Q560,79.7188 559.6563,80.125 Q559.1563,80.7188 558.3594,81.0469 Q557.3125,81.5 556.0313,81.5 Q554.5313,81.5 553.3281,80.9063 Q552.3594,80.4375 551.6719,79.4219 Q551,78.4063 551,77.2031 L551,76.1094 Q551,74.8594 551.5938,73.7656 Q552.2031,72.6719 553.25,72.0938 Q554.3125,71.5 555.5,71.5 Q556.2188,71.5 556.8438,71.75 Q557.4688,72 558,72.5 Z "/><text fill="#000000" font-family="sans-serif" font-size="12" lengthAdjust="spacingAndGlyphs" textLength="128" x="570" y="80.9102">RegisterOrganizationUI</text><line style="stroke: #A80036; stroke-width: 1.5;" x1="542" x2="700" y1="92" y2="92"/><line style="stroke: #A80036; stroke-width: 1.5;" x1="542" x2="700" y1="100" y2="100"/><!--MD5=[f62aaae6a33751a54124a969b3e6d0f7]
link RegisterOrganizationUI to RegisterOrganizationController--><path d="M621,108.086 C621,129.108 621,160.852 621,187.58 " fill="none" id="RegisterOrganizationUI-&gt;RegisterOrganizationController" style="stroke: #A80036; stroke-width: 1.0; stroke-dasharray: 7.0,7.0;"/><polygon fill="#A80036" points="621,192.853,625,183.853,621,187.853,617,183.853,621,192.853" style="stroke: #A80036; stroke-width: 1.0;"/><!--MD5=[6b34e12a50a29485e6b670a597970921]
link RegisterOrganizationController to Platform--><path d="M587.565,283.049 C566.665,310.584 540.152,345.514 520.862,370.928 " fill="none" id="RegisterOrganizationController-&gt;Platform" style="stroke: #A80036; stroke-width: 1.0; stroke-dasharray: 7.0,7.0;"/><polygon fill="#A80036" points="517.83,374.922,526.4573,370.1712,520.8528,370.9392,520.0848,365.3347,517.83,374.922" style="stroke: #A80036; stroke-width: 1.0;"/><!--MD5=[5e021a4adfc7ac34877df2d441f3700b]
link RegisterOrganizationController to RegistryOrganizations--><path d="M641.955,283.097 C647.168,295.999 652.094,310.319 655,324 C669.274,391.202 670.212,470.209 668.566,523.858 " fill="none" id="RegisterOrganizationController-&gt;RegistryOrganizations" style="stroke: #A80036; stroke-width: 1.0; stroke-dasharray: 7.0,7.0;"/><polygon fill="#A80036" points="668.399,528.97,672.6926,520.1063,668.5633,523.9727,664.6969,519.8434,668.399,528.97" style="stroke: #A80036; stroke-width: 1.0;"/><!--MD5=[9fa3a86e20649d9ff786ad172f815d6a]
link RegisterOrganizationController to Organization--><path d="M667.382,283.246 C711.509,328.904 774.79,404.616 800,485 C824.605,563.455 834.153,595.206 800,670 C788.21,695.82 766.555,717.152 743.989,733.767 " fill="none" id="RegisterOrganizationController-&gt;Organization" style="stroke: #A80036; stroke-width: 1.0; stroke-dasharray: 7.0,7.0;"/><polygon fill="#A80036" points="739.767,736.815,749.4059,734.792,743.8215,733.8891,744.7244,728.3048,739.767,736.815" style="stroke: #A80036; stroke-width: 1.0;"/><!--MD5=[aafa96273cbb83076c547cd0e27b529c]
link RegisterOrganizationController to LoginSystem--><path d="M502.49,272.594 C454.656,287.077 399.235,305.038 350,324 C317.971,336.336 283.512,351.707 253.65,365.734 " fill="none" id="RegisterOrganizationController-&gt;LoginSystem" style="stroke: #A80036; stroke-width: 1.0; stroke-dasharray: 7.0,7.0;"/><polygon fill="#A80036" points="248.897,367.973,258.7435,367.7573,253.4205,365.8427,255.335,360.5197,248.897,367.973" style="stroke: #A80036; stroke-width: 1.0;"/><!--MD5=[4444e3f7d3a256ce06ca5b39bcbcc4ba]
link RegistryOrganizations to Organization--><path d="M665,646.184 C665,669.866 665,697.182 665,720.668 " fill="none" id="RegistryOrganizations-&gt;Organization" style="stroke: #A80036; stroke-width: 1.0;"/><polygon fill="#A80036" points="665,725.928,669,716.928,665,720.928,661,716.928,665,725.928" style="stroke: #A80036; stroke-width: 1.0;"/><text fill="#000000" font-family="sans-serif" font-size="13" lengthAdjust="spacingAndGlyphs" textLength="82" x="666" y="692.4951">has registered</text><polygon fill="#000000" points="702.5,701.3516,705.5,707.3516,708.5,701.3516,702.5,701.3516" style="stroke: #000000; stroke-width: 1.0;"/><text fill="#000000" font-family="sans-serif" font-size="13" lengthAdjust="spacingAndGlyphs" textLength="7" x="657.5734" y="667.8167">1</text><text fill="#000000" font-family="sans-serif" font-size="13" lengthAdjust="spacingAndGlyphs" textLength="5" x="659.6484" y="715.0464">*</text><!--MD5=[45817597bcd7048073a670d966abfd17]
link Organization to Collaborator--><path d="M606.345,829.09 C579.1,852.589 546.885,880.374 520.096,903.479 " fill="none" id="Organization-&gt;Collaborator" style="stroke: #A80036; stroke-width: 1.0;"/><polygon fill="#A80036" points="516.184,906.853,525.6115,904.0031,519.97,903.5871,520.386,897.9455,516.184,906.853" style="stroke: #A80036; stroke-width: 1.0;"/><polygon fill="#000000" points="579,866.6758,573,869.6758,579,872.6758,579,866.6758" style="stroke: #000000; stroke-width: 1.0;"/><text fill="#000000" font-family="sans-serif" font-size="13" lengthAdjust="spacingAndGlyphs" textLength="21" x="585" y="873.4951">has</text><text fill="#000000" font-family="sans-serif" font-size="13" lengthAdjust="spacingAndGlyphs" textLength="7" x="590.6045" y="850.9655">1</text><text fill="#000000" font-family="sans-serif" font-size="13" lengthAdjust="spacingAndGlyphs" textLength="7" x="516.4856" y="896.2746">1</text><!--MD5=[bc039f41cf0b27fadee5cae63fc6e1fe]
link Organization to Manager--><path d="M669.714,829.323 C671.839,852.236 674.339,879.188 676.445,901.893 " fill="none" id="Organization-&gt;Manager" style="stroke: #A80036; stroke-width: 1.0;"/><polygon fill="#A80036" points="676.916,906.969,680.0657,897.6374,676.4531,901.9905,672.1,898.3779,676.916,906.969" style="stroke: #A80036; stroke-width: 1.0;"/><text fill="#000000" font-family="sans-serif" font-size="13" lengthAdjust="spacingAndGlyphs" textLength="21" x="675" y="873.4951">has</text><polygon fill="#000000" points="681,882.3516,684,888.3516,687,882.3516,681,882.3516" style="stroke: #000000; stroke-width: 1.0;"/><text fill="#000000" font-family="sans-serif" font-size="13" lengthAdjust="spacingAndGlyphs" textLength="7" x="662.8771" y="850.8574">1</text><text fill="#000000" font-family="sans-serif" font-size="13" lengthAdjust="spacingAndGlyphs" textLength="7" x="668.7073" y="896.0795">1</text><!--MD5=[7640e466c042ba2d6f9c19c816f7f0fc]
link Platform to Organization--><path d="M484.764,437.346 C469.096,489.823 445.747,598.729 494,670 C499.367,677.928 505.505,673.585 514,678 C539.362,691.18 565.843,707.49 589.418,723.02 " fill="none" id="Platform-&gt;Organization" style="stroke: #A80036; stroke-width: 1.0;"/><polygon fill="#A80036" points="593.786,725.91,588.4887,717.6071,589.6165,723.1504,584.0733,724.2782,593.786,725.91" style="stroke: #A80036; stroke-width: 1.0;"/><text fill="#000000" font-family="sans-serif" font-size="13" lengthAdjust="spacingAndGlyphs" textLength="21" x="495" y="592.9951">has</text><polygon fill="#000000" points="501,601.8516,504,607.8516,507,601.8516,501,601.8516" style="stroke: #000000; stroke-width: 1.0;"/><text fill="#000000" font-family="sans-serif" font-size="13" lengthAdjust="spacingAndGlyphs" textLength="7" x="475.1456" y="458.3906">1</text><text fill="#000000" font-family="sans-serif" font-size="13" lengthAdjust="spacingAndGlyphs" textLength="5" x="578.42" y="715.0258">*</text><!--MD5=[729d38e941f71726a36b38b157ad7957]
link Platform to Collaborator--><path d="M431.647,437.162 C416.995,447.338 403.284,460.219 395,476 C320.968,617.027 396.452,812.162 439.496,902.061 " fill="none" id="Platform-&gt;Collaborator" style="stroke: #A80036; stroke-width: 1.0;"/><polygon fill="#A80036" points="441.774,906.785,441.4651,896.941,439.601,902.2819,434.2601,900.4178,441.774,906.785" style="stroke: #A80036; stroke-width: 1.0;"/><text fill="#000000" font-family="sans-serif" font-size="13" lengthAdjust="spacingAndGlyphs" textLength="21" x="372" y="692.4951">has</text><polygon fill="#000000" points="378,701.3516,381,707.3516,384,701.3516,378,701.3516" style="stroke: #000000; stroke-width: 1.0;"/><text fill="#000000" font-family="sans-serif" font-size="13" lengthAdjust="spacingAndGlyphs" textLength="7" x="411.4853" y="458.4179">1</text><text fill="#000000" font-family="sans-serif" font-size="13" lengthAdjust="spacingAndGlyphs" textLength="5" x="432.8347" y="896.1962">*</text><!--MD5=[fe099013e52a8d16c3af5f33501aec65]
link Platform to Manager--><path d="M476.745,437.357 C469.365,451.343 461.72,468.477 458,485 C439.939,565.214 441.585,589.433 458,670 C477.957,767.956 478.912,802.886 546,877 C559.476,891.888 576.671,904.411 594.24,914.675 " fill="none" id="Platform-&gt;Manager" style="stroke: #A80036; stroke-width: 1.0;"/><polygon fill="#A80036" points="598.712,917.236,592.8894,909.2926,594.373,914.7515,588.9141,916.235,598.712,917.236" style="stroke: #A80036; stroke-width: 1.0;"/><text fill="#000000" font-family="sans-serif" font-size="13" lengthAdjust="spacingAndGlyphs" textLength="21" x="465" y="692.4951">has</text><polygon fill="#000000" points="471,701.3516,474,707.3516,477,701.3516,471,701.3516" style="stroke: #000000; stroke-width: 1.0;"/><text fill="#000000" font-family="sans-serif" font-size="13" lengthAdjust="spacingAndGlyphs" textLength="7" x="465.598" y="458.4037">1</text><text fill="#000000" font-family="sans-serif" font-size="13" lengthAdjust="spacingAndGlyphs" textLength="5" x="585.8956" y="910.8277">*</text><!--MD5=[f745a53692e45467a0a212ec3b2b3d69]
@startuml
skinparam classAttributeIconSize 0


package login {
class LoginSystem {
+newUser(nameCollab,emailCollab,COLLABORATOR)
+newUser(nameManager,emailManager,MANAGER)
}
}
package model {
class Collaborator {
  -String nameCollab
  -String emailCollab
  +Collaborator(nameCollab ,emailCollab)
}
class Manager {
  -String nameMan
  -String emailMan
  +Manager(nameMan, emailMan)
}

class Organization {
  -String nameOrg
  -String nif
  +validate()
  +Organization(nameOrg, nif)

}

class Platform {
  + RegistryOrganizations getRegistryOrganizations()
}
package RegistryClasses{
class RegistryOrganizations {
  +newOrganization (nameOrg, nif , nameCollab,\n emailCollab,nameManager,emailManager)
  +validate(org)
  +add(org)
  +registerOrganization(org)
}
}
}

package controller {
class RegisterOrganizationController {
    +newOrganization (nameOrg, nif , nameCollab,\nemailCollab,nameManager,emailManager)
    +registerOrganization()
}
}
package ui {
class RegisterOrganizationUI {
}
}
RegisterOrganizationUI ..> RegisterOrganizationController
RegisterOrganizationController ..> Platform
RegisterOrganizationController ..> RegistryOrganizations
RegisterOrganizationController ..> Organization
RegisterOrganizationController ..> LoginSystem
RegistryOrganizations "1" - -> "*" Organization : has registered >
Organization "1" - -> "1" Collaborator: has >
Organization "1" - -> "1" Manager: has >
Platform "1" - - -> "*" Organization : has >
Platform "1" - -> "*" Collaborator : has >
Platform "1" - -> "*" Manager : has >

@enduml

PlantUML version 1.2020.09(Sun May 10 11:51:06 BST 2020)
(GPL source distribution)
Java Runtime: OpenJDK Runtime Environment
JVM: OpenJDK 64-Bit Server VM
Java Version: 11.0.7+10-b765.53
Operating System: Windows 10
Default Encoding: Cp1252
Language: pt
Country: PT
--></g></svg>