<?xml version="1.0" encoding="UTF-8" standalone="no"?><svg xmlns="http://www.w3.org/2000/svg" xmlns:xlink="http://www.w3.org/1999/xlink" contentScriptType="application/ecmascript" contentStyleType="text/css" height="288px" preserveAspectRatio="none" style="width:1034px;height:288px;" version="1.1" viewBox="0 0 1034 288" width="1034px" zoomAndPan="magnify"><defs><filter height="300%" id="fch6y4bzxk54t" width="300%" x="-1" y="-1"><feGaussianBlur result="blurOut" stdDeviation="2.0"/><feColorMatrix in="blurOut" result="blurOut2" type="matrix" values="0 0 0 0 0 0 0 0 0 0 0 0 0 0 0 0 0 0 .4 0"/><feOffset dx="4.0" dy="4.0" in="blurOut2" result="blurOut3"/><feBlend in="SourceGraphic" in2="blurOut3" mode="normal"/></filter></defs><g><!--MD5=[99b8db98afdc2c8404e39242ef4c1e65]
class Platform--><rect fill="#FEFECE" filter="url(#fch6y4bzxk54t)" height="40" id="Platform" style="stroke: #A80036; stroke-width: 1.5;" width="84" x="6" y="129.5"/><ellipse cx="21" cy="145.5" fill="#ADD1B2" rx="11" ry="11" style="stroke: #A80036; stroke-width: 1.0;"/><path d="M23.9688,151.1406 Q23.3906,151.4375 22.75,151.5859 Q22.1094,151.7344 21.4063,151.7344 Q18.9063,151.7344 17.5859,150.0859 Q16.2656,148.4375 16.2656,145.3125 Q16.2656,142.1875 17.5859,140.5313 Q18.9063,138.875 21.4063,138.875 Q22.1094,138.875 22.7578,139.0313 Q23.4063,139.1875 23.9688,139.4844 L23.9688,142.2031 Q23.3438,141.625 22.75,141.3516 Q22.1563,141.0781 21.5313,141.0781 Q20.1875,141.0781 19.5,142.1484 Q18.8125,143.2188 18.8125,145.3125 Q18.8125,147.4063 19.5,148.4766 Q20.1875,149.5469 21.5313,149.5469 Q22.1563,149.5469 22.75,149.2734 Q23.3438,149 23.9688,148.4219 L23.9688,151.1406 Z "/><text fill="#000000" font-family="sans-serif" font-size="12" lengthAdjust="spacingAndGlyphs" textLength="52" x="35" y="149.6543">Platform</text><line style="stroke: #A80036; stroke-width: 1.5;" x1="7" x2="89" y1="161.5" y2="161.5"/><!--MD5=[1f687b5315377fe49fca59b457947463]
class Freelancer--><rect fill="#FEFECE" filter="url(#fch6y4bzxk54t)" height="142.4375" id="Freelancer" style="stroke: #A80036; stroke-width: 1.5;" width="194" x="829" y="8.5"/><ellipse cx="888.25" cy="24.5" fill="#ADD1B2" rx="11" ry="11" style="stroke: #A80036; stroke-width: 1.0;"/><path d="M891.2188,30.1406 Q890.6406,30.4375 890,30.5859 Q889.3594,30.7344 888.6563,30.7344 Q886.1563,30.7344 884.8359,29.0859 Q883.5156,27.4375 883.5156,24.3125 Q883.5156,21.1875 884.8359,19.5313 Q886.1563,17.875 888.6563,17.875 Q889.3594,17.875 890.0078,18.0313 Q890.6563,18.1875 891.2188,18.4844 L891.2188,21.2031 Q890.5938,20.625 890,20.3516 Q889.4063,20.0781 888.7813,20.0781 Q887.4375,20.0781 886.75,21.1484 Q886.0625,22.2188 886.0625,24.3125 Q886.0625,26.4063 886.75,27.4766 Q887.4375,28.5469 888.7813,28.5469 Q889.4063,28.5469 890,28.2734 Q890.5938,28 891.2188,27.4219 L891.2188,30.1406 Z "/><text fill="#000000" font-family="sans-serif" font-size="12" lengthAdjust="spacingAndGlyphs" textLength="67" x="908.75" y="28.6543">Freelancer</text><line style="stroke: #A80036; stroke-width: 1.5;" x1="830" x2="1022" y1="40.5" y2="40.5"/><rect fill="none" height="6" style="stroke: #C82930; stroke-width: 1.0;" width="6" x="837" y="48.5"/><text fill="#000000" font-family="sans-serif" font-size="11" lengthAdjust="spacingAndGlyphs" textLength="108" x="849" y="54.7104">String idFreelancer</text><rect fill="none" height="6" style="stroke: #C82930; stroke-width: 1.0;" width="6" x="837" y="61.3047"/><text fill="#000000" font-family="sans-serif" font-size="11" lengthAdjust="spacingAndGlyphs" textLength="129" x="849" y="67.5151">String freelancerName</text><rect fill="none" height="6" style="stroke: #C82930; stroke-width: 1.0;" width="6" x="837" y="74.1094"/><text fill="#000000" font-family="sans-serif" font-size="11" lengthAdjust="spacingAndGlyphs" textLength="149" x="849" y="80.3198">String freelancerExpertise</text><rect fill="none" height="6" style="stroke: #C82930; stroke-width: 1.0;" width="6" x="837" y="86.9141"/><text fill="#000000" font-family="sans-serif" font-size="11" lengthAdjust="spacingAndGlyphs" textLength="127" x="849" y="93.1245">String freelancerEmail</text><rect fill="none" height="6" style="stroke: #C82930; stroke-width: 1.0;" width="6" x="837" y="99.7188"/><text fill="#000000" font-family="sans-serif" font-size="11" lengthAdjust="spacingAndGlyphs" textLength="113" x="849" y="105.9292">String freelancerNIF</text><rect fill="none" height="6" style="stroke: #C82930; stroke-width: 1.0;" width="6" x="837" y="112.5234"/><text fill="#000000" font-family="sans-serif" font-size="11" lengthAdjust="spacingAndGlyphs" textLength="168" x="849" y="118.7339">String freelancerBankAccount</text><rect fill="none" height="6" style="stroke: #C82930; stroke-width: 1.0;" width="6" x="837" y="125.3281"/><text fill="#000000" font-family="sans-serif" font-size="11" lengthAdjust="spacingAndGlyphs" textLength="143" x="849" y="131.5386">String freelancerAddress</text><rect fill="none" height="6" style="stroke: #C82930; stroke-width: 1.0;" width="6" x="837" y="138.1328"/><text fill="#000000" font-family="sans-serif" font-size="11" lengthAdjust="spacingAndGlyphs" textLength="140" x="849" y="144.3433">String freelancerCountry</text><!--MD5=[b34797a66dc35cbf1d65f7e3ca75530e]
class Task--><rect fill="#FEFECE" filter="url(#fch6y4bzxk54t)" height="91.2188" id="Task" style="stroke: #A80036; stroke-width: 1.5;" width="180" x="836" y="186"/><ellipse cx="907.25" cy="202" fill="#ADD1B2" rx="11" ry="11" style="stroke: #A80036; stroke-width: 1.0;"/><path d="M910.2188,207.6406 Q909.6406,207.9375 909,208.0859 Q908.3594,208.2344 907.6563,208.2344 Q905.1563,208.2344 903.8359,206.5859 Q902.5156,204.9375 902.5156,201.8125 Q902.5156,198.6875 903.8359,197.0313 Q905.1563,195.375 907.6563,195.375 Q908.3594,195.375 909.0078,195.5313 Q909.6563,195.6875 910.2188,195.9844 L910.2188,198.7031 Q909.5938,198.125 909,197.8516 Q908.4063,197.5781 907.7813,197.5781 Q906.4375,197.5781 905.75,198.6484 Q905.0625,199.7188 905.0625,201.8125 Q905.0625,203.9063 905.75,204.9766 Q906.4375,206.0469 907.7813,206.0469 Q908.4063,206.0469 909,205.7734 Q909.5938,205.5 910.2188,204.9219 L910.2188,207.6406 Z "/><text fill="#000000" font-family="sans-serif" font-size="12" lengthAdjust="spacingAndGlyphs" textLength="29" x="927.75" y="206.1543">Task</text><line style="stroke: #A80036; stroke-width: 1.5;" x1="837" x2="1015" y1="218" y2="218"/><rect fill="none" height="6" style="stroke: #C82930; stroke-width: 1.0;" width="6" x="844" y="226"/><text fill="#000000" font-family="sans-serif" font-size="11" lengthAdjust="spacingAndGlyphs" textLength="79" x="856" y="232.2104">Integer taskID</text><rect fill="none" height="6" style="stroke: #C82930; stroke-width: 1.0;" width="6" x="844" y="238.8047"/><text fill="#000000" font-family="sans-serif" font-size="11" lengthAdjust="spacingAndGlyphs" textLength="154" x="856" y="245.0151">Integer taskAssignDuration</text><rect fill="none" height="6" style="stroke: #C82930; stroke-width: 1.0;" width="6" x="844" y="251.6094"/><text fill="#000000" font-family="sans-serif" font-size="11" lengthAdjust="spacingAndGlyphs" textLength="139" x="856" y="257.8198">Double taskCostPerHour</text><rect fill="none" height="6" style="stroke: #C82930; stroke-width: 1.0;" width="6" x="844" y="264.4141"/><text fill="#000000" font-family="sans-serif" font-size="11" lengthAdjust="spacingAndGlyphs" textLength="113" x="856" y="270.6245">String taskCategory</text><!--MD5=[4555bb1b0911a5adf28ce6dbe60fed2e]
class Transaction--><rect fill="#FEFECE" filter="url(#fch6y4bzxk54t)" height="104.0234" id="Transaction" style="stroke: #A80036; stroke-width: 1.5;" width="209" x="491" y="157.5"/><ellipse cx="554.25" cy="173.5" fill="#ADD1B2" rx="11" ry="11" style="stroke: #A80036; stroke-width: 1.0;"/><path d="M557.2188,179.1406 Q556.6406,179.4375 556,179.5859 Q555.3594,179.7344 554.6563,179.7344 Q552.1563,179.7344 550.8359,178.0859 Q549.5156,176.4375 549.5156,173.3125 Q549.5156,170.1875 550.8359,168.5313 Q552.1563,166.875 554.6563,166.875 Q555.3594,166.875 556.0078,167.0313 Q556.6563,167.1875 557.2188,167.4844 L557.2188,170.2031 Q556.5938,169.625 556,169.3516 Q555.4063,169.0781 554.7813,169.0781 Q553.4375,169.0781 552.75,170.1484 Q552.0625,171.2188 552.0625,173.3125 Q552.0625,175.4063 552.75,176.4766 Q553.4375,177.5469 554.7813,177.5469 Q555.4063,177.5469 556,177.2734 Q556.5938,177 557.2188,176.4219 L557.2188,179.1406 Z "/><text fill="#000000" font-family="sans-serif" font-size="12" lengthAdjust="spacingAndGlyphs" textLength="74" x="574.75" y="177.6543">Transaction</text><line style="stroke: #A80036; stroke-width: 1.5;" x1="492" x2="699" y1="189.5" y2="189.5"/><rect fill="none" height="6" style="stroke: #C82930; stroke-width: 1.0;" width="6" x="499" y="197.5"/><text fill="#000000" font-family="sans-serif" font-size="11" lengthAdjust="spacingAndGlyphs" textLength="85" x="511" y="203.7104">Integer transID</text><rect fill="none" height="6" style="stroke: #C82930; stroke-width: 1.0;" width="6" x="499" y="210.3047"/><text fill="#000000" font-family="sans-serif" font-size="11" lengthAdjust="spacingAndGlyphs" textLength="104" x="511" y="216.5151">Boolean transPaid</text><rect fill="none" height="6" style="stroke: #C82930; stroke-width: 1.0;" width="6" x="499" y="223.1094"/><text fill="#000000" font-family="sans-serif" font-size="11" lengthAdjust="spacingAndGlyphs" textLength="143" x="511" y="229.3198">Date executionFinishDate</text><rect fill="none" height="6" style="stroke: #C82930; stroke-width: 1.0;" width="6" x="499" y="235.9141"/><text fill="#000000" font-family="sans-serif" font-size="11" lengthAdjust="spacingAndGlyphs" textLength="129" x="511" y="242.1245">Integer executionDelay</text><rect fill="none" height="6" style="stroke: #C82930; stroke-width: 1.0;" width="6" x="499" y="248.7188"/><text fill="#000000" font-family="sans-serif" font-size="11" lengthAdjust="spacingAndGlyphs" textLength="183" x="511" y="254.9292">String executionBriefDescription</text><!--MD5=[7c8846fd7dc3143484153b44582f7f3a]
class externalEmailSender--><rect fill="#FEFECE" filter="url(#fch6y4bzxk54t)" height="40" id="externalEmailSender" style="stroke: #A80036; stroke-width: 1.5;" width="161" x="200" y="219.5"/><ellipse cx="215" cy="235.5" fill="#ADD1B2" rx="11" ry="11" style="stroke: #A80036; stroke-width: 1.0;"/><path d="M217.9688,241.1406 Q217.3906,241.4375 216.75,241.5859 Q216.1094,241.7344 215.4063,241.7344 Q212.9063,241.7344 211.5859,240.0859 Q210.2656,238.4375 210.2656,235.3125 Q210.2656,232.1875 211.5859,230.5313 Q212.9063,228.875 215.4063,228.875 Q216.1094,228.875 216.7578,229.0313 Q217.4063,229.1875 217.9688,229.4844 L217.9688,232.2031 Q217.3438,231.625 216.75,231.3516 Q216.1563,231.0781 215.5313,231.0781 Q214.1875,231.0781 213.5,232.1484 Q212.8125,233.2188 212.8125,235.3125 Q212.8125,237.4063 213.5,238.4766 Q214.1875,239.5469 215.5313,239.5469 Q216.1563,239.5469 216.75,239.2734 Q217.3438,239 217.9688,238.4219 L217.9688,241.1406 Z "/><text fill="#000000" font-family="sans-serif" font-size="12" lengthAdjust="spacingAndGlyphs" textLength="129" x="229" y="239.6543">externalEmailSender</text><line style="stroke: #A80036; stroke-width: 1.5;" x1="201" x2="360" y1="251.5" y2="251.5"/><!--MD5=[22697d4d863c2e08ab1d60ca0d61f844]
link Platform to Freelancer--><path d="M90.0914,139.7208 C99.8656,137.7315 110.2601,135.8404 120,134.5 C371.292,99.9164 669.7959,86.7469 823.3857,81.9953 " fill="none" id="Platform-&gt;Freelancer" style="stroke: #A80036; stroke-width: 1.0;"/><polygon fill="#A80036" points="828.788,81.8298,819.6697,78.1073,823.7903,81.9829,819.9147,86.1036,828.788,81.8298" style="stroke: #A80036; stroke-width: 1.0;"/><text fill="#000000" font-family="sans-serif" font-size="13" lengthAdjust="spacingAndGlyphs" textLength="23" x="408" y="96.5669">has</text><polygon fill="#000000" points="434,90.5664,440,93.5664,434,96.5664,434,90.5664" style="stroke: #000000; stroke-width: 1.0;"/><text fill="#000000" font-family="sans-serif" font-size="13" lengthAdjust="spacingAndGlyphs" textLength="8" x="98.0134" y="151.4074">1</text><text fill="#000000" font-family="sans-serif" font-size="13" lengthAdjust="spacingAndGlyphs" textLength="7" x="814.0772" y="94.6376">*</text><!--MD5=[3781be57b219e856d6dd67e0b949b069]
link Platform to Transaction--><path d="M90.0523,154.1085 C173.9003,163.2973 364.2732,184.1601 485.9667,197.4964 " fill="none" id="Platform-&gt;Transaction" style="stroke: #A80036; stroke-width: 1.0;"/><polygon fill="#A80036" points="490.9872,198.0465,482.4765,193.0898,486.017,197.5018,481.605,201.0422,490.9872,198.0465" style="stroke: #A80036; stroke-width: 1.0;"/><text fill="#000000" font-family="sans-serif" font-size="13" lengthAdjust="spacingAndGlyphs" textLength="35" x="263" y="163.5669">it has</text><text fill="#000000" font-family="sans-serif" font-size="13" lengthAdjust="spacingAndGlyphs" textLength="8" x="97.9675" y="168.268">1</text><text fill="#000000" font-family="sans-serif" font-size="13" lengthAdjust="spacingAndGlyphs" textLength="7" x="476.055" y="209.8271">*</text><!--MD5=[a044c09987d851a8785df94c2fd21fc5]
link Platform to externalEmailSender--><path d="M77.9192,169.6899 C90.5229,177.5727 105.5891,186.2088 120,192.5 C143.6991,202.8461 170.3345,211.682 194.9945,218.8063 " fill="none" id="Platform-&gt;externalEmailSender" style="stroke: #A80036; stroke-width: 1.0;"/><polygon fill="#A80036" points="199.8988,220.2083,192.345,213.8884,195.0914,218.8339,190.146,221.5803,199.8988,220.2083" style="stroke: #A80036; stroke-width: 1.0;"/><text fill="#000000" font-family="sans-serif" font-size="13" lengthAdjust="spacingAndGlyphs" textLength="35" x="121" y="188.5669">it has</text><polygon fill="#000000" points="159,182.5664,165,185.5664,159,188.5664,159,182.5664" style="stroke: #000000; stroke-width: 1.0;"/><text fill="#000000" font-family="sans-serif" font-size="13" lengthAdjust="spacingAndGlyphs" textLength="8" x="77.209" y="189.5633">1</text><text fill="#000000" font-family="sans-serif" font-size="13" lengthAdjust="spacingAndGlyphs" textLength="8" x="184.0996" y="231.1943">1</text><!--MD5=[1ba3bd4f93cb79c528974baff0351fc0]
link externalEmailSender to Transaction--><path d="M361.2113,231.8132 C399.0574,228.2088 444.7353,223.8585 485.6701,219.96 " fill="none" id="externalEmailSender-&gt;Transaction" style="stroke: #A80036; stroke-width: 1.0;"/><polygon fill="#A80036" points="490.8955,219.4623,481.5567,216.3338,485.918,219.9364,482.3154,224.2977,490.8955,219.4623" style="stroke: #A80036; stroke-width: 1.0;"/><text fill="#000000" font-family="sans-serif" font-size="13" lengthAdjust="spacingAndGlyphs" textLength="55" x="392" y="218.5669">gets info</text><polygon fill="#000000" points="450,212.5664,456,215.5664,450,218.5664,450,212.5664" style="stroke: #000000; stroke-width: 1.0;"/><text fill="#000000" font-family="sans-serif" font-size="13" lengthAdjust="spacingAndGlyphs" textLength="8" x="369.0206" y="243.869">1</text><text fill="#000000" font-family="sans-serif" font-size="13" lengthAdjust="spacingAndGlyphs" textLength="8" x="474.9199" y="232.8156">1</text><!--MD5=[8e4873cec2cb3febaaa9495c716fc885]
link Transaction to Task--><path d="M700.0723,216.4609 C741.7899,219.2379 789.4989,222.4137 830.2924,225.1291 " fill="none" id="Transaction-&gt;Task" style="stroke: #A80036; stroke-width: 1.0;"/><polygon fill="#A80036" points="835.744,225.492,827.0296,220.903,830.755,225.1599,826.4982,228.8853,835.744,225.492" style="stroke: #A80036; stroke-width: 1.0;"/><text fill="#000000" font-family="sans-serif" font-size="13" lengthAdjust="spacingAndGlyphs" textLength="54" x="731" y="214.5669">refers to</text><polygon fill="#000000" points="788,208.5664,794,211.5664,788,214.5664,788,208.5664" style="stroke: #000000; stroke-width: 1.0;"/><text fill="#000000" font-family="sans-serif" font-size="13" lengthAdjust="spacingAndGlyphs" textLength="8" x="708.0456" y="229.5938">1</text><text fill="#000000" font-family="sans-serif" font-size="13" lengthAdjust="spacingAndGlyphs" textLength="8" x="819.9384" y="237.6789">1</text><!--MD5=[542f32193441b56ea302115ed1249c3b]
link Transaction to Freelancer--><path d="M700.0723,168.3672 C739.6886,152.7844 784.708,135.0763 824.0771,119.5907 " fill="none" id="Transaction-&gt;Freelancer" style="stroke: #A80036; stroke-width: 1.0;"/><polygon fill="#A80036" points="828.8495,117.7135,819.0099,117.2856,824.1965,119.5438,821.9384,124.7304,828.8495,117.7135" style="stroke: #A80036; stroke-width: 1.0;"/><text fill="#000000" font-family="sans-serif" font-size="13" lengthAdjust="spacingAndGlyphs" textLength="13" x="751.5" y="129.5669">to</text><polygon fill="#000000" points="767.5,123.5664,773.5,126.5664,767.5,129.5664,767.5,123.5664" style="stroke: #000000; stroke-width: 1.0;"/><text fill="#000000" font-family="sans-serif" font-size="13" lengthAdjust="spacingAndGlyphs" textLength="8" x="708.0456" y="177.9682">1</text><text fill="#000000" font-family="sans-serif" font-size="13" lengthAdjust="spacingAndGlyphs" textLength="8" x="813.1052" y="133.2687">1</text><!--MD5=[e50bf1a67d8e476974cf3db94ac7b130]
@startuml
hide methods
left to right direction


class Platform {

}

class Freelancer {
-String idFreelancer
-String freelancerName
-String freelancerExpertise
-String freelancerEmail
-String freelancerNIF
-String freelancerBankAccount
-String freelancerAddress
-String freelancerCountry
}


class Task{
-Integer taskID
-Integer taskAssignDuration
-Double taskCostPerHour
-String taskCategory
}

class Transaction {
-Integer transID
-Boolean transPaid
-Date executionFinishDate
-Integer executionDelay
-String executionBriefDescription
}

class externalEmailSender

Platform"1" - -> "*" Freelancer : has >
Platform"1" - ->"*" Transaction : it has
Platform"1" - ->"1" externalEmailSender : it has >
externalEmailSender"1" - -> "1"Transaction : gets info >
Transaction "1" - -> "1" Task: refers to >
Transaction "1" - -> "1" Freelancer: to >
@enduml

PlantUML version 1.2019.12(Sun Nov 03 10:24:54 UTC 2019)
(GPL source distribution)
Java Runtime: OpenJDK Runtime Environment
JVM: OpenJDK 64-Bit Server VM
Java Version: 1.8.0_232-heroku-b09
Operating System: Linux
Default Encoding: UTF-8
Language: en
Country: US
--></g></svg>