<?xml version="1.0" encoding="UTF-8" standalone="no"?><svg xmlns="http://www.w3.org/2000/svg" xmlns:xlink="http://www.w3.org/1999/xlink" contentScriptType="application/ecmascript" contentStyleType="text/css" height="263px" preserveAspectRatio="none" style="width:1807px;height:263px;" version="1.1" viewBox="0 0 1807 263" width="1807px" zoomAndPan="magnify"><defs><filter height="300%" id="fsq3qhxy6f3h6" width="300%" x="-1" y="-1"><feGaussianBlur result="blurOut" stdDeviation="2.0"/><feColorMatrix in="blurOut" result="blurOut2" type="matrix" values="0 0 0 0 0 0 0 0 0 0 0 0 0 0 0 0 0 0 .4 0"/><feOffset dx="4.0" dy="4.0" in="blurOut2" result="blurOut3"/><feBlend in="SourceGraphic" in2="blurOut3" mode="normal"/></filter></defs><g><!--MD5=[64e2e010ba86d7988e5cd73bd64f61f9]
cluster ui--><polygon fill="#FFFFFF" filter="url(#fsq3qhxy6f3h6)" points="14,139,34,139,41,161.2969,208,161.2969,208,222,14,222,14,139" style="stroke: #000000; stroke-width: 1.5;"/><line style="stroke: #000000; stroke-width: 1.5;" x1="14" x2="41" y1="161.2969" y2="161.2969"/><text fill="#000000" font-family="sans-serif" font-size="14" font-weight="bold" lengthAdjust="spacingAndGlyphs" textLength="14" x="18" y="153.9951">ui</text><!--MD5=[10ea673caf457862023e152271927b45]
cluster controller--><polygon fill="#FFFFFF" filter="url(#fsq3qhxy6f3h6)" points="253,126,336,126,343,148.2969,508,148.2969,508,235,253,235,253,126" style="stroke: #000000; stroke-width: 1.5;"/><line style="stroke: #000000; stroke-width: 1.5;" x1="253" x2="343" y1="148.2969" y2="148.2969"/><text fill="#000000" font-family="sans-serif" font-size="14" font-weight="bold" lengthAdjust="spacingAndGlyphs" textLength="77" x="257" y="140.9951">controller</text><!--MD5=[5d4cd377749310b66bf14896f5cd8d9b]
cluster model--><polygon fill="#FFFFFF" filter="url(#fsq3qhxy6f3h6)" points="553,16,607,16,614,38.2969,1785,38.2969,1785,224,553,224,553,16" style="stroke: #000000; stroke-width: 1.5;"/><line style="stroke: #000000; stroke-width: 1.5;" x1="553" x2="614" y1="38.2969" y2="38.2969"/><text fill="#000000" font-family="sans-serif" font-size="14" font-weight="bold" lengthAdjust="spacingAndGlyphs" textLength="48" x="557" y="30.9951">model</text><!--MD5=[dc4e61d4170cc2f74c09b0195d9b4ebb]
cluster registrys--><polygon fill="#FFFFFF" filter="url(#fsq3qhxy6f3h6)" points="1192,43,1269,43,1276,65.2969,1454,65.2969,1454,216,1192,216,1192,43" style="stroke: #000000; stroke-width: 1.5;"/><line style="stroke: #000000; stroke-width: 1.5;" x1="1192" x2="1276" y1="65.2969" y2="65.2969"/><text fill="#000000" font-family="sans-serif" font-size="14" font-weight="bold" lengthAdjust="spacingAndGlyphs" textLength="71" x="1196" y="57.9951">registrys</text><!--MD5=[55704eba80bffde282d69ec0e56b0f3e]
class SendEmailHighDelaysUI--><rect fill="#FEFECE" filter="url(#fsq3qhxy6f3h6)" height="48" id="SendEmailHighDelaysUI" style="stroke: #A80036; stroke-width: 1.5;" width="178" x="22" y="166"/><ellipse cx="37" cy="182" fill="#ADD1B2" rx="11" ry="11" style="stroke: #A80036; stroke-width: 1.0;"/><path d="M39.9688,187.6406 Q39.3906,187.9375 38.75,188.0859 Q38.1094,188.2344 37.4063,188.2344 Q34.9063,188.2344 33.5859,186.5859 Q32.2656,184.9375 32.2656,181.8125 Q32.2656,178.6875 33.5859,177.0313 Q34.9063,175.375 37.4063,175.375 Q38.1094,175.375 38.7578,175.5313 Q39.4063,175.6875 39.9688,175.9844 L39.9688,178.7031 Q39.3438,178.125 38.75,177.8516 Q38.1563,177.5781 37.5313,177.5781 Q36.1875,177.5781 35.5,178.6484 Q34.8125,179.7188 34.8125,181.8125 Q34.8125,183.9063 35.5,184.9766 Q36.1875,186.0469 37.5313,186.0469 Q38.1563,186.0469 38.75,185.7734 Q39.3438,185.5 39.9688,184.9219 L39.9688,187.6406 Z "/><text fill="#000000" font-family="sans-serif" font-size="12" lengthAdjust="spacingAndGlyphs" textLength="146" x="51" y="186.1543">SendEmailHighDelaysUI</text><line style="stroke: #A80036; stroke-width: 1.5;" x1="23" x2="199" y1="198" y2="198"/><line style="stroke: #A80036; stroke-width: 1.5;" x1="23" x2="199" y1="206" y2="206"/><!--MD5=[944e03eeedcdd8dd4c13fc51f4563eed]
class SendEmailHighDelaysController--><rect fill="#FEFECE" filter="url(#fsq3qhxy6f3h6)" height="73.6094" id="SendEmailHighDelaysController" style="stroke: #A80036; stroke-width: 1.5;" width="239" x="261" y="153"/><ellipse cx="281.4" cy="169" fill="#ADD1B2" rx="11" ry="11" style="stroke: #A80036; stroke-width: 1.0;"/><path d="M284.3688,174.6406 Q283.7906,174.9375 283.15,175.0859 Q282.5094,175.2344 281.8063,175.2344 Q279.3063,175.2344 277.9859,173.5859 Q276.6656,171.9375 276.6656,168.8125 Q276.6656,165.6875 277.9859,164.0313 Q279.3063,162.375 281.8063,162.375 Q282.5094,162.375 283.1578,162.5313 Q283.8063,162.6875 284.3688,162.9844 L284.3688,165.7031 Q283.7438,165.125 283.15,164.8516 Q282.5563,164.5781 281.9313,164.5781 Q280.5875,164.5781 279.9,165.6484 Q279.2125,166.7188 279.2125,168.8125 Q279.2125,170.9063 279.9,171.9766 Q280.5875,173.0469 281.9313,173.0469 Q282.5563,173.0469 283.15,172.7734 Q283.7438,172.5 284.3688,171.9219 L284.3688,174.6406 Z "/><text fill="#000000" font-family="sans-serif" font-size="12" lengthAdjust="spacingAndGlyphs" textLength="195" x="296.6" y="173.1543">SendEmailHighDelaysController</text><line style="stroke: #A80036; stroke-width: 1.5;" x1="262" x2="499" y1="185" y2="185"/><line style="stroke: #A80036; stroke-width: 1.5;" x1="262" x2="499" y1="193" y2="193"/><text fill="#000000" font-family="sans-serif" font-size="11" lengthAdjust="spacingAndGlyphs" textLength="213" x="267" y="207.2104">+getFreelancersWithMeanTaskDelay()</text><text fill="#000000" font-family="sans-serif" font-size="11" lengthAdjust="spacingAndGlyphs" textLength="227" x="267" y="220.0151">+sendEmail(freelancersWithHighDelays)</text><!--MD5=[99b8db98afdc2c8404e39242ef4c1e65]
class Platform--><rect fill="#FEFECE" filter="url(#fsq3qhxy6f3h6)" height="60.8047" id="Platform" style="stroke: #A80036; stroke-width: 1.5;" width="160" x="561" y="132.5"/><ellipse cx="610.75" cy="148.5" fill="#ADD1B2" rx="11" ry="11" style="stroke: #A80036; stroke-width: 1.0;"/><path d="M613.7188,154.1406 Q613.1406,154.4375 612.5,154.5859 Q611.8594,154.7344 611.1563,154.7344 Q608.6563,154.7344 607.3359,153.0859 Q606.0156,151.4375 606.0156,148.3125 Q606.0156,145.1875 607.3359,143.5313 Q608.6563,141.875 611.1563,141.875 Q611.8594,141.875 612.5078,142.0313 Q613.1563,142.1875 613.7188,142.4844 L613.7188,145.2031 Q613.0938,144.625 612.5,144.3516 Q611.9063,144.0781 611.2813,144.0781 Q609.9375,144.0781 609.25,145.1484 Q608.5625,146.2188 608.5625,148.3125 Q608.5625,150.4063 609.25,151.4766 Q609.9375,152.5469 611.2813,152.5469 Q611.9063,152.5469 612.5,152.2734 Q613.0938,152 613.7188,151.4219 L613.7188,154.1406 Z "/><text fill="#000000" font-family="sans-serif" font-size="12" lengthAdjust="spacingAndGlyphs" textLength="52" x="631.25" y="152.6543">Platform</text><line style="stroke: #A80036; stroke-width: 1.5;" x1="562" x2="720" y1="164.5" y2="164.5"/><line style="stroke: #A80036; stroke-width: 1.5;" x1="562" x2="720" y1="172.5" y2="172.5"/><text fill="#000000" font-family="sans-serif" font-size="11" lengthAdjust="spacingAndGlyphs" textLength="148" x="567" y="186.7104">+getRegistryFreelancers()</text><!--MD5=[1f687b5315377fe49fca59b457947463]
class Freelancer--><rect fill="#FEFECE" filter="url(#fsq3qhxy6f3h6)" height="163.2422" id="Freelancer" style="stroke: #A80036; stroke-width: 1.5;" width="184" x="1593" y="52.5"/><ellipse cx="1647.25" cy="68.5" fill="#ADD1B2" rx="11" ry="11" style="stroke: #A80036; stroke-width: 1.0;"/><path d="M1650.2188,74.1406 Q1649.6406,74.4375 1649,74.5859 Q1648.3594,74.7344 1647.6563,74.7344 Q1645.1563,74.7344 1643.8359,73.0859 Q1642.5156,71.4375 1642.5156,68.3125 Q1642.5156,65.1875 1643.8359,63.5313 Q1645.1563,61.875 1647.6563,61.875 Q1648.3594,61.875 1649.0078,62.0313 Q1649.6563,62.1875 1650.2188,62.4844 L1650.2188,65.2031 Q1649.5938,64.625 1649,64.3516 Q1648.4063,64.0781 1647.7813,64.0781 Q1646.4375,64.0781 1645.75,65.1484 Q1645.0625,66.2188 1645.0625,68.3125 Q1645.0625,70.4063 1645.75,71.4766 Q1646.4375,72.5469 1647.7813,72.5469 Q1648.4063,72.5469 1649,72.2734 Q1649.5938,72 1650.2188,71.4219 L1650.2188,74.1406 Z "/><text fill="#000000" font-family="sans-serif" font-size="12" lengthAdjust="spacingAndGlyphs" textLength="67" x="1667.75" y="72.6543">Freelancer</text><line style="stroke: #A80036; stroke-width: 1.5;" x1="1594" x2="1776" y1="84.5" y2="84.5"/><text fill="#000000" font-family="sans-serif" font-size="11" lengthAdjust="spacingAndGlyphs" textLength="112" x="1599" y="98.7104">-String idFreelancer</text><text fill="#000000" font-family="sans-serif" font-size="11" lengthAdjust="spacingAndGlyphs" textLength="133" x="1599" y="111.5151">-String freelancerName</text><text fill="#000000" font-family="sans-serif" font-size="11" lengthAdjust="spacingAndGlyphs" textLength="153" x="1599" y="124.3198">-String freelancerExpertise</text><text fill="#000000" font-family="sans-serif" font-size="11" lengthAdjust="spacingAndGlyphs" textLength="131" x="1599" y="137.1245">-String freelancerEmail</text><text fill="#000000" font-family="sans-serif" font-size="11" lengthAdjust="spacingAndGlyphs" textLength="117" x="1599" y="149.9292">-String freelancerNIF</text><text fill="#000000" font-family="sans-serif" font-size="11" lengthAdjust="spacingAndGlyphs" textLength="172" x="1599" y="162.7339">-String freelancerBankAccount</text><text fill="#000000" font-family="sans-serif" font-size="11" lengthAdjust="spacingAndGlyphs" textLength="147" x="1599" y="175.5386">-String freelancerAddress</text><text fill="#000000" font-family="sans-serif" font-size="11" lengthAdjust="spacingAndGlyphs" textLength="144" x="1599" y="188.3433">-String freelancerCountry</text><line style="stroke: #A80036; stroke-width: 1.5;" x1="1594" x2="1776" y1="194.9375" y2="194.9375"/><text fill="#000000" font-family="sans-serif" font-size="11" lengthAdjust="spacingAndGlyphs" textLength="126" x="1599" y="209.1479">+getFreelancerEmail()</text><!--MD5=[5bd836c76226761f976d0bb420ddb7bc]
class <<interface>>\nExternalEmailSender--><rect fill="#FEFECE" filter="url(#fsq3qhxy6f3h6)" height="66.7422" id="&lt;&lt;interface&gt;&gt;\nExternalEmailSender" style="stroke: #A80036; stroke-width: 1.5;" width="209" x="868" y="130.5"/><ellipse cx="904.6" cy="149.4688" fill="#B4A7E5" rx="11" ry="11" style="stroke: #A80036; stroke-width: 1.0;"/><path d="M900.5219,145.2344 L900.5219,143.0781 L907.9125,143.0781 L907.9125,145.2344 L905.4438,145.2344 L905.4438,153.3125 L907.9125,153.3125 L907.9125,155.4688 L900.5219,155.4688 L900.5219,153.3125 L902.9906,153.3125 L902.9906,145.2344 L900.5219,145.2344 Z "/><text fill="#000000" font-family="sans-serif" font-size="12" font-style="italic" lengthAdjust="spacingAndGlyphs" textLength="96" x="939.9" y="146.6387">&lt;&lt;interface&gt;&gt;</text><text fill="#000000" font-family="sans-serif" font-size="12" font-style="italic" lengthAdjust="spacingAndGlyphs" textLength="129" x="923.4" y="160.6074">ExternalEmailSender</text><line style="stroke: #A80036; stroke-width: 1.5;" x1="869" x2="1076" y1="168.4375" y2="168.4375"/><line style="stroke: #A80036; stroke-width: 1.5;" x1="869" x2="1076" y1="176.4375" y2="176.4375"/><text fill="#000000" font-family="sans-serif" font-size="11" lengthAdjust="spacingAndGlyphs" textLength="197" x="874" y="190.6479">+sendEmail(email,header,content)</text><!--MD5=[978a975de38da8c3ea831d1914ac7312]
class RegistryFreelancers--><rect fill="#FEFECE" filter="url(#fsq3qhxy6f3h6)" height="137.6328" id="RegistryFreelancers" style="stroke: #A80036; stroke-width: 1.5;" width="246" x="1200" y="70"/><ellipse cx="1256.75" cy="86" fill="#ADD1B2" rx="11" ry="11" style="stroke: #A80036; stroke-width: 1.0;"/><path d="M1259.7188,91.6406 Q1259.1406,91.9375 1258.5,92.0859 Q1257.8594,92.2344 1257.1563,92.2344 Q1254.6563,92.2344 1253.3359,90.5859 Q1252.0156,88.9375 1252.0156,85.8125 Q1252.0156,82.6875 1253.3359,81.0313 Q1254.6563,79.375 1257.1563,79.375 Q1257.8594,79.375 1258.5078,79.5313 Q1259.1563,79.6875 1259.7188,79.9844 L1259.7188,82.7031 Q1259.0938,82.125 1258.5,81.8516 Q1257.9063,81.5781 1257.2813,81.5781 Q1255.9375,81.5781 1255.25,82.6484 Q1254.5625,83.7188 1254.5625,85.8125 Q1254.5625,87.9063 1255.25,88.9766 Q1255.9375,90.0469 1257.2813,90.0469 Q1257.9063,90.0469 1258.5,89.7734 Q1259.0938,89.5 1259.7188,88.9219 L1259.7188,91.6406 Z "/><text fill="#000000" font-family="sans-serif" font-size="12" lengthAdjust="spacingAndGlyphs" textLength="124" x="1277.25" y="90.1543">RegistryFreelancers</text><line style="stroke: #A80036; stroke-width: 1.5;" x1="1201" x2="1445" y1="102" y2="102"/><line style="stroke: #A80036; stroke-width: 1.5;" x1="1201" x2="1445" y1="110" y2="110"/><text fill="#000000" font-family="sans-serif" font-size="11" lengthAdjust="spacingAndGlyphs" textLength="188" x="1206" y="124.2104">+getFreelancersWithHighDelays()</text><text fill="#000000" font-family="sans-serif" font-size="11" lengthAdjust="spacingAndGlyphs" textLength="196" x="1206" y="137.0151">+calculateSumDelayFreelancer(frl)</text><text fill="#000000" font-family="sans-serif" font-size="11" lengthAdjust="spacingAndGlyphs" textLength="234" x="1206" y="149.8198">+calculatePercentageFreelancerDelay(frl)</text><text fill="#000000" font-family="sans-serif" font-size="11" lengthAdjust="spacingAndGlyphs" textLength="176" x="1206" y="162.6245">+getAveragePercentageDelay()</text><text fill="#000000" font-family="sans-serif" font-size="11" lengthAdjust="spacingAndGlyphs" textLength="132" x="1206" y="175.4292">+sendEmailWithInfo(frl)</text><text fill="#000000" font-family="sans-serif" font-size="11" lengthAdjust="spacingAndGlyphs" textLength="140" x="1206" y="188.2339">+generateEmailHeader()</text><text fill="#000000" font-family="sans-serif" font-size="11" lengthAdjust="spacingAndGlyphs" textLength="155" x="1206" y="201.0386">+generateEmailContent(frl)</text><!--MD5=[cab25826b9f21eadc573e5a271ca68b0]
link SendEmailHighDelaysUI to SendEmailHighDelaysController--><path d="M200.3653,190 C218.012,190 236.8345,190 255.4109,190 " fill="none" id="SendEmailHighDelaysUI-&gt;SendEmailHighDelaysController" style="stroke: #A80036; stroke-width: 1.0; stroke-dasharray: 7.0,7.0;"/><polygon fill="#A80036" points="260.6426,190,251.6426,186,255.6426,190,251.6426,194,260.6426,190" style="stroke: #A80036; stroke-width: 1.0;"/><!--MD5=[902bdd192155271588aec7bc65fc903c]
link SendEmailHighDelaysController to Platform--><path d="M500.0761,177.6063 C518.9038,175.6549 538.0309,173.6724 555.8698,171.8235 " fill="none" id="SendEmailHighDelaysController-&gt;Platform" style="stroke: #A80036; stroke-width: 1.0; stroke-dasharray: 7.0,7.0;"/><polygon fill="#A80036" points="560.8657,171.3057,551.5012,168.255,555.8924,171.8213,552.3261,176.2124,560.8657,171.3057" style="stroke: #A80036; stroke-width: 1.0;"/><!--MD5=[2951234ec92b87de964e6f1e9e8dcd0e]
link SendEmailHighDelaysController to RegistryFreelancers--><path d="M488.8213,227.0663 C535.1269,239.8396 590.1383,251 641,251 C641,251 641,251 1138.5,251 C1177.23,251 1214.7614,232.7426 1245.7487,210.9707 " fill="none" id="SendEmailHighDelaysController-&gt;RegistryFreelancers" style="stroke: #A80036; stroke-width: 1.0; stroke-dasharray: 7.0,7.0;"/><polygon fill="#A80036" points="1249.8824,208.0182,1240.2337,209.9939,1245.8136,210.9242,1244.8833,216.504,1249.8824,208.0182" style="stroke: #A80036; stroke-width: 1.0;"/><!--MD5=[4f878dd892a20705c739bf9da60c4694]
link Platform to RegistryFreelancers--><path d="M666.0876,132.3755 C693.968,102.0139 742.0282,60 794.5,60 C794.5,60 794.5,60 1138.5,60 C1157.2913,60 1176.3532,63.5059 1194.7379,69.0406 " fill="none" id="Platform-&gt;RegistryFreelancers" style="stroke: #A80036; stroke-width: 1.0;"/><polygon fill="#A80036" points="1199.9045,70.6543,1192.5063,64.153,1195.1319,69.1636,1190.1212,71.7892,1199.9045,70.6543" style="stroke: #A80036; stroke-width: 1.0;"/><text fill="#000000" font-family="sans-serif" font-size="13" lengthAdjust="spacingAndGlyphs" textLength="23" x="961" y="56.0669">has</text><text fill="#000000" font-family="sans-serif" font-size="13" lengthAdjust="spacingAndGlyphs" textLength="8" x="662.4369" y="121.6131">1</text><text fill="#000000" font-family="sans-serif" font-size="13" lengthAdjust="spacingAndGlyphs" textLength="8" x="1184.1596" y="79.0286">1</text><!--MD5=[d3b007cf1732ff75c77d91b21620c56e]
link RegistryFreelancers to Freelancer--><path d="M1446.0618,137.3003 C1492.3435,136.661 1544.275,135.9437 1587.8717,135.3416 " fill="none" id="RegistryFreelancers-&gt;Freelancer" style="stroke: #A80036; stroke-width: 1.0;"/><polygon fill="#A80036" points="1592.8744,135.2725,1583.8199,131.3973,1587.8749,135.3416,1583.9306,139.3966,1592.8744,135.2725" style="stroke: #A80036; stroke-width: 1.0;"/><text fill="#000000" font-family="sans-serif" font-size="13" lengthAdjust="spacingAndGlyphs" textLength="23" x="1508" y="133.0669">has</text><text fill="#000000" font-family="sans-serif" font-size="13" lengthAdjust="spacingAndGlyphs" textLength="8" x="1453.8046" y="149.7359">1</text><text fill="#000000" font-family="sans-serif" font-size="13" lengthAdjust="spacingAndGlyphs" textLength="7" x="1577.9554" y="148.0613">*</text><!--MD5=[fcae52a1a22336ec25b13619cbfa8fc4]
link Platform to <<interface>>\nExternalEmailSender--><path d="M721.2469,163.2421 C763.7696,163.3703 816.6313,163.5298 862.8815,163.6693 " fill="none" id="Platform-&gt;&lt;&lt;interface&gt;&gt;\nExternalEmailSender" style="stroke: #A80036; stroke-width: 1.0;"/><polygon fill="#A80036" points="867.91,163.6845,858.9222,159.6573,862.91,163.6694,858.8979,167.6572,867.91,163.6845" style="stroke: #A80036; stroke-width: 1.0;"/><text fill="#000000" font-family="sans-serif" font-size="13" lengthAdjust="spacingAndGlyphs" textLength="23" x="783" y="160.0669">has</text><text fill="#000000" font-family="sans-serif" font-size="13" lengthAdjust="spacingAndGlyphs" textLength="8" x="729.0134" y="176.0378">1</text><text fill="#000000" font-family="sans-serif" font-size="13" lengthAdjust="spacingAndGlyphs" textLength="8" x="851.9354" y="176.2933">1</text><!--MD5=[7903040302dc5b3cbaaa25ded89b0d1f]
link <<interface>>\nExternalEmailSender to RegistryFreelancers--><path d="M1077.1868,156.533 C1114.0597,153.903 1155.9358,150.9161 1194.5428,148.1624 " fill="none" id="&lt;&lt;interface&gt;&gt;\nExternalEmailSender-&gt;RegistryFreelancers" style="stroke: #A80036; stroke-width: 1.0; stroke-dasharray: 7.0,7.0;"/><polygon fill="#A80036" points="1199.7224,147.793,1190.4605,144.4437,1194.7351,148.1488,1191.0299,152.4234,1199.7224,147.793" style="stroke: #A80036; stroke-width: 1.0;"/><!--MD5=[66dcff8278a7e79fdc450694d0dcc24d]
@startuml
skinparam classAttributeIconSize 0
left to right direction

package ui {
class SendEmailHighDelaysUI {}
}

package controller {
class SendEmailHighDelaysController {
  +getFreelancersWithMeanTaskDelay()
  +sendEmail(freelancersWithHighDelays)
}
}

package model {
class Platform {
  +getRegistryFreelancers()
}

package registrys {
class RegistryFreelancers {
  +getFreelancersWithHighDelays()
  +calculateSumDelayFreelancer(frl)
  +calculatePercentageFreelancerDelay(frl)
  +getAveragePercentageDelay()
  +sendEmailWithInfo(frl)
  +generateEmailHeader()
  +generateEmailContent(frl)
}
}

class Freelancer {
  -String idFreelancer
  -String freelancerName
  -String freelancerExpertise
  -String freelancerEmail
  -String freelancerNIF
  -String freelancerBankAccount
  -String freelancerAddress
  -String freelancerCountry
  +getFreelancerEmail()
}

interface "<<interface>>\nExternalEmailSender" {
  +sendEmail(email,header,content)
}
}

SendEmailHighDelaysUI ..> SendEmailHighDelaysController
SendEmailHighDelaysController ..> Platform
SendEmailHighDelaysController ..> RegistryFreelancers
Platform "1" - -> "1" RegistryFreelancers: has
RegistryFreelancers "1" - -> "*" Freelancer: has
Platform"1" - ->"1" "<<interface>>\nExternalEmailSender" : has
"<<interface>>\nExternalEmailSender" ..> RegistryFreelancers
@enduml

PlantUML version 1.2019.12(Sun Nov 03 10:24:54 UTC 2019)
(GPL source distribution)
Java Runtime: OpenJDK Runtime Environment
JVM: OpenJDK 64-Bit Server VM
Java Version: 1.8.0_232-heroku-b09
Operating System: Linux
Default Encoding: UTF-8
Language: en
Country: US
--></g></svg>