<?xml version="1.0" encoding="UTF-8" standalone="no"?><svg xmlns="http://www.w3.org/2000/svg" xmlns:xlink="http://www.w3.org/1999/xlink" contentScriptType="application/ecmascript" contentStyleType="text/css" height="565px" preserveAspectRatio="none" style="width:608px;height:565px;" version="1.1" viewBox="0 0 608 565" width="608px" zoomAndPan="magnify"><defs><filter height="300%" id="f1hfev6edaa1hv" width="300%" x="-1" y="-1"><feGaussianBlur result="blurOut" stdDeviation="2.0"/><feColorMatrix in="blurOut" result="blurOut2" type="matrix" values="0 0 0 0 0 0 0 0 0 0 0 0 0 0 0 0 0 0 .4 0"/><feOffset dx="4.0" dy="4.0" in="blurOut2" result="blurOut3"/><feBlend in="SourceGraphic" in2="blurOut3" mode="normal"/></filter></defs><g><rect fill="#FFFFFF" filter="url(#f1hfev6edaa1hv)" height="196.9219" style="stroke: #A80036; stroke-width: 1.0;" width="10" x="193" y="71.9609"/><rect fill="#FFFFFF" filter="url(#f1hfev6edaa1hv)" height="127.4063" style="stroke: #A80036; stroke-width: 1.0;" width="10" x="411" y="324.2344"/><rect fill="#FFFFFF" filter="url(#f1hfev6edaa1hv)" height="212.7578" style="stroke: #A80036; stroke-width: 1.0;" width="10" x="565" y="238.8828"/><line style="stroke: #A80036; stroke-width: 1.0; stroke-dasharray: 5.0,5.0;" x1="198" x2="198" y1="39.6094" y2="524.3438"/><line style="stroke: #A80036; stroke-width: 1.0; stroke-dasharray: 5.0,5.0;" x1="416" x2="416" y1="113.2656" y2="524.3438"/><line style="stroke: #A80036; stroke-width: 1.0; stroke-dasharray: 5.0,5.0;" x1="570" x2="570" y1="203.2266" y2="524.3438"/><rect fill="#FEFECE" filter="url(#f1hfev6edaa1hv)" height="31.6094" style="stroke: #A80036; stroke-width: 1.5;" width="146" x="123" y="3"/><text fill="#000000" font-family="sans-serif" font-size="14" lengthAdjust="spacingAndGlyphs" textLength="132" x="130" y="24.5332">:RegistryFreelancers</text><rect fill="#FEFECE" filter="url(#f1hfev6edaa1hv)" height="31.6094" style="stroke: #A80036; stroke-width: 1.5;" width="146" x="123" y="523.3438"/><text fill="#000000" font-family="sans-serif" font-size="14" lengthAdjust="spacingAndGlyphs" textLength="132" x="130" y="544.877">:RegistryFreelancers</text><rect fill="#FEFECE" filter="url(#f1hfev6edaa1hv)" height="31.6094" style="stroke: #A80036; stroke-width: 1.5;" width="164" x="332" y="523.3438"/><text fill="#000000" font-family="sans-serif" font-size="14" lengthAdjust="spacingAndGlyphs" textLength="150" x="339" y="544.877">task:EndYearEmailTask</text><rect fill="#FEFECE" filter="url(#f1hfev6edaa1hv)" height="31.6094" style="stroke: #A80036; stroke-width: 1.5;" width="58" x="539" y="523.3438"/><text fill="#000000" font-family="sans-serif" font-size="14" lengthAdjust="spacingAndGlyphs" textLength="44" x="546" y="544.877">t:Timer</text><rect fill="#FFFFFF" filter="url(#f1hfev6edaa1hv)" height="196.9219" style="stroke: #A80036; stroke-width: 1.0;" width="10" x="193" y="71.9609"/><rect fill="#FFFFFF" filter="url(#f1hfev6edaa1hv)" height="127.4063" style="stroke: #A80036; stroke-width: 1.0;" width="10" x="411" y="324.2344"/><rect fill="#FFFFFF" filter="url(#f1hfev6edaa1hv)" height="212.7578" style="stroke: #A80036; stroke-width: 1.0;" width="10" x="565" y="238.8828"/><ellipse cx="10.5" cy="71.2109" fill="none" rx="4" ry="4" style="stroke: #A80036; stroke-width: 1.5;"/><polygon fill="#A80036" points="181,67.9609,191,71.9609,181,75.9609,185,71.9609" style="stroke: #A80036; stroke-width: 1.0;"/><line style="stroke: #A80036; stroke-width: 1.0;" x1="15" x2="187" y1="71.9609" y2="71.9609"/><text fill="#000000" font-family="sans-serif" font-size="13" font-weight="bold" lengthAdjust="spacingAndGlyphs" textLength="7" x="18" y="67.1045">1</text><text fill="#000000" font-family="sans-serif" font-size="13" lengthAdjust="spacingAndGlyphs" textLength="152" x="29" y="67.1045">scheduleAutomaticEmail()</text><polygon fill="#A80036" points="320,98.3125,330,102.3125,320,106.3125,324,102.3125" style="stroke: #A80036; stroke-width: 1.0;"/><line style="stroke: #A80036; stroke-width: 1.0; stroke-dasharray: 2.0,2.0;" x1="203" x2="326" y1="102.3125" y2="102.3125"/><text fill="#000000" font-family="sans-serif" font-size="13" font-weight="bold" lengthAdjust="spacingAndGlyphs" textLength="7" x="210" y="97.4561">2</text><text fill="#000000" font-family="sans-serif" font-size="13" lengthAdjust="spacingAndGlyphs" textLength="44" x="221" y="97.4561">create()</text><rect fill="#FEFECE" filter="url(#f1hfev6edaa1hv)" height="31.6094" style="stroke: #A80036; stroke-width: 1.5;" width="164" x="332" y="79.9609"/><text fill="#000000" font-family="sans-serif" font-size="14" lengthAdjust="spacingAndGlyphs" textLength="150" x="339" y="101.4941">task:EndYearEmailTask</text><line style="stroke: #A80036; stroke-width: 1.0;" x1="203" x2="245" y1="148.9219" y2="148.9219"/><line style="stroke: #A80036; stroke-width: 1.0;" x1="245" x2="245" y1="148.9219" y2="161.9219"/><line style="stroke: #A80036; stroke-width: 1.0;" x1="204" x2="245" y1="161.9219" y2="161.9219"/><polygon fill="#A80036" points="214,157.9219,204,161.9219,214,165.9219,210,161.9219" style="stroke: #A80036; stroke-width: 1.0;"/><text fill="#000000" font-family="sans-serif" font-size="13" font-weight="bold" lengthAdjust="spacingAndGlyphs" textLength="7" x="210" y="144.0654">3</text><text fill="#000000" font-family="sans-serif" font-size="13" lengthAdjust="spacingAndGlyphs" textLength="183" x="221" y="144.0654">definedDate=getDateSchedule()</text><polygon fill="#A80036" points="527,188.2734,537,192.2734,527,196.2734,531,192.2734" style="stroke: #A80036; stroke-width: 1.0;"/><line style="stroke: #A80036; stroke-width: 1.0; stroke-dasharray: 2.0,2.0;" x1="203" x2="533" y1="192.2734" y2="192.2734"/><text fill="#000000" font-family="sans-serif" font-size="13" font-weight="bold" lengthAdjust="spacingAndGlyphs" textLength="7" x="210" y="187.417">4</text><text fill="#000000" font-family="sans-serif" font-size="13" lengthAdjust="spacingAndGlyphs" textLength="44" x="221" y="187.417">create()</text><rect fill="#FEFECE" filter="url(#f1hfev6edaa1hv)" height="31.6094" style="stroke: #A80036; stroke-width: 1.5;" width="58" x="539" y="169.9219"/><text fill="#000000" font-family="sans-serif" font-size="14" lengthAdjust="spacingAndGlyphs" textLength="44" x="546" y="191.4551">t:Timer</text><polygon fill="#A80036" points="553,234.8828,563,238.8828,553,242.8828,557,238.8828" style="stroke: #A80036; stroke-width: 1.0;"/><line style="stroke: #A80036; stroke-width: 1.0;" x1="203" x2="559" y1="238.8828" y2="238.8828"/><text fill="#000000" font-family="sans-serif" font-size="13" font-weight="bold" lengthAdjust="spacingAndGlyphs" textLength="7" x="210" y="234.0264">5</text><text fill="#000000" font-family="sans-serif" font-size="13" lengthAdjust="spacingAndGlyphs" textLength="157" x="221" y="234.0264">schedule(task,definedDate)</text><polygon fill="#A80036" points="432,320.2344,422,324.2344,432,328.2344,428,324.2344" style="stroke: #A80036; stroke-width: 1.0;"/><line style="stroke: #A80036; stroke-width: 1.0;" x1="426" x2="564" y1="324.2344" y2="324.2344"/><text fill="#000000" font-family="sans-serif" font-size="13" font-weight="bold" lengthAdjust="spacingAndGlyphs" textLength="7" x="438" y="319.3779">6</text><text fill="#000000" font-family="sans-serif" font-size="13" lengthAdjust="spacingAndGlyphs" textLength="26" x="449" y="319.3779">run()</text><line style="stroke: #A80036; stroke-width: 1.0;" x1="421" x2="463" y1="354.5859" y2="354.5859"/><line style="stroke: #A80036; stroke-width: 1.0;" x1="463" x2="463" y1="354.5859" y2="367.5859"/><line style="stroke: #A80036; stroke-width: 1.0;" x1="422" x2="463" y1="367.5859" y2="367.5859"/><polygon fill="#A80036" points="432,363.5859,422,367.5859,432,371.5859,428,367.5859" style="stroke: #A80036; stroke-width: 1.0;"/><text fill="#000000" font-family="sans-serif" font-size="13" font-weight="bold" lengthAdjust="spacingAndGlyphs" textLength="7" x="428" y="349.7295">7</text><text fill="#000000" font-family="sans-serif" font-size="13" lengthAdjust="spacingAndGlyphs" textLength="76" x="439" y="349.7295">sendEmails()</text><rect fill="#FFFFFF" filter="url(#f1hfev6edaa1hv)" height="42.7031" style="stroke: #000000; stroke-width: 2.0;" width="170" x="329" y="375.5859"/><polygon fill="#EEEEEE" points="329,375.5859,391,375.5859,391,383.5859,381,393.5859,329,393.5859,329,375.5859" style="stroke: #000000; stroke-width: 2.0;"/><text fill="#000000" font-family="sans-serif" font-size="13" font-weight="bold" lengthAdjust="spacingAndGlyphs" textLength="17" x="342" y="391.0811">ref</text><text fill="#000000" font-family="sans-serif" font-size="13" lengthAdjust="spacingAndGlyphs" textLength="93" x="369.5" y="411.0811">SD_sendEmails</text><line style="stroke: #A80036; stroke-width: 1.0;" x1="421" x2="463" y1="450.6406" y2="450.6406"/><line style="stroke: #A80036; stroke-width: 1.0;" x1="463" x2="463" y1="450.6406" y2="463.6406"/><line style="stroke: #A80036; stroke-width: 1.0;" x1="416" x2="463" y1="463.6406" y2="463.6406"/><polygon fill="#A80036" points="426,459.6406,416,463.6406,426,467.6406,422,463.6406" style="stroke: #A80036; stroke-width: 1.0;"/><text fill="#000000" font-family="sans-serif" font-size="13" font-weight="bold" lengthAdjust="spacingAndGlyphs" textLength="7" x="428" y="445.7842">8</text><text fill="#000000" font-family="sans-serif" font-size="13" lengthAdjust="spacingAndGlyphs" textLength="119" x="439" y="445.7842">scheduleNextTimer()</text><rect fill="#FFFFFF" filter="url(#f1hfev6edaa1hv)" height="42.7031" style="stroke: #000000; stroke-width: 2.0;" width="170" x="329" y="466.6406"/><polygon fill="#EEEEEE" points="329,466.6406,391,466.6406,391,474.6406,381,484.6406,329,484.6406,329,466.6406" style="stroke: #000000; stroke-width: 2.0;"/><text fill="#000000" font-family="sans-serif" font-size="13" font-weight="bold" lengthAdjust="spacingAndGlyphs" textLength="17" x="342" y="482.1357">ref</text><text fill="#000000" font-family="sans-serif" font-size="13" lengthAdjust="spacingAndGlyphs" textLength="138" x="347" y="502.1357">SD_ScheduleNextTimer</text><!--MD5=[2bbb6ef9a2184d076d7df3c3dbf51c8a]
@startuml
autonumber
participant ":RegistryFreelancers" as REFREE
participant "task:EndYearEmailTask" as TASK
participant "t:Timer" as TIM



[o-> REFREE : scheduleAutomaticEmail()
activate REFREE

REFREE- -> TASK**: create()
REFREE -> REFREE : definedDate=getDateSchedule()
REFREE- -> TIM**: create()

REFREE-> TIM: schedule(task,definedDate)
activate TIM
|||
deactivate REFREE
TIM -> TASK : run()
activate TASK
TASK->TASK: sendEmails()
ref over TASK: SD_sendEmails
TASK -> TASK: scheduleNextTimer()
ref over TASK: SD_ScheduleNextTimer

deactivate TASK
deactivate TIM

@enduml

PlantUML version 1.2020.07(Sun Apr 19 12:42:40 BST 2020)
(GPL source distribution)
Java Runtime: OpenJDK Runtime Environment
JVM: OpenJDK 64-Bit Server VM
Java Version: 11.0.6+8-b765.25
Operating System: Windows 10
Default Encoding: Cp1252
Language: pt
Country: PT
--></g></svg>