<?xml version="1.0" encoding="UTF-8" standalone="no"?><svg xmlns="http://www.w3.org/2000/svg" xmlns:xlink="http://www.w3.org/1999/xlink" contentScriptType="application/ecmascript" contentStyleType="text/css" height="336px" preserveAspectRatio="none" style="width:1565px;height:336px;" version="1.1" viewBox="0 0 1565 336" width="1565px" zoomAndPan="magnify"><defs><filter height="300%" id="f1wuilxgfr2rh6" width="300%" x="-1" y="-1"><feGaussianBlur result="blurOut" stdDeviation="2.0"/><feColorMatrix in="blurOut" result="blurOut2" type="matrix" values="0 0 0 0 0 0 0 0 0 0 0 0 0 0 0 0 0 0 .4 0"/><feOffset dx="4.0" dy="4.0" in="blurOut2" result="blurOut3"/><feBlend in="SourceGraphic" in2="blurOut3" mode="normal"/></filter></defs><g><!--MD5=[e9d6884d023c009175adb4285a573e02]
cluster java--><polygon fill="#FFFFFF" filter="url(#f1wuilxgfr2rh6)" points="22,173,57,173,64,196.6094,205,196.6094,205,301,22,301,22,173" style="stroke: #000000; stroke-width: 1.5;"/><line style="stroke: #000000; stroke-width: 1.5;" x1="22" x2="64" y1="196.6094" y2="196.6094"/><text fill="#000000" font-family="sans-serif" font-size="14" font-weight="bold" lengthAdjust="spacingAndGlyphs" textLength="29" x="26" y="189.5332">java</text><!--MD5=[10ea673caf457862023e152271927b45]
cluster controller--><polygon fill="#FFFFFF" filter="url(#f1wuilxgfr2rh6)" points="238,159,313,159,320,182.6094,408,182.6094,408,315,238,315,238,159" style="stroke: #000000; stroke-width: 1.5;"/><line style="stroke: #000000; stroke-width: 1.5;" x1="238" x2="320" y1="182.6094" y2="182.6094"/><text fill="#000000" font-family="sans-serif" font-size="14" font-weight="bold" lengthAdjust="spacingAndGlyphs" textLength="69" x="242" y="175.5332">controller</text><!--MD5=[5d4cd377749310b66bf14896f5cd8d9b]
cluster model--><polygon fill="#FFFFFF" filter="url(#f1wuilxgfr2rh6)" points="503,24,552,24,559,47.6094,1543,47.6094,1543,317,503,317,503,24" style="stroke: #000000; stroke-width: 1.5;"/><line style="stroke: #000000; stroke-width: 1.5;" x1="503" x2="559" y1="47.6094" y2="47.6094"/><text fill="#000000" font-family="sans-serif" font-size="14" font-weight="bold" lengthAdjust="spacingAndGlyphs" textLength="43" x="507" y="40.5332">model</text><!--MD5=[7f775bfb84d28e8b3efc1913f21e6985]
cluster RegistryClasses--><polygon fill="#FFFFFF" filter="url(#f1wuilxgfr2rh6)" points="1099,68,1218,68,1225,91.6094,1354,91.6094,1354,280,1099,280,1099,68" style="stroke: #000000; stroke-width: 1.5;"/><line style="stroke: #000000; stroke-width: 1.5;" x1="1099" x2="1225" y1="91.6094" y2="91.6094"/><text fill="#000000" font-family="sans-serif" font-size="14" font-weight="bold" lengthAdjust="spacingAndGlyphs" textLength="113" x="1103" y="84.5332">RegistryClasses</text><!--MD5=[1b844c90688aafb95cd8c95626c3b83a]
class Timer--><rect fill="#FEFECE" filter="url(#f1wuilxgfr2rh6)" height="75.6719" id="Timer" style="stroke: #A80036; stroke-width: 1.5;" width="151" x="38" y="209"/><ellipse cx="93.25" cy="225" fill="#ADD1B2" rx="11" ry="11" style="stroke: #A80036; stroke-width: 1.0;"/><path d="M95.25,221.5 Q95.4531,221 95.6875,220.75 Q95.9219,220.5 96.1875,220.5 Q96.6563,220.5 96.9531,220.7813 Q97.25,221.0625 97.25,221.7188 L97.25,223.2813 Q97.25,223.9375 96.9688,224.2188 Q96.6875,224.5 96.25,224.5 Q95.8594,224.5 95.6094,224.3281 Q95.3594,224.1563 95.25,223.7031 Q95.2031,223.3906 95.0313,223.2188 Q94.7188,222.8906 94.1563,222.7031 Q93.5938,222.5 93.0313,222.5 Q92.3281,222.5 91.7344,222.7813 Q91.1563,223.0625 90.7031,223.6875 Q90.25,224.3125 90.25,225.1719 L90.25,226.0938 Q90.25,227.125 91.0938,227.8125 Q91.9375,228.5 93.4375,228.5 Q94.3281,228.5 94.9531,228.2969 Q95.3125,228.1875 95.7188,227.8281 Q95.9844,227.625 96.125,227.5625 Q96.2656,227.5 96.4375,227.5 Q96.7656,227.5 97,227.7656 Q97.25,228.0156 97.25,228.375 Q97.25,228.7188 96.9063,229.125 Q96.4063,229.7188 95.6094,230.0469 Q94.5625,230.5 93.2813,230.5 Q91.7813,230.5 90.5781,229.9063 Q89.6094,229.4375 88.9219,228.4219 Q88.25,227.4063 88.25,226.2031 L88.25,225.1094 Q88.25,223.8594 88.8438,222.7656 Q89.4531,221.6719 90.5,221.0938 Q91.5625,220.5 92.75,220.5 Q93.4688,220.5 94.0938,220.75 Q94.7188,221 95.25,221.5 Z "/><text fill="#000000" font-family="sans-serif" font-size="12" lengthAdjust="spacingAndGlyphs" textLength="32" x="113.75" y="229.9102">Timer</text><line style="stroke: #A80036; stroke-width: 1.5;" x1="39" x2="188" y1="241" y2="241"/><line style="stroke: #A80036; stroke-width: 1.5;" x1="39" x2="188" y1="249" y2="249"/><text fill="#000000" font-family="sans-serif" font-size="11" lengthAdjust="spacingAndGlyphs" textLength="40" x="44" y="264.4189">+Timer()</text><text fill="#000000" font-family="sans-serif" font-size="11" lengthAdjust="spacingAndGlyphs" textLength="139" x="44" y="278.2549">+schedule(task,definedDate)</text><!--MD5=[12b0e17a567e529f3debb36e4224b711]
class EndYearEmailTask--><rect fill="#FEFECE" filter="url(#f1wuilxgfr2rh6)" height="103.3438" id="EndYearEmailTask" style="stroke: #A80036; stroke-width: 1.5;" width="138" x="254" y="195.5"/><ellipse cx="269" cy="211.5" fill="#ADD1B2" rx="11" ry="11" style="stroke: #A80036; stroke-width: 1.0;"/><path d="M271,208 Q271.2031,207.5 271.4375,207.25 Q271.6719,207 271.9375,207 Q272.4063,207 272.7031,207.2813 Q273,207.5625 273,208.2188 L273,209.7813 Q273,210.4375 272.7188,210.7188 Q272.4375,211 272,211 Q271.6094,211 271.3594,210.8281 Q271.1094,210.6563 271,210.2031 Q270.9531,209.8906 270.7813,209.7188 Q270.4688,209.3906 269.9063,209.2031 Q269.3438,209 268.7813,209 Q268.0781,209 267.4844,209.2813 Q266.9063,209.5625 266.4531,210.1875 Q266,210.8125 266,211.6719 L266,212.5938 Q266,213.625 266.8438,214.3125 Q267.6875,215 269.1875,215 Q270.0781,215 270.7031,214.7969 Q271.0625,214.6875 271.4688,214.3281 Q271.7344,214.125 271.875,214.0625 Q272.0156,214 272.1875,214 Q272.5156,214 272.75,214.2656 Q273,214.5156 273,214.875 Q273,215.2188 272.6563,215.625 Q272.1563,216.2188 271.3594,216.5469 Q270.3125,217 269.0313,217 Q267.5313,217 266.3281,216.4063 Q265.3594,215.9375 264.6719,214.9219 Q264,213.9063 264,212.7031 L264,211.6094 Q264,210.3594 264.5938,209.2656 Q265.2031,208.1719 266.25,207.5938 Q267.3125,207 268.5,207 Q269.2188,207 269.8438,207.25 Q270.4688,207.5 271,208 Z "/><text fill="#000000" font-family="sans-serif" font-size="12" lengthAdjust="spacingAndGlyphs" textLength="106" x="283" y="216.4102">EndYearEmailTask</text><line style="stroke: #A80036; stroke-width: 1.5;" x1="255" x2="391" y1="227.5" y2="227.5"/><line style="stroke: #A80036; stroke-width: 1.5;" x1="255" x2="391" y1="235.5" y2="235.5"/><text fill="#000000" font-family="sans-serif" font-size="11" lengthAdjust="spacingAndGlyphs" textLength="103" x="260" y="250.9189">+EndYearEmailTask()</text><text fill="#000000" font-family="sans-serif" font-size="11" lengthAdjust="spacingAndGlyphs" textLength="30" x="260" y="264.7549">+run()</text><text fill="#000000" font-family="sans-serif" font-size="11" lengthAdjust="spacingAndGlyphs" textLength="68" x="260" y="278.5908">+sendEmails()</text><text fill="#000000" font-family="sans-serif" font-size="11" lengthAdjust="spacingAndGlyphs" textLength="106" x="260" y="292.4268">+scheduleNextTimer()</text><!--MD5=[99b8db98afdc2c8404e39242ef4c1e65]
class Platform--><rect fill="#FEFECE" filter="url(#f1wuilxgfr2rh6)" height="75.6719" id="Platform" style="stroke: #A80036; stroke-width: 1.5;" width="139" x="519" y="185"/><ellipse cx="561.45" cy="201" fill="#ADD1B2" rx="11" ry="11" style="stroke: #A80036; stroke-width: 1.0;"/><path d="M563.45,197.5 Q563.6531,197 563.8875,196.75 Q564.1219,196.5 564.3875,196.5 Q564.8563,196.5 565.1531,196.7813 Q565.45,197.0625 565.45,197.7188 L565.45,199.2813 Q565.45,199.9375 565.1688,200.2188 Q564.8875,200.5 564.45,200.5 Q564.0594,200.5 563.8094,200.3281 Q563.5594,200.1563 563.45,199.7031 Q563.4031,199.3906 563.2313,199.2188 Q562.9188,198.8906 562.3563,198.7031 Q561.7938,198.5 561.2313,198.5 Q560.5281,198.5 559.9344,198.7813 Q559.3563,199.0625 558.9031,199.6875 Q558.45,200.3125 558.45,201.1719 L558.45,202.0938 Q558.45,203.125 559.2938,203.8125 Q560.1375,204.5 561.6375,204.5 Q562.5281,204.5 563.1531,204.2969 Q563.5125,204.1875 563.9188,203.8281 Q564.1844,203.625 564.325,203.5625 Q564.4656,203.5 564.6375,203.5 Q564.9656,203.5 565.2,203.7656 Q565.45,204.0156 565.45,204.375 Q565.45,204.7188 565.1063,205.125 Q564.6063,205.7188 563.8094,206.0469 Q562.7625,206.5 561.4813,206.5 Q559.9813,206.5 558.7781,205.9063 Q557.8094,205.4375 557.1219,204.4219 Q556.45,203.4063 556.45,202.2031 L556.45,201.1094 Q556.45,199.8594 557.0438,198.7656 Q557.6531,197.6719 558.7,197.0938 Q559.7625,196.5 560.95,196.5 Q561.6688,196.5 562.2938,196.75 Q562.9188,197 563.45,197.5 Z "/><text fill="#000000" font-family="sans-serif" font-size="12" lengthAdjust="spacingAndGlyphs" textLength="46" x="581.55" y="205.9102">Platform</text><line style="stroke: #A80036; stroke-width: 1.5;" x1="520" x2="657" y1="217" y2="217"/><line style="stroke: #A80036; stroke-width: 1.5;" x1="520" x2="657" y1="225" y2="225"/><text fill="#000000" font-family="sans-serif" font-size="11" lengthAdjust="spacingAndGlyphs" textLength="127" x="525" y="240.4189">+getExternalEmailSender()</text><text fill="#000000" font-family="sans-serif" font-size="11" lengthAdjust="spacingAndGlyphs" textLength="121" x="525" y="254.2549">+getRegistryFreelancer()</text><!--MD5=[1f687b5315377fe49fca59b457947463]
class Freelancer--><rect fill="#FEFECE" filter="url(#f1wuilxgfr2rh6)" height="61.8359" id="Freelancer" style="stroke: #A80036; stroke-width: 1.5;" width="91" x="1436" y="215"/><ellipse cx="1451" cy="231" fill="#ADD1B2" rx="11" ry="11" style="stroke: #A80036; stroke-width: 1.0;"/><path d="M1453,227.5 Q1453.2031,227 1453.4375,226.75 Q1453.6719,226.5 1453.9375,226.5 Q1454.4063,226.5 1454.7031,226.7813 Q1455,227.0625 1455,227.7188 L1455,229.2813 Q1455,229.9375 1454.7188,230.2188 Q1454.4375,230.5 1454,230.5 Q1453.6094,230.5 1453.3594,230.3281 Q1453.1094,230.1563 1453,229.7031 Q1452.9531,229.3906 1452.7813,229.2188 Q1452.4688,228.8906 1451.9063,228.7031 Q1451.3438,228.5 1450.7813,228.5 Q1450.0781,228.5 1449.4844,228.7813 Q1448.9063,229.0625 1448.4531,229.6875 Q1448,230.3125 1448,231.1719 L1448,232.0938 Q1448,233.125 1448.8438,233.8125 Q1449.6875,234.5 1451.1875,234.5 Q1452.0781,234.5 1452.7031,234.2969 Q1453.0625,234.1875 1453.4688,233.8281 Q1453.7344,233.625 1453.875,233.5625 Q1454.0156,233.5 1454.1875,233.5 Q1454.5156,233.5 1454.75,233.7656 Q1455,234.0156 1455,234.375 Q1455,234.7188 1454.6563,235.125 Q1454.1563,235.7188 1453.3594,236.0469 Q1452.3125,236.5 1451.0313,236.5 Q1449.5313,236.5 1448.3281,235.9063 Q1447.3594,235.4375 1446.6719,234.4219 Q1446,233.4063 1446,232.2031 L1446,231.1094 Q1446,229.8594 1446.5938,228.7656 Q1447.2031,227.6719 1448.25,227.0938 Q1449.3125,226.5 1450.5,226.5 Q1451.2188,226.5 1451.8438,226.75 Q1452.4688,227 1453,227.5 Z "/><text fill="#000000" font-family="sans-serif" font-size="12" lengthAdjust="spacingAndGlyphs" textLength="59" x="1465" y="235.9102">Freelancer</text><line style="stroke: #A80036; stroke-width: 1.5;" x1="1437" x2="1526" y1="247" y2="247"/><line style="stroke: #A80036; stroke-width: 1.5;" x1="1437" x2="1526" y1="255" y2="255"/><text fill="#000000" font-family="sans-serif" font-size="11" lengthAdjust="spacingAndGlyphs" textLength="53" x="1442" y="270.4189">+getEmail()</text><!--MD5=[5bd836c76226761f976d0bb420ddb7bc]
class <<interface>>\nExternalEmailSender--><rect fill="#FEFECE" filter="url(#f1wuilxgfr2rh6)" height="70.0234" id="&lt;&lt;interface&gt;&gt;\nExternalEmailSender" style="stroke: #A80036; stroke-width: 1.5;" width="174" x="781" y="160"/><ellipse cx="807.25" cy="180.0938" fill="#B4A7E5" rx="11" ry="11" style="stroke: #A80036; stroke-width: 1.0;"/><path d="M808.25,177.0938 L808.25,183.0938 L810.25,183.0938 L810.7344,183.0938 L811.25,183.7188 L811.25,184.0938 L811.25,184.4688 L810.7344,185.0938 L810.25,185.0938 L804.25,185.0938 L803.7656,185.0938 L803.25,184.4688 L803.25,184.0938 L803.25,183.7188 L803.7656,183.0938 L804.25,183.0938 L806.25,183.0938 L806.25,177.0938 L804.25,177.0938 L803.7656,177.0938 L803.25,176.4688 L803.25,176.0938 L803.25,175.7188 L803.7656,175.0938 L804.25,175.0938 L810.25,175.0938 L810.7344,175.0938 L811.25,175.7188 L811.25,176.0938 L811.25,176.4688 L810.7344,177.0938 L810.25,177.0938 L808.25,177.0938 Z "/><text fill="#000000" font-family="sans-serif" font-size="12" font-style="italic" lengthAdjust="spacingAndGlyphs" textLength="75" x="844.75" y="177.457">&lt;&lt;interface&gt;&gt;</text><text fill="#000000" font-family="sans-serif" font-size="12" font-style="italic" lengthAdjust="spacingAndGlyphs" textLength="117" x="823.75" y="192.5508">ExternalEmailSender</text><line style="stroke: #A80036; stroke-width: 1.5;" x1="782" x2="954" y1="200.1875" y2="200.1875"/><line style="stroke: #A80036; stroke-width: 1.5;" x1="782" x2="954" y1="208.1875" y2="208.1875"/><text fill="#000000" font-family="sans-serif" font-size="11" lengthAdjust="spacingAndGlyphs" textLength="162" x="787" y="223.6064">+sendEmail(email,header,content)</text><!--MD5=[c967c59b7980d99138ab6434123f7b4a]
class RegistryFreelancer--><rect fill="#FEFECE" filter="url(#f1wuilxgfr2rh6)" height="158.6875" id="RegistryFreelancer" style="stroke: #A80036; stroke-width: 1.5;" width="223" x="1115" y="104.5"/><ellipse cx="1170.25" cy="120.5" fill="#ADD1B2" rx="11" ry="11" style="stroke: #A80036; stroke-width: 1.0;"/><path d="M1172.25,117 Q1172.4531,116.5 1172.6875,116.25 Q1172.9219,116 1173.1875,116 Q1173.6563,116 1173.9531,116.2813 Q1174.25,116.5625 1174.25,117.2188 L1174.25,118.7813 Q1174.25,119.4375 1173.9688,119.7188 Q1173.6875,120 1173.25,120 Q1172.8594,120 1172.6094,119.8281 Q1172.3594,119.6563 1172.25,119.2031 Q1172.2031,118.8906 1172.0313,118.7188 Q1171.7188,118.3906 1171.1563,118.2031 Q1170.5938,118 1170.0313,118 Q1169.3281,118 1168.7344,118.2813 Q1168.1563,118.5625 1167.7031,119.1875 Q1167.25,119.8125 1167.25,120.6719 L1167.25,121.5938 Q1167.25,122.625 1168.0938,123.3125 Q1168.9375,124 1170.4375,124 Q1171.3281,124 1171.9531,123.7969 Q1172.3125,123.6875 1172.7188,123.3281 Q1172.9844,123.125 1173.125,123.0625 Q1173.2656,123 1173.4375,123 Q1173.7656,123 1174,123.2656 Q1174.25,123.5156 1174.25,123.875 Q1174.25,124.2188 1173.9063,124.625 Q1173.4063,125.2188 1172.6094,125.5469 Q1171.5625,126 1170.2813,126 Q1168.7813,126 1167.5781,125.4063 Q1166.6094,124.9375 1165.9219,123.9219 Q1165.25,122.9063 1165.25,121.7031 L1165.25,120.6094 Q1165.25,119.3594 1165.8438,118.2656 Q1166.4531,117.1719 1167.5,116.5938 Q1168.5625,116 1169.75,116 Q1170.4688,116 1171.0938,116.25 Q1171.7188,116.5 1172.25,117 Z "/><text fill="#000000" font-family="sans-serif" font-size="12" lengthAdjust="spacingAndGlyphs" textLength="104" x="1190.75" y="125.4102">RegistryFreelancer</text><line style="stroke: #A80036; stroke-width: 1.5;" x1="1116" x2="1337" y1="136.5" y2="136.5"/><line style="stroke: #A80036; stroke-width: 1.5;" x1="1116" x2="1337" y1="144.5" y2="144.5"/><text fill="#000000" font-family="sans-serif" font-size="11" lengthAdjust="spacingAndGlyphs" textLength="134" x="1121" y="159.9189">+sendEndOfTheYearEmail()</text><text fill="#000000" font-family="sans-serif" font-size="11" lengthAdjust="spacingAndGlyphs" textLength="156" x="1121" y="173.7549">+getFreelancerWithHighDelays()</text><text fill="#000000" font-family="sans-serif" font-size="11" lengthAdjust="spacingAndGlyphs" textLength="177" x="1121" y="187.5908">+calculateSumDelayFreelancer(free)</text><text fill="#000000" font-family="sans-serif" font-size="11" lengthAdjust="spacingAndGlyphs" textLength="211" x="1121" y="201.4268">+calculatePercentageFreelancerDelay(free)</text><text fill="#000000" font-family="sans-serif" font-size="11" lengthAdjust="spacingAndGlyphs" textLength="153" x="1121" y="215.2627">+getAveragePercentageDelay()</text><text fill="#000000" font-family="sans-serif" font-size="11" lengthAdjust="spacingAndGlyphs" textLength="92" x="1121" y="229.0986">+generateHeader()</text><text fill="#000000" font-family="sans-serif" font-size="11" lengthAdjust="spacingAndGlyphs" textLength="94" x="1121" y="242.9346">+generateContent()</text><text fill="#000000" font-family="sans-serif" font-size="11" lengthAdjust="spacingAndGlyphs" textLength="130" x="1121" y="256.7705">+scheduleAutomaticEmail()</text><!--MD5=[e3a875142538c6ddd4d3b6a53b685876]
link Timer to EndYearEmailTask--><path d="M189.119,247 C208.448,247 229.245,247 248.515,247 " fill="none" id="Timer-&gt;EndYearEmailTask" style="stroke: #A80036; stroke-width: 1.0; stroke-dasharray: 7.0,7.0;"/><polygon fill="#A80036" points="253.907,247,244.907,243,248.907,247,244.907,251,253.907,247" style="stroke: #A80036; stroke-width: 1.0;"/><!--MD5=[b31a9ba5a661642e2f39b4c5206317cb]
link EndYearEmailTask to RegistryFreelancer--><path d="M382.235,298.5739 C403.632,312.6006 429.015,324 455,324 C455,324 455,324 1052,324 C1095.14,324 1133.61,297.4567 1163.29,267.4854 " fill="none" id="EndYearEmailTask-&gt;RegistryFreelancer" style="stroke: #A80036; stroke-width: 1.0; stroke-dasharray: 7.0,7.0;"/><polygon fill="#A80036" points="1166.87,263.8149,1157.7194,267.4571,1163.3758,267.3913,1163.4416,273.0478,1166.87,263.8149" style="stroke: #A80036; stroke-width: 1.0;"/><!--MD5=[e5db4191949bfa02e375b8ecd44810e7]
link EndYearEmailTask to Platform--><path d="M392.2,240.7882 C429.414,237.3987 475.523,233.1991 513.592,229.732 " fill="none" id="EndYearEmailTask-&gt;Platform" style="stroke: #A80036; stroke-width: 1.0; stroke-dasharray: 7.0,7.0;"/><polygon fill="#A80036" points="518.67,229.269,509.3447,226.1005,513.6905,229.7218,510.0692,234.0676,518.67,229.269" style="stroke: #A80036; stroke-width: 1.0;"/><!--MD5=[7593aad9273359562c0fc6d57e4c3194]
link Platform to RegistryFreelancer--><path d="M617.074,184.724 C640.626,156.865 677.258,124 719,124 C719,124 719,124 1052,124 C1071.25,124 1091.06,127.338 1110.12,132.44 " fill="none" id="Platform-&gt;RegistryFreelancer" style="stroke: #A80036; stroke-width: 1.0; stroke-dasharray: 7.0,7.0;"/><polygon fill="#A80036" points="1114.94,133.774,1107.327,127.5257,1110.1199,132.445,1105.2005,135.2379,1114.94,133.774" style="stroke: #A80036; stroke-width: 1.0;"/><!--MD5=[fcae52a1a22336ec25b13619cbfa8fc4]
link Platform to <<interface>>\nExternalEmailSender--><path d="M658.096,216.079 C693.578,212.498 737.367,208.08 775.673,204.215 " fill="none" id="Platform-&gt;&lt;&lt;interface&gt;&gt;\nExternalEmailSender" style="stroke: #A80036; stroke-width: 1.0; stroke-dasharray: 7.0,7.0;"/><polygon fill="#A80036" points="780.798,203.698,771.4422,200.6208,775.8232,204.1995,772.2446,208.5805,780.798,203.698" style="stroke: #A80036; stroke-width: 1.0;"/><!--MD5=[22697d4d863c2e08ab1d60ca0d61f844]
link Platform to Freelancer--><path d="M658.136,232.416 C694.603,237.3032 740.205,243.2325 781,248 C1037.87,278.0187 1105.91,316.0127 1362,280 C1385.06,276.7579 1409.91,270.1322 1430.88,263.5837 " fill="none" id="Platform-&gt;Freelancer" style="stroke: #A80036; stroke-width: 1.0;"/><polygon fill="#A80036" points="1435.84,262.012,1426.0544,260.8979,1431.0706,263.5128,1428.4557,268.529,1435.84,262.012" style="stroke: #A80036; stroke-width: 1.0;"/><text fill="#000000" font-family="sans-serif" font-size="13" lengthAdjust="spacingAndGlyphs" textLength="21" x="986" y="273.4951">has</text><polygon fill="#000000" points="1010,266.6758,1016,269.6758,1010,272.6758,1010,266.6758" style="stroke: #000000; stroke-width: 1.0;"/><text fill="#000000" font-family="sans-serif" font-size="13" lengthAdjust="spacingAndGlyphs" textLength="7" x="666.1352" y="247.8532">1</text><text fill="#000000" font-family="sans-serif" font-size="13" lengthAdjust="spacingAndGlyphs" textLength="5" x="1422.8635" y="279.5268">*</text><!--MD5=[ab595ec00e090f026d2027f19023e848]
link RegistryFreelancer to Freelancer--><path d="M1338.1,211.104 C1370.52,219.049 1404.36,227.341 1430.91,233.8471 " fill="none" id="RegistryFreelancer-&gt;Freelancer" style="stroke: #A80036; stroke-width: 1.0;"/><polygon fill="#A80036" points="1435.78,235.0407,1427.9857,229.02,1430.9227,233.8547,1426.088,236.7917,1435.78,235.0407" style="stroke: #A80036; stroke-width: 1.0;"/><text fill="#000000" font-family="sans-serif" font-size="13" lengthAdjust="spacingAndGlyphs" textLength="21" x="1371" y="217.4951">has</text><polygon fill="#000000" points="1395,210.6758,1401,213.6758,1395,216.6758,1395,210.6758" style="stroke: #000000; stroke-width: 1.0;"/><!--MD5=[7fdec12f47a272c1ddece034321cd482]
link <<interface>>\nExternalEmailSender to RegistryFreelancer--><path d="M955.299,192.337 C1001.619,190.908 1059.35,189.127 1109.54,187.578 " fill="none" id="&lt;&lt;interface&gt;&gt;\nExternalEmailSender-&gt;RegistryFreelancer" style="stroke: #A80036; stroke-width: 1.0; stroke-dasharray: 7.0,7.0;"/><polygon fill="#A80036" points="1114.68,187.419,1105.5588,183.7038,1109.6825,187.5761,1105.8101,191.6998,1114.68,187.419" style="stroke: #A80036; stroke-width: 1.0;"/><!--MD5=[7d9b02b61e1d95cad0ec34132dca7ef4]
@startuml

skinparam classAttributeIconSize 0
left to right direction
package java{
class Timer {
  +Timer()
  +schedule(task,definedDate)
}
}
package controller {
class EndYearEmailTask{
+EndYearEmailTask()
+run()
+sendEmails()
+scheduleNextTimer()
}
}
package model {
class Platform {
  +getExternalEmailSender()
  +getRegistryFreelancer()
}
package RegistryClasses{
class RegistryFreelancer{
+sendEndOfTheYearEmail()
+getFreelancerWithHighDelays()
+calculateSumDelayFreelancer(free)
+calculatePercentageFreelancerDelay(free)
+getAveragePercentageDelay()
+generateHeader()
+generateContent()
+scheduleAutomaticEmail()
}
}
class Freelancer{
+getEmail()
}

interface "<<interface>>\nExternalEmailSender" {
  +sendEmail(email,header,content)
}

Timer ..> EndYearEmailTask
EndYearEmailTask ...> RegistryFreelancer
EndYearEmailTask ...> Platform
Platform ...> RegistryFreelancer

Platform...> "<<interface>>\nExternalEmailSender"
Platform"1" - -> "*"Freelancer : has >
RegistryFreelancer - -> Freelancer : has >
"<<interface>>\nExternalEmailSender" ...> RegistryFreelancer
@enduml

PlantUML version 1.2020.09(Sun May 10 11:51:06 BST 2020)
(GPL source distribution)
Java Runtime: OpenJDK Runtime Environment
JVM: OpenJDK 64-Bit Server VM
Java Version: 11.0.7+10-b765.53
Operating System: Windows 10
Default Encoding: Cp1252
Language: pt
Country: PT
--></g></svg>