<?xml version="1.0" encoding="UTF-8" standalone="no"?><svg xmlns="http://www.w3.org/2000/svg" xmlns:xlink="http://www.w3.org/1999/xlink" contentScriptType="application/ecmascript" contentStyleType="text/css" height="303px" preserveAspectRatio="none" style="width:189px;height:303px;" version="1.1" viewBox="0 0 189 303" width="189px" zoomAndPan="magnify"><defs><filter height="300%" id="f1pps0ewc5hdl9" width="300%" x="-1" y="-1"><feGaussianBlur result="blurOut" stdDeviation="2.0"/><feColorMatrix in="blurOut" result="blurOut2" type="matrix" values="0 0 0 0 0 0 0 0 0 0 0 0 0 0 0 0 0 0 .4 0"/><feOffset dx="4.0" dy="4.0" in="blurOut2" result="blurOut3"/><feBlend in="SourceGraphic" in2="blurOut3" mode="normal"/></filter></defs><g><!--MD5=[1f687b5315377fe49fca59b457947463]
class Freelancer--><rect fill="#FEFECE" filter="url(#f1pps0ewc5hdl9)" height="158.6875" id="Freelancer" style="stroke: #A80036; stroke-width: 1.5;" width="172" x="6" y="134"/><ellipse cx="58.25" cy="150" fill="#ADD1B2" rx="11" ry="11" style="stroke: #A80036; stroke-width: 1.0;"/><path d="M60.25,146.5 Q60.4531,146 60.6875,145.75 Q60.9219,145.5 61.1875,145.5 Q61.6563,145.5 61.9531,145.7813 Q62.25,146.0625 62.25,146.7188 L62.25,148.2813 Q62.25,148.9375 61.9688,149.2188 Q61.6875,149.5 61.25,149.5 Q60.8594,149.5 60.6094,149.3281 Q60.3594,149.1563 60.25,148.7031 Q60.2031,148.3906 60.0313,148.2188 Q59.7188,147.8906 59.1563,147.7031 Q58.5938,147.5 58.0313,147.5 Q57.3281,147.5 56.7344,147.7813 Q56.1563,148.0625 55.7031,148.6875 Q55.25,149.3125 55.25,150.1719 L55.25,151.0938 Q55.25,152.125 56.0938,152.8125 Q56.9375,153.5 58.4375,153.5 Q59.3281,153.5 59.9531,153.2969 Q60.3125,153.1875 60.7188,152.8281 Q60.9844,152.625 61.125,152.5625 Q61.2656,152.5 61.4375,152.5 Q61.7656,152.5 62,152.7656 Q62.25,153.0156 62.25,153.375 Q62.25,153.7188 61.9063,154.125 Q61.4063,154.7188 60.6094,155.0469 Q59.5625,155.5 58.2813,155.5 Q56.7813,155.5 55.5781,154.9063 Q54.6094,154.4375 53.9219,153.4219 Q53.25,152.4063 53.25,151.2031 L53.25,150.1094 Q53.25,148.8594 53.8438,147.7656 Q54.4531,146.6719 55.5,146.0938 Q56.5625,145.5 57.75,145.5 Q58.4688,145.5 59.0938,145.75 Q59.7188,146 60.25,146.5 Z "/><text fill="#000000" font-family="sans-serif" font-size="12" lengthAdjust="spacingAndGlyphs" textLength="59" x="78.75" y="154.9102">Freelancer</text><line style="stroke: #A80036; stroke-width: 1.5;" x1="7" x2="177" y1="166" y2="166"/><rect fill="none" height="6" style="stroke: #C82930; stroke-width: 1.0;" width="6" x="14" y="174"/><text fill="#000000" font-family="sans-serif" font-size="11" lengthAdjust="spacingAndGlyphs" textLength="91" x="26" y="181.4189">String idFreelancer</text><rect fill="none" height="6" style="stroke: #C82930; stroke-width: 1.0;" width="6" x="14" y="187.8359"/><text fill="#000000" font-family="sans-serif" font-size="11" lengthAdjust="spacingAndGlyphs" textLength="108" x="26" y="195.2549">String freelancerName</text><rect fill="none" height="6" style="stroke: #C82930; stroke-width: 1.0;" width="6" x="14" y="201.6719"/><text fill="#000000" font-family="sans-serif" font-size="11" lengthAdjust="spacingAndGlyphs" textLength="126" x="26" y="209.0908">String freelancerExpertise</text><rect fill="none" height="6" style="stroke: #C82930; stroke-width: 1.0;" width="6" x="14" y="215.5078"/><text fill="#000000" font-family="sans-serif" font-size="11" lengthAdjust="spacingAndGlyphs" textLength="105" x="26" y="222.9268">String freelancerEmail</text><rect fill="none" height="6" style="stroke: #C82930; stroke-width: 1.0;" width="6" x="14" y="229.3438"/><text fill="#000000" font-family="sans-serif" font-size="11" lengthAdjust="spacingAndGlyphs" textLength="96" x="26" y="236.7627">String freelancerNIF</text><rect fill="none" height="6" style="stroke: #C82930; stroke-width: 1.0;" width="6" x="14" y="243.1797"/><text fill="#000000" font-family="sans-serif" font-size="11" lengthAdjust="spacingAndGlyphs" textLength="146" x="26" y="250.5986">String freelancerBankAccount</text><rect fill="none" height="6" style="stroke: #C82930; stroke-width: 1.0;" width="6" x="14" y="257.0156"/><text fill="#000000" font-family="sans-serif" font-size="11" lengthAdjust="spacingAndGlyphs" textLength="123" x="26" y="264.4346">String freelancerAddress</text><rect fill="none" height="6" style="stroke: #C82930; stroke-width: 1.0;" width="6" x="14" y="270.8516"/><text fill="#000000" font-family="sans-serif" font-size="11" lengthAdjust="spacingAndGlyphs" textLength="119" x="26" y="278.2705">String freelancerCountry</text><line style="stroke: #A80036; stroke-width: 1.5;" x1="7" x2="177" y1="284.6875" y2="284.6875"/><!--MD5=[7c8846fd7dc3143484153b44582f7f3a]
class externalEmailSender--><rect fill="#FEFECE" filter="url(#f1pps0ewc5hdl9)" height="48" id="externalEmailSender" style="stroke: #A80036; stroke-width: 1.5;" width="147" x="18.5" y="8"/><ellipse cx="33.5" cy="24" fill="#ADD1B2" rx="11" ry="11" style="stroke: #A80036; stroke-width: 1.0;"/><path d="M35.5,20.5 Q35.7031,20 35.9375,19.75 Q36.1719,19.5 36.4375,19.5 Q36.9063,19.5 37.2031,19.7813 Q37.5,20.0625 37.5,20.7188 L37.5,22.2813 Q37.5,22.9375 37.2188,23.2188 Q36.9375,23.5 36.5,23.5 Q36.1094,23.5 35.8594,23.3281 Q35.6094,23.1563 35.5,22.7031 Q35.4531,22.3906 35.2813,22.2188 Q34.9688,21.8906 34.4063,21.7031 Q33.8438,21.5 33.2813,21.5 Q32.5781,21.5 31.9844,21.7813 Q31.4063,22.0625 30.9531,22.6875 Q30.5,23.3125 30.5,24.1719 L30.5,25.0938 Q30.5,26.125 31.3438,26.8125 Q32.1875,27.5 33.6875,27.5 Q34.5781,27.5 35.2031,27.2969 Q35.5625,27.1875 35.9688,26.8281 Q36.2344,26.625 36.375,26.5625 Q36.5156,26.5 36.6875,26.5 Q37.0156,26.5 37.25,26.7656 Q37.5,27.0156 37.5,27.375 Q37.5,27.7188 37.1563,28.125 Q36.6563,28.7188 35.8594,29.0469 Q34.8125,29.5 33.5313,29.5 Q32.0313,29.5 30.8281,28.9063 Q29.8594,28.4375 29.1719,27.4219 Q28.5,26.4063 28.5,25.2031 L28.5,24.1094 Q28.5,22.8594 29.0938,21.7656 Q29.7031,20.6719 30.75,20.0938 Q31.8125,19.5 33,19.5 Q33.7188,19.5 34.3438,19.75 Q34.9688,20 35.5,20.5 Z "/><text fill="#000000" font-family="sans-serif" font-size="12" lengthAdjust="spacingAndGlyphs" textLength="115" x="47.5" y="28.9102">externalEmailSender</text><line style="stroke: #A80036; stroke-width: 1.5;" x1="19.5" x2="164.5" y1="40" y2="40"/><line style="stroke: #A80036; stroke-width: 1.5;" x1="19.5" x2="164.5" y1="48" y2="48"/><!--MD5=[06928cdde7505c7c0686fb064f9373e9]
link externalEmailSender to Freelancer--><path d="M92,56.099 C92,74.652 92,101.91 92,128.493 " fill="none" id="externalEmailSender-&gt;Freelancer" style="stroke: #A80036; stroke-width: 1.0;"/><polygon fill="#A80036" points="92,133.798,96,124.798,92,128.798,88,124.798,92,133.798" style="stroke: #A80036; stroke-width: 1.0;"/><text fill="#000000" font-family="sans-serif" font-size="13" lengthAdjust="spacingAndGlyphs" textLength="49" x="93" y="100.4951">gets info</text><polygon fill="#000000" points="113,109.3516,116,115.3516,119,109.3516,113,109.3516" style="stroke: #000000; stroke-width: 1.0;"/><text fill="#000000" font-family="sans-serif" font-size="13" lengthAdjust="spacingAndGlyphs" textLength="7" x="84.1469" y="77.4611">1</text><text fill="#000000" font-family="sans-serif" font-size="13" lengthAdjust="spacingAndGlyphs" textLength="7" x="84.6773" y="123.2387">1</text><!--MD5=[36eee8fa83badbbd9a33e0f3c6d77c8e]
@startuml

class Freelancer {
-String idFreelancer
-String freelancerName
-String freelancerExpertise
-String freelancerEmail
-String freelancerNIF
-String freelancerBankAccount
-String freelancerAddress
-String freelancerCountry
}




class externalEmailSender



externalEmailSender"1" - -> "1"Freelancer : gets info >



@enduml

PlantUML version 1.2020.07(Sun Apr 19 12:42:40 BST 2020)
(GPL source distribution)
Java Runtime: OpenJDK Runtime Environment
JVM: OpenJDK 64-Bit Server VM
Java Version: 11.0.6+8-b765.25
Operating System: Windows 10
Default Encoding: Cp1252
Language: pt
Country: PT
--></g></svg>