<?xml version="1.0" encoding="UTF-8" standalone="no"?><svg xmlns="http://www.w3.org/2000/svg" xmlns:xlink="http://www.w3.org/1999/xlink" contentScriptType="application/ecmascript" contentStyleType="text/css" height="256px" preserveAspectRatio="none" style="width:413px;height:256px;" version="1.1" viewBox="0 0 413 256" width="413px" zoomAndPan="magnify"><defs><filter height="300%" id="fpxwpk67gtlsn" width="300%" x="-1" y="-1"><feGaussianBlur result="blurOut" stdDeviation="2.0"/><feColorMatrix in="blurOut" result="blurOut2" type="matrix" values="0 0 0 0 0 0 0 0 0 0 0 0 0 0 0 0 0 0 .4 0"/><feOffset dx="4.0" dy="4.0" in="blurOut2" result="blurOut3"/><feBlend in="SourceGraphic" in2="blurOut3" mode="normal"/></filter></defs><g><rect fill="#FFFFFF" filter="url(#fpxwpk67gtlsn)" height="61.7031" style="stroke: #A80036; stroke-width: 1.0;" width="10" x="24" y="97.6094"/><rect fill="#FFFFFF" filter="url(#fpxwpk67gtlsn)" height="61.7031" style="stroke: #A80036; stroke-width: 1.0;" width="10" x="369" y="97.6094"/><line style="stroke: #A80036; stroke-width: 1.0; stroke-dasharray: 5.0,5.0;" x1="29" x2="29" y1="87.6094" y2="168.3125"/><line style="stroke: #A80036; stroke-width: 1.0; stroke-dasharray: 5.0,5.0;" x1="374" x2="374" y1="87.6094" y2="168.3125"/><text fill="#000000" font-family="sans-serif" font-size="14" lengthAdjust="spacingAndGlyphs" textLength="36" x="8" y="84.5332">Timer</text><ellipse cx="29" cy="13" fill="#FEFECE" filter="url(#fpxwpk67gtlsn)" rx="8" ry="8" style="stroke: #A80036; stroke-width: 2.0;"/><path d="M29,21 L29,48 M16,29 L42,29 M29,48 L16,63 M29,48 L42,63 " fill="none" filter="url(#fpxwpk67gtlsn)" style="stroke: #A80036; stroke-width: 2.0;"/><text fill="#000000" font-family="sans-serif" font-size="14" lengthAdjust="spacingAndGlyphs" textLength="36" x="8" y="181.8457">Timer</text><ellipse cx="29" cy="194.9219" fill="#FEFECE" filter="url(#fpxwpk67gtlsn)" rx="8" ry="8" style="stroke: #A80036; stroke-width: 2.0;"/><path d="M29,202.9219 L29,229.9219 M16,210.9219 L42,210.9219 M29,229.9219 L16,244.9219 M29,229.9219 L42,244.9219 " fill="none" filter="url(#fpxwpk67gtlsn)" style="stroke: #A80036; stroke-width: 2.0;"/><rect fill="#FEFECE" filter="url(#fpxwpk67gtlsn)" height="31.6094" style="stroke: #A80036; stroke-width: 1.5;" width="60" x="342" y="51"/><text fill="#000000" font-family="sans-serif" font-size="14" lengthAdjust="spacingAndGlyphs" textLength="46" x="349" y="72.5332">System</text><rect fill="#FEFECE" filter="url(#fpxwpk67gtlsn)" height="31.6094" style="stroke: #A80036; stroke-width: 1.5;" width="60" x="342" y="167.3125"/><text fill="#000000" font-family="sans-serif" font-size="14" lengthAdjust="spacingAndGlyphs" textLength="46" x="349" y="188.8457">System</text><rect fill="#FFFFFF" filter="url(#fpxwpk67gtlsn)" height="61.7031" style="stroke: #A80036; stroke-width: 1.0;" width="10" x="24" y="97.6094"/><rect fill="#FFFFFF" filter="url(#fpxwpk67gtlsn)" height="61.7031" style="stroke: #A80036; stroke-width: 1.0;" width="10" x="369" y="97.6094"/><polygon fill="#A80036" points="357,115.9609,367,119.9609,357,123.9609,361,119.9609" style="stroke: #A80036; stroke-width: 1.0;"/><line style="stroke: #A80036; stroke-width: 1.0;" x1="34" x2="363" y1="119.9609" y2="119.9609"/><text fill="#000000" font-family="sans-serif" font-size="13" lengthAdjust="spacingAndGlyphs" textLength="173" x="41" y="115.1045">Begins the automatic process</text><polygon fill="#A80036" points="45,146.3125,35,150.3125,45,154.3125,41,150.3125" style="stroke: #A80036; stroke-width: 1.0;"/><line style="stroke: #A80036; stroke-width: 1.0; stroke-dasharray: 2.0,2.0;" x1="39" x2="368" y1="150.3125" y2="150.3125"/><text fill="#000000" font-family="sans-serif" font-size="13" lengthAdjust="spacingAndGlyphs" textLength="311" x="51" y="145.4561">Sends all the necessary emails and ends the process</text><!--MD5=[e456819fafe4be622b440f3394aab058]
@startuml

actor "Timer" as Timer
activate Timer
activate "System"
Timer -> System : Begins the automatic process
System - -> Timer : Sends all the necessary emails and ends the process


@enduml

PlantUML version 1.2020.07(Sun Apr 19 12:42:40 BST 2020)
(GPL source distribution)
Java Runtime: OpenJDK Runtime Environment
JVM: OpenJDK 64-Bit Server VM
Java Version: 11.0.6+8-b765.25
Operating System: Windows 10
Default Encoding: Cp1252
Language: pt
Country: PT
--></g></svg>